<?xml version="1.0" encoding="UTF-8" standalone="no"?>
<!DOCTYPE svg PUBLIC "-//W3C//DTD SVG 1.1//EN"
 "http://www.w3.org/Graphics/SVG/1.1/DTD/svg11.dtd">
<!-- Generated by graphviz version 2.40.1 (20161225.0304)
 -->
<!-- Title: dependencies Pages: 1 -->
<svg width="668pt" height="284pt"
 viewBox="0.00 0.00 668.00 284.00" xmlns="http://www.w3.org/2000/svg" xmlns:xlink="http://www.w3.org/1999/xlink">
<g id="graph0" class="graph" transform="scale(1 1) rotate(0) translate(4 280)">
<title>dependencies</title>
<polygon fill="#ffffff" stroke="transparent" points="-4,4 -4,-280 664,-280 664,4 -4,4"/>
<text text-anchor="start" x="309.0091" y="-42.4" font-family="sans-serif" font-weight="bold" font-size="14.00" fill="#000000">Legend</text>
<polygon fill="#ffffb3" stroke="transparent" points="96,-10 96,-30 116,-30 116,-10 96,-10"/>
<text text-anchor="start" x="119.629" y="-15.4" font-family="sans-serif" font-size="14.00" fill="#000000"> &#160;Declarations</text>
<polygon fill="#8dd3c7" stroke="transparent" points="209,-10 209,-30 229,-30 229,-10 209,-10"/>
<text text-anchor="start" x="232.7251" y="-15.4" font-family="sans-serif" font-size="14.00" fill="#000000"> &#160;Module</text>
<polygon fill="#80b1d3" stroke="transparent" points="295,-10 295,-30 315,-30 315,-10 295,-10"/>
<text text-anchor="start" x="318.7812" y="-15.4" font-family="sans-serif" font-size="14.00" fill="#000000"> &#160;Bootstrap</text>
<polygon fill="#fdb462" stroke="transparent" points="392,-10 392,-30 412,-30 412,-10 392,-10"/>
<text text-anchor="start" x="415.6732" y="-15.4" font-family="sans-serif" font-size="14.00" fill="#000000"> &#160;Providers</text>
<polygon fill="#fb8072" stroke="transparent" points="488,-10 488,-30 508,-30 508,-10 488,-10"/>
<text text-anchor="start" x="511.7258" y="-15.4" font-family="sans-serif" font-size="14.00" fill="#000000"> &#160;Exports</text>
<g id="clust1" class="cluster">
<title>cluster_StarkDialogsModule</title>
<polygon fill="none" stroke="#000000" stroke-dasharray="1,5" points="8,-70 8,-268 652,-268 652,-70 8,-70"/>
</g>
<g id="clust2" class="cluster">
<title>cluster_StarkDialogsModule_declarations</title>
<polygon fill="none" stroke="#000000" points="22,-78 22,-130 638,-130 638,-78 22,-78"/>
</g>
<g id="clust7" class="cluster">
<title>cluster_StarkDialogsModule_exports</title>
<polygon fill="none" stroke="#000000" points="16,-208 16,-260 644,-260 644,-208 16,-208"/>
</g>
<!-- StarkAlertDialogComponent -->
<g id="node1" class="node">
<title>StarkAlertDialogComponent</title>
<polygon fill="#ffffb3" stroke="#000000" points="629.7464,-122 452.2536,-122 452.2536,-86 629.7464,-86 629.7464,-122"/>
<text text-anchor="middle" x="541" y="-99.8" font-family="Times,serif" font-size="14.00" fill="#000000">StarkAlertDialogComponent</text>
</g>
<!-- StarkDialogsModule -->
<g id="node4" class="node">
<title>StarkDialogsModule</title>
<polygon fill="#8dd3c7" stroke="#000000" points="402.1457,-187 399.1457,-191 378.1457,-191 375.1457,-187 269.8543,-187 269.8543,-151 402.1457,-151 402.1457,-187"/>
<text text-anchor="middle" x="336" y="-164.8" font-family="Times,serif" font-size="14.00" fill="#000000">StarkDialogsModule</text>
</g>
<!-- StarkAlertDialogComponent&#45;&gt;StarkDialogsModule -->
<g id="edge1" class="edge">
<title>StarkAlertDialogComponent&#45;&gt;StarkDialogsModule</title>
<path fill="none" stroke="#000000" d="M571.3744,-122.0225C571.3744,-139.3734 571.3744,-163 571.3744,-163 571.3744,-163 412.1913,-163 412.1913,-163"/>
<polygon fill="#000000" stroke="#000000" points="412.1913,-159.5001 402.1913,-163 412.1912,-166.5001 412.1913,-159.5001"/>
</g>
<!-- StarkConfirmDialogComponent -->
<g id="node2" class="node">
<title>StarkConfirmDialogComponent</title>
<polygon fill="#ffffb3" stroke="#000000" points="434.4227,-122 237.5773,-122 237.5773,-86 434.4227,-86 434.4227,-122"/>
<text text-anchor="middle" x="336" y="-99.8" font-family="Times,serif" font-size="14.00" fill="#000000">StarkConfirmDialogComponent</text>
</g>
<!-- StarkConfirmDialogComponent&#45;&gt;StarkDialogsModule -->
<g id="edge2" class="edge">
<title>StarkConfirmDialogComponent&#45;&gt;StarkDialogsModule</title>
<path fill="none" stroke="#000000" d="M336,-122.1061C336,-122.1061 336,-140.991 336,-140.991"/>
<polygon fill="#000000" stroke="#000000" points="332.5001,-140.9909 336,-150.991 339.5001,-140.991 332.5001,-140.9909"/>
</g>
<!-- StarkPromptDialogComponent -->
<g id="node3" class="node">
<title>StarkPromptDialogComponent</title>
<polygon fill="#ffffb3" stroke="#000000" points="220.2077,-122 29.7923,-122 29.7923,-86 220.2077,-86 220.2077,-122"/>
<text text-anchor="middle" x="125" y="-99.8" font-family="Times,serif" font-size="14.00" fill="#000000">StarkPromptDialogComponent</text>
</g>
<!-- StarkPromptDialogComponent&#45;&gt;StarkDialogsModule -->
<g id="edge3" class="edge">
<title>StarkPromptDialogComponent&#45;&gt;StarkDialogsModule</title>
<path fill="none" stroke="#000000" d="M155.2013,-122.0225C155.2013,-139.3734 155.2013,-163 155.2013,-163 155.2013,-163 259.7039,-163 259.7039,-163"/>
<polygon fill="#000000" stroke="#000000" points="259.7039,-166.5001 269.7039,-163 259.7038,-159.5001 259.7039,-166.5001"/>
</g>
<!-- StarkAlertDialogComponent  -->
<g id="node5" class="node">
<title>StarkAlertDialogComponent </title>
<polygon fill="#fb8072" stroke="#000000" points="635.7464,-252 454.2536,-252 454.2536,-216 635.7464,-216 635.7464,-252"/>
<text text-anchor="middle" x="545" y="-229.8" font-family="Times,serif" font-size="14.00" fill="#000000">StarkAlertDialogComponent </text>
</g>
<!-- StarkDialogsModule&#45;&gt;StarkAlertDialogComponent  -->
<g id="edge4" class="edge">
<title>StarkDialogsModule&#45;&gt;StarkAlertDialogComponent </title>
<path fill="none" stroke="#000000" stroke-dasharray="5,2" d="M402.3652,-175C452.5544,-175 512.8756,-175 512.8756,-175 512.8756,-175 512.8756,-205.9775 512.8756,-205.9775"/>
<polygon fill="#000000" stroke="#000000" points="509.3757,-205.9774 512.8756,-215.9775 516.3757,-205.9775 509.3757,-205.9774"/>
</g>
<!-- StarkConfirmDialogComponent  -->
<g id="node6" class="node">
<title>StarkConfirmDialogComponent </title>
<polygon fill="#fb8072" stroke="#000000" points="435.9222,-252 236.0778,-252 236.0778,-216 435.9222,-216 435.9222,-252"/>
<text text-anchor="middle" x="336" y="-229.8" font-family="Times,serif" font-size="14.00" fill="#000000">StarkConfirmDialogComponent </text>
</g>
<!-- StarkDialogsModule&#45;&gt;StarkConfirmDialogComponent  -->
<g id="edge5" class="edge">
<title>StarkDialogsModule&#45;&gt;StarkConfirmDialogComponent </title>
<path fill="none" stroke="#000000" stroke-dasharray="5,2" d="M336,-187.1061C336,-187.1061 336,-205.991 336,-205.991"/>
<polygon fill="#000000" stroke="#000000" points="332.5001,-205.9909 336,-215.991 339.5001,-205.991 332.5001,-205.9909"/>
</g>
<!-- StarkPromptDialogComponent  -->
<g id="node7" class="node">
<title>StarkPromptDialogComponent </title>
<polygon fill="#fb8072" stroke="#000000" points="217.7078,-252 24.2922,-252 24.2922,-216 217.7078,-216 217.7078,-252"/>
<text text-anchor="middle" x="121" y="-229.8" font-family="Times,serif" font-size="14.00" fill="#000000">StarkPromptDialogComponent </text>
</g>
<!-- StarkDialogsModule&#45;&gt;StarkPromptDialogComponent  -->
<g id="edge6" class="edge">
<title>StarkDialogsModule&#45;&gt;StarkPromptDialogComponent </title>
<path fill="none" stroke="#000000" stroke-dasharray="5,2" d="M269.7974,-175C197.7067,-175 92.5487,-175 92.5487,-175 92.5487,-175 92.5487,-205.9775 92.5487,-205.9775"/>
<polygon fill="#000000" stroke="#000000" points="89.0488,-205.9774 92.5487,-215.9775 96.0488,-205.9775 89.0488,-205.9774"/>
</g>
</g>
</svg>
