<?xml version="1.0" encoding="UTF-8" standalone="no"?>
<!DOCTYPE svg PUBLIC "-//W3C//DTD SVG 1.1//EN"
 "http://www.w3.org/Graphics/SVG/1.1/DTD/svg11.dtd">
<!-- Generated by graphviz version 2.46.0 (20210119.1425)
 -->
<!-- Title: dependencies Pages: 1 -->
<svg width="504pt" height="284pt"
 viewBox="0.00 0.00 504.00 284.00" xmlns="http://www.w3.org/2000/svg" xmlns:xlink="http://www.w3.org/1999/xlink">
<g id="graph0" class="graph" transform="scale(1 1) rotate(0) translate(4 280)">
<title>dependencies</title>
<polygon fill="white" stroke="transparent" points="-4,4 -4,-280 500,-280 500,4 -4,4"/>
<text text-anchor="start" x="227.01" y="-42.4" font-family="sans-serif" font-weight="bold" font-size="14.00">Legend</text>
<polygon fill="#ffffb3" stroke="transparent" points="14,-10 14,-30 34,-30 34,-10 14,-10"/>
<text text-anchor="start" x="37.63" y="-15.4" font-family="sans-serif" font-size="14.00"> &#160;Declarations</text>
<polygon fill="#8dd3c7" stroke="transparent" points="127,-10 127,-30 147,-30 147,-10 127,-10"/>
<text text-anchor="start" x="150.73" y="-15.4" font-family="sans-serif" font-size="14.00"> &#160;Module</text>
<polygon fill="#80b1d3" stroke="transparent" points="213,-10 213,-30 233,-30 233,-10 213,-10"/>
<text text-anchor="start" x="236.78" y="-15.4" font-family="sans-serif" font-size="14.00"> &#160;Bootstrap</text>
<polygon fill="#fdb462" stroke="transparent" points="310,-10 310,-30 330,-30 330,-10 310,-10"/>
<text text-anchor="start" x="333.67" y="-15.4" font-family="sans-serif" font-size="14.00"> &#160;Providers</text>
<polygon fill="#fb8072" stroke="transparent" points="406,-10 406,-30 426,-30 426,-10 406,-10"/>
<text text-anchor="start" x="429.73" y="-15.4" font-family="sans-serif" font-size="14.00"> &#160;Exports</text>
<g id="clust25" class="cluster">
<title>cluster_StarkSessionModule</title>
<polygon fill="none" stroke="black" stroke-dasharray="1,5" points="135,-70 135,-268 361,-268 361,-70 135,-70"/>
</g>
<g id="clust26" class="cluster">
<title>cluster_StarkSessionModule_declarations</title>
<polygon fill="none" stroke="black" points="145,-78 145,-130 351,-130 351,-78 145,-78"/>
</g>
<g id="clust29" class="cluster">
<title>cluster_StarkSessionModule_exports</title>
<polygon fill="none" stroke="black" points="143,-208 143,-260 353,-260 353,-208 143,-208"/>
</g>
<!-- StarkAppContainerComponent -->
<g id="node1" class="node">
<title>StarkAppContainerComponent</title>
<polygon fill="#ffffb3" stroke="black" points="343.2,-122 152.8,-122 152.8,-86 343.2,-86 343.2,-122"/>
<text text-anchor="middle" x="248" y="-99.8" font-family="Times,serif" font-size="14.00">StarkAppContainerComponent</text>
</g>
<!-- StarkSessionModule -->
<g id="node2" class="node">
<title>StarkSessionModule</title>
<polygon fill="#8dd3c7" stroke="black" points="313.88,-187 310.88,-191 289.88,-191 286.88,-187 182.12,-187 182.12,-151 313.88,-151 313.88,-187"/>
<text text-anchor="middle" x="248" y="-164.8" font-family="Times,serif" font-size="14.00">StarkSessionModule</text>
</g>
<!-- StarkAppContainerComponent&#45;&gt;StarkSessionModule -->
<g id="edge1" class="edge">
<title>StarkAppContainerComponent&#45;&gt;StarkSessionModule</title>
<path fill="none" stroke="black" d="M248,-122.11C248,-122.11 248,-140.99 248,-140.99"/>
<polygon fill="black" stroke="black" points="244.5,-140.99 248,-150.99 251.5,-140.99 244.5,-140.99"/>
</g>
<!-- StarkAppContainerComponent  -->
<g id="node3" class="node">
<title>StarkAppContainerComponent </title>
<polygon fill="#fb8072" stroke="black" points="344.7,-252 151.3,-252 151.3,-216 344.7,-216 344.7,-252"/>
<text text-anchor="middle" x="248" y="-229.8" font-family="Times,serif" font-size="14.00">StarkAppContainerComponent </text>
</g>
<!-- StarkSessionModule&#45;&gt;StarkAppContainerComponent  -->
<g id="edge2" class="edge">
<title>StarkSessionModule&#45;&gt;StarkAppContainerComponent </title>
<path fill="none" stroke="black" stroke-dasharray="5,2" d="M248,-187.11C248,-187.11 248,-205.99 248,-205.99"/>
<polygon fill="black" stroke="black" points="244.5,-205.99 248,-215.99 251.5,-205.99 244.5,-205.99"/>
</g>
</g>
</svg>
