<?xml version="1.0" encoding="UTF-8" standalone="no"?>
<!DOCTYPE svg PUBLIC "-//W3C//DTD SVG 1.1//EN"
 "http://www.w3.org/Graphics/SVG/1.1/DTD/svg11.dtd">
<!-- Generated by graphviz version 2.47.0 (20210316.0004)
 -->
<!-- Title: dependencies Pages: 1 -->
<svg width="504pt" height="284pt"
 viewBox="0.00 0.00 504.00 284.00" xmlns="http://www.w3.org/2000/svg" xmlns:xlink="http://www.w3.org/1999/xlink">
<g id="graph0" class="graph" transform="scale(1 1) rotate(0) translate(4 280)">
<title>dependencies</title>
<polygon fill="white" stroke="transparent" points="-4,4 -4,-280 500,-280 500,4 -4,4"/>
<text text-anchor="start" x="227.01" y="-42.4" font-family="Times-12" font-weight="bold" font-size="14.00">Legend</text>
<polygon fill="#ffffb3" stroke="transparent" points="14,-10 14,-30 34,-30 34,-10 14,-10"/>
<text text-anchor="start" x="37.63" y="-15.4" font-family="Times-12" font-size="14.00"> &#160;Declarations</text>
<polygon fill="#8dd3c7" stroke="transparent" points="127,-10 127,-30 147,-30 147,-10 127,-10"/>
<text text-anchor="start" x="150.73" y="-15.4" font-family="Times-12" font-size="14.00"> &#160;Module</text>
<polygon fill="#80b1d3" stroke="transparent" points="213,-10 213,-30 233,-30 233,-10 213,-10"/>
<text text-anchor="start" x="236.78" y="-15.4" font-family="Times-12" font-size="14.00"> &#160;Bootstrap</text>
<polygon fill="#fdb462" stroke="transparent" points="310,-10 310,-30 330,-30 330,-10 310,-10"/>
<text text-anchor="start" x="333.67" y="-15.4" font-family="Times-12" font-size="14.00"> &#160;Providers</text>
<polygon fill="#fb8072" stroke="transparent" points="406,-10 406,-30 426,-30 426,-10 406,-10"/>
<text text-anchor="start" x="429.73" y="-15.4" font-family="Times-12" font-size="14.00"> &#160;Exports</text>
<g id="clust1" class="cluster">
<title>cluster_StarkLanguageSelectorModule</title>
<polygon fill="none" stroke="black" stroke-dasharray="1,5" points="40,-70 40,-268 456,-268 456,-70 40,-70"/>
</g>
<g id="clust4" class="cluster">
<title>cluster_StarkLanguageSelectorModule_imports</title>
<polygon fill="none" stroke="black" points="284,-78 284,-130 448,-130 448,-78 284,-78"/>
</g>
<g id="clust5" class="cluster">
<title>cluster_StarkLanguageSelectorModule_exports</title>
<polygon fill="none" stroke="black" points="132,-208 132,-260 364,-260 364,-208 132,-208"/>
</g>
<g id="clust2" class="cluster">
<title>cluster_StarkLanguageSelectorModule_declarations</title>
<polygon fill="none" stroke="black" points="48,-78 48,-130 276,-130 276,-78 48,-78"/>
</g>
<!-- StarkLanguageSelectorComponent -->
<g id="node1" class="node">
<title>StarkLanguageSelectorComponent</title>
<polygon fill="#ffffb3" stroke="black" points="267.95,-122 56.05,-122 56.05,-86 267.95,-86 267.95,-122"/>
<text text-anchor="middle" x="162" y="-99.8" font-family="Times,serif" font-size="14.00">StarkLanguageSelectorComponent</text>
</g>
<!-- StarkLanguageSelectorModule -->
<g id="node2" class="node">
<title>StarkLanguageSelectorModule</title>
<polygon fill="#8dd3c7" stroke="black" points="343.16,-187 340.16,-191 319.16,-191 316.16,-187 152.84,-187 152.84,-151 343.16,-151 343.16,-187"/>
<text text-anchor="middle" x="248" y="-164.8" font-family="Times,serif" font-size="14.00">StarkLanguageSelectorModule</text>
</g>
<!-- StarkLanguageSelectorComponent&#45;&gt;StarkLanguageSelectorModule -->
<g id="edge1" class="edge">
<title>StarkLanguageSelectorComponent&#45;&gt;StarkLanguageSelectorModule</title>
<path fill="none" stroke="black" d="M210.45,-122.11C210.45,-122.11 210.45,-140.99 210.45,-140.99"/>
<polygon fill="black" stroke="black" points="206.95,-140.99 210.45,-150.99 213.95,-140.99 206.95,-140.99"/>
</g>
<!-- StarkLanguageSelectorComponent  -->
<g id="node4" class="node">
<title>StarkLanguageSelectorComponent </title>
<polygon fill="#fb8072" stroke="black" points="355.95,-252 140.05,-252 140.05,-216 355.95,-216 355.95,-252"/>
<text text-anchor="middle" x="248" y="-229.8" font-family="Times,serif" font-size="14.00">StarkLanguageSelectorComponent </text>
</g>
<!-- StarkLanguageSelectorModule&#45;&gt;StarkLanguageSelectorComponent  -->
<g id="edge3" class="edge">
<title>StarkLanguageSelectorModule&#45;&gt;StarkLanguageSelectorComponent </title>
<path fill="none" stroke="black" stroke-dasharray="5,2" d="M248,-187.11C248,-187.11 248,-205.99 248,-205.99"/>
<polygon fill="black" stroke="black" points="244.5,-205.99 248,-215.99 251.5,-205.99 244.5,-205.99"/>
</g>
<!-- StarkDropdownModule -->
<g id="node3" class="node">
<title>StarkDropdownModule</title>
<polygon fill="#8dd3c7" stroke="black" points="440.47,-122 437.47,-126 416.47,-126 413.47,-122 291.53,-122 291.53,-86 440.47,-86 440.47,-122"/>
<text text-anchor="middle" x="366" y="-99.8" font-family="Times,serif" font-size="14.00">StarkDropdownModule</text>
</g>
<!-- StarkDropdownModule&#45;&gt;StarkLanguageSelectorModule -->
<g id="edge2" class="edge">
<title>StarkDropdownModule&#45;&gt;StarkLanguageSelectorModule</title>
<path fill="none" stroke="black" d="M317.3,-122.11C317.3,-122.11 317.3,-140.99 317.3,-140.99"/>
<polygon fill="black" stroke="black" points="313.8,-140.99 317.3,-150.99 320.8,-140.99 313.8,-140.99"/>
</g>
</g>
</svg>
