<?xml version="1.0" encoding="UTF-8" standalone="no"?>
<!DOCTYPE svg PUBLIC "-//W3C//DTD SVG 1.1//EN"
 "http://www.w3.org/Graphics/SVG/1.1/DTD/svg11.dtd">
<!-- Generated by graphviz version 2.46.0 (20210119.1425)
 -->
<!-- Title: dependencies Pages: 1 -->
<svg width="808pt" height="284pt"
 viewBox="0.00 0.00 808.00 284.00" xmlns="http://www.w3.org/2000/svg" xmlns:xlink="http://www.w3.org/1999/xlink">
<g id="graph0" class="graph" transform="scale(1 1) rotate(0) translate(4 280)">
<title>dependencies</title>
<polygon fill="white" stroke="transparent" points="-4,4 -4,-280 804,-280 804,4 -4,4"/>
<text text-anchor="start" x="379.01" y="-42.4" font-family="sans-serif" font-weight="bold" font-size="14.00">Legend</text>
<polygon fill="#ffffb3" stroke="transparent" points="166,-10 166,-30 186,-30 186,-10 166,-10"/>
<text text-anchor="start" x="189.63" y="-15.4" font-family="sans-serif" font-size="14.00"> &#160;Declarations</text>
<polygon fill="#8dd3c7" stroke="transparent" points="279,-10 279,-30 299,-30 299,-10 279,-10"/>
<text text-anchor="start" x="302.73" y="-15.4" font-family="sans-serif" font-size="14.00"> &#160;Module</text>
<polygon fill="#80b1d3" stroke="transparent" points="365,-10 365,-30 385,-30 385,-10 365,-10"/>
<text text-anchor="start" x="388.78" y="-15.4" font-family="sans-serif" font-size="14.00"> &#160;Bootstrap</text>
<polygon fill="#fdb462" stroke="transparent" points="462,-10 462,-30 482,-30 482,-10 462,-10"/>
<text text-anchor="start" x="485.67" y="-15.4" font-family="sans-serif" font-size="14.00"> &#160;Providers</text>
<polygon fill="#fb8072" stroke="transparent" points="558,-10 558,-30 578,-30 578,-10 558,-10"/>
<text text-anchor="start" x="581.73" y="-15.4" font-family="sans-serif" font-size="14.00"> &#160;Exports</text>
<g id="clust1" class="cluster">
<title>cluster_StarkInputMaskDirectivesModule</title>
<polygon fill="none" stroke="black" stroke-dasharray="1,5" points="8,-70 8,-268 792,-268 792,-70 8,-70"/>
</g>
<g id="clust2" class="cluster">
<title>cluster_StarkInputMaskDirectivesModule_declarations</title>
<polygon fill="none" stroke="black" points="25,-78 25,-130 778,-130 778,-78 25,-78"/>
</g>
<g id="clust8" class="cluster">
<title>cluster_StarkInputMaskDirectivesModule_exports</title>
<polygon fill="none" stroke="black" points="16,-208 16,-260 784,-260 784,-208 16,-208"/>
</g>
<!-- StarkEmailMaskDirective -->
<g id="node1" class="node">
<title>StarkEmailMaskDirective</title>
<polygon fill="#ffffb3" stroke="black" points="770.17,-122 607.83,-122 607.83,-86 770.17,-86 770.17,-122"/>
<text text-anchor="middle" x="689" y="-99.8" font-family="Times,serif" font-size="14.00">StarkEmailMaskDirective</text>
</g>
<!-- StarkInputMaskDirectivesModule -->
<g id="node5" class="node">
<title>StarkInputMaskDirectivesModule</title>
<polygon fill="#8dd3c7" stroke="black" points="426.78,-187 423.78,-191 402.78,-191 399.78,-187 219.22,-187 219.22,-151 426.78,-151 426.78,-187"/>
<text text-anchor="middle" x="323" y="-164.8" font-family="Times,serif" font-size="14.00">StarkInputMaskDirectivesModule</text>
</g>
<!-- StarkEmailMaskDirective&#45;&gt;StarkInputMaskDirectivesModule -->
<g id="edge1" class="edge">
<title>StarkEmailMaskDirective&#45;&gt;StarkInputMaskDirectivesModule</title>
<path fill="none" stroke="black" d="M716.78,-122.02C716.78,-139.37 716.78,-163 716.78,-163 716.78,-163 436.72,-163 436.72,-163"/>
<polygon fill="black" stroke="black" points="436.72,-159.5 426.72,-163 436.72,-166.5 436.72,-159.5"/>
</g>
<!-- StarkNumberMaskDirective -->
<g id="node2" class="node">
<title>StarkNumberMaskDirective</title>
<polygon fill="#ffffb3" stroke="black" points="590.11,-122 415.89,-122 415.89,-86 590.11,-86 590.11,-122"/>
<text text-anchor="middle" x="503" y="-99.8" font-family="Times,serif" font-size="14.00">StarkNumberMaskDirective</text>
</g>
<!-- StarkNumberMaskDirective&#45;&gt;StarkInputMaskDirectivesModule -->
<g id="edge2" class="edge">
<title>StarkNumberMaskDirective&#45;&gt;StarkInputMaskDirectivesModule</title>
<path fill="none" stroke="black" d="M421.17,-122.11C421.17,-122.11 421.17,-140.99 421.17,-140.99"/>
<polygon fill="black" stroke="black" points="417.67,-140.99 421.17,-150.99 424.67,-140.99 417.67,-140.99"/>
</g>
<!-- StarkTextMaskDirective -->
<g id="node3" class="node">
<title>StarkTextMaskDirective</title>
<polygon fill="#ffffb3" stroke="black" points="397.39,-122 242.61,-122 242.61,-86 397.39,-86 397.39,-122"/>
<text text-anchor="middle" x="320" y="-99.8" font-family="Times,serif" font-size="14.00">StarkTextMaskDirective</text>
</g>
<!-- StarkTextMaskDirective&#45;&gt;StarkInputMaskDirectivesModule -->
<g id="edge3" class="edge">
<title>StarkTextMaskDirective&#45;&gt;StarkInputMaskDirectivesModule</title>
<path fill="none" stroke="black" d="M320,-122.11C320,-122.11 320,-140.99 320,-140.99"/>
<polygon fill="black" stroke="black" points="316.5,-140.99 320,-150.99 323.5,-140.99 316.5,-140.99"/>
</g>
<!-- StarkTimestampMaskDirective -->
<g id="node4" class="node">
<title>StarkTimestampMaskDirective</title>
<polygon fill="#ffffb3" stroke="black" points="224.72,-122 33.28,-122 33.28,-86 224.72,-86 224.72,-122"/>
<text text-anchor="middle" x="129" y="-99.8" font-family="Times,serif" font-size="14.00">StarkTimestampMaskDirective</text>
</g>
<!-- StarkTimestampMaskDirective&#45;&gt;StarkInputMaskDirectivesModule -->
<g id="edge4" class="edge">
<title>StarkTimestampMaskDirective&#45;&gt;StarkInputMaskDirectivesModule</title>
<path fill="none" stroke="black" d="M224.89,-104C230.45,-104 233.83,-104 233.83,-104 233.83,-104 233.83,-140.89 233.83,-140.89"/>
<polygon fill="black" stroke="black" points="230.33,-140.89 233.83,-150.89 237.33,-140.89 230.33,-140.89"/>
</g>
<!-- StarkEmailMaskDirective  -->
<g id="node6" class="node">
<title>StarkEmailMaskDirective </title>
<polygon fill="#fb8072" stroke="black" points="775.67,-252 610.33,-252 610.33,-216 775.67,-216 775.67,-252"/>
<text text-anchor="middle" x="693" y="-229.8" font-family="Times,serif" font-size="14.00">StarkEmailMaskDirective </text>
</g>
<!-- StarkInputMaskDirectivesModule&#45;&gt;StarkEmailMaskDirective  -->
<g id="edge5" class="edge">
<title>StarkInputMaskDirectivesModule&#45;&gt;StarkEmailMaskDirective </title>
<path fill="none" stroke="black" stroke-dasharray="5,2" d="M427,-175C527.13,-175 663.47,-175 663.47,-175 663.47,-175 663.47,-205.98 663.47,-205.98"/>
<polygon fill="black" stroke="black" points="659.97,-205.98 663.47,-215.98 666.97,-205.98 659.97,-205.98"/>
</g>
<!-- StarkNumberMaskDirective  -->
<g id="node7" class="node">
<title>StarkNumberMaskDirective </title>
<polygon fill="#fb8072" stroke="black" points="592.11,-252 413.89,-252 413.89,-216 592.11,-216 592.11,-252"/>
<text text-anchor="middle" x="503" y="-229.8" font-family="Times,serif" font-size="14.00">StarkNumberMaskDirective </text>
</g>
<!-- StarkInputMaskDirectivesModule&#45;&gt;StarkNumberMaskDirective  -->
<g id="edge6" class="edge">
<title>StarkInputMaskDirectivesModule&#45;&gt;StarkNumberMaskDirective </title>
<path fill="none" stroke="black" stroke-dasharray="5,2" d="M420.29,-187.11C420.29,-187.11 420.29,-205.99 420.29,-205.99"/>
<polygon fill="black" stroke="black" points="416.79,-205.99 420.29,-215.99 423.79,-205.99 416.79,-205.99"/>
</g>
<!-- StarkTextMaskDirective  -->
<g id="node8" class="node">
<title>StarkTextMaskDirective </title>
<polygon fill="#fb8072" stroke="black" points="395.89,-252 238.11,-252 238.11,-216 395.89,-216 395.89,-252"/>
<text text-anchor="middle" x="317" y="-229.8" font-family="Times,serif" font-size="14.00">StarkTextMaskDirective </text>
</g>
<!-- StarkInputMaskDirectivesModule&#45;&gt;StarkTextMaskDirective  -->
<g id="edge7" class="edge">
<title>StarkInputMaskDirectivesModule&#45;&gt;StarkTextMaskDirective </title>
<path fill="none" stroke="black" stroke-dasharray="5,2" d="M317,-187.11C317,-187.11 317,-205.99 317,-205.99"/>
<polygon fill="black" stroke="black" points="313.5,-205.99 317,-215.99 320.5,-205.99 313.5,-205.99"/>
</g>
<!-- StarkTimestampMaskDirective  -->
<g id="node9" class="node">
<title>StarkTimestampMaskDirective </title>
<polygon fill="#fb8072" stroke="black" points="219.72,-252 24.28,-252 24.28,-216 219.72,-216 219.72,-252"/>
<text text-anchor="middle" x="122" y="-229.8" font-family="Times,serif" font-size="14.00">StarkTimestampMaskDirective </text>
</g>
<!-- StarkInputMaskDirectivesModule&#45;&gt;StarkTimestampMaskDirective  -->
<g id="edge8" class="edge">
<title>StarkInputMaskDirectivesModule&#45;&gt;StarkTimestampMaskDirective </title>
<path fill="none" stroke="black" stroke-dasharray="5,2" d="M228.83,-187.11C228.83,-206.34 228.83,-234 228.83,-234 228.83,-234 227.92,-234 227.92,-234"/>
<polygon fill="black" stroke="black" points="229.72,-230.5 219.72,-234 229.72,-237.5 229.72,-230.5"/>
</g>
</g>
</svg>
