<?xml version="1.0" encoding="UTF-8" standalone="no"?>
<!DOCTYPE svg PUBLIC "-//W3C//DTD SVG 1.1//EN"
 "http://www.w3.org/Graphics/SVG/1.1/DTD/svg11.dtd">
<!-- Generated by graphviz version 2.40.1 (20161225.0304)
 -->
<!-- Title: dependencies Pages: 1 -->
<svg width="504pt" height="284pt"
 viewBox="0.00 0.00 504.00 284.00" xmlns="http://www.w3.org/2000/svg" xmlns:xlink="http://www.w3.org/1999/xlink">
<g id="graph0" class="graph" transform="scale(1 1) rotate(0) translate(4 280)">
<title>dependencies</title>
<polygon fill="#ffffff" stroke="transparent" points="-4,4 -4,-280 500,-280 500,4 -4,4"/>
<text text-anchor="start" x="227.0091" y="-42.4" font-family="sans-serif" font-weight="bold" font-size="14.00" fill="#000000">Legend</text>
<polygon fill="#ffffb3" stroke="transparent" points="14,-10 14,-30 34,-30 34,-10 14,-10"/>
<text text-anchor="start" x="37.629" y="-15.4" font-family="sans-serif" font-size="14.00" fill="#000000"> &#160;Declarations</text>
<polygon fill="#8dd3c7" stroke="transparent" points="127,-10 127,-30 147,-30 147,-10 127,-10"/>
<text text-anchor="start" x="150.7251" y="-15.4" font-family="sans-serif" font-size="14.00" fill="#000000"> &#160;Module</text>
<polygon fill="#80b1d3" stroke="transparent" points="213,-10 213,-30 233,-30 233,-10 213,-10"/>
<text text-anchor="start" x="236.7812" y="-15.4" font-family="sans-serif" font-size="14.00" fill="#000000"> &#160;Bootstrap</text>
<polygon fill="#fdb462" stroke="transparent" points="310,-10 310,-30 330,-30 330,-10 310,-10"/>
<text text-anchor="start" x="333.6732" y="-15.4" font-family="sans-serif" font-size="14.00" fill="#000000"> &#160;Providers</text>
<polygon fill="#fb8072" stroke="transparent" points="406,-10 406,-30 426,-30 426,-10 406,-10"/>
<text text-anchor="start" x="429.7258" y="-15.4" font-family="sans-serif" font-size="14.00" fill="#000000"> &#160;Exports</text>
<g id="clust1" class="cluster">
<title>cluster_StarkAppMenuModule</title>
<polygon fill="none" stroke="#000000" stroke-dasharray="1,5" points="39,-70 39,-268 457,-268 457,-70 39,-70"/>
</g>
<g id="clust2" class="cluster">
<title>cluster_StarkAppMenuModule_declarations</title>
<polygon fill="none" stroke="#000000" points="51,-78 51,-130 446,-130 446,-78 51,-78"/>
</g>
<g id="clust6" class="cluster">
<title>cluster_StarkAppMenuModule_exports</title>
<polygon fill="none" stroke="#000000" points="47,-208 47,-260 449,-260 449,-208 47,-208"/>
</g>
<!-- StarkAppMenuComponent -->
<g id="node1" class="node">
<title>StarkAppMenuComponent</title>
<polygon fill="#ffffb3" stroke="#000000" points="437.647,-122 270.353,-122 270.353,-86 437.647,-86 437.647,-122"/>
<text text-anchor="middle" x="354" y="-99.8" font-family="Times,serif" font-size="14.00" fill="#000000">StarkAppMenuComponent</text>
</g>
<!-- StarkAppMenuModule -->
<g id="node3" class="node">
<title>StarkAppMenuModule</title>
<polygon fill="#8dd3c7" stroke="#000000" points="228.8641,-187 225.8641,-191 204.8641,-191 201.8641,-187 83.1359,-187 83.1359,-151 228.8641,-151 228.8641,-187"/>
<text text-anchor="middle" x="156" y="-164.8" font-family="Times,serif" font-size="14.00" fill="#000000">StarkAppMenuModule</text>
</g>
<!-- StarkAppMenuComponent&#45;&gt;StarkAppMenuModule -->
<g id="edge1" class="edge">
<title>StarkAppMenuComponent&#45;&gt;StarkAppMenuModule</title>
<path fill="none" stroke="#000000" d="M381.9411,-122.0225C381.9411,-139.3734 381.9411,-163 381.9411,-163 381.9411,-163 239.0446,-163 239.0446,-163"/>
<polygon fill="#000000" stroke="#000000" points="239.0446,-159.5001 229.0446,-163 239.0445,-166.5001 239.0446,-159.5001"/>
</g>
<!-- StarkAppMenuItemComponent -->
<g id="node2" class="node">
<title>StarkAppMenuItemComponent</title>
<polygon fill="#ffffb3" stroke="#000000" points="252.8032,-122 59.1968,-122 59.1968,-86 252.8032,-86 252.8032,-122"/>
<text text-anchor="middle" x="156" y="-99.8" font-family="Times,serif" font-size="14.00" fill="#000000">StarkAppMenuItemComponent</text>
</g>
<!-- StarkAppMenuItemComponent&#45;&gt;StarkAppMenuModule -->
<g id="edge2" class="edge">
<title>StarkAppMenuItemComponent&#45;&gt;StarkAppMenuModule</title>
<path fill="none" stroke="#000000" d="M156,-122.1061C156,-122.1061 156,-140.991 156,-140.991"/>
<polygon fill="#000000" stroke="#000000" points="152.5001,-140.9909 156,-150.991 159.5001,-140.991 152.5001,-140.9909"/>
</g>
<!-- StarkAppMenuComponent  -->
<g id="node4" class="node">
<title>StarkAppMenuComponent </title>
<polygon fill="#fb8072" stroke="#000000" points="440.6467,-252 269.3533,-252 269.3533,-216 440.6467,-216 440.6467,-252"/>
<text text-anchor="middle" x="355" y="-229.8" font-family="Times,serif" font-size="14.00" fill="#000000">StarkAppMenuComponent </text>
</g>
<!-- StarkAppMenuModule&#45;&gt;StarkAppMenuComponent  -->
<g id="edge3" class="edge">
<title>StarkAppMenuModule&#45;&gt;StarkAppMenuComponent </title>
<path fill="none" stroke="#000000" stroke-dasharray="5,2" d="M229.1072,-175C275.199,-175 326.0589,-175 326.0589,-175 326.0589,-175 326.0589,-205.9775 326.0589,-205.9775"/>
<polygon fill="#000000" stroke="#000000" points="322.559,-205.9774 326.0589,-215.9775 329.559,-205.9775 322.559,-205.9774"/>
</g>
<!-- StarkAppMenuItemComponent  -->
<g id="node5" class="node">
<title>StarkAppMenuItemComponent </title>
<polygon fill="#fb8072" stroke="#000000" points="251.3031,-252 54.6969,-252 54.6969,-216 251.3031,-216 251.3031,-252"/>
<text text-anchor="middle" x="153" y="-229.8" font-family="Times,serif" font-size="14.00" fill="#000000">StarkAppMenuItemComponent </text>
</g>
<!-- StarkAppMenuModule&#45;&gt;StarkAppMenuItemComponent  -->
<g id="edge4" class="edge">
<title>StarkAppMenuModule&#45;&gt;StarkAppMenuItemComponent </title>
<path fill="none" stroke="#000000" stroke-dasharray="5,2" d="M156,-187.1061C156,-187.1061 156,-205.991 156,-205.991"/>
<polygon fill="#000000" stroke="#000000" points="152.5001,-205.9909 156,-215.991 159.5001,-205.991 152.5001,-205.9909"/>
</g>
</g>
</svg>
