<?xml version="1.0" encoding="UTF-8" standalone="no"?>
<!DOCTYPE svg PUBLIC "-//W3C//DTD SVG 1.1//EN"
 "http://www.w3.org/Graphics/SVG/1.1/DTD/svg11.dtd">
<!-- Generated by graphviz version 2.47.0 (20210316.0004)
 -->
<!-- Title: dependencies Pages: 1 -->
<svg width="1596pt" height="284pt"
 viewBox="0.00 0.00 1596.00 284.00" xmlns="http://www.w3.org/2000/svg" xmlns:xlink="http://www.w3.org/1999/xlink">
<g id="graph0" class="graph" transform="scale(1 1) rotate(0) translate(4 280)">
<title>dependencies</title>
<polygon fill="white" stroke="transparent" points="-4,4 -4,-280 1592,-280 1592,4 -4,4"/>
<text text-anchor="start" x="773.01" y="-42.4" font-family="Times-12" font-weight="bold" font-size="14.00">Legend</text>
<polygon fill="#ffffb3" stroke="transparent" points="560,-10 560,-30 580,-30 580,-10 560,-10"/>
<text text-anchor="start" x="583.63" y="-15.4" font-family="Times-12" font-size="14.00"> &#160;Declarations</text>
<polygon fill="#8dd3c7" stroke="transparent" points="673,-10 673,-30 693,-30 693,-10 673,-10"/>
<text text-anchor="start" x="696.73" y="-15.4" font-family="Times-12" font-size="14.00"> &#160;Module</text>
<polygon fill="#80b1d3" stroke="transparent" points="759,-10 759,-30 779,-30 779,-10 759,-10"/>
<text text-anchor="start" x="782.78" y="-15.4" font-family="Times-12" font-size="14.00"> &#160;Bootstrap</text>
<polygon fill="#fdb462" stroke="transparent" points="856,-10 856,-30 876,-30 876,-10 856,-10"/>
<text text-anchor="start" x="879.67" y="-15.4" font-family="Times-12" font-size="14.00"> &#160;Providers</text>
<polygon fill="#fb8072" stroke="transparent" points="952,-10 952,-30 972,-30 972,-10 952,-10"/>
<text text-anchor="start" x="975.73" y="-15.4" font-family="Times-12" font-size="14.00"> &#160;Exports</text>
<g id="clust1" class="cluster">
<title>cluster_StarkTableModule</title>
<polygon fill="none" stroke="black" stroke-dasharray="1,5" points="8,-70 8,-268 1580,-268 1580,-70 8,-70"/>
</g>
<g id="clust2" class="cluster">
<title>cluster_StarkTableModule_declarations</title>
<polygon fill="none" stroke="black" points="513,-78 513,-130 1572,-130 1572,-78 513,-78"/>
</g>
<g id="clust8" class="cluster">
<title>cluster_StarkTableModule_imports</title>
<polygon fill="none" stroke="black" points="16,-78 16,-130 505,-130 505,-78 16,-78"/>
</g>
<g id="clust9" class="cluster">
<title>cluster_StarkTableModule_exports</title>
<polygon fill="none" stroke="black" points="305,-208 305,-260 1127,-260 1127,-208 305,-208"/>
</g>
<!-- StarkTableColumnComponent -->
<g id="node1" class="node">
<title>StarkTableColumnComponent</title>
<polygon fill="#ffffb3" stroke="black" points="1563.87,-122 1376.13,-122 1376.13,-86 1563.87,-86 1563.87,-122"/>
<text text-anchor="middle" x="1470" y="-99.8" font-family="Times,serif" font-size="14.00">StarkTableColumnComponent</text>
</g>
<!-- StarkTableModule -->
<g id="node6" class="node">
<title>StarkTableModule</title>
<polygon fill="#8dd3c7" stroke="black" points="798.47,-187 795.47,-191 774.47,-191 771.47,-187 677.53,-187 677.53,-151 798.47,-151 798.47,-187"/>
<text text-anchor="middle" x="738" y="-164.8" font-family="Times,serif" font-size="14.00">StarkTableModule</text>
</g>
<!-- StarkTableColumnComponent&#45;&gt;StarkTableModule -->
<g id="edge1" class="edge">
<title>StarkTableColumnComponent&#45;&gt;StarkTableModule</title>
<path fill="none" stroke="black" d="M1470,-122.13C1470,-142.57 1470,-173 1470,-173 1470,-173 808.53,-173 808.53,-173"/>
<polygon fill="black" stroke="black" points="808.53,-169.5 798.53,-173 808.53,-176.5 808.53,-169.5"/>
</g>
<!-- StarkTableComponent -->
<g id="node2" class="node">
<title>StarkTableComponent</title>
<polygon fill="#ffffb3" stroke="black" points="1358.25,-122 1215.75,-122 1215.75,-86 1358.25,-86 1358.25,-122"/>
<text text-anchor="middle" x="1287" y="-99.8" font-family="Times,serif" font-size="14.00">StarkTableComponent</text>
</g>
<!-- StarkTableComponent&#45;&gt;StarkTableModule -->
<g id="edge2" class="edge">
<title>StarkTableComponent&#45;&gt;StarkTableModule</title>
<path fill="none" stroke="black" d="M1287,-122.27C1287,-140.56 1287,-166 1287,-166 1287,-166 808.59,-166 808.59,-166"/>
<polygon fill="black" stroke="black" points="808.59,-162.5 798.59,-166 808.59,-169.5 808.59,-162.5"/>
</g>
<!-- StarkTableExpandDetailDirective -->
<g id="node3" class="node">
<title>StarkTableExpandDetailDirective</title>
<polygon fill="#ffffb3" stroke="black" points="1197.48,-122 990.52,-122 990.52,-86 1197.48,-86 1197.48,-122"/>
<text text-anchor="middle" x="1094" y="-99.8" font-family="Times,serif" font-size="14.00">StarkTableExpandDetailDirective</text>
</g>
<!-- StarkTableExpandDetailDirective&#45;&gt;StarkTableModule -->
<g id="edge3" class="edge">
<title>StarkTableExpandDetailDirective&#45;&gt;StarkTableModule</title>
<path fill="none" stroke="black" d="M1054.72,-122.01C1054.72,-138.05 1054.72,-159 1054.72,-159 1054.72,-159 808.69,-159 808.69,-159"/>
<polygon fill="black" stroke="black" points="808.69,-155.5 798.69,-159 808.69,-162.5 808.69,-155.5"/>
</g>
<!-- StarkTableMultisortDialogComponent -->
<g id="node4" class="node">
<title>StarkTableMultisortDialogComponent</title>
<polygon fill="#ffffb3" stroke="black" points="972.47,-122 739.53,-122 739.53,-86 972.47,-86 972.47,-122"/>
<text text-anchor="middle" x="856" y="-99.8" font-family="Times,serif" font-size="14.00">StarkTableMultisortDialogComponent</text>
</g>
<!-- StarkTableMultisortDialogComponent&#45;&gt;StarkTableModule -->
<g id="edge4" class="edge">
<title>StarkTableMultisortDialogComponent&#45;&gt;StarkTableModule</title>
<path fill="none" stroke="black" d="M769,-122.11C769,-122.11 769,-140.99 769,-140.99"/>
<polygon fill="black" stroke="black" points="765.5,-140.99 769,-150.99 772.5,-140.99 765.5,-140.99"/>
</g>
<!-- StarkTableRowContentDirective -->
<g id="node5" class="node">
<title>StarkTableRowContentDirective</title>
<polygon fill="#ffffb3" stroke="black" points="721.28,-122 520.72,-122 520.72,-86 721.28,-86 721.28,-122"/>
<text text-anchor="middle" x="621" y="-99.8" font-family="Times,serif" font-size="14.00">StarkTableRowContentDirective</text>
</g>
<!-- StarkTableRowContentDirective&#45;&gt;StarkTableModule -->
<g id="edge5" class="edge">
<title>StarkTableRowContentDirective&#45;&gt;StarkTableModule</title>
<path fill="none" stroke="black" d="M699.33,-122.11C699.33,-122.11 699.33,-140.99 699.33,-140.99"/>
<polygon fill="black" stroke="black" points="695.83,-140.99 699.33,-150.99 702.83,-140.99 695.83,-140.99"/>
</g>
<!-- StarkTableColumnComponent  -->
<g id="node10" class="node">
<title>StarkTableColumnComponent </title>
<polygon fill="#fb8072" stroke="black" points="1118.87,-252 927.13,-252 927.13,-216 1118.87,-216 1118.87,-252"/>
<text text-anchor="middle" x="1023" y="-229.8" font-family="Times,serif" font-size="14.00">StarkTableColumnComponent </text>
</g>
<!-- StarkTableModule&#45;&gt;StarkTableColumnComponent  -->
<g id="edge9" class="edge">
<title>StarkTableModule&#45;&gt;StarkTableColumnComponent </title>
<path fill="none" stroke="black" stroke-dasharray="5,2" d="M798.72,-180C861.34,-180 949.9,-180 949.9,-180 949.9,-180 949.9,-205.72 949.9,-205.72"/>
<polygon fill="black" stroke="black" points="946.4,-205.72 949.9,-215.72 953.4,-205.72 946.4,-205.72"/>
</g>
<!-- StarkTableComponent  -->
<g id="node11" class="node">
<title>StarkTableComponent </title>
<polygon fill="#fb8072" stroke="black" points="909.25,-252 762.75,-252 762.75,-216 909.25,-216 909.25,-252"/>
<text text-anchor="middle" x="836" y="-229.8" font-family="Times,serif" font-size="14.00">StarkTableComponent </text>
</g>
<!-- StarkTableModule&#45;&gt;StarkTableComponent  -->
<g id="edge10" class="edge">
<title>StarkTableModule&#45;&gt;StarkTableComponent </title>
<path fill="none" stroke="black" stroke-dasharray="5,2" d="M780.68,-187.11C780.68,-187.11 780.68,-205.99 780.68,-205.99"/>
<polygon fill="black" stroke="black" points="777.18,-205.99 780.68,-215.99 784.18,-205.99 777.18,-205.99"/>
</g>
<!-- StarkTableExpandDetailDirective  -->
<g id="node12" class="node">
<title>StarkTableExpandDetailDirective </title>
<polygon fill="#fb8072" stroke="black" points="744.98,-252 535.02,-252 535.02,-216 744.98,-216 744.98,-252"/>
<text text-anchor="middle" x="640" y="-229.8" font-family="Times,serif" font-size="14.00">StarkTableExpandDetailDirective </text>
</g>
<!-- StarkTableModule&#45;&gt;StarkTableExpandDetailDirective  -->
<g id="edge11" class="edge">
<title>StarkTableModule&#45;&gt;StarkTableExpandDetailDirective </title>
<path fill="none" stroke="black" stroke-dasharray="5,2" d="M711.25,-187.11C711.25,-187.11 711.25,-205.99 711.25,-205.99"/>
<polygon fill="black" stroke="black" points="707.75,-205.99 711.25,-215.99 714.75,-205.99 707.75,-205.99"/>
</g>
<!-- StarkTableRowContentDirective  -->
<g id="node13" class="node">
<title>StarkTableRowContentDirective </title>
<polygon fill="#fb8072" stroke="black" points="516.78,-252 313.22,-252 313.22,-216 516.78,-216 516.78,-252"/>
<text text-anchor="middle" x="415" y="-229.8" font-family="Times,serif" font-size="14.00">StarkTableRowContentDirective </text>
</g>
<!-- StarkTableModule&#45;&gt;StarkTableRowContentDirective  -->
<g id="edge12" class="edge">
<title>StarkTableModule&#45;&gt;StarkTableRowContentDirective </title>
<path fill="none" stroke="black" stroke-dasharray="5,2" d="M677.25,-180C608.75,-180 506.8,-180 506.8,-180 506.8,-180 506.8,-205.72 506.8,-205.72"/>
<polygon fill="black" stroke="black" points="503.3,-205.72 506.8,-215.72 510.3,-205.72 503.3,-205.72"/>
</g>
<!-- StarkActionBarModule -->
<g id="node7" class="node">
<title>StarkActionBarModule</title>
<polygon fill="#8dd3c7" stroke="black" points="496.91,-122 493.91,-126 472.91,-126 469.91,-122 349.09,-122 349.09,-86 496.91,-86 496.91,-122"/>
<text text-anchor="middle" x="423" y="-99.8" font-family="Times,serif" font-size="14.00">StarkActionBarModule</text>
</g>
<!-- StarkActionBarModule&#45;&gt;StarkTableModule -->
<g id="edge6" class="edge">
<title>StarkActionBarModule&#45;&gt;StarkTableModule</title>
<path fill="none" stroke="black" d="M423,-122.01C423,-138.05 423,-159 423,-159 423,-159 667.26,-159 667.26,-159"/>
<polygon fill="black" stroke="black" points="667.26,-162.5 677.26,-159 667.26,-155.5 667.26,-162.5"/>
</g>
<!-- StarkMinimapModule -->
<g id="node8" class="node">
<title>StarkMinimapModule</title>
<polygon fill="#8dd3c7" stroke="black" points="331.43,-122 328.43,-126 307.43,-126 304.43,-122 190.57,-122 190.57,-86 331.43,-86 331.43,-122"/>
<text text-anchor="middle" x="261" y="-99.8" font-family="Times,serif" font-size="14.00">StarkMinimapModule</text>
</g>
<!-- StarkMinimapModule&#45;&gt;StarkTableModule -->
<g id="edge7" class="edge">
<title>StarkMinimapModule&#45;&gt;StarkTableModule</title>
<path fill="none" stroke="black" d="M322.16,-122.27C322.16,-140.56 322.16,-166 322.16,-166 322.16,-166 667.09,-166 667.09,-166"/>
<polygon fill="black" stroke="black" points="667.09,-169.5 677.09,-166 667.09,-162.5 667.09,-169.5"/>
</g>
<!-- StarkPaginationModule -->
<g id="node9" class="node">
<title>StarkPaginationModule</title>
<polygon fill="#8dd3c7" stroke="black" points="172.48,-122 169.48,-126 148.48,-126 145.48,-122 23.52,-122 23.52,-86 172.48,-86 172.48,-122"/>
<text text-anchor="middle" x="98" y="-99.8" font-family="Times,serif" font-size="14.00">StarkPaginationModule</text>
</g>
<!-- StarkPaginationModule&#45;&gt;StarkTableModule -->
<g id="edge8" class="edge">
<title>StarkPaginationModule&#45;&gt;StarkTableModule</title>
<path fill="none" stroke="black" d="M98,-122.13C98,-142.57 98,-173 98,-173 98,-173 667.5,-173 667.5,-173"/>
<polygon fill="black" stroke="black" points="667.5,-176.5 677.5,-173 667.5,-169.5 667.5,-176.5"/>
</g>
</g>
</svg>
