<?xml version="1.0" encoding="UTF-8" standalone="no"?>
<!DOCTYPE svg PUBLIC "-//W3C//DTD SVG 1.1//EN"
 "http://www.w3.org/Graphics/SVG/1.1/DTD/svg11.dtd">
<!-- Generated by graphviz version 2.40.1 (20161225.0304)
 -->
<!-- Title: dependencies Pages: 1 -->
<svg width="504pt" height="284pt"
 viewBox="0.00 0.00 504.00 284.00" xmlns="http://www.w3.org/2000/svg" xmlns:xlink="http://www.w3.org/1999/xlink">
<g id="graph0" class="graph" transform="scale(1 1) rotate(0) translate(4 280)">
<title>dependencies</title>
<polygon fill="#ffffff" stroke="transparent" points="-4,4 -4,-280 500,-280 500,4 -4,4"/>
<text text-anchor="start" x="227.0091" y="-42.4" font-family="sans-serif" font-weight="bold" font-size="14.00" fill="#000000">Legend</text>
<polygon fill="#ffffb3" stroke="transparent" points="14,-10 14,-30 34,-30 34,-10 14,-10"/>
<text text-anchor="start" x="37.629" y="-15.4" font-family="sans-serif" font-size="14.00" fill="#000000"> &#160;Declarations</text>
<polygon fill="#8dd3c7" stroke="transparent" points="127,-10 127,-30 147,-30 147,-10 127,-10"/>
<text text-anchor="start" x="150.7251" y="-15.4" font-family="sans-serif" font-size="14.00" fill="#000000"> &#160;Module</text>
<polygon fill="#80b1d3" stroke="transparent" points="213,-10 213,-30 233,-30 233,-10 213,-10"/>
<text text-anchor="start" x="236.7812" y="-15.4" font-family="sans-serif" font-size="14.00" fill="#000000"> &#160;Bootstrap</text>
<polygon fill="#fdb462" stroke="transparent" points="310,-10 310,-30 330,-30 330,-10 310,-10"/>
<text text-anchor="start" x="333.6732" y="-15.4" font-family="sans-serif" font-size="14.00" fill="#000000"> &#160;Providers</text>
<polygon fill="#fb8072" stroke="transparent" points="406,-10 406,-30 426,-30 426,-10 406,-10"/>
<text text-anchor="start" x="429.7258" y="-15.4" font-family="sans-serif" font-size="14.00" fill="#000000"> &#160;Exports</text>
<g id="clust1" class="cluster">
<title>cluster_StarkKeyboardDirectivesModule</title>
<polygon fill="none" stroke="#000000" stroke-dasharray="1,5" points="50,-70 50,-268 446,-268 446,-70 50,-70"/>
</g>
<g id="clust2" class="cluster">
<title>cluster_StarkKeyboardDirectivesModule_declarations</title>
<polygon fill="none" stroke="#000000" points="61,-78 61,-130 434,-130 434,-78 61,-78"/>
</g>
<g id="clust6" class="cluster">
<title>cluster_StarkKeyboardDirectivesModule_exports</title>
<polygon fill="none" stroke="#000000" points="58,-208 58,-260 438,-260 438,-208 58,-208"/>
</g>
<!-- StarkOnEnterKeyDirective -->
<g id="node1" class="node">
<title>StarkOnEnterKeyDirective</title>
<polygon fill="#ffffb3" stroke="#000000" points="426.3778,-122 257.6222,-122 257.6222,-86 426.3778,-86 426.3778,-122"/>
<text text-anchor="middle" x="342" y="-99.8" font-family="Times,serif" font-size="14.00" fill="#000000">StarkOnEnterKeyDirective</text>
</g>
<!-- StarkKeyboardDirectivesModule -->
<g id="node3" class="node">
<title>StarkKeyboardDirectivesModule</title>
<polygon fill="#8dd3c7" stroke="#000000" points="348.8221,-187 345.8221,-191 324.8221,-191 321.8221,-187 147.1779,-187 147.1779,-151 348.8221,-151 348.8221,-187"/>
<text text-anchor="middle" x="248" y="-164.8" font-family="Times,serif" font-size="14.00" fill="#000000">StarkKeyboardDirectivesModule</text>
</g>
<!-- StarkOnEnterKeyDirective&#45;&gt;StarkKeyboardDirectivesModule -->
<g id="edge1" class="edge">
<title>StarkOnEnterKeyDirective&#45;&gt;StarkKeyboardDirectivesModule</title>
<path fill="none" stroke="#000000" d="M303.3612,-122.1061C303.3612,-122.1061 303.3612,-140.991 303.3612,-140.991"/>
<polygon fill="#000000" stroke="#000000" points="299.8612,-140.9909 303.3612,-150.991 306.8612,-140.991 299.8612,-140.9909"/>
</g>
<!-- StarkRestrictInputDirective -->
<g id="node2" class="node">
<title>StarkRestrictInputDirective</title>
<polygon fill="#ffffb3" stroke="#000000" points="239.2254,-122 68.7746,-122 68.7746,-86 239.2254,-86 239.2254,-122"/>
<text text-anchor="middle" x="154" y="-99.8" font-family="Times,serif" font-size="14.00" fill="#000000">StarkRestrictInputDirective</text>
</g>
<!-- StarkRestrictInputDirective&#45;&gt;StarkKeyboardDirectivesModule -->
<g id="edge2" class="edge">
<title>StarkRestrictInputDirective&#45;&gt;StarkKeyboardDirectivesModule</title>
<path fill="none" stroke="#000000" d="M193.2258,-122.1061C193.2258,-122.1061 193.2258,-140.991 193.2258,-140.991"/>
<polygon fill="#000000" stroke="#000000" points="189.7259,-140.9909 193.2258,-150.991 196.7259,-140.991 189.7259,-140.9909"/>
</g>
<!-- StarkOnEnterKeyDirective  -->
<g id="node4" class="node">
<title>StarkOnEnterKeyDirective </title>
<polygon fill="#fb8072" stroke="#000000" points="429.8774,-252 258.1226,-252 258.1226,-216 429.8774,-216 429.8774,-252"/>
<text text-anchor="middle" x="344" y="-229.8" font-family="Times,serif" font-size="14.00" fill="#000000">StarkOnEnterKeyDirective </text>
</g>
<!-- StarkKeyboardDirectivesModule&#45;&gt;StarkOnEnterKeyDirective  -->
<g id="edge3" class="edge">
<title>StarkKeyboardDirectivesModule&#45;&gt;StarkOnEnterKeyDirective </title>
<path fill="none" stroke="#000000" stroke-dasharray="5,2" d="M303.4862,-187.1061C303.4862,-187.1061 303.4862,-205.991 303.4862,-205.991"/>
<polygon fill="#000000" stroke="#000000" points="299.9862,-205.9909 303.4862,-215.991 306.9862,-205.991 299.9862,-205.9909"/>
</g>
<!-- StarkRestrictInputDirective  -->
<g id="node5" class="node">
<title>StarkRestrictInputDirective </title>
<polygon fill="#fb8072" stroke="#000000" points="240.2253,-252 65.7747,-252 65.7747,-216 240.2253,-216 240.2253,-252"/>
<text text-anchor="middle" x="153" y="-229.8" font-family="Times,serif" font-size="14.00" fill="#000000">StarkRestrictInputDirective </text>
</g>
<!-- StarkKeyboardDirectivesModule&#45;&gt;StarkRestrictInputDirective  -->
<g id="edge4" class="edge">
<title>StarkKeyboardDirectivesModule&#45;&gt;StarkRestrictInputDirective </title>
<path fill="none" stroke="#000000" stroke-dasharray="5,2" d="M193.6008,-187.1061C193.6008,-187.1061 193.6008,-205.991 193.6008,-205.991"/>
<polygon fill="#000000" stroke="#000000" points="190.1009,-205.9909 193.6008,-215.991 197.1009,-205.991 190.1009,-205.9909"/>
</g>
</g>
</svg>
