<?xml version="1.0" encoding="UTF-8" standalone="no"?>
<!DOCTYPE svg PUBLIC "-//W3C//DTD SVG 1.1//EN"
 "http://www.w3.org/Graphics/SVG/1.1/DTD/svg11.dtd">
<!-- Generated by graphviz version 2.40.1 (20161225.0304)
 -->
<!-- Title: dependencies Pages: 1 -->
<svg width="1335pt" height="284pt"
 viewBox="0.00 0.00 1335.00 284.00" xmlns="http://www.w3.org/2000/svg" xmlns:xlink="http://www.w3.org/1999/xlink">
<g id="graph0" class="graph" transform="scale(1 1) rotate(0) translate(4 280)">
<title>dependencies</title>
<polygon fill="#ffffff" stroke="transparent" points="-4,4 -4,-280 1331,-280 1331,4 -4,4"/>
<text text-anchor="start" x="642.5091" y="-42.4" font-family="sans-serif" font-weight="bold" font-size="14.00" fill="#000000">Legend</text>
<polygon fill="#ffffb3" stroke="transparent" points="429.5,-10 429.5,-30 449.5,-30 449.5,-10 429.5,-10"/>
<text text-anchor="start" x="453.129" y="-15.4" font-family="sans-serif" font-size="14.00" fill="#000000"> &#160;Declarations</text>
<polygon fill="#8dd3c7" stroke="transparent" points="542.5,-10 542.5,-30 562.5,-30 562.5,-10 542.5,-10"/>
<text text-anchor="start" x="566.2251" y="-15.4" font-family="sans-serif" font-size="14.00" fill="#000000"> &#160;Module</text>
<polygon fill="#80b1d3" stroke="transparent" points="628.5,-10 628.5,-30 648.5,-30 648.5,-10 628.5,-10"/>
<text text-anchor="start" x="652.2812" y="-15.4" font-family="sans-serif" font-size="14.00" fill="#000000"> &#160;Bootstrap</text>
<polygon fill="#fdb462" stroke="transparent" points="725.5,-10 725.5,-30 745.5,-30 745.5,-10 725.5,-10"/>
<text text-anchor="start" x="749.1732" y="-15.4" font-family="sans-serif" font-size="14.00" fill="#000000"> &#160;Providers</text>
<polygon fill="#fb8072" stroke="transparent" points="821.5,-10 821.5,-30 841.5,-30 841.5,-10 821.5,-10"/>
<text text-anchor="start" x="845.2258" y="-15.4" font-family="sans-serif" font-size="14.00" fill="#000000"> &#160;Exports</text>
<g id="clust1" class="cluster">
<title>cluster_StarkTableModule</title>
<polygon fill="none" stroke="#000000" stroke-dasharray="1,5" points="8,-70 8,-268 1319,-268 1319,-70 8,-70"/>
</g>
<g id="clust2" class="cluster">
<title>cluster_StarkTableModule_declarations</title>
<polygon fill="none" stroke="#000000" points="696,-78 696,-130 1311,-130 1311,-78 696,-78"/>
</g>
<g id="clust6" class="cluster">
<title>cluster_StarkTableModule_imports</title>
<polygon fill="none" stroke="#000000" points="16,-78 16,-130 688,-130 688,-78 16,-78"/>
</g>
<g id="clust7" class="cluster">
<title>cluster_StarkTableModule_exports</title>
<polygon fill="none" stroke="#000000" points="432,-208 432,-260 804,-260 804,-208 432,-208"/>
</g>
<!-- StarkTableColumnComponent -->
<g id="node1" class="node">
<title>StarkTableColumnComponent</title>
<polygon fill="#ffffb3" stroke="#000000" points="1302.871,-122 1115.129,-122 1115.129,-86 1302.871,-86 1302.871,-122"/>
<text text-anchor="middle" x="1209" y="-99.8" font-family="Times,serif" font-size="14.00" fill="#000000">StarkTableColumnComponent</text>
</g>
<!-- StarkTableModule -->
<g id="node4" class="node">
<title>StarkTableModule</title>
<polygon fill="#8dd3c7" stroke="#000000" points="666.4706,-187 663.4706,-191 642.4706,-191 639.4706,-187 545.5294,-187 545.5294,-151 666.4706,-151 666.4706,-187"/>
<text text-anchor="middle" x="606" y="-164.8" font-family="Times,serif" font-size="14.00" fill="#000000">StarkTableModule</text>
</g>
<!-- StarkTableColumnComponent&#45;&gt;StarkTableModule -->
<g id="edge1" class="edge">
<title>StarkTableColumnComponent&#45;&gt;StarkTableModule</title>
<path fill="none" stroke="#000000" d="M1209,-122.2921C1209,-144.2057 1209,-178 1209,-178 1209,-178 676.5788,-178 676.5788,-178"/>
<polygon fill="#000000" stroke="#000000" points="676.5789,-174.5001 666.5788,-178 676.5788,-181.5001 676.5789,-174.5001"/>
</g>
<!-- StarkTableComponent -->
<g id="node2" class="node">
<title>StarkTableComponent</title>
<polygon fill="#ffffb3" stroke="#000000" points="1097.2534,-122 954.7466,-122 954.7466,-86 1097.2534,-86 1097.2534,-122"/>
<text text-anchor="middle" x="1026" y="-99.8" font-family="Times,serif" font-size="14.00" fill="#000000">StarkTableComponent</text>
</g>
<!-- StarkTableComponent&#45;&gt;StarkTableModule -->
<g id="edge2" class="edge">
<title>StarkTableComponent&#45;&gt;StarkTableModule</title>
<path fill="none" stroke="#000000" d="M1026,-122.1061C1026,-141.3391 1026,-169 1026,-169 1026,-169 676.6231,-169 676.6231,-169"/>
<polygon fill="#000000" stroke="#000000" points="676.6231,-165.5001 666.6231,-169 676.623,-172.5001 676.6231,-165.5001"/>
</g>
<!-- StarkTableMultisortDialogComponent -->
<g id="node3" class="node">
<title>StarkTableMultisortDialogComponent</title>
<polygon fill="#ffffb3" stroke="#000000" points="936.4678,-122 703.5322,-122 703.5322,-86 936.4678,-86 936.4678,-122"/>
<text text-anchor="middle" x="820" y="-99.8" font-family="Times,serif" font-size="14.00" fill="#000000">StarkTableMultisortDialogComponent</text>
</g>
<!-- StarkTableMultisortDialogComponent&#45;&gt;StarkTableModule -->
<g id="edge3" class="edge">
<title>StarkTableMultisortDialogComponent&#45;&gt;StarkTableModule</title>
<path fill="none" stroke="#000000" d="M749.6008,-122.027C749.6008,-138.3976 749.6008,-160 749.6008,-160 749.6008,-160 676.4835,-160 676.4835,-160"/>
<polygon fill="#000000" stroke="#000000" points="676.4835,-156.5001 666.4835,-160 676.4834,-163.5001 676.4835,-156.5001"/>
</g>
<!-- StarkTableColumnComponent  -->
<g id="node9" class="node">
<title>StarkTableColumnComponent </title>
<polygon fill="#fb8072" stroke="#000000" points="795.8714,-252 604.1286,-252 604.1286,-216 795.8714,-216 795.8714,-252"/>
<text text-anchor="middle" x="700" y="-229.8" font-family="Times,serif" font-size="14.00" fill="#000000">StarkTableColumnComponent </text>
</g>
<!-- StarkTableModule&#45;&gt;StarkTableColumnComponent  -->
<g id="edge8" class="edge">
<title>StarkTableModule&#45;&gt;StarkTableColumnComponent </title>
<path fill="none" stroke="#000000" stroke-dasharray="5,2" d="M635.3999,-187.1061C635.3999,-187.1061 635.3999,-205.991 635.3999,-205.991"/>
<polygon fill="#000000" stroke="#000000" points="631.9,-205.9909 635.3999,-215.991 638.9,-205.991 631.9,-205.9909"/>
</g>
<!-- StarkTableComponent  -->
<g id="node10" class="node">
<title>StarkTableComponent </title>
<polygon fill="#fb8072" stroke="#000000" points="586.2534,-252 439.7466,-252 439.7466,-216 586.2534,-216 586.2534,-252"/>
<text text-anchor="middle" x="513" y="-229.8" font-family="Times,serif" font-size="14.00" fill="#000000">StarkTableComponent </text>
</g>
<!-- StarkTableModule&#45;&gt;StarkTableComponent  -->
<g id="edge9" class="edge">
<title>StarkTableModule&#45;&gt;StarkTableComponent </title>
<path fill="none" stroke="#000000" stroke-dasharray="5,2" d="M565.8207,-187.1061C565.8207,-187.1061 565.8207,-205.991 565.8207,-205.991"/>
<polygon fill="#000000" stroke="#000000" points="562.3207,-205.9909 565.8207,-215.991 569.3207,-205.991 562.3207,-205.9909"/>
</g>
<!-- StarkActionBarModule -->
<g id="node5" class="node">
<title>StarkActionBarModule</title>
<polygon fill="#8dd3c7" stroke="#000000" points="679.913,-122 676.913,-126 655.913,-126 652.913,-122 532.087,-122 532.087,-86 679.913,-86 679.913,-122"/>
<text text-anchor="middle" x="606" y="-99.8" font-family="Times,serif" font-size="14.00" fill="#000000">StarkActionBarModule</text>
</g>
<!-- StarkActionBarModule&#45;&gt;StarkTableModule -->
<g id="edge4" class="edge">
<title>StarkActionBarModule&#45;&gt;StarkTableModule</title>
<path fill="none" stroke="#000000" d="M606,-122.1061C606,-122.1061 606,-140.991 606,-140.991"/>
<polygon fill="#000000" stroke="#000000" points="602.5001,-140.9909 606,-150.991 609.5001,-140.991 602.5001,-140.9909"/>
</g>
<!-- StarkMinimapModule -->
<g id="node6" class="node">
<title>StarkMinimapModule</title>
<polygon fill="#8dd3c7" stroke="#000000" points="514.4299,-122 511.4299,-126 490.4299,-126 487.4299,-122 373.5701,-122 373.5701,-86 514.4299,-86 514.4299,-122"/>
<text text-anchor="middle" x="444" y="-99.8" font-family="Times,serif" font-size="14.00" fill="#000000">StarkMinimapModule</text>
</g>
<!-- StarkMinimapModule&#45;&gt;StarkTableModule -->
<g id="edge5" class="edge">
<title>StarkMinimapModule&#45;&gt;StarkTableModule</title>
<path fill="none" stroke="#000000" d="M477.044,-122.027C477.044,-138.3976 477.044,-160 477.044,-160 477.044,-160 535.2981,-160 535.2981,-160"/>
<polygon fill="#000000" stroke="#000000" points="535.2981,-163.5001 545.2981,-160 535.2981,-156.5001 535.2981,-163.5001"/>
</g>
<!-- StarkPaginationModule -->
<g id="node7" class="node">
<title>StarkPaginationModule</title>
<polygon fill="#8dd3c7" stroke="#000000" points="355.4818,-122 352.4818,-126 331.4818,-126 328.4818,-122 206.5182,-122 206.5182,-86 355.4818,-86 355.4818,-122"/>
<text text-anchor="middle" x="281" y="-99.8" font-family="Times,serif" font-size="14.00" fill="#000000">StarkPaginationModule</text>
</g>
<!-- StarkPaginationModule&#45;&gt;StarkTableModule -->
<g id="edge6" class="edge">
<title>StarkPaginationModule&#45;&gt;StarkTableModule</title>
<path fill="none" stroke="#000000" d="M281,-122.1061C281,-141.3391 281,-169 281,-169 281,-169 535.2512,-169 535.2512,-169"/>
<polygon fill="#000000" stroke="#000000" points="535.2513,-172.5001 545.2512,-169 535.2512,-165.5001 535.2513,-172.5001"/>
</g>
<!-- StarkSvgViewBoxModule -->
<g id="node8" class="node">
<title>StarkSvgViewBoxModule</title>
<polygon fill="#8dd3c7" stroke="#000000" points="188.0365,-122 185.0365,-126 164.0365,-126 161.0365,-122 23.9635,-122 23.9635,-86 188.0365,-86 188.0365,-122"/>
<text text-anchor="middle" x="106" y="-99.8" font-family="Times,serif" font-size="14.00" fill="#000000">StarkSvgViewBoxModule</text>
</g>
<!-- StarkSvgViewBoxModule&#45;&gt;StarkTableModule -->
<g id="edge7" class="edge">
<title>StarkSvgViewBoxModule&#45;&gt;StarkTableModule</title>
<path fill="none" stroke="#000000" d="M106,-122.2921C106,-144.2057 106,-178 106,-178 106,-178 535.1901,-178 535.1901,-178"/>
<polygon fill="#000000" stroke="#000000" points="535.1901,-181.5001 545.1901,-178 535.19,-174.5001 535.1901,-181.5001"/>
</g>
</g>
</svg>
