<?xml version="1.0" encoding="UTF-8" standalone="no"?>
<!DOCTYPE svg PUBLIC "-//W3C//DTD SVG 1.1//EN"
 "http://www.w3.org/Graphics/SVG/1.1/DTD/svg11.dtd">
<!-- Generated by graphviz version 2.40.1 (20161225.0304)
 -->
<!-- Title: dependencies Pages: 1 -->
<svg width="1152pt" height="284pt"
 viewBox="0.00 0.00 1152.00 284.00" xmlns="http://www.w3.org/2000/svg" xmlns:xlink="http://www.w3.org/1999/xlink">
<g id="graph0" class="graph" transform="scale(1 1) rotate(0) translate(4 280)">
<title>dependencies</title>
<polygon fill="#ffffff" stroke="transparent" points="-4,4 -4,-280 1148,-280 1148,4 -4,4"/>
<text text-anchor="start" x="551.0091" y="-42.4" font-family="sans-serif" font-weight="bold" font-size="14.00" fill="#000000">Legend</text>
<polygon fill="#ffffb3" stroke="transparent" points="338,-10 338,-30 358,-30 358,-10 338,-10"/>
<text text-anchor="start" x="361.629" y="-15.4" font-family="sans-serif" font-size="14.00" fill="#000000"> &#160;Declarations</text>
<polygon fill="#8dd3c7" stroke="transparent" points="451,-10 451,-30 471,-30 471,-10 451,-10"/>
<text text-anchor="start" x="474.7251" y="-15.4" font-family="sans-serif" font-size="14.00" fill="#000000"> &#160;Module</text>
<polygon fill="#80b1d3" stroke="transparent" points="537,-10 537,-30 557,-30 557,-10 537,-10"/>
<text text-anchor="start" x="560.7812" y="-15.4" font-family="sans-serif" font-size="14.00" fill="#000000"> &#160;Bootstrap</text>
<polygon fill="#fdb462" stroke="transparent" points="634,-10 634,-30 654,-30 654,-10 634,-10"/>
<text text-anchor="start" x="657.6732" y="-15.4" font-family="sans-serif" font-size="14.00" fill="#000000"> &#160;Providers</text>
<polygon fill="#fb8072" stroke="transparent" points="730,-10 730,-30 750,-30 750,-10 730,-10"/>
<text text-anchor="start" x="753.7258" y="-15.4" font-family="sans-serif" font-size="14.00" fill="#000000"> &#160;Exports</text>
<g id="clust1" class="cluster">
<title>cluster_StarkTableModule</title>
<polygon fill="none" stroke="#000000" stroke-dasharray="1,5" points="8,-70 8,-268 1136,-268 1136,-70 8,-70"/>
</g>
<g id="clust2" class="cluster">
<title>cluster_StarkTableModule_declarations</title>
<polygon fill="none" stroke="#000000" points="513,-78 513,-130 1128,-130 1128,-78 513,-78"/>
</g>
<g id="clust6" class="cluster">
<title>cluster_StarkTableModule_imports</title>
<polygon fill="none" stroke="#000000" points="16,-78 16,-130 505,-130 505,-78 16,-78"/>
</g>
<g id="clust7" class="cluster">
<title>cluster_StarkTableModule_exports</title>
<polygon fill="none" stroke="#000000" points="356,-208 356,-260 728,-260 728,-208 356,-208"/>
</g>
<!-- StarkTableColumnComponent -->
<g id="node1" class="node">
<title>StarkTableColumnComponent</title>
<polygon fill="#ffffb3" stroke="#000000" points="1119.871,-122 932.129,-122 932.129,-86 1119.871,-86 1119.871,-122"/>
<text text-anchor="middle" x="1026" y="-99.8" font-family="Times,serif" font-size="14.00" fill="#000000">StarkTableColumnComponent</text>
</g>
<!-- StarkTableModule -->
<g id="node4" class="node">
<title>StarkTableModule</title>
<polygon fill="#8dd3c7" stroke="#000000" points="590.4706,-187 587.4706,-191 566.4706,-191 563.4706,-187 469.5294,-187 469.5294,-151 590.4706,-151 590.4706,-187"/>
<text text-anchor="middle" x="530" y="-164.8" font-family="Times,serif" font-size="14.00" fill="#000000">StarkTableModule</text>
</g>
<!-- StarkTableColumnComponent&#45;&gt;StarkTableModule -->
<g id="edge1" class="edge">
<title>StarkTableColumnComponent&#45;&gt;StarkTableModule</title>
<path fill="none" stroke="#000000" d="M1026,-122.2843C1026,-143.3211 1026,-175 1026,-175 1026,-175 600.8193,-175 600.8193,-175"/>
<polygon fill="#000000" stroke="#000000" points="600.8194,-171.5001 590.8193,-175 600.8193,-178.5001 600.8194,-171.5001"/>
</g>
<!-- StarkTableComponent -->
<g id="node2" class="node">
<title>StarkTableComponent</title>
<polygon fill="#ffffb3" stroke="#000000" points="914.2534,-122 771.7466,-122 771.7466,-86 914.2534,-86 914.2534,-122"/>
<text text-anchor="middle" x="843" y="-99.8" font-family="Times,serif" font-size="14.00" fill="#000000">StarkTableComponent</text>
</g>
<!-- StarkTableComponent&#45;&gt;StarkTableModule -->
<g id="edge2" class="edge">
<title>StarkTableComponent&#45;&gt;StarkTableModule</title>
<path fill="none" stroke="#000000" d="M843,-122.0225C843,-139.3734 843,-163 843,-163 843,-163 600.7207,-163 600.7207,-163"/>
<polygon fill="#000000" stroke="#000000" points="600.7207,-159.5001 590.7207,-163 600.7206,-166.5001 600.7207,-159.5001"/>
</g>
<!-- StarkTableMultisortDialogComponent -->
<g id="node3" class="node">
<title>StarkTableMultisortDialogComponent</title>
<polygon fill="#ffffb3" stroke="#000000" points="753.4678,-122 520.5322,-122 520.5322,-86 753.4678,-86 753.4678,-122"/>
<text text-anchor="middle" x="637" y="-99.8" font-family="Times,serif" font-size="14.00" fill="#000000">StarkTableMultisortDialogComponent</text>
</g>
<!-- StarkTableMultisortDialogComponent&#45;&gt;StarkTableModule -->
<g id="edge3" class="edge">
<title>StarkTableMultisortDialogComponent&#45;&gt;StarkTableModule</title>
<path fill="none" stroke="#000000" d="M555.5007,-122.1061C555.5007,-122.1061 555.5007,-140.991 555.5007,-140.991"/>
<polygon fill="#000000" stroke="#000000" points="552.0008,-140.9909 555.5007,-150.991 559.0008,-140.991 552.0008,-140.9909"/>
</g>
<!-- StarkTableColumnComponent  -->
<g id="node8" class="node">
<title>StarkTableColumnComponent </title>
<polygon fill="#fb8072" stroke="#000000" points="719.8714,-252 528.1286,-252 528.1286,-216 719.8714,-216 719.8714,-252"/>
<text text-anchor="middle" x="624" y="-229.8" font-family="Times,serif" font-size="14.00" fill="#000000">StarkTableColumnComponent </text>
</g>
<!-- StarkTableModule&#45;&gt;StarkTableColumnComponent  -->
<g id="edge7" class="edge">
<title>StarkTableModule&#45;&gt;StarkTableColumnComponent </title>
<path fill="none" stroke="#000000" stroke-dasharray="5,2" d="M559.3999,-187.1061C559.3999,-187.1061 559.3999,-205.991 559.3999,-205.991"/>
<polygon fill="#000000" stroke="#000000" points="555.9,-205.9909 559.3999,-215.991 562.9,-205.991 555.9,-205.9909"/>
</g>
<!-- StarkTableComponent  -->
<g id="node9" class="node">
<title>StarkTableComponent </title>
<polygon fill="#fb8072" stroke="#000000" points="510.2534,-252 363.7466,-252 363.7466,-216 510.2534,-216 510.2534,-252"/>
<text text-anchor="middle" x="437" y="-229.8" font-family="Times,serif" font-size="14.00" fill="#000000">StarkTableComponent </text>
</g>
<!-- StarkTableModule&#45;&gt;StarkTableComponent  -->
<g id="edge8" class="edge">
<title>StarkTableModule&#45;&gt;StarkTableComponent </title>
<path fill="none" stroke="#000000" stroke-dasharray="5,2" d="M489.8207,-187.1061C489.8207,-187.1061 489.8207,-205.991 489.8207,-205.991"/>
<polygon fill="#000000" stroke="#000000" points="486.3207,-205.9909 489.8207,-215.991 493.3207,-205.991 486.3207,-205.9909"/>
</g>
<!-- StarkActionBarModule -->
<g id="node5" class="node">
<title>StarkActionBarModule</title>
<polygon fill="#8dd3c7" stroke="#000000" points="496.913,-122 493.913,-126 472.913,-126 469.913,-122 349.087,-122 349.087,-86 496.913,-86 496.913,-122"/>
<text text-anchor="middle" x="423" y="-99.8" font-family="Times,serif" font-size="14.00" fill="#000000">StarkActionBarModule</text>
</g>
<!-- StarkActionBarModule&#45;&gt;StarkTableModule -->
<g id="edge4" class="edge">
<title>StarkActionBarModule&#45;&gt;StarkTableModule</title>
<path fill="none" stroke="#000000" d="M483.1105,-122.1061C483.1105,-122.1061 483.1105,-140.991 483.1105,-140.991"/>
<polygon fill="#000000" stroke="#000000" points="479.6105,-140.9909 483.1105,-150.991 486.6105,-140.991 479.6105,-140.9909"/>
</g>
<!-- StarkMinimapModule -->
<g id="node6" class="node">
<title>StarkMinimapModule</title>
<polygon fill="#8dd3c7" stroke="#000000" points="331.4299,-122 328.4299,-126 307.4299,-126 304.4299,-122 190.5701,-122 190.5701,-86 331.4299,-86 331.4299,-122"/>
<text text-anchor="middle" x="261" y="-99.8" font-family="Times,serif" font-size="14.00" fill="#000000">StarkMinimapModule</text>
</g>
<!-- StarkMinimapModule&#45;&gt;StarkTableModule -->
<g id="edge5" class="edge">
<title>StarkMinimapModule&#45;&gt;StarkTableModule</title>
<path fill="none" stroke="#000000" d="M261,-122.0225C261,-139.3734 261,-163 261,-163 261,-163 459.2957,-163 459.2957,-163"/>
<polygon fill="#000000" stroke="#000000" points="459.2958,-166.5001 469.2957,-163 459.2957,-159.5001 459.2958,-166.5001"/>
</g>
<!-- StarkPaginationModule -->
<g id="node7" class="node">
<title>StarkPaginationModule</title>
<polygon fill="#8dd3c7" stroke="#000000" points="172.4818,-122 169.4818,-126 148.4818,-126 145.4818,-122 23.5182,-122 23.5182,-86 172.4818,-86 172.4818,-122"/>
<text text-anchor="middle" x="98" y="-99.8" font-family="Times,serif" font-size="14.00" fill="#000000">StarkPaginationModule</text>
</g>
<!-- StarkPaginationModule&#45;&gt;StarkTableModule -->
<g id="edge6" class="edge">
<title>StarkPaginationModule&#45;&gt;StarkTableModule</title>
<path fill="none" stroke="#000000" d="M98,-122.2843C98,-143.3211 98,-175 98,-175 98,-175 459.4774,-175 459.4774,-175"/>
<polygon fill="#000000" stroke="#000000" points="459.4774,-178.5001 469.4774,-175 459.4773,-171.5001 459.4774,-178.5001"/>
</g>
</g>
</svg>
