<?xml version="1.0" encoding="UTF-8" standalone="no"?>
<!DOCTYPE svg PUBLIC "-//W3C//DTD SVG 1.1//EN"
 "http://www.w3.org/Graphics/SVG/1.1/DTD/svg11.dtd">
<!-- Generated by graphviz version 2.47.0 (20210316.0004)
 -->
<!-- Title: dependencies Pages: 1 -->
<svg width="1596pt" height="284pt"
 viewBox="0.00 0.00 1596.00 284.00" xmlns="http://www.w3.org/2000/svg" xmlns:xlink="http://www.w3.org/1999/xlink">
<g id="graph0" class="graph" transform="scale(1 1) rotate(0) translate(4 280)">
<title>dependencies</title>
<polygon fill="white" stroke="transparent" points="-4,4 -4,-280 1592,-280 1592,4 -4,4"/>
<text text-anchor="start" x="773.01" y="-42.4" font-family="Times-12" font-weight="bold" font-size="14.00">Legend</text>
<polygon fill="#ffffb3" stroke="transparent" points="560,-10 560,-30 580,-30 580,-10 560,-10"/>
<text text-anchor="start" x="583.63" y="-15.4" font-family="Times-12" font-size="14.00"> &#160;Declarations</text>
<polygon fill="#8dd3c7" stroke="transparent" points="673,-10 673,-30 693,-30 693,-10 673,-10"/>
<text text-anchor="start" x="696.73" y="-15.4" font-family="Times-12" font-size="14.00"> &#160;Module</text>
<polygon fill="#80b1d3" stroke="transparent" points="759,-10 759,-30 779,-30 779,-10 759,-10"/>
<text text-anchor="start" x="782.78" y="-15.4" font-family="Times-12" font-size="14.00"> &#160;Bootstrap</text>
<polygon fill="#fdb462" stroke="transparent" points="856,-10 856,-30 876,-30 876,-10 856,-10"/>
<text text-anchor="start" x="879.67" y="-15.4" font-family="Times-12" font-size="14.00"> &#160;Providers</text>
<polygon fill="#fb8072" stroke="transparent" points="952,-10 952,-30 972,-30 972,-10 952,-10"/>
<text text-anchor="start" x="975.73" y="-15.4" font-family="Times-12" font-size="14.00"> &#160;Exports</text>
<g id="clust1" class="cluster">
<title>cluster_StarkTableModule</title>
<polygon fill="none" stroke="black" stroke-dasharray="1,5" points="8,-70 8,-268 1580,-268 1580,-70 8,-70"/>
</g>
<g id="clust8" class="cluster">
<title>cluster_StarkTableModule_imports</title>
<polygon fill="none" stroke="black" points="1083,-78 1083,-130 1572,-130 1572,-78 1083,-78"/>
</g>
<g id="clust2" class="cluster">
<title>cluster_StarkTableModule_declarations</title>
<polygon fill="none" stroke="black" points="16,-78 16,-130 1075,-130 1075,-78 16,-78"/>
</g>
<g id="clust9" class="cluster">
<title>cluster_StarkTableModule_exports</title>
<polygon fill="none" stroke="black" points="448,-208 448,-260 1270,-260 1270,-208 448,-208"/>
</g>
<!-- StarkTableColumnComponent -->
<g id="node1" class="node">
<title>StarkTableColumnComponent</title>
<polygon fill="#ffffb3" stroke="black" points="1066.87,-122 879.13,-122 879.13,-86 1066.87,-86 1066.87,-122"/>
<text text-anchor="middle" x="973" y="-99.8" font-family="Times,serif" font-size="14.00">StarkTableColumnComponent</text>
</g>
<!-- StarkTableModule -->
<g id="node6" class="node">
<title>StarkTableModule</title>
<polygon fill="#8dd3c7" stroke="black" points="941.47,-187 938.47,-191 917.47,-191 914.47,-187 820.53,-187 820.53,-151 941.47,-151 941.47,-187"/>
<text text-anchor="middle" x="881" y="-164.8" font-family="Times,serif" font-size="14.00">StarkTableModule</text>
</g>
<!-- StarkTableColumnComponent&#45;&gt;StarkTableModule -->
<g id="edge1" class="edge">
<title>StarkTableColumnComponent&#45;&gt;StarkTableModule</title>
<path fill="none" stroke="black" d="M910.27,-122.11C910.27,-122.11 910.27,-140.99 910.27,-140.99"/>
<polygon fill="black" stroke="black" points="906.77,-140.99 910.27,-150.99 913.77,-140.99 906.77,-140.99"/>
</g>
<!-- StarkTableComponent -->
<g id="node2" class="node">
<title>StarkTableComponent</title>
<polygon fill="#ffffb3" stroke="black" points="861.25,-122 718.75,-122 718.75,-86 861.25,-86 861.25,-122"/>
<text text-anchor="middle" x="790" y="-99.8" font-family="Times,serif" font-size="14.00">StarkTableComponent</text>
</g>
<!-- StarkTableComponent&#45;&gt;StarkTableModule -->
<g id="edge2" class="edge">
<title>StarkTableComponent&#45;&gt;StarkTableModule</title>
<path fill="none" stroke="black" d="M840.95,-122.11C840.95,-122.11 840.95,-140.99 840.95,-140.99"/>
<polygon fill="black" stroke="black" points="837.45,-140.99 840.95,-150.99 844.45,-140.99 837.45,-140.99"/>
</g>
<!-- StarkTableExpandDetailDirective -->
<g id="node3" class="node">
<title>StarkTableExpandDetailDirective</title>
<polygon fill="#ffffb3" stroke="black" points="700.48,-122 493.52,-122 493.52,-86 700.48,-86 700.48,-122"/>
<text text-anchor="middle" x="597" y="-99.8" font-family="Times,serif" font-size="14.00">StarkTableExpandDetailDirective</text>
</g>
<!-- StarkTableExpandDetailDirective&#45;&gt;StarkTableModule -->
<g id="edge3" class="edge">
<title>StarkTableExpandDetailDirective&#45;&gt;StarkTableModule</title>
<path fill="none" stroke="black" d="M689.12,-122.01C689.12,-138.05 689.12,-159 689.12,-159 689.12,-159 810.29,-159 810.29,-159"/>
<polygon fill="black" stroke="black" points="810.29,-162.5 820.29,-159 810.29,-155.5 810.29,-162.5"/>
</g>
<!-- StarkTableMultisortDialogComponent -->
<g id="node4" class="node">
<title>StarkTableMultisortDialogComponent</title>
<polygon fill="#ffffb3" stroke="black" points="475.47,-122 242.53,-122 242.53,-86 475.47,-86 475.47,-122"/>
<text text-anchor="middle" x="359" y="-99.8" font-family="Times,serif" font-size="14.00">StarkTableMultisortDialogComponent</text>
</g>
<!-- StarkTableMultisortDialogComponent&#45;&gt;StarkTableModule -->
<g id="edge4" class="edge">
<title>StarkTableMultisortDialogComponent&#45;&gt;StarkTableModule</title>
<path fill="none" stroke="black" d="M465.8,-122.27C465.8,-140.56 465.8,-166 465.8,-166 465.8,-166 810.18,-166 810.18,-166"/>
<polygon fill="black" stroke="black" points="810.18,-169.5 820.18,-166 810.18,-162.5 810.18,-169.5"/>
</g>
<!-- StarkTableRowContentDirective -->
<g id="node5" class="node">
<title>StarkTableRowContentDirective</title>
<polygon fill="#ffffb3" stroke="black" points="224.28,-122 23.72,-122 23.72,-86 224.28,-86 224.28,-122"/>
<text text-anchor="middle" x="124" y="-99.8" font-family="Times,serif" font-size="14.00">StarkTableRowContentDirective</text>
</g>
<!-- StarkTableRowContentDirective&#45;&gt;StarkTableModule -->
<g id="edge5" class="edge">
<title>StarkTableRowContentDirective&#45;&gt;StarkTableModule</title>
<path fill="none" stroke="black" d="M124,-122.13C124,-142.57 124,-173 124,-173 124,-173 810.33,-173 810.33,-173"/>
<polygon fill="black" stroke="black" points="810.33,-176.5 820.33,-173 810.33,-169.5 810.33,-176.5"/>
</g>
<!-- StarkTableColumnComponent  -->
<g id="node10" class="node">
<title>StarkTableColumnComponent </title>
<polygon fill="#fb8072" stroke="black" points="1261.87,-252 1070.13,-252 1070.13,-216 1261.87,-216 1261.87,-252"/>
<text text-anchor="middle" x="1166" y="-229.8" font-family="Times,serif" font-size="14.00">StarkTableColumnComponent </text>
</g>
<!-- StarkTableModule&#45;&gt;StarkTableColumnComponent  -->
<g id="edge9" class="edge">
<title>StarkTableModule&#45;&gt;StarkTableColumnComponent </title>
<path fill="none" stroke="black" stroke-dasharray="5,2" d="M941.64,-180C1000.31,-180 1080.41,-180 1080.41,-180 1080.41,-180 1080.41,-205.72 1080.41,-205.72"/>
<polygon fill="black" stroke="black" points="1076.91,-205.72 1080.41,-215.72 1083.91,-205.72 1076.91,-205.72"/>
</g>
<!-- StarkTableComponent  -->
<g id="node11" class="node">
<title>StarkTableComponent </title>
<polygon fill="#fb8072" stroke="black" points="1052.25,-252 905.75,-252 905.75,-216 1052.25,-216 1052.25,-252"/>
<text text-anchor="middle" x="979" y="-229.8" font-family="Times,serif" font-size="14.00">StarkTableComponent </text>
</g>
<!-- StarkTableModule&#45;&gt;StarkTableComponent  -->
<g id="edge10" class="edge">
<title>StarkTableModule&#45;&gt;StarkTableComponent </title>
<path fill="none" stroke="black" stroke-dasharray="5,2" d="M923.68,-187.11C923.68,-187.11 923.68,-205.99 923.68,-205.99"/>
<polygon fill="black" stroke="black" points="920.18,-205.99 923.68,-215.99 927.18,-205.99 920.18,-205.99"/>
</g>
<!-- StarkTableExpandDetailDirective  -->
<g id="node12" class="node">
<title>StarkTableExpandDetailDirective </title>
<polygon fill="#fb8072" stroke="black" points="887.98,-252 678.02,-252 678.02,-216 887.98,-216 887.98,-252"/>
<text text-anchor="middle" x="783" y="-229.8" font-family="Times,serif" font-size="14.00">StarkTableExpandDetailDirective </text>
</g>
<!-- StarkTableModule&#45;&gt;StarkTableExpandDetailDirective  -->
<g id="edge11" class="edge">
<title>StarkTableModule&#45;&gt;StarkTableExpandDetailDirective </title>
<path fill="none" stroke="black" stroke-dasharray="5,2" d="M854.25,-187.11C854.25,-187.11 854.25,-205.99 854.25,-205.99"/>
<polygon fill="black" stroke="black" points="850.75,-205.99 854.25,-215.99 857.75,-205.99 850.75,-205.99"/>
</g>
<!-- StarkTableRowContentDirective  -->
<g id="node13" class="node">
<title>StarkTableRowContentDirective </title>
<polygon fill="#fb8072" stroke="black" points="659.78,-252 456.22,-252 456.22,-216 659.78,-216 659.78,-252"/>
<text text-anchor="middle" x="558" y="-229.8" font-family="Times,serif" font-size="14.00">StarkTableRowContentDirective </text>
</g>
<!-- StarkTableModule&#45;&gt;StarkTableRowContentDirective  -->
<g id="edge12" class="edge">
<title>StarkTableModule&#45;&gt;StarkTableRowContentDirective </title>
<path fill="none" stroke="black" stroke-dasharray="5,2" d="M820.18,-180C731.41,-180 576.83,-180 576.83,-180 576.83,-180 576.83,-205.72 576.83,-205.72"/>
<polygon fill="black" stroke="black" points="573.33,-205.72 576.83,-215.72 580.33,-205.72 573.33,-205.72"/>
</g>
<!-- StarkActionBarModule -->
<g id="node7" class="node">
<title>StarkActionBarModule</title>
<polygon fill="#8dd3c7" stroke="black" points="1563.91,-122 1560.91,-126 1539.91,-126 1536.91,-122 1416.09,-122 1416.09,-86 1563.91,-86 1563.91,-122"/>
<text text-anchor="middle" x="1490" y="-99.8" font-family="Times,serif" font-size="14.00">StarkActionBarModule</text>
</g>
<!-- StarkActionBarModule&#45;&gt;StarkTableModule -->
<g id="edge6" class="edge">
<title>StarkActionBarModule&#45;&gt;StarkTableModule</title>
<path fill="none" stroke="black" d="M1490,-122.13C1490,-142.57 1490,-173 1490,-173 1490,-173 951.62,-173 951.62,-173"/>
<polygon fill="black" stroke="black" points="951.62,-169.5 941.62,-173 951.62,-176.5 951.62,-169.5"/>
</g>
<!-- StarkMinimapModule -->
<g id="node8" class="node">
<title>StarkMinimapModule</title>
<polygon fill="#8dd3c7" stroke="black" points="1398.43,-122 1395.43,-126 1374.43,-126 1371.43,-122 1257.57,-122 1257.57,-86 1398.43,-86 1398.43,-122"/>
<text text-anchor="middle" x="1328" y="-99.8" font-family="Times,serif" font-size="14.00">StarkMinimapModule</text>
</g>
<!-- StarkMinimapModule&#45;&gt;StarkTableModule -->
<g id="edge7" class="edge">
<title>StarkMinimapModule&#45;&gt;StarkTableModule</title>
<path fill="none" stroke="black" d="M1329.95,-122.27C1329.95,-140.56 1329.95,-166 1329.95,-166 1329.95,-166 951.55,-166 951.55,-166"/>
<polygon fill="black" stroke="black" points="951.55,-162.5 941.55,-166 951.55,-169.5 951.55,-162.5"/>
</g>
<!-- StarkPaginationModule -->
<g id="node9" class="node">
<title>StarkPaginationModule</title>
<polygon fill="#8dd3c7" stroke="black" points="1239.48,-122 1236.48,-126 1215.48,-126 1212.48,-122 1090.52,-122 1090.52,-86 1239.48,-86 1239.48,-122"/>
<text text-anchor="middle" x="1165" y="-99.8" font-family="Times,serif" font-size="14.00">StarkPaginationModule</text>
</g>
<!-- StarkPaginationModule&#45;&gt;StarkTableModule -->
<g id="edge8" class="edge">
<title>StarkPaginationModule&#45;&gt;StarkTableModule</title>
<path fill="none" stroke="black" d="M1165,-122.01C1165,-138.05 1165,-159 1165,-159 1165,-159 951.58,-159 951.58,-159"/>
<polygon fill="black" stroke="black" points="951.58,-155.5 941.58,-159 951.58,-162.5 951.58,-155.5"/>
</g>
</g>
</svg>
