<?xml version="1.0" encoding="UTF-8" standalone="no"?>
<!DOCTYPE svg PUBLIC "-//W3C//DTD SVG 1.1//EN"
 "http://www.w3.org/Graphics/SVG/1.1/DTD/svg11.dtd">
<!-- Generated by graphviz version 2.40.1 (20161225.0304)
 -->
<!-- Title: dependencies Pages: 1 -->
<svg width="813pt" height="284pt"
 viewBox="0.00 0.00 813.00 284.00" xmlns="http://www.w3.org/2000/svg" xmlns:xlink="http://www.w3.org/1999/xlink">
<g id="graph0" class="graph" transform="scale(1 1) rotate(0) translate(4 280)">
<title>dependencies</title>
<polygon fill="#ffffff" stroke="transparent" points="-4,4 -4,-280 809,-280 809,4 -4,4"/>
<text text-anchor="start" x="381.5091" y="-42.4" font-family="sans-serif" font-weight="bold" font-size="14.00" fill="#000000">Legend</text>
<polygon fill="#ffffb3" stroke="transparent" points="168.5,-10 168.5,-30 188.5,-30 188.5,-10 168.5,-10"/>
<text text-anchor="start" x="192.129" y="-15.4" font-family="sans-serif" font-size="14.00" fill="#000000"> &#160;Declarations</text>
<polygon fill="#8dd3c7" stroke="transparent" points="281.5,-10 281.5,-30 301.5,-30 301.5,-10 281.5,-10"/>
<text text-anchor="start" x="305.2251" y="-15.4" font-family="sans-serif" font-size="14.00" fill="#000000"> &#160;Module</text>
<polygon fill="#80b1d3" stroke="transparent" points="367.5,-10 367.5,-30 387.5,-30 387.5,-10 367.5,-10"/>
<text text-anchor="start" x="391.2812" y="-15.4" font-family="sans-serif" font-size="14.00" fill="#000000"> &#160;Bootstrap</text>
<polygon fill="#fdb462" stroke="transparent" points="464.5,-10 464.5,-30 484.5,-30 484.5,-10 464.5,-10"/>
<text text-anchor="start" x="488.1732" y="-15.4" font-family="sans-serif" font-size="14.00" fill="#000000"> &#160;Providers</text>
<polygon fill="#fb8072" stroke="transparent" points="560.5,-10 560.5,-30 580.5,-30 580.5,-10 560.5,-10"/>
<text text-anchor="start" x="584.2258" y="-15.4" font-family="sans-serif" font-size="14.00" fill="#000000"> &#160;Exports</text>
<g id="clust1" class="cluster">
<title>cluster_StarkPaginationModule</title>
<polygon fill="none" stroke="#000000" stroke-dasharray="1,5" points="8,-70 8,-268 797,-268 797,-70 8,-70"/>
</g>
<g id="clust2" class="cluster">
<title>cluster_StarkPaginationModule_declarations</title>
<polygon fill="none" stroke="#000000" points="603,-78 603,-130 789,-130 789,-78 603,-78"/>
</g>
<g id="clust4" class="cluster">
<title>cluster_StarkPaginationModule_imports</title>
<polygon fill="none" stroke="#000000" points="16,-78 16,-130 595,-130 595,-78 16,-78"/>
</g>
<g id="clust5" class="cluster">
<title>cluster_StarkPaginationModule_exports</title>
<polygon fill="none" stroke="#000000" points="318,-208 318,-260 508,-260 508,-208 318,-208"/>
</g>
<!-- StarkPaginationComponent -->
<g id="node1" class="node">
<title>StarkPaginationComponent</title>
<polygon fill="#ffffb3" stroke="#000000" points="781.2646,-122 610.7354,-122 610.7354,-86 781.2646,-86 781.2646,-122"/>
<text text-anchor="middle" x="696" y="-99.8" font-family="Times,serif" font-size="14.00" fill="#000000">StarkPaginationComponent</text>
</g>
<!-- StarkPaginationModule -->
<g id="node2" class="node">
<title>StarkPaginationModule</title>
<polygon fill="#8dd3c7" stroke="#000000" points="487.4818,-187 484.4818,-191 463.4818,-191 460.4818,-187 338.5182,-187 338.5182,-151 487.4818,-151 487.4818,-187"/>
<text text-anchor="middle" x="413" y="-164.8" font-family="Times,serif" font-size="14.00" fill="#000000">StarkPaginationModule</text>
</g>
<!-- StarkPaginationComponent&#45;&gt;StarkPaginationModule -->
<g id="edge1" class="edge">
<title>StarkPaginationComponent&#45;&gt;StarkPaginationModule</title>
<path fill="none" stroke="#000000" d="M696,-122.1061C696,-141.3391 696,-169 696,-169 696,-169 497.7251,-169 497.7251,-169"/>
<polygon fill="#000000" stroke="#000000" points="497.7251,-165.5001 487.7251,-169 497.7251,-172.5001 497.7251,-165.5001"/>
</g>
<!-- StarkPaginationComponent  -->
<g id="node6" class="node">
<title>StarkPaginationComponent </title>
<polygon fill="#fb8072" stroke="#000000" points="500.2646,-252 325.7354,-252 325.7354,-216 500.2646,-216 500.2646,-252"/>
<text text-anchor="middle" x="413" y="-229.8" font-family="Times,serif" font-size="14.00" fill="#000000">StarkPaginationComponent </text>
</g>
<!-- StarkPaginationModule&#45;&gt;StarkPaginationComponent  -->
<g id="edge5" class="edge">
<title>StarkPaginationModule&#45;&gt;StarkPaginationComponent </title>
<path fill="none" stroke="#000000" stroke-dasharray="5,2" d="M413,-187.1061C413,-187.1061 413,-205.991 413,-205.991"/>
<polygon fill="#000000" stroke="#000000" points="409.5001,-205.9909 413,-215.991 416.5001,-205.991 409.5001,-205.9909"/>
</g>
<!-- StarkDropdownModule -->
<g id="node3" class="node">
<title>StarkDropdownModule</title>
<polygon fill="#8dd3c7" stroke="#000000" points="587.472,-122 584.472,-126 563.472,-126 560.472,-122 438.528,-122 438.528,-86 587.472,-86 587.472,-122"/>
<text text-anchor="middle" x="513" y="-99.8" font-family="Times,serif" font-size="14.00" fill="#000000">StarkDropdownModule</text>
</g>
<!-- StarkDropdownModule&#45;&gt;StarkPaginationModule -->
<g id="edge2" class="edge">
<title>StarkDropdownModule&#45;&gt;StarkPaginationModule</title>
<path fill="none" stroke="#000000" d="M463.0025,-122.1061C463.0025,-122.1061 463.0025,-140.991 463.0025,-140.991"/>
<polygon fill="#000000" stroke="#000000" points="459.5025,-140.9909 463.0025,-150.991 466.5025,-140.991 459.5025,-140.9909"/>
</g>
<!-- StarkRestrictInputDirectiveModule -->
<g id="node4" class="node">
<title>StarkRestrictInputDirectiveModule</title>
<polygon fill="#8dd3c7" stroke="#000000" points="420.2752,-122 417.2752,-126 396.2752,-126 393.2752,-122 205.7248,-122 205.7248,-86 420.2752,-86 420.2752,-122"/>
<text text-anchor="middle" x="313" y="-99.8" font-family="Times,serif" font-size="14.00" fill="#000000">StarkRestrictInputDirectiveModule</text>
</g>
<!-- StarkRestrictInputDirectiveModule&#45;&gt;StarkPaginationModule -->
<g id="edge3" class="edge">
<title>StarkRestrictInputDirectiveModule&#45;&gt;StarkPaginationModule</title>
<path fill="none" stroke="#000000" d="M379.3233,-122.1061C379.3233,-122.1061 379.3233,-140.991 379.3233,-140.991"/>
<polygon fill="#000000" stroke="#000000" points="375.8234,-140.9909 379.3233,-150.991 382.8234,-140.991 375.8234,-140.9909"/>
</g>
<!-- StarkSvgViewBoxModule -->
<g id="node5" class="node">
<title>StarkSvgViewBoxModule</title>
<polygon fill="#8dd3c7" stroke="#000000" points="188.0365,-122 185.0365,-126 164.0365,-126 161.0365,-122 23.9635,-122 23.9635,-86 188.0365,-86 188.0365,-122"/>
<text text-anchor="middle" x="106" y="-99.8" font-family="Times,serif" font-size="14.00" fill="#000000">StarkSvgViewBoxModule</text>
</g>
<!-- StarkSvgViewBoxModule&#45;&gt;StarkPaginationModule -->
<g id="edge4" class="edge">
<title>StarkSvgViewBoxModule&#45;&gt;StarkPaginationModule</title>
<path fill="none" stroke="#000000" d="M106,-122.1061C106,-141.3391 106,-169 106,-169 106,-169 328.2919,-169 328.2919,-169"/>
<polygon fill="#000000" stroke="#000000" points="328.292,-172.5001 338.2919,-169 328.2919,-165.5001 328.292,-172.5001"/>
</g>
</g>
</svg>
