<?xml version="1.0" encoding="UTF-8" standalone="no"?>
<!DOCTYPE svg PUBLIC "-//W3C//DTD SVG 1.1//EN"
 "http://www.w3.org/Graphics/SVG/1.1/DTD/svg11.dtd">
<!-- Generated by graphviz version 2.47.0 (20210316.0004)
 -->
<!-- Title: dependencies Pages: 1 -->
<svg width="1598pt" height="284pt"
 viewBox="0.00 0.00 1598.00 284.00" xmlns="http://www.w3.org/2000/svg" xmlns:xlink="http://www.w3.org/1999/xlink">
<g id="graph0" class="graph" transform="scale(1 1) rotate(0) translate(4 280)">
<title>dependencies</title>
<polygon fill="white" stroke="transparent" points="-4,4 -4,-280 1594,-280 1594,4 -4,4"/>
<text text-anchor="start" x="774.01" y="-42.4" font-family="Times-12" font-weight="bold" font-size="14.00">Legend</text>
<polygon fill="#ffffb3" stroke="transparent" points="561,-10 561,-30 581,-30 581,-10 561,-10"/>
<text text-anchor="start" x="584.63" y="-15.4" font-family="Times-12" font-size="14.00"> &#160;Declarations</text>
<polygon fill="#8dd3c7" stroke="transparent" points="674,-10 674,-30 694,-30 694,-10 674,-10"/>
<text text-anchor="start" x="697.73" y="-15.4" font-family="Times-12" font-size="14.00"> &#160;Module</text>
<polygon fill="#80b1d3" stroke="transparent" points="760,-10 760,-30 780,-30 780,-10 760,-10"/>
<text text-anchor="start" x="783.78" y="-15.4" font-family="Times-12" font-size="14.00"> &#160;Bootstrap</text>
<polygon fill="#fdb462" stroke="transparent" points="857,-10 857,-30 877,-30 877,-10 857,-10"/>
<text text-anchor="start" x="880.67" y="-15.4" font-family="Times-12" font-size="14.00"> &#160;Providers</text>
<polygon fill="#fb8072" stroke="transparent" points="953,-10 953,-30 973,-30 973,-10 953,-10"/>
<text text-anchor="start" x="976.73" y="-15.4" font-family="Times-12" font-size="14.00"> &#160;Exports</text>
<g id="clust1" class="cluster">
<title>cluster_StarkSessionUiModule</title>
<polygon fill="none" stroke="black" stroke-dasharray="1,5" points="8,-70 8,-268 1582,-268 1582,-70 8,-70"/>
</g>
<g id="clust2" class="cluster">
<title>cluster_StarkSessionUiModule_declarations</title>
<polygon fill="none" stroke="black" points="182,-78 182,-130 1574,-130 1574,-78 182,-78"/>
</g>
<g id="clust10" class="cluster">
<title>cluster_StarkSessionUiModule_exports</title>
<polygon fill="none" stroke="black" points="173,-208 173,-260 1384,-260 1384,-208 173,-208"/>
</g>
<g id="clust9" class="cluster">
<title>cluster_StarkSessionUiModule_imports</title>
<polygon fill="none" stroke="black" points="16,-78 16,-130 174,-130 174,-78 16,-78"/>
</g>
<!-- StarkLoginPageComponent -->
<g id="node1" class="node">
<title>StarkLoginPageComponent</title>
<polygon fill="#ffffb3" stroke="black" points="1565.54,-122 1394.46,-122 1394.46,-86 1565.54,-86 1565.54,-122"/>
<text text-anchor="middle" x="1480" y="-99.8" font-family="Times,serif" font-size="14.00">StarkLoginPageComponent</text>
</g>
<!-- StarkSessionUiModule -->
<g id="node7" class="node">
<title>StarkSessionUiModule</title>
<polygon fill="#8dd3c7" stroke="black" points="920.87,-187 917.87,-191 896.87,-191 893.87,-187 775.13,-187 775.13,-151 920.87,-151 920.87,-187"/>
<text text-anchor="middle" x="848" y="-164.8" font-family="Times,serif" font-size="14.00">StarkSessionUiModule</text>
</g>
<!-- StarkLoginPageComponent&#45;&gt;StarkSessionUiModule -->
<g id="edge1" class="edge">
<title>StarkLoginPageComponent&#45;&gt;StarkSessionUiModule</title>
<path fill="none" stroke="black" d="M1480,-122.11C1480,-141.34 1480,-169 1480,-169 1480,-169 931.12,-169 931.12,-169"/>
<polygon fill="black" stroke="black" points="931.12,-165.5 921.12,-169 931.12,-172.5 931.12,-165.5"/>
</g>
<!-- StarkPreloadingPageComponent -->
<g id="node2" class="node">
<title>StarkPreloadingPageComponent</title>
<polygon fill="#ffffb3" stroke="black" points="1376.25,-122 1177.75,-122 1177.75,-86 1376.25,-86 1376.25,-122"/>
<text text-anchor="middle" x="1277" y="-99.8" font-family="Times,serif" font-size="14.00">StarkPreloadingPageComponent</text>
</g>
<!-- StarkPreloadingPageComponent&#45;&gt;StarkSessionUiModule -->
<g id="edge2" class="edge">
<title>StarkPreloadingPageComponent&#45;&gt;StarkSessionUiModule</title>
<path fill="none" stroke="black" d="M1191.3,-122.02C1191.3,-139.37 1191.3,-163 1191.3,-163 1191.3,-163 931.23,-163 931.23,-163"/>
<polygon fill="black" stroke="black" points="931.23,-159.5 921.23,-163 931.23,-166.5 931.23,-159.5"/>
</g>
<!-- StarkSessionCardComponent -->
<g id="node3" class="node">
<title>StarkSessionCardComponent</title>
<polygon fill="#ffffb3" stroke="black" points="1159.37,-122 978.63,-122 978.63,-86 1159.37,-86 1159.37,-122"/>
<text text-anchor="middle" x="1069" y="-99.8" font-family="Times,serif" font-size="14.00">StarkSessionCardComponent</text>
</g>
<!-- StarkSessionCardComponent&#45;&gt;StarkSessionUiModule -->
<g id="edge3" class="edge">
<title>StarkSessionCardComponent&#45;&gt;StarkSessionUiModule</title>
<path fill="none" stroke="black" d="M1099.58,-122.24C1099.58,-137.57 1099.58,-157 1099.58,-157 1099.58,-157 931.11,-157 931.11,-157"/>
<polygon fill="black" stroke="black" points="931.11,-153.5 921.11,-157 931.11,-160.5 931.11,-153.5"/>
</g>
<!-- StarkSessionExpiredPageComponent -->
<g id="node4" class="node">
<title>StarkSessionExpiredPageComponent</title>
<polygon fill="#ffffb3" stroke="black" points="960.69,-122 735.31,-122 735.31,-86 960.69,-86 960.69,-122"/>
<text text-anchor="middle" x="848" y="-99.8" font-family="Times,serif" font-size="14.00">StarkSessionExpiredPageComponent</text>
</g>
<!-- StarkSessionExpiredPageComponent&#45;&gt;StarkSessionUiModule -->
<g id="edge4" class="edge">
<title>StarkSessionExpiredPageComponent&#45;&gt;StarkSessionUiModule</title>
<path fill="none" stroke="black" d="M848,-122.11C848,-122.11 848,-140.99 848,-140.99"/>
<polygon fill="black" stroke="black" points="844.5,-140.99 848,-150.99 851.5,-140.99 844.5,-140.99"/>
</g>
<!-- StarkSessionLogoutPageComponent -->
<g id="node5" class="node">
<title>StarkSessionLogoutPageComponent</title>
<polygon fill="#ffffb3" stroke="black" points="717.81,-122 496.19,-122 496.19,-86 717.81,-86 717.81,-122"/>
<text text-anchor="middle" x="607" y="-99.8" font-family="Times,serif" font-size="14.00">StarkSessionLogoutPageComponent</text>
</g>
<!-- StarkSessionLogoutPageComponent&#45;&gt;StarkSessionUiModule -->
<g id="edge5" class="edge">
<title>StarkSessionLogoutPageComponent&#45;&gt;StarkSessionUiModule</title>
<path fill="none" stroke="black" d="M642.39,-122.24C642.39,-137.57 642.39,-157 642.39,-157 642.39,-157 764.93,-157 764.93,-157"/>
<polygon fill="black" stroke="black" points="764.93,-160.5 774.93,-157 764.93,-153.5 764.93,-160.5"/>
</g>
<!-- StarkSessionTimeoutWarningDialogComponent -->
<g id="node6" class="node">
<title>StarkSessionTimeoutWarningDialogComponent</title>
<polygon fill="#ffffb3" stroke="black" points="478.18,-122 189.82,-122 189.82,-86 478.18,-86 478.18,-122"/>
<text text-anchor="middle" x="334" y="-99.8" font-family="Times,serif" font-size="14.00">StarkSessionTimeoutWarningDialogComponent</text>
</g>
<!-- StarkSessionTimeoutWarningDialogComponent&#45;&gt;StarkSessionUiModule -->
<g id="edge6" class="edge">
<title>StarkSessionTimeoutWarningDialogComponent&#45;&gt;StarkSessionUiModule</title>
<path fill="none" stroke="black" d="M378.53,-122.02C378.53,-139.37 378.53,-163 378.53,-163 378.53,-163 764.9,-163 764.9,-163"/>
<polygon fill="black" stroke="black" points="764.9,-166.5 774.9,-163 764.9,-159.5 764.9,-166.5"/>
</g>
<!-- StarkLoginPageComponent  -->
<g id="node9" class="node">
<title>StarkLoginPageComponent </title>
<polygon fill="#fb8072" stroke="black" points="1375.54,-252 1200.46,-252 1200.46,-216 1375.54,-216 1375.54,-252"/>
<text text-anchor="middle" x="1288" y="-229.8" font-family="Times,serif" font-size="14.00">StarkLoginPageComponent </text>
</g>
<!-- StarkSessionUiModule&#45;&gt;StarkLoginPageComponent  -->
<g id="edge8" class="edge">
<title>StarkSessionUiModule&#45;&gt;StarkLoginPageComponent </title>
<path fill="none" stroke="black" stroke-dasharray="5,2" d="M921.15,-175C1046.27,-175 1288,-175 1288,-175 1288,-175 1288,-205.98 1288,-205.98"/>
<polygon fill="black" stroke="black" points="1284.5,-205.98 1288,-215.98 1291.5,-205.98 1284.5,-205.98"/>
</g>
<!-- StarkPreloadingPageComponent  -->
<g id="node10" class="node">
<title>StarkPreloadingPageComponent </title>
<polygon fill="#fb8072" stroke="black" points="1182.25,-252 979.75,-252 979.75,-216 1182.25,-216 1182.25,-252"/>
<text text-anchor="middle" x="1081" y="-229.8" font-family="Times,serif" font-size="14.00">StarkPreloadingPageComponent </text>
</g>
<!-- StarkSessionUiModule&#45;&gt;StarkPreloadingPageComponent  -->
<g id="edge9" class="edge">
<title>StarkSessionUiModule&#45;&gt;StarkPreloadingPageComponent </title>
<path fill="none" stroke="black" stroke-dasharray="5,2" d="M921.03,-181C975.21,-181 1039.73,-181 1039.73,-181 1039.73,-181 1039.73,-205.76 1039.73,-205.76"/>
<polygon fill="black" stroke="black" points="1036.23,-205.76 1039.73,-215.76 1043.23,-205.76 1036.23,-205.76"/>
</g>
<!-- StarkSessionExpiredPageComponent  -->
<g id="node11" class="node">
<title>StarkSessionExpiredPageComponent </title>
<polygon fill="#fb8072" stroke="black" points="962.19,-252 733.81,-252 733.81,-216 962.19,-216 962.19,-252"/>
<text text-anchor="middle" x="848" y="-229.8" font-family="Times,serif" font-size="14.00">StarkSessionExpiredPageComponent </text>
</g>
<!-- StarkSessionUiModule&#45;&gt;StarkSessionExpiredPageComponent  -->
<g id="edge10" class="edge">
<title>StarkSessionUiModule&#45;&gt;StarkSessionExpiredPageComponent </title>
<path fill="none" stroke="black" stroke-dasharray="5,2" d="M848,-187.11C848,-187.11 848,-205.99 848,-205.99"/>
<polygon fill="black" stroke="black" points="844.5,-205.99 848,-215.99 851.5,-205.99 844.5,-205.99"/>
</g>
<!-- StarkSessionLogoutPageComponent  -->
<g id="node12" class="node">
<title>StarkSessionLogoutPageComponent </title>
<polygon fill="#fb8072" stroke="black" points="715.31,-252 490.69,-252 490.69,-216 715.31,-216 715.31,-252"/>
<text text-anchor="middle" x="603" y="-229.8" font-family="Times,serif" font-size="14.00">StarkSessionLogoutPageComponent </text>
</g>
<!-- StarkSessionUiModule&#45;&gt;StarkSessionLogoutPageComponent  -->
<g id="edge11" class="edge">
<title>StarkSessionUiModule&#45;&gt;StarkSessionLogoutPageComponent </title>
<path fill="none" stroke="black" stroke-dasharray="5,2" d="M774.79,-181C692.24,-181 569.36,-181 569.36,-181 569.36,-181 569.36,-205.76 569.36,-205.76"/>
<polygon fill="black" stroke="black" points="565.86,-205.76 569.36,-215.76 572.86,-205.76 565.86,-205.76"/>
</g>
<!-- StarkSessionTimeoutWarningDialogComponent  -->
<g id="node13" class="node">
<title>StarkSessionTimeoutWarningDialogComponent </title>
<polygon fill="#fb8072" stroke="black" points="472.68,-252 181.32,-252 181.32,-216 472.68,-216 472.68,-252"/>
<text text-anchor="middle" x="327" y="-229.8" font-family="Times,serif" font-size="14.00">StarkSessionTimeoutWarningDialogComponent </text>
</g>
<!-- StarkSessionUiModule&#45;&gt;StarkSessionTimeoutWarningDialogComponent  -->
<g id="edge12" class="edge">
<title>StarkSessionUiModule&#45;&gt;StarkSessionTimeoutWarningDialogComponent </title>
<path fill="none" stroke="black" stroke-dasharray="5,2" d="M774.87,-175C622.33,-175 284.22,-175 284.22,-175 284.22,-175 284.22,-205.98 284.22,-205.98"/>
<polygon fill="black" stroke="black" points="280.72,-205.98 284.22,-215.98 287.72,-205.98 280.72,-205.98"/>
</g>
<!-- StarkAppLogoModule -->
<g id="node8" class="node">
<title>StarkAppLogoModule</title>
<polygon fill="#8dd3c7" stroke="black" points="166.26,-122 163.26,-126 142.26,-126 139.26,-122 23.74,-122 23.74,-86 166.26,-86 166.26,-122"/>
<text text-anchor="middle" x="95" y="-99.8" font-family="Times,serif" font-size="14.00">StarkAppLogoModule</text>
</g>
<!-- StarkAppLogoModule&#45;&gt;StarkSessionUiModule -->
<g id="edge7" class="edge">
<title>StarkAppLogoModule&#45;&gt;StarkSessionUiModule</title>
<path fill="none" stroke="black" d="M95,-122.11C95,-141.34 95,-169 95,-169 95,-169 765.12,-169 765.12,-169"/>
<polygon fill="black" stroke="black" points="765.12,-172.5 775.12,-169 765.11,-165.5 765.12,-172.5"/>
</g>
</g>
</svg>
