<?xml version="1.0" encoding="UTF-8" standalone="no"?>
<!DOCTYPE svg PUBLIC "-//W3C//DTD SVG 1.1//EN"
 "http://www.w3.org/Graphics/SVG/1.1/DTD/svg11.dtd">
<!-- Generated by graphviz version 2.40.1 (20161225.0304)
 -->
<!-- Title: dependencies Pages: 1 -->
<svg width="504pt" height="284pt"
 viewBox="0.00 0.00 504.00 284.00" xmlns="http://www.w3.org/2000/svg" xmlns:xlink="http://www.w3.org/1999/xlink">
<g id="graph0" class="graph" transform="scale(1 1) rotate(0) translate(4 280)">
<title>dependencies</title>
<polygon fill="#ffffff" stroke="transparent" points="-4,4 -4,-280 500,-280 500,4 -4,4"/>
<text text-anchor="start" x="227.0091" y="-42.4" font-family="sans-serif" font-weight="bold" font-size="14.00" fill="#000000">Legend</text>
<polygon fill="#ffffb3" stroke="transparent" points="14,-10 14,-30 34,-30 34,-10 14,-10"/>
<text text-anchor="start" x="37.629" y="-15.4" font-family="sans-serif" font-size="14.00" fill="#000000"> &#160;Declarations</text>
<polygon fill="#8dd3c7" stroke="transparent" points="127,-10 127,-30 147,-30 147,-10 127,-10"/>
<text text-anchor="start" x="150.7251" y="-15.4" font-family="sans-serif" font-size="14.00" fill="#000000"> &#160;Module</text>
<polygon fill="#80b1d3" stroke="transparent" points="213,-10 213,-30 233,-30 233,-10 213,-10"/>
<text text-anchor="start" x="236.7812" y="-15.4" font-family="sans-serif" font-size="14.00" fill="#000000"> &#160;Bootstrap</text>
<polygon fill="#fdb462" stroke="transparent" points="310,-10 310,-30 330,-30 330,-10 310,-10"/>
<text text-anchor="start" x="333.6732" y="-15.4" font-family="sans-serif" font-size="14.00" fill="#000000"> &#160;Providers</text>
<polygon fill="#fb8072" stroke="transparent" points="406,-10 406,-30 426,-30 426,-10 406,-10"/>
<text text-anchor="start" x="429.7258" y="-15.4" font-family="sans-serif" font-size="14.00" fill="#000000"> &#160;Exports</text>
<g id="clust1" class="cluster">
<title>cluster_StarkGenericSearchModule</title>
<polygon fill="none" stroke="#000000" stroke-dasharray="1,5" points="49,-70 49,-268 447,-268 447,-70 49,-70"/>
</g>
<g id="clust2" class="cluster">
<title>cluster_StarkGenericSearchModule_declarations</title>
<polygon fill="none" stroke="#000000" points="229,-78 229,-130 439,-130 439,-78 229,-78"/>
</g>
<g id="clust4" class="cluster">
<title>cluster_StarkGenericSearchModule_imports</title>
<polygon fill="none" stroke="#000000" points="57,-78 57,-130 221,-130 221,-78 57,-78"/>
</g>
<g id="clust5" class="cluster">
<title>cluster_StarkGenericSearchModule_exports</title>
<polygon fill="none" stroke="#000000" points="142,-208 142,-260 354,-260 354,-208 142,-208"/>
</g>
<!-- StarkGenericSearchComponent -->
<g id="node1" class="node">
<title>StarkGenericSearchComponent</title>
<polygon fill="#ffffb3" stroke="#000000" points="430.7696,-122 237.2304,-122 237.2304,-86 430.7696,-86 430.7696,-122"/>
<text text-anchor="middle" x="334" y="-99.8" font-family="Times,serif" font-size="14.00" fill="#000000">StarkGenericSearchComponent</text>
</g>
<!-- StarkGenericSearchModule -->
<g id="node2" class="node">
<title>StarkGenericSearchModule</title>
<polygon fill="#8dd3c7" stroke="#000000" points="333.9875,-187 330.9875,-191 309.9875,-191 306.9875,-187 162.0125,-187 162.0125,-151 333.9875,-151 333.9875,-187"/>
<text text-anchor="middle" x="248" y="-164.8" font-family="Times,serif" font-size="14.00" fill="#000000">StarkGenericSearchModule</text>
</g>
<!-- StarkGenericSearchComponent&#45;&gt;StarkGenericSearchModule -->
<g id="edge1" class="edge">
<title>StarkGenericSearchComponent&#45;&gt;StarkGenericSearchModule</title>
<path fill="none" stroke="#000000" d="M285.5544,-122.1061C285.5544,-122.1061 285.5544,-140.991 285.5544,-140.991"/>
<polygon fill="#000000" stroke="#000000" points="282.0544,-140.9909 285.5544,-150.991 289.0544,-140.991 282.0544,-140.9909"/>
</g>
<!-- StarkGenericSearchComponent  -->
<g id="node4" class="node">
<title>StarkGenericSearchComponent </title>
<polygon fill="#fb8072" stroke="#000000" points="346.2695,-252 149.7305,-252 149.7305,-216 346.2695,-216 346.2695,-252"/>
<text text-anchor="middle" x="248" y="-229.8" font-family="Times,serif" font-size="14.00" fill="#000000">StarkGenericSearchComponent </text>
</g>
<!-- StarkGenericSearchModule&#45;&gt;StarkGenericSearchComponent  -->
<g id="edge3" class="edge">
<title>StarkGenericSearchModule&#45;&gt;StarkGenericSearchComponent </title>
<path fill="none" stroke="#000000" stroke-dasharray="5,2" d="M248,-187.1061C248,-187.1061 248,-205.991 248,-205.991"/>
<polygon fill="#000000" stroke="#000000" points="244.5001,-205.9909 248,-215.991 251.5001,-205.991 244.5001,-205.9909"/>
</g>
<!-- StarkActionBarModule -->
<g id="node3" class="node">
<title>StarkActionBarModule</title>
<polygon fill="#8dd3c7" stroke="#000000" points="212.913,-122 209.913,-126 188.913,-126 185.913,-122 65.087,-122 65.087,-86 212.913,-86 212.913,-122"/>
<text text-anchor="middle" x="139" y="-99.8" font-family="Times,serif" font-size="14.00" fill="#000000">StarkActionBarModule</text>
</g>
<!-- StarkActionBarModule&#45;&gt;StarkGenericSearchModule -->
<g id="edge2" class="edge">
<title>StarkActionBarModule&#45;&gt;StarkGenericSearchModule</title>
<path fill="none" stroke="#000000" d="M187.4814,-122.1061C187.4814,-122.1061 187.4814,-140.991 187.4814,-140.991"/>
<polygon fill="#000000" stroke="#000000" points="183.9815,-140.9909 187.4814,-150.991 190.9815,-140.991 183.9815,-140.9909"/>
</g>
</g>
</svg>
