<?xml version="1.0" encoding="UTF-8" standalone="no"?>
<!DOCTYPE svg PUBLIC "-//W3C//DTD SVG 1.1//EN"
 "http://www.w3.org/Graphics/SVG/1.1/DTD/svg11.dtd">
<!-- Generated by graphviz version 2.46.0 (20210119.1425)
 -->
<!-- Title: dependencies Pages: 1 -->
<svg width="504pt" height="284pt"
 viewBox="0.00 0.00 504.00 284.00" xmlns="http://www.w3.org/2000/svg" xmlns:xlink="http://www.w3.org/1999/xlink">
<g id="graph0" class="graph" transform="scale(1 1) rotate(0) translate(4 280)">
<title>dependencies</title>
<polygon fill="white" stroke="transparent" points="-4,4 -4,-280 500,-280 500,4 -4,4"/>
<text text-anchor="start" x="227.01" y="-42.4" font-family="sans-serif" font-weight="bold" font-size="14.00">Legend</text>
<polygon fill="#ffffb3" stroke="transparent" points="14,-10 14,-30 34,-30 34,-10 14,-10"/>
<text text-anchor="start" x="37.63" y="-15.4" font-family="sans-serif" font-size="14.00"> &#160;Declarations</text>
<polygon fill="#8dd3c7" stroke="transparent" points="127,-10 127,-30 147,-30 147,-10 127,-10"/>
<text text-anchor="start" x="150.73" y="-15.4" font-family="sans-serif" font-size="14.00"> &#160;Module</text>
<polygon fill="#80b1d3" stroke="transparent" points="213,-10 213,-30 233,-30 233,-10 213,-10"/>
<text text-anchor="start" x="236.78" y="-15.4" font-family="sans-serif" font-size="14.00"> &#160;Bootstrap</text>
<polygon fill="#fdb462" stroke="transparent" points="310,-10 310,-30 330,-30 330,-10 310,-10"/>
<text text-anchor="start" x="333.67" y="-15.4" font-family="sans-serif" font-size="14.00"> &#160;Providers</text>
<polygon fill="#fb8072" stroke="transparent" points="406,-10 406,-30 426,-30 426,-10 406,-10"/>
<text text-anchor="start" x="429.73" y="-15.4" font-family="sans-serif" font-size="14.00"> &#160;Exports</text>
<g id="clust1" class="cluster">
<title>cluster_StarkTransformInputDirectiveModule</title>
<polygon fill="none" stroke="black" stroke-dasharray="1,5" points="125,-70 125,-268 371,-268 371,-70 125,-70"/>
</g>
<g id="clust5" class="cluster">
<title>cluster_StarkTransformInputDirectiveModule_exports</title>
<polygon fill="none" stroke="black" points="145,-208 145,-260 351,-260 351,-208 145,-208"/>
</g>
<g id="clust2" class="cluster">
<title>cluster_StarkTransformInputDirectiveModule_declarations</title>
<polygon fill="none" stroke="black" points="147,-78 147,-130 349,-130 349,-78 147,-78"/>
</g>
<!-- StarkTransformInputDirective -->
<g id="node1" class="node">
<title>StarkTransformInputDirective</title>
<polygon fill="#ffffb3" stroke="black" points="341.27,-122 154.73,-122 154.73,-86 341.27,-86 341.27,-122"/>
<text text-anchor="middle" x="248" y="-99.8" font-family="Times,serif" font-size="14.00">StarkTransformInputDirective</text>
</g>
<!-- StarkTransformInputDirectiveModule -->
<g id="node2" class="node">
<title>StarkTransformInputDirectiveModule</title>
<polygon fill="#8dd3c7" stroke="black" points="362.82,-187 359.82,-191 338.82,-191 335.82,-187 133.18,-187 133.18,-151 362.82,-151 362.82,-187"/>
<text text-anchor="middle" x="248" y="-164.8" font-family="Times,serif" font-size="14.00">StarkTransformInputDirectiveModule</text>
</g>
<!-- StarkTransformInputDirective&#45;&gt;StarkTransformInputDirectiveModule -->
<g id="edge1" class="edge">
<title>StarkTransformInputDirective&#45;&gt;StarkTransformInputDirectiveModule</title>
<path fill="none" stroke="black" d="M248,-122.11C248,-122.11 248,-140.99 248,-140.99"/>
<polygon fill="black" stroke="black" points="244.5,-140.99 248,-150.99 251.5,-140.99 244.5,-140.99"/>
</g>
<!-- StarkTransformInputDirective  -->
<g id="node3" class="node">
<title>StarkTransformInputDirective </title>
<polygon fill="#fb8072" stroke="black" points="342.77,-252 153.23,-252 153.23,-216 342.77,-216 342.77,-252"/>
<text text-anchor="middle" x="248" y="-229.8" font-family="Times,serif" font-size="14.00">StarkTransformInputDirective </text>
</g>
<!-- StarkTransformInputDirectiveModule&#45;&gt;StarkTransformInputDirective  -->
<g id="edge2" class="edge">
<title>StarkTransformInputDirectiveModule&#45;&gt;StarkTransformInputDirective </title>
<path fill="none" stroke="black" stroke-dasharray="5,2" d="M248,-187.11C248,-187.11 248,-205.99 248,-205.99"/>
<polygon fill="black" stroke="black" points="244.5,-205.99 248,-215.99 251.5,-205.99 244.5,-205.99"/>
</g>
</g>
</svg>
