<?xml version="1.0" encoding="UTF-8" standalone="no"?>
<!DOCTYPE svg PUBLIC "-//W3C//DTD SVG 1.1//EN"
 "http://www.w3.org/Graphics/SVG/1.1/DTD/svg11.dtd">
<!-- Generated by graphviz version 2.46.0 (20210119.1425)
 -->
<!-- Title: dependencies Pages: 1 -->
<svg width="504pt" height="284pt"
 viewBox="0.00 0.00 504.00 284.00" xmlns="http://www.w3.org/2000/svg" xmlns:xlink="http://www.w3.org/1999/xlink">
<g id="graph0" class="graph" transform="scale(1 1) rotate(0) translate(4 280)">
<title>dependencies</title>
<polygon fill="white" stroke="transparent" points="-4,4 -4,-280 500,-280 500,4 -4,4"/>
<text text-anchor="start" x="227.01" y="-42.4" font-family="sans-serif" font-weight="bold" font-size="14.00">Legend</text>
<polygon fill="#ffffb3" stroke="transparent" points="14,-10 14,-30 34,-30 34,-10 14,-10"/>
<text text-anchor="start" x="37.63" y="-15.4" font-family="sans-serif" font-size="14.00"> &#160;Declarations</text>
<polygon fill="#8dd3c7" stroke="transparent" points="127,-10 127,-30 147,-30 147,-10 127,-10"/>
<text text-anchor="start" x="150.73" y="-15.4" font-family="sans-serif" font-size="14.00"> &#160;Module</text>
<polygon fill="#80b1d3" stroke="transparent" points="213,-10 213,-30 233,-30 233,-10 213,-10"/>
<text text-anchor="start" x="236.78" y="-15.4" font-family="sans-serif" font-size="14.00"> &#160;Bootstrap</text>
<polygon fill="#fdb462" stroke="transparent" points="310,-10 310,-30 330,-30 330,-10 310,-10"/>
<text text-anchor="start" x="333.67" y="-15.4" font-family="sans-serif" font-size="14.00"> &#160;Providers</text>
<polygon fill="#fb8072" stroke="transparent" points="406,-10 406,-30 426,-30 426,-10 406,-10"/>
<text text-anchor="start" x="429.73" y="-15.4" font-family="sans-serif" font-size="14.00"> &#160;Exports</text>
<g id="clust1" class="cluster">
<title>cluster_StarkDateRangePickerModule</title>
<polygon fill="none" stroke="black" stroke-dasharray="1,5" points="40,-70 40,-268 456,-268 456,-70 40,-70"/>
</g>
<g id="clust2" class="cluster">
<title>cluster_StarkDateRangePickerModule_declarations</title>
<polygon fill="none" stroke="black" points="224,-78 224,-130 448,-130 448,-78 224,-78"/>
</g>
<g id="clust4" class="cluster">
<title>cluster_StarkDateRangePickerModule_imports</title>
<polygon fill="none" stroke="black" points="48,-78 48,-130 216,-130 216,-78 48,-78"/>
</g>
<g id="clust5" class="cluster">
<title>cluster_StarkDateRangePickerModule_exports</title>
<polygon fill="none" stroke="black" points="134,-208 134,-260 362,-260 362,-208 134,-208"/>
</g>
<!-- StarkDateRangePickerComponent -->
<g id="node1" class="node">
<title>StarkDateRangePickerComponent</title>
<polygon fill="#ffffb3" stroke="black" points="440.34,-122 231.66,-122 231.66,-86 440.34,-86 440.34,-122"/>
<text text-anchor="middle" x="336" y="-99.8" font-family="Times,serif" font-size="14.00">StarkDateRangePickerComponent</text>
</g>
<!-- StarkDateRangePickerModule -->
<g id="node2" class="node">
<title>StarkDateRangePickerModule</title>
<polygon fill="#8dd3c7" stroke="black" points="341.55,-187 338.55,-191 317.55,-191 314.55,-187 154.45,-187 154.45,-151 341.55,-151 341.55,-187"/>
<text text-anchor="middle" x="248" y="-164.8" font-family="Times,serif" font-size="14.00">StarkDateRangePickerModule</text>
</g>
<!-- StarkDateRangePickerComponent&#45;&gt;StarkDateRangePickerModule -->
<g id="edge1" class="edge">
<title>StarkDateRangePickerComponent&#45;&gt;StarkDateRangePickerModule</title>
<path fill="none" stroke="black" d="M286.55,-122.11C286.55,-122.11 286.55,-140.99 286.55,-140.99"/>
<polygon fill="black" stroke="black" points="283.05,-140.99 286.55,-150.99 290.05,-140.99 283.05,-140.99"/>
</g>
<!-- StarkDateRangePickerComponent  -->
<g id="node4" class="node">
<title>StarkDateRangePickerComponent </title>
<polygon fill="#fb8072" stroke="black" points="354.34,-252 141.66,-252 141.66,-216 354.34,-216 354.34,-252"/>
<text text-anchor="middle" x="248" y="-229.8" font-family="Times,serif" font-size="14.00">StarkDateRangePickerComponent </text>
</g>
<!-- StarkDateRangePickerModule&#45;&gt;StarkDateRangePickerComponent  -->
<g id="edge3" class="edge">
<title>StarkDateRangePickerModule&#45;&gt;StarkDateRangePickerComponent </title>
<path fill="none" stroke="black" stroke-dasharray="5,2" d="M248,-187.11C248,-187.11 248,-205.99 248,-205.99"/>
<polygon fill="black" stroke="black" points="244.5,-205.99 248,-215.99 251.5,-205.99 244.5,-205.99"/>
</g>
<!-- StarkDatePickerModule -->
<g id="node3" class="node">
<title>StarkDatePickerModule</title>
<polygon fill="#8dd3c7" stroke="black" points="207.79,-122 204.79,-126 183.79,-126 180.79,-122 56.21,-122 56.21,-86 207.79,-86 207.79,-122"/>
<text text-anchor="middle" x="132" y="-99.8" font-family="Times,serif" font-size="14.00">StarkDatePickerModule</text>
</g>
<!-- StarkDatePickerModule&#45;&gt;StarkDateRangePickerModule -->
<g id="edge2" class="edge">
<title>StarkDatePickerModule&#45;&gt;StarkDateRangePickerModule</title>
<path fill="none" stroke="black" d="M181.06,-122.11C181.06,-122.11 181.06,-140.99 181.06,-140.99"/>
<polygon fill="black" stroke="black" points="177.56,-140.99 181.06,-150.99 184.56,-140.99 177.56,-140.99"/>
</g>
</g>
</svg>
