<?xml version="1.0" encoding="UTF-8" standalone="no"?>
<!DOCTYPE svg PUBLIC "-//W3C//DTD SVG 1.1//EN"
 "http://www.w3.org/Graphics/SVG/1.1/DTD/svg11.dtd">
<!-- Generated by graphviz version 2.40.1 (20161225.0304)
 -->
<!-- Title: dependencies Pages: 1 -->
<svg width="941pt" height="284pt"
 viewBox="0.00 0.00 941.00 284.00" xmlns="http://www.w3.org/2000/svg" xmlns:xlink="http://www.w3.org/1999/xlink">
<g id="graph0" class="graph" transform="scale(1 1) rotate(0) translate(4 280)">
<title>dependencies</title>
<polygon fill="#ffffff" stroke="transparent" points="-4,4 -4,-280 937,-280 937,4 -4,4"/>
<text text-anchor="start" x="445.5091" y="-42.4" font-family="sans-serif" font-weight="bold" font-size="14.00" fill="#000000">Legend</text>
<polygon fill="#ffffb3" stroke="transparent" points="232.5,-10 232.5,-30 252.5,-30 252.5,-10 232.5,-10"/>
<text text-anchor="start" x="256.129" y="-15.4" font-family="sans-serif" font-size="14.00" fill="#000000"> &#160;Declarations</text>
<polygon fill="#8dd3c7" stroke="transparent" points="345.5,-10 345.5,-30 365.5,-30 365.5,-10 345.5,-10"/>
<text text-anchor="start" x="369.2251" y="-15.4" font-family="sans-serif" font-size="14.00" fill="#000000"> &#160;Module</text>
<polygon fill="#80b1d3" stroke="transparent" points="431.5,-10 431.5,-30 451.5,-30 451.5,-10 431.5,-10"/>
<text text-anchor="start" x="455.2812" y="-15.4" font-family="sans-serif" font-size="14.00" fill="#000000"> &#160;Bootstrap</text>
<polygon fill="#fdb462" stroke="transparent" points="528.5,-10 528.5,-30 548.5,-30 548.5,-10 528.5,-10"/>
<text text-anchor="start" x="552.1732" y="-15.4" font-family="sans-serif" font-size="14.00" fill="#000000"> &#160;Providers</text>
<polygon fill="#fb8072" stroke="transparent" points="624.5,-10 624.5,-30 644.5,-30 644.5,-10 624.5,-10"/>
<text text-anchor="start" x="648.2258" y="-15.4" font-family="sans-serif" font-size="14.00" fill="#000000"> &#160;Exports</text>
<g id="clust1" class="cluster">
<title>cluster_StarkSessionUiModule</title>
<polygon fill="none" stroke="#000000" stroke-dasharray="1,5" points="8,-70 8,-268 925,-268 925,-70 8,-70"/>
</g>
<g id="clust2" class="cluster">
<title>cluster_StarkSessionUiModule_declarations</title>
<polygon fill="none" stroke="#000000" points="24,-78 24,-130 911,-130 911,-78 24,-78"/>
</g>
<g id="clust8" class="cluster">
<title>cluster_StarkSessionUiModule_exports</title>
<polygon fill="none" stroke="#000000" points="16,-208 16,-260 917,-260 917,-208 16,-208"/>
</g>
<!-- StarkLoginPageComponent -->
<g id="node1" class="node">
<title>StarkLoginPageComponent</title>
<polygon fill="#ffffb3" stroke="#000000" points="902.5364,-122 731.4636,-122 731.4636,-86 902.5364,-86 902.5364,-122"/>
<text text-anchor="middle" x="817" y="-99.8" font-family="Times,serif" font-size="14.00" fill="#000000">StarkLoginPageComponent</text>
</g>
<!-- StarkSessionUiModule -->
<g id="node5" class="node">
<title>StarkSessionUiModule</title>
<polygon fill="#8dd3c7" stroke="#000000" points="458.8725,-187 455.8725,-191 434.8725,-191 431.8725,-187 313.1275,-187 313.1275,-151 458.8725,-151 458.8725,-187"/>
<text text-anchor="middle" x="386" y="-164.8" font-family="Times,serif" font-size="14.00" fill="#000000">StarkSessionUiModule</text>
</g>
<!-- StarkLoginPageComponent&#45;&gt;StarkSessionUiModule -->
<g id="edge1" class="edge">
<title>StarkLoginPageComponent&#45;&gt;StarkSessionUiModule</title>
<path fill="none" stroke="#000000" d="M846.3393,-122.2667C846.3393,-140.5552 846.3393,-166 846.3393,-166 846.3393,-166 468.9421,-166 468.9421,-166"/>
<polygon fill="#000000" stroke="#000000" points="468.9422,-162.5001 458.9421,-166 468.9421,-169.5001 468.9422,-162.5001"/>
</g>
<!-- StarkPreloadingPageComponent -->
<g id="node2" class="node">
<title>StarkPreloadingPageComponent</title>
<polygon fill="#ffffb3" stroke="#000000" points="713.2464,-122 514.7536,-122 514.7536,-86 713.2464,-86 713.2464,-122"/>
<text text-anchor="middle" x="614" y="-99.8" font-family="Times,serif" font-size="14.00" fill="#000000">StarkPreloadingPageComponent</text>
</g>
<!-- StarkPreloadingPageComponent&#45;&gt;StarkSessionUiModule -->
<g id="edge2" class="edge">
<title>StarkPreloadingPageComponent&#45;&gt;StarkSessionUiModule</title>
<path fill="none" stroke="#000000" d="M647.1244,-122.0091C647.1244,-138.0494 647.1244,-159 647.1244,-159 647.1244,-159 469.0849,-159 469.0849,-159"/>
<polygon fill="#000000" stroke="#000000" points="469.085,-155.5001 459.0849,-159 469.0849,-162.5001 469.085,-155.5001"/>
</g>
<!-- StarkSessionExpiredPageComponent -->
<g id="node3" class="node">
<title>StarkSessionExpiredPageComponent</title>
<polygon fill="#ffffb3" stroke="#000000" points="496.6881,-122 271.3119,-122 271.3119,-86 496.6881,-86 496.6881,-122"/>
<text text-anchor="middle" x="384" y="-99.8" font-family="Times,serif" font-size="14.00" fill="#000000">StarkSessionExpiredPageComponent</text>
</g>
<!-- StarkSessionExpiredPageComponent&#45;&gt;StarkSessionUiModule -->
<g id="edge3" class="edge">
<title>StarkSessionExpiredPageComponent&#45;&gt;StarkSessionUiModule</title>
<path fill="none" stroke="#000000" d="M386,-122.1061C386,-122.1061 386,-140.991 386,-140.991"/>
<polygon fill="#000000" stroke="#000000" points="382.5001,-140.9909 386,-150.991 389.5001,-140.991 382.5001,-140.9909"/>
</g>
<!-- StarkSessionLogoutPageComponent -->
<g id="node4" class="node">
<title>StarkSessionLogoutPageComponent</title>
<polygon fill="#ffffb3" stroke="#000000" points="253.813,-122 32.187,-122 32.187,-86 253.813,-86 253.813,-122"/>
<text text-anchor="middle" x="143" y="-99.8" font-family="Times,serif" font-size="14.00" fill="#000000">StarkSessionLogoutPageComponent</text>
</g>
<!-- StarkSessionLogoutPageComponent&#45;&gt;StarkSessionUiModule -->
<g id="edge4" class="edge">
<title>StarkSessionLogoutPageComponent&#45;&gt;StarkSessionUiModule</title>
<path fill="none" stroke="#000000" d="M176.3855,-122.0225C176.3855,-139.3734 176.3855,-163 176.3855,-163 176.3855,-163 302.9813,-163 302.9813,-163"/>
<polygon fill="#000000" stroke="#000000" points="302.9813,-166.5001 312.9813,-163 302.9812,-159.5001 302.9813,-166.5001"/>
</g>
<!-- StarkLoginPageComponent  -->
<g id="node6" class="node">
<title>StarkLoginPageComponent </title>
<polygon fill="#fb8072" stroke="#000000" points="908.5358,-252 733.4642,-252 733.4642,-216 908.5358,-216 908.5358,-252"/>
<text text-anchor="middle" x="821" y="-229.8" font-family="Times,serif" font-size="14.00" fill="#000000">StarkLoginPageComponent </text>
</g>
<!-- StarkSessionUiModule&#45;&gt;StarkLoginPageComponent  -->
<g id="edge5" class="edge">
<title>StarkSessionUiModule&#45;&gt;StarkLoginPageComponent </title>
<path fill="none" stroke="#000000" stroke-dasharray="5,2" d="M459.1452,-173C575.5411,-173 789.9107,-173 789.9107,-173 789.9107,-173 789.9107,-205.698 789.9107,-205.698"/>
<polygon fill="#000000" stroke="#000000" points="786.4108,-205.698 789.9107,-215.698 793.4108,-205.698 786.4108,-205.698"/>
</g>
<!-- StarkPreloadingPageComponent  -->
<g id="node7" class="node">
<title>StarkPreloadingPageComponent </title>
<polygon fill="#fb8072" stroke="#000000" points="715.2464,-252 512.7536,-252 512.7536,-216 715.2464,-216 715.2464,-252"/>
<text text-anchor="middle" x="614" y="-229.8" font-family="Times,serif" font-size="14.00" fill="#000000">StarkPreloadingPageComponent </text>
</g>
<!-- StarkSessionUiModule&#45;&gt;StarkPreloadingPageComponent  -->
<g id="edge6" class="edge">
<title>StarkSessionUiModule&#45;&gt;StarkPreloadingPageComponent </title>
<path fill="none" stroke="#000000" stroke-dasharray="5,2" d="M459.1189,-180C514.4157,-180 580.8756,-180 580.8756,-180 580.8756,-180 580.8756,-205.7181 580.8756,-205.7181"/>
<polygon fill="#000000" stroke="#000000" points="577.3757,-205.718 580.8756,-215.7181 584.3757,-205.7181 577.3757,-205.718"/>
</g>
<!-- StarkSessionExpiredPageComponent  -->
<g id="node8" class="node">
<title>StarkSessionExpiredPageComponent </title>
<polygon fill="#fb8072" stroke="#000000" points="495.1882,-252 266.8118,-252 266.8118,-216 495.1882,-216 495.1882,-252"/>
<text text-anchor="middle" x="381" y="-229.8" font-family="Times,serif" font-size="14.00" fill="#000000">StarkSessionExpiredPageComponent </text>
</g>
<!-- StarkSessionUiModule&#45;&gt;StarkSessionExpiredPageComponent  -->
<g id="edge7" class="edge">
<title>StarkSessionUiModule&#45;&gt;StarkSessionExpiredPageComponent </title>
<path fill="none" stroke="#000000" stroke-dasharray="5,2" d="M386,-187.1061C386,-187.1061 386,-205.991 386,-205.991"/>
<polygon fill="#000000" stroke="#000000" points="382.5001,-205.9909 386,-215.991 389.5001,-205.991 382.5001,-205.9909"/>
</g>
<!-- StarkSessionLogoutPageComponent  -->
<g id="node9" class="node">
<title>StarkSessionLogoutPageComponent </title>
<polygon fill="#fb8072" stroke="#000000" points="248.3129,-252 23.6871,-252 23.6871,-216 248.3129,-216 248.3129,-252"/>
<text text-anchor="middle" x="136" y="-229.8" font-family="Times,serif" font-size="14.00" fill="#000000">StarkSessionLogoutPageComponent </text>
</g>
<!-- StarkSessionUiModule&#45;&gt;StarkSessionLogoutPageComponent  -->
<g id="edge8" class="edge">
<title>StarkSessionUiModule&#45;&gt;StarkSessionLogoutPageComponent </title>
<path fill="none" stroke="#000000" stroke-dasharray="5,2" d="M313.1056,-175C229.6581,-175 104.3645,-175 104.3645,-175 104.3645,-175 104.3645,-205.9775 104.3645,-205.9775"/>
<polygon fill="#000000" stroke="#000000" points="100.8646,-205.9774 104.3645,-215.9775 107.8646,-205.9775 100.8646,-205.9774"/>
</g>
</g>
</svg>
