<?xml version="1.0" encoding="UTF-8" standalone="no"?>
<!DOCTYPE svg PUBLIC "-//W3C//DTD SVG 1.1//EN"
 "http://www.w3.org/Graphics/SVG/1.1/DTD/svg11.dtd">
<!-- Generated by graphviz version 2.47.0 (20210316.0004)
 -->
<!-- Title: dependencies Pages: 1 -->
<svg width="631pt" height="284pt"
 viewBox="0.00 0.00 631.00 284.00" xmlns="http://www.w3.org/2000/svg" xmlns:xlink="http://www.w3.org/1999/xlink">
<g id="graph0" class="graph" transform="scale(1 1) rotate(0) translate(4 280)">
<title>dependencies</title>
<polygon fill="white" stroke="transparent" points="-4,4 -4,-280 627,-280 627,4 -4,4"/>
<text text-anchor="start" x="290.51" y="-42.4" font-family="Times-12" font-weight="bold" font-size="14.00">Legend</text>
<polygon fill="#ffffb3" stroke="transparent" points="77.5,-10 77.5,-30 97.5,-30 97.5,-10 77.5,-10"/>
<text text-anchor="start" x="101.13" y="-15.4" font-family="Times-12" font-size="14.00"> &#160;Declarations</text>
<polygon fill="#8dd3c7" stroke="transparent" points="190.5,-10 190.5,-30 210.5,-30 210.5,-10 190.5,-10"/>
<text text-anchor="start" x="214.23" y="-15.4" font-family="Times-12" font-size="14.00"> &#160;Module</text>
<polygon fill="#80b1d3" stroke="transparent" points="276.5,-10 276.5,-30 296.5,-30 296.5,-10 276.5,-10"/>
<text text-anchor="start" x="300.28" y="-15.4" font-family="Times-12" font-size="14.00"> &#160;Bootstrap</text>
<polygon fill="#fdb462" stroke="transparent" points="373.5,-10 373.5,-30 393.5,-30 393.5,-10 373.5,-10"/>
<text text-anchor="start" x="397.17" y="-15.4" font-family="Times-12" font-size="14.00"> &#160;Providers</text>
<polygon fill="#fb8072" stroke="transparent" points="469.5,-10 469.5,-30 489.5,-30 489.5,-10 469.5,-10"/>
<text text-anchor="start" x="493.23" y="-15.4" font-family="Times-12" font-size="14.00"> &#160;Exports</text>
<g id="clust1" class="cluster">
<title>cluster_StarkPaginationModule</title>
<polygon fill="none" stroke="black" stroke-dasharray="1,5" points="8,-70 8,-268 615,-268 615,-70 8,-70"/>
</g>
<g id="clust5" class="cluster">
<title>cluster_StarkPaginationModule_exports</title>
<polygon fill="none" stroke="black" points="236,-208 236,-260 426,-260 426,-208 236,-208"/>
</g>
<g id="clust2" class="cluster">
<title>cluster_StarkPaginationModule_declarations</title>
<polygon fill="none" stroke="black" points="421,-78 421,-130 607,-130 607,-78 421,-78"/>
</g>
<g id="clust4" class="cluster">
<title>cluster_StarkPaginationModule_imports</title>
<polygon fill="none" stroke="black" points="16,-78 16,-130 413,-130 413,-78 16,-78"/>
</g>
<!-- StarkPaginationComponent -->
<g id="node1" class="node">
<title>StarkPaginationComponent</title>
<polygon fill="#ffffb3" stroke="black" points="599.26,-122 428.74,-122 428.74,-86 599.26,-86 599.26,-122"/>
<text text-anchor="middle" x="514" y="-99.8" font-family="Times,serif" font-size="14.00">StarkPaginationComponent</text>
</g>
<!-- StarkPaginationModule -->
<g id="node2" class="node">
<title>StarkPaginationModule</title>
<polygon fill="#8dd3c7" stroke="black" points="405.48,-187 402.48,-191 381.48,-191 378.48,-187 256.52,-187 256.52,-151 405.48,-151 405.48,-187"/>
<text text-anchor="middle" x="331" y="-164.8" font-family="Times,serif" font-size="14.00">StarkPaginationModule</text>
</g>
<!-- StarkPaginationComponent&#45;&gt;StarkPaginationModule -->
<g id="edge1" class="edge">
<title>StarkPaginationComponent&#45;&gt;StarkPaginationModule</title>
<path fill="none" stroke="black" d="M514,-122.11C514,-141.34 514,-169 514,-169 514,-169 415.7,-169 415.7,-169"/>
<polygon fill="black" stroke="black" points="415.7,-165.5 405.7,-169 415.7,-172.5 415.7,-165.5"/>
</g>
<!-- StarkPaginationComponent  -->
<g id="node5" class="node">
<title>StarkPaginationComponent </title>
<polygon fill="#fb8072" stroke="black" points="418.26,-252 243.74,-252 243.74,-216 418.26,-216 418.26,-252"/>
<text text-anchor="middle" x="331" y="-229.8" font-family="Times,serif" font-size="14.00">StarkPaginationComponent </text>
</g>
<!-- StarkPaginationModule&#45;&gt;StarkPaginationComponent  -->
<g id="edge4" class="edge">
<title>StarkPaginationModule&#45;&gt;StarkPaginationComponent </title>
<path fill="none" stroke="black" stroke-dasharray="5,2" d="M331,-187.11C331,-187.11 331,-205.99 331,-205.99"/>
<polygon fill="black" stroke="black" points="327.5,-205.99 331,-215.99 334.5,-205.99 327.5,-205.99"/>
</g>
<!-- StarkDropdownModule -->
<g id="node3" class="node">
<title>StarkDropdownModule</title>
<polygon fill="#8dd3c7" stroke="black" points="405.47,-122 402.47,-126 381.47,-126 378.47,-122 256.53,-122 256.53,-86 405.47,-86 405.47,-122"/>
<text text-anchor="middle" x="331" y="-99.8" font-family="Times,serif" font-size="14.00">StarkDropdownModule</text>
</g>
<!-- StarkDropdownModule&#45;&gt;StarkPaginationModule -->
<g id="edge2" class="edge">
<title>StarkDropdownModule&#45;&gt;StarkPaginationModule</title>
<path fill="none" stroke="black" d="M331,-122.11C331,-122.11 331,-140.99 331,-140.99"/>
<polygon fill="black" stroke="black" points="327.5,-140.99 331,-150.99 334.5,-140.99 327.5,-140.99"/>
</g>
<!-- StarkRestrictInputDirectiveModule -->
<g id="node4" class="node">
<title>StarkRestrictInputDirectiveModule</title>
<polygon fill="#8dd3c7" stroke="black" points="238.28,-122 235.28,-126 214.28,-126 211.28,-122 23.72,-122 23.72,-86 238.28,-86 238.28,-122"/>
<text text-anchor="middle" x="131" y="-99.8" font-family="Times,serif" font-size="14.00">StarkRestrictInputDirectiveModule</text>
</g>
<!-- StarkRestrictInputDirectiveModule&#45;&gt;StarkPaginationModule -->
<g id="edge3" class="edge">
<title>StarkRestrictInputDirectiveModule&#45;&gt;StarkPaginationModule</title>
<path fill="none" stroke="black" d="M131,-122.11C131,-141.34 131,-169 131,-169 131,-169 246.24,-169 246.24,-169"/>
<polygon fill="black" stroke="black" points="246.24,-172.5 256.24,-169 246.24,-165.5 246.24,-172.5"/>
</g>
</g>
</svg>
