<?xml version="1.0" encoding="UTF-8" standalone="no"?>
<!DOCTYPE svg PUBLIC "-//W3C//DTD SVG 1.1//EN"
 "http://www.w3.org/Graphics/SVG/1.1/DTD/svg11.dtd">
<!-- Generated by graphviz version 2.40.1 (20161225.0304)
 -->
<!-- Title: dependencies Pages: 1 -->
<svg width="1009pt" height="284pt"
 viewBox="0.00 0.00 1009.00 284.00" xmlns="http://www.w3.org/2000/svg" xmlns:xlink="http://www.w3.org/1999/xlink">
<g id="graph0" class="graph" transform="scale(1 1) rotate(0) translate(4 280)">
<title>dependencies</title>
<polygon fill="#ffffff" stroke="transparent" points="-4,4 -4,-280 1005,-280 1005,4 -4,4"/>
<text text-anchor="start" x="479.5091" y="-42.4" font-family="sans-serif" font-weight="bold" font-size="14.00" fill="#000000">Legend</text>
<polygon fill="#ffffb3" stroke="transparent" points="266.5,-10 266.5,-30 286.5,-30 286.5,-10 266.5,-10"/>
<text text-anchor="start" x="290.129" y="-15.4" font-family="sans-serif" font-size="14.00" fill="#000000"> &#160;Declarations</text>
<polygon fill="#8dd3c7" stroke="transparent" points="379.5,-10 379.5,-30 399.5,-30 399.5,-10 379.5,-10"/>
<text text-anchor="start" x="403.2251" y="-15.4" font-family="sans-serif" font-size="14.00" fill="#000000"> &#160;Module</text>
<polygon fill="#80b1d3" stroke="transparent" points="465.5,-10 465.5,-30 485.5,-30 485.5,-10 465.5,-10"/>
<text text-anchor="start" x="489.2812" y="-15.4" font-family="sans-serif" font-size="14.00" fill="#000000"> &#160;Bootstrap</text>
<polygon fill="#fdb462" stroke="transparent" points="562.5,-10 562.5,-30 582.5,-30 582.5,-10 562.5,-10"/>
<text text-anchor="start" x="586.1732" y="-15.4" font-family="sans-serif" font-size="14.00" fill="#000000"> &#160;Providers</text>
<polygon fill="#fb8072" stroke="transparent" points="658.5,-10 658.5,-30 678.5,-30 678.5,-10 658.5,-10"/>
<text text-anchor="start" x="682.2258" y="-15.4" font-family="sans-serif" font-size="14.00" fill="#000000"> &#160;Exports</text>
<g id="clust1" class="cluster">
<title>cluster_StarkTableModule</title>
<polygon fill="none" stroke="#000000" stroke-dasharray="1,5" points="8,-70 8,-268 993,-268 993,-70 8,-70"/>
</g>
<g id="clust2" class="cluster">
<title>cluster_StarkTableModule_declarations</title>
<polygon fill="none" stroke="#000000" points="370,-78 370,-130 985,-130 985,-78 370,-78"/>
</g>
<g id="clust6" class="cluster">
<title>cluster_StarkTableModule_imports</title>
<polygon fill="none" stroke="#000000" points="16,-78 16,-130 362,-130 362,-78 16,-78"/>
</g>
<g id="clust7" class="cluster">
<title>cluster_StarkTableModule_exports</title>
<polygon fill="none" stroke="#000000" points="320,-208 320,-260 692,-260 692,-208 320,-208"/>
</g>
<!-- StarkTableColumnComponent -->
<g id="node1" class="node">
<title>StarkTableColumnComponent</title>
<polygon fill="#ffffb3" stroke="#000000" points="976.871,-122 789.129,-122 789.129,-86 976.871,-86 976.871,-122"/>
<text text-anchor="middle" x="883" y="-99.8" font-family="Times,serif" font-size="14.00" fill="#000000">StarkTableColumnComponent</text>
</g>
<!-- StarkTableModule -->
<g id="node4" class="node">
<title>StarkTableModule</title>
<polygon fill="#8dd3c7" stroke="#000000" points="554.4706,-187 551.4706,-191 530.4706,-191 527.4706,-187 433.5294,-187 433.5294,-151 554.4706,-151 554.4706,-187"/>
<text text-anchor="middle" x="494" y="-164.8" font-family="Times,serif" font-size="14.00" fill="#000000">StarkTableModule</text>
</g>
<!-- StarkTableColumnComponent&#45;&gt;StarkTableModule -->
<g id="edge1" class="edge">
<title>StarkTableColumnComponent&#45;&gt;StarkTableModule</title>
<path fill="none" stroke="#000000" d="M883,-122.2843C883,-143.3211 883,-175 883,-175 883,-175 564.7813,-175 564.7813,-175"/>
<polygon fill="#000000" stroke="#000000" points="564.7813,-171.5001 554.7813,-175 564.7812,-178.5001 564.7813,-171.5001"/>
</g>
<!-- StarkTableComponent -->
<g id="node2" class="node">
<title>StarkTableComponent</title>
<polygon fill="#ffffb3" stroke="#000000" points="771.2534,-122 628.7466,-122 628.7466,-86 771.2534,-86 771.2534,-122"/>
<text text-anchor="middle" x="700" y="-99.8" font-family="Times,serif" font-size="14.00" fill="#000000">StarkTableComponent</text>
</g>
<!-- StarkTableComponent&#45;&gt;StarkTableModule -->
<g id="edge2" class="edge">
<title>StarkTableComponent&#45;&gt;StarkTableModule</title>
<path fill="none" stroke="#000000" d="M656.1545,-122.0225C656.1545,-139.3734 656.1545,-163 656.1545,-163 656.1545,-163 564.8417,-163 564.8417,-163"/>
<polygon fill="#000000" stroke="#000000" points="564.8417,-159.5001 554.8417,-163 564.8416,-166.5001 564.8417,-159.5001"/>
</g>
<!-- StarkTableMultisortDialogComponent -->
<g id="node3" class="node">
<title>StarkTableMultisortDialogComponent</title>
<polygon fill="#ffffb3" stroke="#000000" points="610.4678,-122 377.5322,-122 377.5322,-86 610.4678,-86 610.4678,-122"/>
<text text-anchor="middle" x="494" y="-99.8" font-family="Times,serif" font-size="14.00" fill="#000000">StarkTableMultisortDialogComponent</text>
</g>
<!-- StarkTableMultisortDialogComponent&#45;&gt;StarkTableModule -->
<g id="edge3" class="edge">
<title>StarkTableMultisortDialogComponent&#45;&gt;StarkTableModule</title>
<path fill="none" stroke="#000000" d="M494,-122.1061C494,-122.1061 494,-140.991 494,-140.991"/>
<polygon fill="#000000" stroke="#000000" points="490.5001,-140.9909 494,-150.991 497.5001,-140.991 490.5001,-140.9909"/>
</g>
<!-- StarkTableColumnComponent  -->
<g id="node7" class="node">
<title>StarkTableColumnComponent </title>
<polygon fill="#fb8072" stroke="#000000" points="683.8714,-252 492.1286,-252 492.1286,-216 683.8714,-216 683.8714,-252"/>
<text text-anchor="middle" x="588" y="-229.8" font-family="Times,serif" font-size="14.00" fill="#000000">StarkTableColumnComponent </text>
</g>
<!-- StarkTableModule&#45;&gt;StarkTableColumnComponent  -->
<g id="edge6" class="edge">
<title>StarkTableModule&#45;&gt;StarkTableColumnComponent </title>
<path fill="none" stroke="#000000" stroke-dasharray="5,2" d="M523.3999,-187.1061C523.3999,-187.1061 523.3999,-205.991 523.3999,-205.991"/>
<polygon fill="#000000" stroke="#000000" points="519.9,-205.9909 523.3999,-215.991 526.9,-205.991 519.9,-205.9909"/>
</g>
<!-- StarkTableComponent  -->
<g id="node8" class="node">
<title>StarkTableComponent </title>
<polygon fill="#fb8072" stroke="#000000" points="474.2534,-252 327.7466,-252 327.7466,-216 474.2534,-216 474.2534,-252"/>
<text text-anchor="middle" x="401" y="-229.8" font-family="Times,serif" font-size="14.00" fill="#000000">StarkTableComponent </text>
</g>
<!-- StarkTableModule&#45;&gt;StarkTableComponent  -->
<g id="edge7" class="edge">
<title>StarkTableModule&#45;&gt;StarkTableComponent </title>
<path fill="none" stroke="#000000" stroke-dasharray="5,2" d="M453.8207,-187.1061C453.8207,-187.1061 453.8207,-205.991 453.8207,-205.991"/>
<polygon fill="#000000" stroke="#000000" points="450.3207,-205.9909 453.8207,-215.991 457.3207,-205.991 450.3207,-205.9909"/>
</g>
<!-- StarkActionBarModule -->
<g id="node5" class="node">
<title>StarkActionBarModule</title>
<polygon fill="#8dd3c7" stroke="#000000" points="353.913,-122 350.913,-126 329.913,-126 326.913,-122 206.087,-122 206.087,-86 353.913,-86 353.913,-122"/>
<text text-anchor="middle" x="280" y="-99.8" font-family="Times,serif" font-size="14.00" fill="#000000">StarkActionBarModule</text>
</g>
<!-- StarkActionBarModule&#45;&gt;StarkTableModule -->
<g id="edge4" class="edge">
<title>StarkActionBarModule&#45;&gt;StarkTableModule</title>
<path fill="none" stroke="#000000" d="M340.7898,-122.0225C340.7898,-139.3734 340.7898,-163 340.7898,-163 340.7898,-163 423.4473,-163 423.4473,-163"/>
<polygon fill="#000000" stroke="#000000" points="423.4473,-166.5001 433.4473,-163 423.4472,-159.5001 423.4473,-166.5001"/>
</g>
<!-- StarkSvgViewBoxModule -->
<g id="node6" class="node">
<title>StarkSvgViewBoxModule</title>
<polygon fill="#8dd3c7" stroke="#000000" points="188.0365,-122 185.0365,-126 164.0365,-126 161.0365,-122 23.9635,-122 23.9635,-86 188.0365,-86 188.0365,-122"/>
<text text-anchor="middle" x="106" y="-99.8" font-family="Times,serif" font-size="14.00" fill="#000000">StarkSvgViewBoxModule</text>
</g>
<!-- StarkSvgViewBoxModule&#45;&gt;StarkTableModule -->
<g id="edge5" class="edge">
<title>StarkSvgViewBoxModule&#45;&gt;StarkTableModule</title>
<path fill="none" stroke="#000000" d="M106,-122.2843C106,-143.3211 106,-175 106,-175 106,-175 423.375,-175 423.375,-175"/>
<polygon fill="#000000" stroke="#000000" points="423.375,-178.5001 433.375,-175 423.375,-171.5001 423.375,-178.5001"/>
</g>
</g>
</svg>
