<?xml version="1.0" encoding="UTF-8" standalone="no"?>
<!DOCTYPE svg PUBLIC "-//W3C//DTD SVG 1.1//EN"
 "http://www.w3.org/Graphics/SVG/1.1/DTD/svg11.dtd">
<!-- Generated by graphviz version 2.40.1 (20161225.0304)
 -->
<!-- Title: dependencies Pages: 1 -->
<svg width="808pt" height="284pt"
 viewBox="0.00 0.00 808.00 284.00" xmlns="http://www.w3.org/2000/svg" xmlns:xlink="http://www.w3.org/1999/xlink">
<g id="graph0" class="graph" transform="scale(1 1) rotate(0) translate(4 280)">
<title>dependencies</title>
<polygon fill="#ffffff" stroke="transparent" points="-4,4 -4,-280 804,-280 804,4 -4,4"/>
<text text-anchor="start" x="379.0091" y="-42.4" font-family="sans-serif" font-weight="bold" font-size="14.00" fill="#000000">Legend</text>
<polygon fill="#ffffb3" stroke="transparent" points="166,-10 166,-30 186,-30 186,-10 166,-10"/>
<text text-anchor="start" x="189.629" y="-15.4" font-family="sans-serif" font-size="14.00" fill="#000000"> &#160;Declarations</text>
<polygon fill="#8dd3c7" stroke="transparent" points="279,-10 279,-30 299,-30 299,-10 279,-10"/>
<text text-anchor="start" x="302.7251" y="-15.4" font-family="sans-serif" font-size="14.00" fill="#000000"> &#160;Module</text>
<polygon fill="#80b1d3" stroke="transparent" points="365,-10 365,-30 385,-30 385,-10 365,-10"/>
<text text-anchor="start" x="388.7812" y="-15.4" font-family="sans-serif" font-size="14.00" fill="#000000"> &#160;Bootstrap</text>
<polygon fill="#fdb462" stroke="transparent" points="462,-10 462,-30 482,-30 482,-10 462,-10"/>
<text text-anchor="start" x="485.6732" y="-15.4" font-family="sans-serif" font-size="14.00" fill="#000000"> &#160;Providers</text>
<polygon fill="#fb8072" stroke="transparent" points="558,-10 558,-30 578,-30 578,-10 558,-10"/>
<text text-anchor="start" x="581.7258" y="-15.4" font-family="sans-serif" font-size="14.00" fill="#000000"> &#160;Exports</text>
<g id="clust1" class="cluster">
<title>cluster_StarkInputMaskDirectivesModule</title>
<polygon fill="none" stroke="#000000" stroke-dasharray="1,5" points="8,-70 8,-268 792,-268 792,-70 8,-70"/>
</g>
<g id="clust2" class="cluster">
<title>cluster_StarkInputMaskDirectivesModule_declarations</title>
<polygon fill="none" stroke="#000000" points="25,-78 25,-130 778,-130 778,-78 25,-78"/>
</g>
<g id="clust8" class="cluster">
<title>cluster_StarkInputMaskDirectivesModule_exports</title>
<polygon fill="none" stroke="#000000" points="16,-208 16,-260 784,-260 784,-208 16,-208"/>
</g>
<!-- StarkEmailMaskDirective -->
<g id="node1" class="node">
<title>StarkEmailMaskDirective</title>
<polygon fill="#ffffb3" stroke="#000000" points="770.1741,-122 607.8259,-122 607.8259,-86 770.1741,-86 770.1741,-122"/>
<text text-anchor="middle" x="689" y="-99.8" font-family="Times,serif" font-size="14.00" fill="#000000">StarkEmailMaskDirective</text>
</g>
<!-- StarkInputMaskDirectivesModule -->
<g id="node5" class="node">
<title>StarkInputMaskDirectivesModule</title>
<polygon fill="#8dd3c7" stroke="#000000" points="426.7808,-187 423.7808,-191 402.7808,-191 399.7808,-187 219.2192,-187 219.2192,-151 426.7808,-151 426.7808,-187"/>
<text text-anchor="middle" x="323" y="-164.8" font-family="Times,serif" font-size="14.00" fill="#000000">StarkInputMaskDirectivesModule</text>
</g>
<!-- StarkEmailMaskDirective&#45;&gt;StarkInputMaskDirectivesModule -->
<g id="edge1" class="edge">
<title>StarkEmailMaskDirective&#45;&gt;StarkInputMaskDirectivesModule</title>
<path fill="none" stroke="#000000" d="M716.779,-122.0225C716.779,-139.3734 716.779,-163 716.779,-163 716.779,-163 436.7182,-163 436.7182,-163"/>
<polygon fill="#000000" stroke="#000000" points="436.7183,-159.5001 426.7182,-163 436.7182,-166.5001 436.7183,-159.5001"/>
</g>
<!-- StarkNumberMaskDirective -->
<g id="node2" class="node">
<title>StarkNumberMaskDirective</title>
<polygon fill="#ffffb3" stroke="#000000" points="590.1078,-122 415.8922,-122 415.8922,-86 590.1078,-86 590.1078,-122"/>
<text text-anchor="middle" x="503" y="-99.8" font-family="Times,serif" font-size="14.00" fill="#000000">StarkNumberMaskDirective</text>
</g>
<!-- StarkNumberMaskDirective&#45;&gt;StarkInputMaskDirectivesModule -->
<g id="edge2" class="edge">
<title>StarkNumberMaskDirective&#45;&gt;StarkInputMaskDirectivesModule</title>
<path fill="none" stroke="#000000" d="M421.1683,-122.1061C421.1683,-122.1061 421.1683,-140.991 421.1683,-140.991"/>
<polygon fill="#000000" stroke="#000000" points="417.6684,-140.9909 421.1683,-150.991 424.6684,-140.991 417.6684,-140.9909"/>
</g>
<!-- StarkTextMaskDirective -->
<g id="node3" class="node">
<title>StarkTextMaskDirective</title>
<polygon fill="#ffffb3" stroke="#000000" points="397.3933,-122 242.6067,-122 242.6067,-86 397.3933,-86 397.3933,-122"/>
<text text-anchor="middle" x="320" y="-99.8" font-family="Times,serif" font-size="14.00" fill="#000000">StarkTextMaskDirective</text>
</g>
<!-- StarkTextMaskDirective&#45;&gt;StarkInputMaskDirectivesModule -->
<g id="edge3" class="edge">
<title>StarkTextMaskDirective&#45;&gt;StarkInputMaskDirectivesModule</title>
<path fill="none" stroke="#000000" d="M320,-122.1061C320,-122.1061 320,-140.991 320,-140.991"/>
<polygon fill="#000000" stroke="#000000" points="316.5001,-140.9909 320,-150.991 323.5001,-140.991 316.5001,-140.9909"/>
</g>
<!-- StarkTimestampMaskDirective -->
<g id="node4" class="node">
<title>StarkTimestampMaskDirective</title>
<polygon fill="#ffffb3" stroke="#000000" points="224.724,-122 33.276,-122 33.276,-86 224.724,-86 224.724,-122"/>
<text text-anchor="middle" x="129" y="-99.8" font-family="Times,serif" font-size="14.00" fill="#000000">StarkTimestampMaskDirective</text>
</g>
<!-- StarkTimestampMaskDirective&#45;&gt;StarkInputMaskDirectivesModule -->
<g id="edge4" class="edge">
<title>StarkTimestampMaskDirective&#45;&gt;StarkInputMaskDirectivesModule</title>
<path fill="none" stroke="#000000" d="M224.8948,-104C230.448,-104 233.8327,-104 233.8327,-104 233.8327,-104 233.8327,-140.8939 233.8327,-140.8939"/>
<polygon fill="#000000" stroke="#000000" points="230.3328,-140.8938 233.8327,-150.8939 237.3328,-140.8939 230.3328,-140.8938"/>
</g>
<!-- StarkEmailMaskDirective  -->
<g id="node6" class="node">
<title>StarkEmailMaskDirective </title>
<polygon fill="#fb8072" stroke="#000000" points="775.6743,-252 610.3257,-252 610.3257,-216 775.6743,-216 775.6743,-252"/>
<text text-anchor="middle" x="693" y="-229.8" font-family="Times,serif" font-size="14.00" fill="#000000">StarkEmailMaskDirective </text>
</g>
<!-- StarkInputMaskDirectivesModule&#45;&gt;StarkEmailMaskDirective  -->
<g id="edge5" class="edge">
<title>StarkInputMaskDirectivesModule&#45;&gt;StarkEmailMaskDirective </title>
<path fill="none" stroke="#000000" stroke-dasharray="5,2" d="M427.0025,-175C527.1288,-175 663.471,-175 663.471,-175 663.471,-175 663.471,-205.9775 663.471,-205.9775"/>
<polygon fill="#000000" stroke="#000000" points="659.9711,-205.9774 663.471,-215.9775 666.9711,-205.9775 659.9711,-205.9774"/>
</g>
<!-- StarkNumberMaskDirective  -->
<g id="node7" class="node">
<title>StarkNumberMaskDirective </title>
<polygon fill="#fb8072" stroke="#000000" points="592.1074,-252 413.8926,-252 413.8926,-216 592.1074,-216 592.1074,-252"/>
<text text-anchor="middle" x="503" y="-229.8" font-family="Times,serif" font-size="14.00" fill="#000000">StarkNumberMaskDirective </text>
</g>
<!-- StarkInputMaskDirectivesModule&#45;&gt;StarkNumberMaskDirective  -->
<g id="edge6" class="edge">
<title>StarkInputMaskDirectivesModule&#45;&gt;StarkNumberMaskDirective </title>
<path fill="none" stroke="#000000" stroke-dasharray="5,2" d="M420.2933,-187.1061C420.2933,-187.1061 420.2933,-205.991 420.2933,-205.991"/>
<polygon fill="#000000" stroke="#000000" points="416.7934,-205.9909 420.2933,-215.991 423.7934,-205.991 416.7934,-205.9909"/>
</g>
<!-- StarkTextMaskDirective  -->
<g id="node8" class="node">
<title>StarkTextMaskDirective </title>
<polygon fill="#fb8072" stroke="#000000" points="395.8928,-252 238.1072,-252 238.1072,-216 395.8928,-216 395.8928,-252"/>
<text text-anchor="middle" x="317" y="-229.8" font-family="Times,serif" font-size="14.00" fill="#000000">StarkTextMaskDirective </text>
</g>
<!-- StarkInputMaskDirectivesModule&#45;&gt;StarkTextMaskDirective  -->
<g id="edge7" class="edge">
<title>StarkInputMaskDirectivesModule&#45;&gt;StarkTextMaskDirective </title>
<path fill="none" stroke="#000000" stroke-dasharray="5,2" d="M317,-187.1061C317,-187.1061 317,-205.991 317,-205.991"/>
<polygon fill="#000000" stroke="#000000" points="313.5001,-205.9909 317,-215.991 320.5001,-205.991 313.5001,-205.9909"/>
</g>
<!-- StarkTimestampMaskDirective  -->
<g id="node9" class="node">
<title>StarkTimestampMaskDirective </title>
<polygon fill="#fb8072" stroke="#000000" points="219.7239,-252 24.2761,-252 24.2761,-216 219.7239,-216 219.7239,-252"/>
<text text-anchor="middle" x="122" y="-229.8" font-family="Times,serif" font-size="14.00" fill="#000000">StarkTimestampMaskDirective </text>
</g>
<!-- StarkInputMaskDirectivesModule&#45;&gt;StarkTimestampMaskDirective  -->
<g id="edge8" class="edge">
<title>StarkInputMaskDirectivesModule&#45;&gt;StarkTimestampMaskDirective </title>
<path fill="none" stroke="#000000" stroke-dasharray="5,2" d="M228.8327,-187.1061C228.8327,-206.3391 228.8327,-234 228.8327,-234 228.8327,-234 227.9219,-234 227.9219,-234"/>
<polygon fill="#000000" stroke="#000000" points="229.7243,-230.5001 219.7242,-234 229.7242,-237.5001 229.7243,-230.5001"/>
</g>
</g>
</svg>
