<?xml version="1.0" encoding="UTF-8" standalone="no"?>
<!DOCTYPE svg PUBLIC "-//W3C//DTD SVG 1.1//EN"
 "http://www.w3.org/Graphics/SVG/1.1/DTD/svg11.dtd">
<!-- Generated by graphviz version 2.46.0 (20210119.1425)
 -->
<!-- Title: dependencies Pages: 1 -->
<svg width="659pt" height="284pt"
 viewBox="0.00 0.00 659.00 284.00" xmlns="http://www.w3.org/2000/svg" xmlns:xlink="http://www.w3.org/1999/xlink">
<g id="graph0" class="graph" transform="scale(1 1) rotate(0) translate(4 280)">
<title>dependencies</title>
<polygon fill="white" stroke="transparent" points="-4,4 -4,-280 655,-280 655,4 -4,4"/>
<text text-anchor="start" x="304.51" y="-42.4" font-family="sans-serif" font-weight="bold" font-size="14.00">Legend</text>
<polygon fill="#ffffb3" stroke="transparent" points="91.5,-10 91.5,-30 111.5,-30 111.5,-10 91.5,-10"/>
<text text-anchor="start" x="115.13" y="-15.4" font-family="sans-serif" font-size="14.00"> &#160;Declarations</text>
<polygon fill="#8dd3c7" stroke="transparent" points="204.5,-10 204.5,-30 224.5,-30 224.5,-10 204.5,-10"/>
<text text-anchor="start" x="228.23" y="-15.4" font-family="sans-serif" font-size="14.00"> &#160;Module</text>
<polygon fill="#80b1d3" stroke="transparent" points="290.5,-10 290.5,-30 310.5,-30 310.5,-10 290.5,-10"/>
<text text-anchor="start" x="314.28" y="-15.4" font-family="sans-serif" font-size="14.00"> &#160;Bootstrap</text>
<polygon fill="#fdb462" stroke="transparent" points="387.5,-10 387.5,-30 407.5,-30 407.5,-10 387.5,-10"/>
<text text-anchor="start" x="411.17" y="-15.4" font-family="sans-serif" font-size="14.00"> &#160;Providers</text>
<polygon fill="#fb8072" stroke="transparent" points="483.5,-10 483.5,-30 503.5,-30 503.5,-10 483.5,-10"/>
<text text-anchor="start" x="507.23" y="-15.4" font-family="sans-serif" font-size="14.00"> &#160;Exports</text>
<g id="clust1" class="cluster">
<title>cluster_StarkDateTimePickerModule</title>
<polygon fill="none" stroke="black" stroke-dasharray="1,5" points="8,-70 8,-268 643,-268 643,-70 8,-70"/>
</g>
<g id="clust5" class="cluster">
<title>cluster_StarkDateTimePickerModule_exports</title>
<polygon fill="none" stroke="black" points="214,-208 214,-260 436,-260 436,-208 214,-208"/>
</g>
<g id="clust2" class="cluster">
<title>cluster_StarkDateTimePickerModule_declarations</title>
<polygon fill="none" stroke="black" points="417,-78 417,-130 635,-130 635,-78 417,-78"/>
</g>
<g id="clust4" class="cluster">
<title>cluster_StarkDateTimePickerModule_imports</title>
<polygon fill="none" stroke="black" points="16,-78 16,-130 409,-130 409,-78 16,-78"/>
</g>
<!-- StarkDateTimePickerComponent -->
<g id="node1" class="node">
<title>StarkDateTimePickerComponent</title>
<polygon fill="#ffffb3" stroke="black" points="627.12,-122 424.88,-122 424.88,-86 627.12,-86 627.12,-122"/>
<text text-anchor="middle" x="526" y="-99.8" font-family="Times,serif" font-size="14.00">StarkDateTimePickerComponent</text>
</g>
<!-- StarkDateTimePickerModule -->
<g id="node2" class="node">
<title>StarkDateTimePickerModule</title>
<polygon fill="#8dd3c7" stroke="black" points="415.34,-187 412.34,-191 391.34,-191 388.34,-187 234.66,-187 234.66,-151 415.34,-151 415.34,-187"/>
<text text-anchor="middle" x="325" y="-164.8" font-family="Times,serif" font-size="14.00">StarkDateTimePickerModule</text>
</g>
<!-- StarkDateTimePickerComponent&#45;&gt;StarkDateTimePickerModule -->
<g id="edge1" class="edge">
<title>StarkDateTimePickerComponent&#45;&gt;StarkDateTimePickerModule</title>
<path fill="none" stroke="black" d="M424.68,-104C414.62,-104 408.03,-104 408.03,-104 408.03,-104 408.03,-140.89 408.03,-140.89"/>
<polygon fill="black" stroke="black" points="404.53,-140.89 408.03,-150.89 411.53,-140.89 404.53,-140.89"/>
</g>
<!-- StarkDateTimePickerComponent  -->
<g id="node5" class="node">
<title>StarkDateTimePickerComponent </title>
<polygon fill="#fb8072" stroke="black" points="428.12,-252 221.88,-252 221.88,-216 428.12,-216 428.12,-252"/>
<text text-anchor="middle" x="325" y="-229.8" font-family="Times,serif" font-size="14.00">StarkDateTimePickerComponent </text>
</g>
<!-- StarkDateTimePickerModule&#45;&gt;StarkDateTimePickerComponent  -->
<g id="edge4" class="edge">
<title>StarkDateTimePickerModule&#45;&gt;StarkDateTimePickerComponent </title>
<path fill="none" stroke="black" stroke-dasharray="5,2" d="M325,-187.11C325,-187.11 325,-205.99 325,-205.99"/>
<polygon fill="black" stroke="black" points="321.5,-205.99 325,-215.99 328.5,-205.99 321.5,-205.99"/>
</g>
<!-- StarkDatePickerModule -->
<g id="node3" class="node">
<title>StarkDatePickerModule</title>
<polygon fill="#8dd3c7" stroke="black" points="400.79,-122 397.79,-126 376.79,-126 373.79,-122 249.21,-122 249.21,-86 400.79,-86 400.79,-122"/>
<text text-anchor="middle" x="325" y="-99.8" font-family="Times,serif" font-size="14.00">StarkDatePickerModule</text>
</g>
<!-- StarkDatePickerModule&#45;&gt;StarkDateTimePickerModule -->
<g id="edge2" class="edge">
<title>StarkDatePickerModule&#45;&gt;StarkDateTimePickerModule</title>
<path fill="none" stroke="black" d="M325,-122.11C325,-122.11 325,-140.99 325,-140.99"/>
<polygon fill="black" stroke="black" points="321.5,-140.99 325,-150.99 328.5,-140.99 321.5,-140.99"/>
</g>
<!-- StarkInputMaskDirectivesModule -->
<g id="node4" class="node">
<title>StarkInputMaskDirectivesModule</title>
<polygon fill="#8dd3c7" stroke="black" points="231.78,-122 228.78,-126 207.78,-126 204.78,-122 24.22,-122 24.22,-86 231.78,-86 231.78,-122"/>
<text text-anchor="middle" x="128" y="-99.8" font-family="Times,serif" font-size="14.00">StarkInputMaskDirectivesModule</text>
</g>
<!-- StarkInputMaskDirectivesModule&#45;&gt;StarkDateTimePickerModule -->
<g id="edge3" class="edge">
<title>StarkInputMaskDirectivesModule&#45;&gt;StarkDateTimePickerModule</title>
<path fill="none" stroke="black" d="M226.79,-122.11C226.79,-141.34 226.79,-169 226.79,-169 226.79,-169 227.56,-169 227.56,-169"/>
<polygon fill="black" stroke="black" points="224.5,-172.5 234.5,-169 224.5,-165.5 224.5,-172.5"/>
</g>
</g>
</svg>
