<?xml version="1.0" encoding="UTF-8"?>
<svg width="690px" height="200px" viewBox="0 0 690 200" version="1.1" xmlns="http://www.w3.org/2000/svg" xmlns:xlink="http://www.w3.org/1999/xlink">
    <!-- Generator: Sketch 53 (72520) - https://sketchapp.com -->
    <title>stark_logo_dark</title>
    <desc>Created with Sketch.</desc>
    <g id="stark_logo_dark" stroke="none" stroke-width="1" fill="none" fill-rule="evenodd">
        <g id="STARK" transform="translate(20.000000, 0.000000)">
            <polygon id="K" fill="#333333" fill-rule="nonzero" points="584.491039 98.0631868 568.860215 112.802198 568.860215 152 552 152 552 36 568.860215 36 568.860215 93.3626374 625.675627 36 646.048387 36 595.731183 87.228022 650 152 629.802867 152"></polygon>
            <path d="M485.578051,105.074176 L455.163671,105.074176 L455.163671,152 L438,152 L438,36 L480.864711,36 C495.449458,36 506.669466,38.9743292 514.525071,44.9230769 C522.380676,50.8718246 526.30842,59.5292472 526.30842,70.8956044 C526.30842,78.1190837 524.129634,84.4129768 519.771996,89.7774725 C515.414359,95.1419682 509.352294,99.1520014 501.58562,101.807692 L532,151.043956 L532,152 L513.680227,152 L485.578051,105.074176 Z M456,92.2153846 L482.243822,92.2153846 C490.724919,92.2153846 497.471145,90.2615952 502.482702,86.3539576 C507.494259,82.4463201 510,77.2186132 510,70.67068 C510,63.5418819 507.612874,58.0765519 502.83855,54.2745262 C498.064227,50.4725005 491.169732,48.5451136 482.15486,48.4923077 L456,48.4923077 L456,92.2153846 Z" id="R" fill="#333333" fill-rule="nonzero"></path>
            <g id="A" transform="translate(230.000000, 0.000000)">
                <polygon id="Path" fill="#DD0031" points="94.0998279 0 2.84217094e-14 33 14.1847476 156.3 94 200 173.815252 156.3 188 33"></polygon>
                <polygon id="Path" fill="#C3002F" points="94 22.2 94 22.1 94 123.4 94 200 173.815252 156.3 188 33 94 0"></polygon>
                <path d="M94.0998279,22 L36,152 L36,152 L57.6626506,152 L57.6626506,152 L69.3425129,122.911877 L118.657487,122.911877 L130.337349,152 L130.337349,152 L152,152 L152,152 L94.0998279,22 L94.0998279,22 L94.0998279,22 L94.0998279,22 L94.0998279,22 Z M111.070568,104.980843 L77.1290878,104.980843 L94.0998279,64.2375479 L111.070568,104.980843 Z" id="Shape" fill="#FFFFFF" fill-rule="nonzero"></path>
            </g>
            <polygon id="T" fill="#333333" fill-rule="nonzero" points="212 48.5879121 170.436945 48.5879121 170.436945 152 153.474245 152 153.474245 48.5879121 112 48.5879121 112 36 212 36"></polygon>
            <path d="M45.0434783,100.125668 C30.7245661,96.4554184 20.3043804,91.9452139 13.7826087,86.5949198 C7.26083696,81.2446257 4,74.6408593 4,66.7834225 C4,57.8921124 7.98546739,50.5387991 15.9565217,44.723262 C23.9275761,38.9077249 34.2897913,36 47.0434783,36 C55.7391739,36 63.4927196,37.4990937 70.3043478,40.4973262 C77.1159761,43.4955587 82.3912857,47.6309897 86.1304348,52.9037433 C89.8695839,58.176497 91.7391304,63.9402539 91.7391304,70.1951872 L74.9565217,70.1951872 C74.9565217,63.3716236 72.5217635,58.0084865 67.6521739,54.105615 C62.7825843,50.2027434 55.9130878,48.2513369 47.0434783,48.2513369 C38.811553,48.2513369 32.3913274,49.8667396 27.7826087,53.0975936 C23.17389,56.3284475 20.8695652,60.8128055 20.8695652,66.5508021 C20.8695652,71.1515382 23.0579491,75.041428 27.4347826,78.2205882 C31.8116161,81.3997485 39.260817,84.3074734 49.7826087,86.9438503 C60.3044004,89.5802271 68.5362022,92.487952 74.4782609,95.6671123 C80.4203196,98.8462726 84.8260726,102.555237 87.6956522,106.794118 C90.5652317,111.032998 92,116.021362 92,121.759358 C92,130.909137 88.00004,138.236603 80,143.741979 C71.99996,149.247354 61.3044148,152 47.9130435,152 C39.2173478,152 31.101487,150.513829 23.5652174,147.541444 C16.0289478,144.569058 10.2174117,140.498243 6.13043478,135.328877 C2.04345783,130.159511 0,124.292368 0,117.727273 L16.7826087,117.727273 C16.7826087,124.550836 19.6086674,129.93982 25.2608696,133.894385 C30.9130717,137.84895 38.4637209,139.826203 47.9130435,139.826203 C56.7246817,139.826203 63.4782374,138.223724 68.173913,135.018717 C72.8695887,131.813709 75.2173913,127.44566 75.2173913,121.914439 C75.2173913,116.383217 73.0435,112.10563 68.6956522,109.081551 C64.3478043,106.057472 56.4638252,103.072207 45.0434783,100.125668 Z" id="S" fill="#333333" fill-rule="nonzero"></path>
        </g>
    </g>
</svg>