<?xml version="1.0" encoding="UTF-8" standalone="no"?>
<!DOCTYPE svg PUBLIC "-//W3C//DTD SVG 1.1//EN"
 "http://www.w3.org/Graphics/SVG/1.1/DTD/svg11.dtd">
<!-- Generated by graphviz version 2.47.0 (20210316.0004)
 -->
<!-- Title: dependencies Pages: 1 -->
<svg width="504pt" height="284pt"
 viewBox="0.00 0.00 504.00 284.00" xmlns="http://www.w3.org/2000/svg" xmlns:xlink="http://www.w3.org/1999/xlink">
<g id="graph0" class="graph" transform="scale(1 1) rotate(0) translate(4 280)">
<title>dependencies</title>
<polygon fill="white" stroke="transparent" points="-4,4 -4,-280 500,-280 500,4 -4,4"/>
<text text-anchor="start" x="227.01" y="-42.4" font-family="Times-12" font-weight="bold" font-size="14.00">Legend</text>
<polygon fill="#ffffb3" stroke="transparent" points="14,-10 14,-30 34,-30 34,-10 14,-10"/>
<text text-anchor="start" x="37.63" y="-15.4" font-family="Times-12" font-size="14.00"> &#160;Declarations</text>
<polygon fill="#8dd3c7" stroke="transparent" points="127,-10 127,-30 147,-30 147,-10 127,-10"/>
<text text-anchor="start" x="150.73" y="-15.4" font-family="Times-12" font-size="14.00"> &#160;Module</text>
<polygon fill="#80b1d3" stroke="transparent" points="213,-10 213,-30 233,-30 233,-10 213,-10"/>
<text text-anchor="start" x="236.78" y="-15.4" font-family="Times-12" font-size="14.00"> &#160;Bootstrap</text>
<polygon fill="#fdb462" stroke="transparent" points="310,-10 310,-30 330,-30 330,-10 310,-10"/>
<text text-anchor="start" x="333.67" y="-15.4" font-family="Times-12" font-size="14.00"> &#160;Providers</text>
<polygon fill="#fb8072" stroke="transparent" points="406,-10 406,-30 426,-30 426,-10 406,-10"/>
<text text-anchor="start" x="429.73" y="-15.4" font-family="Times-12" font-size="14.00"> &#160;Exports</text>
<g id="clust1" class="cluster">
<title>cluster_StarkDateRangePickerModule</title>
<polygon fill="none" stroke="black" stroke-dasharray="1,5" points="40,-70 40,-268 456,-268 456,-70 40,-70"/>
</g>
<g id="clust4" class="cluster">
<title>cluster_StarkDateRangePickerModule_imports</title>
<polygon fill="none" stroke="black" points="280,-78 280,-130 448,-130 448,-78 280,-78"/>
</g>
<g id="clust5" class="cluster">
<title>cluster_StarkDateRangePickerModule_exports</title>
<polygon fill="none" stroke="black" points="134,-208 134,-260 362,-260 362,-208 134,-208"/>
</g>
<g id="clust2" class="cluster">
<title>cluster_StarkDateRangePickerModule_declarations</title>
<polygon fill="none" stroke="black" points="48,-78 48,-130 272,-130 272,-78 48,-78"/>
</g>
<!-- StarkDateRangePickerComponent -->
<g id="node1" class="node">
<title>StarkDateRangePickerComponent</title>
<polygon fill="#ffffb3" stroke="black" points="264.34,-122 55.66,-122 55.66,-86 264.34,-86 264.34,-122"/>
<text text-anchor="middle" x="160" y="-99.8" font-family="Times,serif" font-size="14.00">StarkDateRangePickerComponent</text>
</g>
<!-- StarkDateRangePickerModule -->
<g id="node2" class="node">
<title>StarkDateRangePickerModule</title>
<polygon fill="#8dd3c7" stroke="black" points="341.55,-187 338.55,-191 317.55,-191 314.55,-187 154.45,-187 154.45,-151 341.55,-151 341.55,-187"/>
<text text-anchor="middle" x="248" y="-164.8" font-family="Times,serif" font-size="14.00">StarkDateRangePickerModule</text>
</g>
<!-- StarkDateRangePickerComponent&#45;&gt;StarkDateRangePickerModule -->
<g id="edge1" class="edge">
<title>StarkDateRangePickerComponent&#45;&gt;StarkDateRangePickerModule</title>
<path fill="none" stroke="black" d="M209.45,-122.11C209.45,-122.11 209.45,-140.99 209.45,-140.99"/>
<polygon fill="black" stroke="black" points="205.95,-140.99 209.45,-150.99 212.95,-140.99 205.95,-140.99"/>
</g>
<!-- StarkDateRangePickerComponent  -->
<g id="node4" class="node">
<title>StarkDateRangePickerComponent </title>
<polygon fill="#fb8072" stroke="black" points="354.34,-252 141.66,-252 141.66,-216 354.34,-216 354.34,-252"/>
<text text-anchor="middle" x="248" y="-229.8" font-family="Times,serif" font-size="14.00">StarkDateRangePickerComponent </text>
</g>
<!-- StarkDateRangePickerModule&#45;&gt;StarkDateRangePickerComponent  -->
<g id="edge3" class="edge">
<title>StarkDateRangePickerModule&#45;&gt;StarkDateRangePickerComponent </title>
<path fill="none" stroke="black" stroke-dasharray="5,2" d="M248,-187.11C248,-187.11 248,-205.99 248,-205.99"/>
<polygon fill="black" stroke="black" points="244.5,-205.99 248,-215.99 251.5,-205.99 244.5,-205.99"/>
</g>
<!-- StarkDatePickerModule -->
<g id="node3" class="node">
<title>StarkDatePickerModule</title>
<polygon fill="#8dd3c7" stroke="black" points="439.79,-122 436.79,-126 415.79,-126 412.79,-122 288.21,-122 288.21,-86 439.79,-86 439.79,-122"/>
<text text-anchor="middle" x="364" y="-99.8" font-family="Times,serif" font-size="14.00">StarkDatePickerModule</text>
</g>
<!-- StarkDatePickerModule&#45;&gt;StarkDateRangePickerModule -->
<g id="edge2" class="edge">
<title>StarkDatePickerModule&#45;&gt;StarkDateRangePickerModule</title>
<path fill="none" stroke="black" d="M314.94,-122.11C314.94,-122.11 314.94,-140.99 314.94,-140.99"/>
<polygon fill="black" stroke="black" points="311.44,-140.99 314.94,-150.99 318.44,-140.99 311.44,-140.99"/>
</g>
</g>
</svg>
