<?xml version="1.0" encoding="UTF-8" standalone="no"?>
<!DOCTYPE svg PUBLIC "-//W3C//DTD SVG 1.1//EN"
 "http://www.w3.org/Graphics/SVG/1.1/DTD/svg11.dtd">
<!-- Generated by graphviz version 2.40.1 (20161225.0304)
 -->
<!-- Title: dependencies Pages: 1 -->
<svg width="504pt" height="284pt"
 viewBox="0.00 0.00 504.00 284.00" xmlns="http://www.w3.org/2000/svg" xmlns:xlink="http://www.w3.org/1999/xlink">
<g id="graph0" class="graph" transform="scale(1 1) rotate(0) translate(4 280)">
<title>dependencies</title>
<polygon fill="#ffffff" stroke="transparent" points="-4,4 -4,-280 500,-280 500,4 -4,4"/>
<text text-anchor="start" x="227.0091" y="-42.4" font-family="sans-serif" font-weight="bold" font-size="14.00" fill="#000000">Legend</text>
<polygon fill="#ffffb3" stroke="transparent" points="14,-10 14,-30 34,-30 34,-10 14,-10"/>
<text text-anchor="start" x="37.629" y="-15.4" font-family="sans-serif" font-size="14.00" fill="#000000"> &#160;Declarations</text>
<polygon fill="#8dd3c7" stroke="transparent" points="127,-10 127,-30 147,-30 147,-10 127,-10"/>
<text text-anchor="start" x="150.7251" y="-15.4" font-family="sans-serif" font-size="14.00" fill="#000000"> &#160;Module</text>
<polygon fill="#80b1d3" stroke="transparent" points="213,-10 213,-30 233,-30 233,-10 213,-10"/>
<text text-anchor="start" x="236.7812" y="-15.4" font-family="sans-serif" font-size="14.00" fill="#000000"> &#160;Bootstrap</text>
<polygon fill="#fdb462" stroke="transparent" points="310,-10 310,-30 330,-30 330,-10 310,-10"/>
<text text-anchor="start" x="333.6732" y="-15.4" font-family="sans-serif" font-size="14.00" fill="#000000"> &#160;Providers</text>
<polygon fill="#fb8072" stroke="transparent" points="406,-10 406,-30 426,-30 426,-10 406,-10"/>
<text text-anchor="start" x="429.7258" y="-15.4" font-family="sans-serif" font-size="14.00" fill="#000000"> &#160;Exports</text>
<g id="clust1" class="cluster">
<title>cluster_StarkDateRangePickerModule</title>
<polygon fill="none" stroke="#000000" stroke-dasharray="1,5" points="40,-70 40,-268 456,-268 456,-70 40,-70"/>
</g>
<g id="clust2" class="cluster">
<title>cluster_StarkDateRangePickerModule_declarations</title>
<polygon fill="none" stroke="#000000" points="224,-78 224,-130 448,-130 448,-78 224,-78"/>
</g>
<g id="clust4" class="cluster">
<title>cluster_StarkDateRangePickerModule_imports</title>
<polygon fill="none" stroke="#000000" points="48,-78 48,-130 216,-130 216,-78 48,-78"/>
</g>
<g id="clust5" class="cluster">
<title>cluster_StarkDateRangePickerModule_exports</title>
<polygon fill="none" stroke="#000000" points="134,-208 134,-260 362,-260 362,-208 134,-208"/>
</g>
<!-- StarkDateRangePickerComponent -->
<g id="node1" class="node">
<title>StarkDateRangePickerComponent</title>
<polygon fill="#ffffb3" stroke="#000000" points="440.3361,-122 231.6639,-122 231.6639,-86 440.3361,-86 440.3361,-122"/>
<text text-anchor="middle" x="336" y="-99.8" font-family="Times,serif" font-size="14.00" fill="#000000">StarkDateRangePickerComponent</text>
</g>
<!-- StarkDateRangePickerModule -->
<g id="node2" class="node">
<title>StarkDateRangePickerModule</title>
<polygon fill="#8dd3c7" stroke="#000000" points="341.5534,-187 338.5534,-191 317.5534,-191 314.5534,-187 154.4466,-187 154.4466,-151 341.5534,-151 341.5534,-187"/>
<text text-anchor="middle" x="248" y="-164.8" font-family="Times,serif" font-size="14.00" fill="#000000">StarkDateRangePickerModule</text>
</g>
<!-- StarkDateRangePickerComponent&#45;&gt;StarkDateRangePickerModule -->
<g id="edge1" class="edge">
<title>StarkDateRangePickerComponent&#45;&gt;StarkDateRangePickerModule</title>
<path fill="none" stroke="#000000" d="M286.5544,-122.1061C286.5544,-122.1061 286.5544,-140.991 286.5544,-140.991"/>
<polygon fill="#000000" stroke="#000000" points="283.0544,-140.9909 286.5544,-150.991 290.0544,-140.991 283.0544,-140.9909"/>
</g>
<!-- StarkDateRangePickerComponent  -->
<g id="node4" class="node">
<title>StarkDateRangePickerComponent </title>
<polygon fill="#fb8072" stroke="#000000" points="354.3363,-252 141.6637,-252 141.6637,-216 354.3363,-216 354.3363,-252"/>
<text text-anchor="middle" x="248" y="-229.8" font-family="Times,serif" font-size="14.00" fill="#000000">StarkDateRangePickerComponent </text>
</g>
<!-- StarkDateRangePickerModule&#45;&gt;StarkDateRangePickerComponent  -->
<g id="edge3" class="edge">
<title>StarkDateRangePickerModule&#45;&gt;StarkDateRangePickerComponent </title>
<path fill="none" stroke="#000000" stroke-dasharray="5,2" d="M248,-187.1061C248,-187.1061 248,-205.991 248,-205.991"/>
<polygon fill="#000000" stroke="#000000" points="244.5001,-205.9909 248,-215.991 251.5001,-205.991 244.5001,-205.9909"/>
</g>
<!-- StarkDatePickerModule -->
<g id="node3" class="node">
<title>StarkDatePickerModule</title>
<polygon fill="#8dd3c7" stroke="#000000" points="207.7879,-122 204.7879,-126 183.7879,-126 180.7879,-122 56.2121,-122 56.2121,-86 207.7879,-86 207.7879,-122"/>
<text text-anchor="middle" x="132" y="-99.8" font-family="Times,serif" font-size="14.00" fill="#000000">StarkDatePickerModule</text>
</g>
<!-- StarkDatePickerModule&#45;&gt;StarkDateRangePickerModule -->
<g id="edge2" class="edge">
<title>StarkDatePickerModule&#45;&gt;StarkDateRangePickerModule</title>
<path fill="none" stroke="#000000" d="M181.0586,-122.1061C181.0586,-122.1061 181.0586,-140.991 181.0586,-140.991"/>
<polygon fill="#000000" stroke="#000000" points="177.5586,-140.9909 181.0586,-150.991 184.5586,-140.991 177.5586,-140.9909"/>
</g>
</g>
</svg>
