<?xml version="1.0" encoding="UTF-8" standalone="no"?>
<!DOCTYPE svg PUBLIC "-//W3C//DTD SVG 1.1//EN"
 "http://www.w3.org/Graphics/SVG/1.1/DTD/svg11.dtd">
<!-- Generated by graphviz version 2.40.1 (20161225.0304)
 -->
<!-- Title: dependencies Pages: 1 -->
<svg width="1598pt" height="284pt"
 viewBox="0.00 0.00 1598.00 284.00" xmlns="http://www.w3.org/2000/svg" xmlns:xlink="http://www.w3.org/1999/xlink">
<g id="graph0" class="graph" transform="scale(1 1) rotate(0) translate(4 280)">
<title>dependencies</title>
<polygon fill="#ffffff" stroke="transparent" points="-4,4 -4,-280 1594,-280 1594,4 -4,4"/>
<text text-anchor="start" x="774.0091" y="-42.4" font-family="sans-serif" font-weight="bold" font-size="14.00" fill="#000000">Legend</text>
<polygon fill="#ffffb3" stroke="transparent" points="561,-10 561,-30 581,-30 581,-10 561,-10"/>
<text text-anchor="start" x="584.629" y="-15.4" font-family="sans-serif" font-size="14.00" fill="#000000"> &#160;Declarations</text>
<polygon fill="#8dd3c7" stroke="transparent" points="674,-10 674,-30 694,-30 694,-10 674,-10"/>
<text text-anchor="start" x="697.7251" y="-15.4" font-family="sans-serif" font-size="14.00" fill="#000000"> &#160;Module</text>
<polygon fill="#80b1d3" stroke="transparent" points="760,-10 760,-30 780,-30 780,-10 760,-10"/>
<text text-anchor="start" x="783.7812" y="-15.4" font-family="sans-serif" font-size="14.00" fill="#000000"> &#160;Bootstrap</text>
<polygon fill="#fdb462" stroke="transparent" points="857,-10 857,-30 877,-30 877,-10 857,-10"/>
<text text-anchor="start" x="880.6732" y="-15.4" font-family="sans-serif" font-size="14.00" fill="#000000"> &#160;Providers</text>
<polygon fill="#fb8072" stroke="transparent" points="953,-10 953,-30 973,-30 973,-10 953,-10"/>
<text text-anchor="start" x="976.7258" y="-15.4" font-family="sans-serif" font-size="14.00" fill="#000000"> &#160;Exports</text>
<g id="clust1" class="cluster">
<title>cluster_StarkSessionUiModule</title>
<polygon fill="none" stroke="#000000" stroke-dasharray="1,5" points="8,-70 8,-268 1582,-268 1582,-70 8,-70"/>
</g>
<g id="clust2" class="cluster">
<title>cluster_StarkSessionUiModule_declarations</title>
<polygon fill="none" stroke="#000000" points="182,-78 182,-130 1574,-130 1574,-78 182,-78"/>
</g>
<g id="clust9" class="cluster">
<title>cluster_StarkSessionUiModule_imports</title>
<polygon fill="none" stroke="#000000" points="16,-78 16,-130 174,-130 174,-78 16,-78"/>
</g>
<g id="clust10" class="cluster">
<title>cluster_StarkSessionUiModule_exports</title>
<polygon fill="none" stroke="#000000" points="173,-208 173,-260 1384,-260 1384,-208 173,-208"/>
</g>
<!-- StarkLoginPageComponent -->
<g id="node1" class="node">
<title>StarkLoginPageComponent</title>
<polygon fill="#ffffb3" stroke="#000000" points="1565.5364,-122 1394.4636,-122 1394.4636,-86 1565.5364,-86 1565.5364,-122"/>
<text text-anchor="middle" x="1480" y="-99.8" font-family="Times,serif" font-size="14.00" fill="#000000">StarkLoginPageComponent</text>
</g>
<!-- StarkSessionUiModule -->
<g id="node7" class="node">
<title>StarkSessionUiModule</title>
<polygon fill="#8dd3c7" stroke="#000000" points="920.8725,-187 917.8725,-191 896.8725,-191 893.8725,-187 775.1275,-187 775.1275,-151 920.8725,-151 920.8725,-187"/>
<text text-anchor="middle" x="848" y="-164.8" font-family="Times,serif" font-size="14.00" fill="#000000">StarkSessionUiModule</text>
</g>
<!-- StarkLoginPageComponent&#45;&gt;StarkSessionUiModule -->
<g id="edge1" class="edge">
<title>StarkLoginPageComponent&#45;&gt;StarkSessionUiModule</title>
<path fill="none" stroke="#000000" d="M1480,-122.1061C1480,-141.3391 1480,-169 1480,-169 1480,-169 931.1158,-169 931.1158,-169"/>
<polygon fill="#000000" stroke="#000000" points="931.1159,-165.5001 921.1158,-169 931.1158,-172.5001 931.1159,-165.5001"/>
</g>
<!-- StarkPreloadingPageComponent -->
<g id="node2" class="node">
<title>StarkPreloadingPageComponent</title>
<polygon fill="#ffffb3" stroke="#000000" points="1376.2464,-122 1177.7536,-122 1177.7536,-86 1376.2464,-86 1376.2464,-122"/>
<text text-anchor="middle" x="1277" y="-99.8" font-family="Times,serif" font-size="14.00" fill="#000000">StarkPreloadingPageComponent</text>
</g>
<!-- StarkPreloadingPageComponent&#45;&gt;StarkSessionUiModule -->
<g id="edge2" class="edge">
<title>StarkPreloadingPageComponent&#45;&gt;StarkSessionUiModule</title>
<path fill="none" stroke="#000000" d="M1191.3026,-122.0225C1191.3026,-139.3734 1191.3026,-163 1191.3026,-163 1191.3026,-163 931.2259,-163 931.2259,-163"/>
<polygon fill="#000000" stroke="#000000" points="931.226,-159.5001 921.2259,-163 931.2259,-166.5001 931.226,-159.5001"/>
</g>
<!-- StarkSessionCardComponent -->
<g id="node3" class="node">
<title>StarkSessionCardComponent</title>
<polygon fill="#ffffb3" stroke="#000000" points="1159.3696,-122 978.6304,-122 978.6304,-86 1159.3696,-86 1159.3696,-122"/>
<text text-anchor="middle" x="1069" y="-99.8" font-family="Times,serif" font-size="14.00" fill="#000000">StarkSessionCardComponent</text>
</g>
<!-- StarkSessionCardComponent&#45;&gt;StarkSessionUiModule -->
<g id="edge3" class="edge">
<title>StarkSessionCardComponent&#45;&gt;StarkSessionUiModule</title>
<path fill="none" stroke="#000000" d="M1099.5822,-122.2396C1099.5822,-137.5706 1099.5822,-157 1099.5822,-157 1099.5822,-157 931.1059,-157 931.1059,-157"/>
<polygon fill="#000000" stroke="#000000" points="931.106,-153.5001 921.1059,-157 931.1059,-160.5001 931.106,-153.5001"/>
</g>
<!-- StarkSessionExpiredPageComponent -->
<g id="node4" class="node">
<title>StarkSessionExpiredPageComponent</title>
<polygon fill="#ffffb3" stroke="#000000" points="960.6881,-122 735.3119,-122 735.3119,-86 960.6881,-86 960.6881,-122"/>
<text text-anchor="middle" x="848" y="-99.8" font-family="Times,serif" font-size="14.00" fill="#000000">StarkSessionExpiredPageComponent</text>
</g>
<!-- StarkSessionExpiredPageComponent&#45;&gt;StarkSessionUiModule -->
<g id="edge4" class="edge">
<title>StarkSessionExpiredPageComponent&#45;&gt;StarkSessionUiModule</title>
<path fill="none" stroke="#000000" d="M848,-122.1061C848,-122.1061 848,-140.991 848,-140.991"/>
<polygon fill="#000000" stroke="#000000" points="844.5001,-140.9909 848,-150.991 851.5001,-140.991 844.5001,-140.9909"/>
</g>
<!-- StarkSessionLogoutPageComponent -->
<g id="node5" class="node">
<title>StarkSessionLogoutPageComponent</title>
<polygon fill="#ffffb3" stroke="#000000" points="717.813,-122 496.187,-122 496.187,-86 717.813,-86 717.813,-122"/>
<text text-anchor="middle" x="607" y="-99.8" font-family="Times,serif" font-size="14.00" fill="#000000">StarkSessionLogoutPageComponent</text>
</g>
<!-- StarkSessionLogoutPageComponent&#45;&gt;StarkSessionUiModule -->
<g id="edge5" class="edge">
<title>StarkSessionLogoutPageComponent&#45;&gt;StarkSessionUiModule</title>
<path fill="none" stroke="#000000" d="M642.3855,-122.2396C642.3855,-137.5706 642.3855,-157 642.3855,-157 642.3855,-157 764.9291,-157 764.9291,-157"/>
<polygon fill="#000000" stroke="#000000" points="764.9291,-160.5001 774.9291,-157 764.929,-153.5001 764.9291,-160.5001"/>
</g>
<!-- StarkSessionTimeoutWarningDialogComponent -->
<g id="node6" class="node">
<title>StarkSessionTimeoutWarningDialogComponent</title>
<polygon fill="#ffffb3" stroke="#000000" points="478.1797,-122 189.8203,-122 189.8203,-86 478.1797,-86 478.1797,-122"/>
<text text-anchor="middle" x="334" y="-99.8" font-family="Times,serif" font-size="14.00" fill="#000000">StarkSessionTimeoutWarningDialogComponent</text>
</g>
<!-- StarkSessionTimeoutWarningDialogComponent&#45;&gt;StarkSessionUiModule -->
<g id="edge6" class="edge">
<title>StarkSessionTimeoutWarningDialogComponent&#45;&gt;StarkSessionUiModule</title>
<path fill="none" stroke="#000000" d="M378.5299,-122.0225C378.5299,-139.3734 378.5299,-163 378.5299,-163 378.5299,-163 764.903,-163 764.903,-163"/>
<polygon fill="#000000" stroke="#000000" points="764.9031,-166.5001 774.903,-163 764.903,-159.5001 764.9031,-166.5001"/>
</g>
<!-- StarkLoginPageComponent  -->
<g id="node9" class="node">
<title>StarkLoginPageComponent </title>
<polygon fill="#fb8072" stroke="#000000" points="1375.5358,-252 1200.4642,-252 1200.4642,-216 1375.5358,-216 1375.5358,-252"/>
<text text-anchor="middle" x="1288" y="-229.8" font-family="Times,serif" font-size="14.00" fill="#000000">StarkLoginPageComponent </text>
</g>
<!-- StarkSessionUiModule&#45;&gt;StarkLoginPageComponent  -->
<g id="edge8" class="edge">
<title>StarkSessionUiModule&#45;&gt;StarkLoginPageComponent </title>
<path fill="none" stroke="#000000" stroke-dasharray="5,2" d="M921.151,-175C1046.2668,-175 1288,-175 1288,-175 1288,-175 1288,-205.9775 1288,-205.9775"/>
<polygon fill="#000000" stroke="#000000" points="1284.5001,-205.9774 1288,-215.9775 1291.5001,-205.9775 1284.5001,-205.9774"/>
</g>
<!-- StarkPreloadingPageComponent  -->
<g id="node10" class="node">
<title>StarkPreloadingPageComponent </title>
<polygon fill="#fb8072" stroke="#000000" points="1182.2464,-252 979.7536,-252 979.7536,-216 1182.2464,-216 1182.2464,-252"/>
<text text-anchor="middle" x="1081" y="-229.8" font-family="Times,serif" font-size="14.00" fill="#000000">StarkPreloadingPageComponent </text>
</g>
<!-- StarkSessionUiModule&#45;&gt;StarkPreloadingPageComponent  -->
<g id="edge9" class="edge">
<title>StarkSessionUiModule&#45;&gt;StarkPreloadingPageComponent </title>
<path fill="none" stroke="#000000" stroke-dasharray="5,2" d="M921.0317,-181C975.2143,-181 1039.7295,-181 1039.7295,-181 1039.7295,-181 1039.7295,-205.7604 1039.7295,-205.7604"/>
<polygon fill="#000000" stroke="#000000" points="1036.2296,-205.7604 1039.7295,-215.7604 1043.2296,-205.7604 1036.2296,-205.7604"/>
</g>
<!-- StarkSessionExpiredPageComponent  -->
<g id="node11" class="node">
<title>StarkSessionExpiredPageComponent </title>
<polygon fill="#fb8072" stroke="#000000" points="962.1882,-252 733.8118,-252 733.8118,-216 962.1882,-216 962.1882,-252"/>
<text text-anchor="middle" x="848" y="-229.8" font-family="Times,serif" font-size="14.00" fill="#000000">StarkSessionExpiredPageComponent </text>
</g>
<!-- StarkSessionUiModule&#45;&gt;StarkSessionExpiredPageComponent  -->
<g id="edge10" class="edge">
<title>StarkSessionUiModule&#45;&gt;StarkSessionExpiredPageComponent </title>
<path fill="none" stroke="#000000" stroke-dasharray="5,2" d="M848,-187.1061C848,-187.1061 848,-205.991 848,-205.991"/>
<polygon fill="#000000" stroke="#000000" points="844.5001,-205.9909 848,-215.991 851.5001,-205.991 844.5001,-205.9909"/>
</g>
<!-- StarkSessionLogoutPageComponent  -->
<g id="node12" class="node">
<title>StarkSessionLogoutPageComponent </title>
<polygon fill="#fb8072" stroke="#000000" points="715.3129,-252 490.6871,-252 490.6871,-216 715.3129,-216 715.3129,-252"/>
<text text-anchor="middle" x="603" y="-229.8" font-family="Times,serif" font-size="14.00" fill="#000000">StarkSessionLogoutPageComponent </text>
</g>
<!-- StarkSessionUiModule&#45;&gt;StarkSessionLogoutPageComponent  -->
<g id="edge11" class="edge">
<title>StarkSessionUiModule&#45;&gt;StarkSessionLogoutPageComponent </title>
<path fill="none" stroke="#000000" stroke-dasharray="5,2" d="M774.7918,-181C692.2369,-181 569.3645,-181 569.3645,-181 569.3645,-181 569.3645,-205.7604 569.3645,-205.7604"/>
<polygon fill="#000000" stroke="#000000" points="565.8646,-205.7604 569.3645,-215.7604 572.8646,-205.7604 565.8646,-205.7604"/>
</g>
<!-- StarkSessionTimeoutWarningDialogComponent  -->
<g id="node13" class="node">
<title>StarkSessionTimeoutWarningDialogComponent </title>
<polygon fill="#fb8072" stroke="#000000" points="472.6798,-252 181.3202,-252 181.3202,-216 472.6798,-216 472.6798,-252"/>
<text text-anchor="middle" x="327" y="-229.8" font-family="Times,serif" font-size="14.00" fill="#000000">StarkSessionTimeoutWarningDialogComponent </text>
</g>
<!-- StarkSessionUiModule&#45;&gt;StarkSessionTimeoutWarningDialogComponent  -->
<g id="edge12" class="edge">
<title>StarkSessionUiModule&#45;&gt;StarkSessionTimeoutWarningDialogComponent </title>
<path fill="none" stroke="#000000" stroke-dasharray="5,2" d="M774.8736,-175C622.3286,-175 284.2201,-175 284.2201,-175 284.2201,-175 284.2201,-205.9775 284.2201,-205.9775"/>
<polygon fill="#000000" stroke="#000000" points="280.7202,-205.9774 284.2201,-215.9775 287.7202,-205.9775 280.7202,-205.9774"/>
</g>
<!-- StarkAppLogoModule -->
<g id="node8" class="node">
<title>StarkAppLogoModule</title>
<polygon fill="#8dd3c7" stroke="#000000" points="166.2576,-122 163.2576,-126 142.2576,-126 139.2576,-122 23.7424,-122 23.7424,-86 166.2576,-86 166.2576,-122"/>
<text text-anchor="middle" x="95" y="-99.8" font-family="Times,serif" font-size="14.00" fill="#000000">StarkAppLogoModule</text>
</g>
<!-- StarkAppLogoModule&#45;&gt;StarkSessionUiModule -->
<g id="edge7" class="edge">
<title>StarkAppLogoModule&#45;&gt;StarkSessionUiModule</title>
<path fill="none" stroke="#000000" d="M95,-122.1061C95,-141.3391 95,-169 95,-169 95,-169 765.115,-169 765.115,-169"/>
<polygon fill="#000000" stroke="#000000" points="765.115,-172.5001 775.115,-169 765.115,-165.5001 765.115,-172.5001"/>
</g>
</g>
</svg>
