<?xml version="1.0" encoding="UTF-8" standalone="no"?>
<!DOCTYPE svg PUBLIC "-//W3C//DTD SVG 1.1//EN"
 "http://www.w3.org/Graphics/SVG/1.1/DTD/svg11.dtd">
<!-- Generated by graphviz version 2.47.0 (20210316.0004)
 -->
<!-- Title: dependencies Pages: 1 -->
<svg width="668pt" height="284pt"
 viewBox="0.00 0.00 668.00 284.00" xmlns="http://www.w3.org/2000/svg" xmlns:xlink="http://www.w3.org/1999/xlink">
<g id="graph0" class="graph" transform="scale(1 1) rotate(0) translate(4 280)">
<title>dependencies</title>
<polygon fill="white" stroke="transparent" points="-4,4 -4,-280 664,-280 664,4 -4,4"/>
<text text-anchor="start" x="309.01" y="-42.4" font-family="Times-12" font-weight="bold" font-size="14.00">Legend</text>
<polygon fill="#ffffb3" stroke="transparent" points="96,-10 96,-30 116,-30 116,-10 96,-10"/>
<text text-anchor="start" x="119.63" y="-15.4" font-family="Times-12" font-size="14.00"> &#160;Declarations</text>
<polygon fill="#8dd3c7" stroke="transparent" points="209,-10 209,-30 229,-30 229,-10 209,-10"/>
<text text-anchor="start" x="232.73" y="-15.4" font-family="Times-12" font-size="14.00"> &#160;Module</text>
<polygon fill="#80b1d3" stroke="transparent" points="295,-10 295,-30 315,-30 315,-10 295,-10"/>
<text text-anchor="start" x="318.78" y="-15.4" font-family="Times-12" font-size="14.00"> &#160;Bootstrap</text>
<polygon fill="#fdb462" stroke="transparent" points="392,-10 392,-30 412,-30 412,-10 392,-10"/>
<text text-anchor="start" x="415.67" y="-15.4" font-family="Times-12" font-size="14.00"> &#160;Providers</text>
<polygon fill="#fb8072" stroke="transparent" points="488,-10 488,-30 508,-30 508,-10 488,-10"/>
<text text-anchor="start" x="511.73" y="-15.4" font-family="Times-12" font-size="14.00"> &#160;Exports</text>
<g id="clust1" class="cluster">
<title>cluster_StarkDialogsModule</title>
<polygon fill="none" stroke="black" stroke-dasharray="1,5" points="8,-70 8,-268 652,-268 652,-70 8,-70"/>
</g>
<g id="clust2" class="cluster">
<title>cluster_StarkDialogsModule_declarations</title>
<polygon fill="none" stroke="black" points="22,-78 22,-130 638,-130 638,-78 22,-78"/>
</g>
<g id="clust7" class="cluster">
<title>cluster_StarkDialogsModule_exports</title>
<polygon fill="none" stroke="black" points="16,-208 16,-260 644,-260 644,-208 16,-208"/>
</g>
<!-- StarkAlertDialogComponent -->
<g id="node1" class="node">
<title>StarkAlertDialogComponent</title>
<polygon fill="#ffffb3" stroke="black" points="629.75,-122 452.25,-122 452.25,-86 629.75,-86 629.75,-122"/>
<text text-anchor="middle" x="541" y="-99.8" font-family="Times,serif" font-size="14.00">StarkAlertDialogComponent</text>
</g>
<!-- StarkDialogsModule -->
<g id="node4" class="node">
<title>StarkDialogsModule</title>
<polygon fill="#8dd3c7" stroke="black" points="402.15,-187 399.15,-191 378.15,-191 375.15,-187 269.85,-187 269.85,-151 402.15,-151 402.15,-187"/>
<text text-anchor="middle" x="336" y="-164.8" font-family="Times,serif" font-size="14.00">StarkDialogsModule</text>
</g>
<!-- StarkAlertDialogComponent&#45;&gt;StarkDialogsModule -->
<g id="edge1" class="edge">
<title>StarkAlertDialogComponent&#45;&gt;StarkDialogsModule</title>
<path fill="none" stroke="black" d="M571.37,-122.02C571.37,-139.37 571.37,-163 571.37,-163 571.37,-163 412.19,-163 412.19,-163"/>
<polygon fill="black" stroke="black" points="412.19,-159.5 402.19,-163 412.19,-166.5 412.19,-159.5"/>
</g>
<!-- StarkConfirmDialogComponent -->
<g id="node2" class="node">
<title>StarkConfirmDialogComponent</title>
<polygon fill="#ffffb3" stroke="black" points="434.42,-122 237.58,-122 237.58,-86 434.42,-86 434.42,-122"/>
<text text-anchor="middle" x="336" y="-99.8" font-family="Times,serif" font-size="14.00">StarkConfirmDialogComponent</text>
</g>
<!-- StarkConfirmDialogComponent&#45;&gt;StarkDialogsModule -->
<g id="edge2" class="edge">
<title>StarkConfirmDialogComponent&#45;&gt;StarkDialogsModule</title>
<path fill="none" stroke="black" d="M336,-122.11C336,-122.11 336,-140.99 336,-140.99"/>
<polygon fill="black" stroke="black" points="332.5,-140.99 336,-150.99 339.5,-140.99 332.5,-140.99"/>
</g>
<!-- StarkPromptDialogComponent -->
<g id="node3" class="node">
<title>StarkPromptDialogComponent</title>
<polygon fill="#ffffb3" stroke="black" points="220.21,-122 29.79,-122 29.79,-86 220.21,-86 220.21,-122"/>
<text text-anchor="middle" x="125" y="-99.8" font-family="Times,serif" font-size="14.00">StarkPromptDialogComponent</text>
</g>
<!-- StarkPromptDialogComponent&#45;&gt;StarkDialogsModule -->
<g id="edge3" class="edge">
<title>StarkPromptDialogComponent&#45;&gt;StarkDialogsModule</title>
<path fill="none" stroke="black" d="M155.2,-122.02C155.2,-139.37 155.2,-163 155.2,-163 155.2,-163 259.7,-163 259.7,-163"/>
<polygon fill="black" stroke="black" points="259.7,-166.5 269.7,-163 259.7,-159.5 259.7,-166.5"/>
</g>
<!-- StarkAlertDialogComponent  -->
<g id="node5" class="node">
<title>StarkAlertDialogComponent </title>
<polygon fill="#fb8072" stroke="black" points="635.75,-252 454.25,-252 454.25,-216 635.75,-216 635.75,-252"/>
<text text-anchor="middle" x="545" y="-229.8" font-family="Times,serif" font-size="14.00">StarkAlertDialogComponent </text>
</g>
<!-- StarkDialogsModule&#45;&gt;StarkAlertDialogComponent  -->
<g id="edge4" class="edge">
<title>StarkDialogsModule&#45;&gt;StarkAlertDialogComponent </title>
<path fill="none" stroke="black" stroke-dasharray="5,2" d="M402.37,-175C452.55,-175 512.88,-175 512.88,-175 512.88,-175 512.88,-205.98 512.88,-205.98"/>
<polygon fill="black" stroke="black" points="509.38,-205.98 512.88,-215.98 516.38,-205.98 509.38,-205.98"/>
</g>
<!-- StarkConfirmDialogComponent  -->
<g id="node6" class="node">
<title>StarkConfirmDialogComponent </title>
<polygon fill="#fb8072" stroke="black" points="435.92,-252 236.08,-252 236.08,-216 435.92,-216 435.92,-252"/>
<text text-anchor="middle" x="336" y="-229.8" font-family="Times,serif" font-size="14.00">StarkConfirmDialogComponent </text>
</g>
<!-- StarkDialogsModule&#45;&gt;StarkConfirmDialogComponent  -->
<g id="edge5" class="edge">
<title>StarkDialogsModule&#45;&gt;StarkConfirmDialogComponent </title>
<path fill="none" stroke="black" stroke-dasharray="5,2" d="M336,-187.11C336,-187.11 336,-205.99 336,-205.99"/>
<polygon fill="black" stroke="black" points="332.5,-205.99 336,-215.99 339.5,-205.99 332.5,-205.99"/>
</g>
<!-- StarkPromptDialogComponent  -->
<g id="node7" class="node">
<title>StarkPromptDialogComponent </title>
<polygon fill="#fb8072" stroke="black" points="217.71,-252 24.29,-252 24.29,-216 217.71,-216 217.71,-252"/>
<text text-anchor="middle" x="121" y="-229.8" font-family="Times,serif" font-size="14.00">StarkPromptDialogComponent </text>
</g>
<!-- StarkDialogsModule&#45;&gt;StarkPromptDialogComponent  -->
<g id="edge6" class="edge">
<title>StarkDialogsModule&#45;&gt;StarkPromptDialogComponent </title>
<path fill="none" stroke="black" stroke-dasharray="5,2" d="M269.8,-175C197.71,-175 92.55,-175 92.55,-175 92.55,-175 92.55,-205.98 92.55,-205.98"/>
<polygon fill="black" stroke="black" points="89.05,-205.98 92.55,-215.98 96.05,-205.98 89.05,-205.98"/>
</g>
</g>
</svg>
