<?xml version="1.0" encoding="UTF-8" standalone="no"?>
<!DOCTYPE svg PUBLIC "-//W3C//DTD SVG 1.1//EN"
 "http://www.w3.org/Graphics/SVG/1.1/DTD/svg11.dtd">
<!-- Generated by graphviz version 2.40.1 (20161225.0304)
 -->
<!-- Title: dependencies Pages: 1 -->
<svg width="504pt" height="284pt"
 viewBox="0.00 0.00 504.00 284.00" xmlns="http://www.w3.org/2000/svg" xmlns:xlink="http://www.w3.org/1999/xlink">
<g id="graph0" class="graph" transform="scale(1 1) rotate(0) translate(4 280)">
<title>dependencies</title>
<polygon fill="#ffffff" stroke="transparent" points="-4,4 -4,-280 500,-280 500,4 -4,4"/>
<text text-anchor="start" x="227.0091" y="-42.4" font-family="sans-serif" font-weight="bold" font-size="14.00" fill="#000000">Legend</text>
<polygon fill="#ffffb3" stroke="transparent" points="14,-10 14,-30 34,-30 34,-10 14,-10"/>
<text text-anchor="start" x="37.629" y="-15.4" font-family="sans-serif" font-size="14.00" fill="#000000"> &#160;Declarations</text>
<polygon fill="#8dd3c7" stroke="transparent" points="127,-10 127,-30 147,-30 147,-10 127,-10"/>
<text text-anchor="start" x="150.7251" y="-15.4" font-family="sans-serif" font-size="14.00" fill="#000000"> &#160;Module</text>
<polygon fill="#80b1d3" stroke="transparent" points="213,-10 213,-30 233,-30 233,-10 213,-10"/>
<text text-anchor="start" x="236.7812" y="-15.4" font-family="sans-serif" font-size="14.00" fill="#000000"> &#160;Bootstrap</text>
<polygon fill="#fdb462" stroke="transparent" points="310,-10 310,-30 330,-30 330,-10 310,-10"/>
<text text-anchor="start" x="333.6732" y="-15.4" font-family="sans-serif" font-size="14.00" fill="#000000"> &#160;Providers</text>
<polygon fill="#fb8072" stroke="transparent" points="406,-10 406,-30 426,-30 426,-10 406,-10"/>
<text text-anchor="start" x="429.7258" y="-15.4" font-family="sans-serif" font-size="14.00" fill="#000000"> &#160;Exports</text>
<g id="clust1" class="cluster">
<title>cluster_StarkLanguageSelectorModule</title>
<polygon fill="none" stroke="#000000" stroke-dasharray="1,5" points="40,-70 40,-268 456,-268 456,-70 40,-70"/>
</g>
<g id="clust2" class="cluster">
<title>cluster_StarkLanguageSelectorModule_declarations</title>
<polygon fill="none" stroke="#000000" points="220,-78 220,-130 448,-130 448,-78 220,-78"/>
</g>
<g id="clust4" class="cluster">
<title>cluster_StarkLanguageSelectorModule_imports</title>
<polygon fill="none" stroke="#000000" points="48,-78 48,-130 212,-130 212,-78 48,-78"/>
</g>
<g id="clust5" class="cluster">
<title>cluster_StarkLanguageSelectorModule_exports</title>
<polygon fill="none" stroke="#000000" points="132,-208 132,-260 364,-260 364,-208 132,-208"/>
</g>
<!-- StarkLanguageSelectorComponent -->
<g id="node1" class="node">
<title>StarkLanguageSelectorComponent</title>
<polygon fill="#ffffb3" stroke="#000000" points="439.9454,-122 228.0546,-122 228.0546,-86 439.9454,-86 439.9454,-122"/>
<text text-anchor="middle" x="334" y="-99.8" font-family="Times,serif" font-size="14.00" fill="#000000">StarkLanguageSelectorComponent</text>
</g>
<!-- StarkLanguageSelectorModule -->
<g id="node2" class="node">
<title>StarkLanguageSelectorModule</title>
<polygon fill="#8dd3c7" stroke="#000000" points="343.1629,-187 340.1629,-191 319.1629,-191 316.1629,-187 152.8371,-187 152.8371,-151 343.1629,-151 343.1629,-187"/>
<text text-anchor="middle" x="248" y="-164.8" font-family="Times,serif" font-size="14.00" fill="#000000">StarkLanguageSelectorModule</text>
</g>
<!-- StarkLanguageSelectorComponent&#45;&gt;StarkLanguageSelectorModule -->
<g id="edge1" class="edge">
<title>StarkLanguageSelectorComponent&#45;&gt;StarkLanguageSelectorModule</title>
<path fill="none" stroke="#000000" d="M285.5544,-122.1061C285.5544,-122.1061 285.5544,-140.991 285.5544,-140.991"/>
<polygon fill="#000000" stroke="#000000" points="282.0544,-140.9909 285.5544,-150.991 289.0544,-140.991 282.0544,-140.9909"/>
</g>
<!-- StarkLanguageSelectorComponent  -->
<g id="node4" class="node">
<title>StarkLanguageSelectorComponent </title>
<polygon fill="#fb8072" stroke="#000000" points="355.9459,-252 140.0541,-252 140.0541,-216 355.9459,-216 355.9459,-252"/>
<text text-anchor="middle" x="248" y="-229.8" font-family="Times,serif" font-size="14.00" fill="#000000">StarkLanguageSelectorComponent </text>
</g>
<!-- StarkLanguageSelectorModule&#45;&gt;StarkLanguageSelectorComponent  -->
<g id="edge3" class="edge">
<title>StarkLanguageSelectorModule&#45;&gt;StarkLanguageSelectorComponent </title>
<path fill="none" stroke="#000000" stroke-dasharray="5,2" d="M248,-187.1061C248,-187.1061 248,-205.991 248,-205.991"/>
<polygon fill="#000000" stroke="#000000" points="244.5001,-205.9909 248,-215.991 251.5001,-205.991 244.5001,-205.9909"/>
</g>
<!-- StarkDropdownModule -->
<g id="node3" class="node">
<title>StarkDropdownModule</title>
<polygon fill="#8dd3c7" stroke="#000000" points="204.472,-122 201.472,-126 180.472,-126 177.472,-122 55.528,-122 55.528,-86 204.472,-86 204.472,-122"/>
<text text-anchor="middle" x="130" y="-99.8" font-family="Times,serif" font-size="14.00" fill="#000000">StarkDropdownModule</text>
</g>
<!-- StarkDropdownModule&#45;&gt;StarkLanguageSelectorModule -->
<g id="edge2" class="edge">
<title>StarkDropdownModule&#45;&gt;StarkLanguageSelectorModule</title>
<path fill="none" stroke="#000000" d="M178.7023,-122.1061C178.7023,-122.1061 178.7023,-140.991 178.7023,-140.991"/>
<polygon fill="#000000" stroke="#000000" points="175.2024,-140.9909 178.7023,-150.991 182.2024,-140.991 175.2024,-140.9909"/>
</g>
</g>
</svg>
