<?xml version="1.0" encoding="UTF-8" standalone="no"?>
<!DOCTYPE svg PUBLIC "-//W3C//DTD SVG 1.1//EN"
 "http://www.w3.org/Graphics/SVG/1.1/DTD/svg11.dtd">
<!-- Generated by graphviz version 2.40.1 (20161225.0304)
 -->
<!-- Title: dependencies Pages: 1 -->
<svg width="504pt" height="284pt"
 viewBox="0.00 0.00 504.00 284.00" xmlns="http://www.w3.org/2000/svg" xmlns:xlink="http://www.w3.org/1999/xlink">
<g id="graph0" class="graph" transform="scale(1 1) rotate(0) translate(4 280)">
<title>dependencies</title>
<polygon fill="#ffffff" stroke="transparent" points="-4,4 -4,-280 500,-280 500,4 -4,4"/>
<text text-anchor="start" x="227.0091" y="-42.4" font-family="sans-serif" font-weight="bold" font-size="14.00" fill="#000000">Legend</text>
<polygon fill="#ffffb3" stroke="transparent" points="14,-10 14,-30 34,-30 34,-10 14,-10"/>
<text text-anchor="start" x="37.629" y="-15.4" font-family="sans-serif" font-size="14.00" fill="#000000"> &#160;Declarations</text>
<polygon fill="#8dd3c7" stroke="transparent" points="127,-10 127,-30 147,-30 147,-10 127,-10"/>
<text text-anchor="start" x="150.7251" y="-15.4" font-family="sans-serif" font-size="14.00" fill="#000000"> &#160;Module</text>
<polygon fill="#80b1d3" stroke="transparent" points="213,-10 213,-30 233,-30 233,-10 213,-10"/>
<text text-anchor="start" x="236.7812" y="-15.4" font-family="sans-serif" font-size="14.00" fill="#000000"> &#160;Bootstrap</text>
<polygon fill="#fdb462" stroke="transparent" points="310,-10 310,-30 330,-30 330,-10 310,-10"/>
<text text-anchor="start" x="333.6732" y="-15.4" font-family="sans-serif" font-size="14.00" fill="#000000"> &#160;Providers</text>
<polygon fill="#fb8072" stroke="transparent" points="406,-10 406,-30 426,-30 426,-10 406,-10"/>
<text text-anchor="start" x="429.7258" y="-15.4" font-family="sans-serif" font-size="14.00" fill="#000000"> &#160;Exports</text>
<g id="clust1" class="cluster">
<title>cluster_StarkProgressIndicatorModule</title>
<polygon fill="none" stroke="#000000" stroke-dasharray="1,5" points="20,-70 20,-268 476,-268 476,-70 20,-70"/>
</g>
<g id="clust2" class="cluster">
<title>cluster_StarkProgressIndicatorModule_declarations</title>
<polygon fill="none" stroke="#000000" points="28,-78 28,-130 468,-130 468,-78 28,-78"/>
</g>
<g id="clust6" class="cluster">
<title>cluster_StarkProgressIndicatorModule_exports</title>
<polygon fill="none" stroke="#000000" points="137,-208 137,-260 353,-260 353,-208 137,-208"/>
</g>
<!-- StarkProgressIndicatorComponent -->
<g id="node1" class="node">
<title>StarkProgressIndicatorComponent</title>
<polygon fill="#ffffb3" stroke="#000000" points="459.6203,-122 250.3797,-122 250.3797,-86 459.6203,-86 459.6203,-122"/>
<text text-anchor="middle" x="355" y="-99.8" font-family="Times,serif" font-size="14.00" fill="#000000">StarkProgressIndicatorComponent</text>
</g>
<!-- StarkProgressIndicatorModule -->
<g id="node3" class="node">
<title>StarkProgressIndicatorModule</title>
<polygon fill="#8dd3c7" stroke="#000000" points="338.8375,-187 335.8375,-191 314.8375,-191 311.8375,-187 151.1625,-187 151.1625,-151 338.8375,-151 338.8375,-187"/>
<text text-anchor="middle" x="245" y="-164.8" font-family="Times,serif" font-size="14.00" fill="#000000">StarkProgressIndicatorModule</text>
</g>
<!-- StarkProgressIndicatorComponent&#45;&gt;StarkProgressIndicatorModule -->
<g id="edge1" class="edge">
<title>StarkProgressIndicatorComponent&#45;&gt;StarkProgressIndicatorModule</title>
<path fill="none" stroke="#000000" d="M294.5544,-122.1061C294.5544,-122.1061 294.5544,-140.991 294.5544,-140.991"/>
<polygon fill="#000000" stroke="#000000" points="291.0544,-140.9909 294.5544,-150.991 298.0544,-140.991 291.0544,-140.9909"/>
</g>
<!-- StarkProgressIndicatorDirective -->
<g id="node2" class="node">
<title>StarkProgressIndicatorDirective</title>
<polygon fill="#ffffb3" stroke="#000000" points="232.3707,-122 35.6293,-122 35.6293,-86 232.3707,-86 232.3707,-122"/>
<text text-anchor="middle" x="134" y="-99.8" font-family="Times,serif" font-size="14.00" fill="#000000">StarkProgressIndicatorDirective</text>
</g>
<!-- StarkProgressIndicatorDirective&#45;&gt;StarkProgressIndicatorModule -->
<g id="edge2" class="edge">
<title>StarkProgressIndicatorDirective&#45;&gt;StarkProgressIndicatorModule</title>
<path fill="none" stroke="#000000" d="M191.6333,-122.1061C191.6333,-122.1061 191.6333,-140.991 191.6333,-140.991"/>
<polygon fill="#000000" stroke="#000000" points="188.1333,-140.9909 191.6333,-150.991 195.1333,-140.991 188.1333,-140.9909"/>
</g>
<!-- StarkProgressIndicatorDirective  -->
<g id="node4" class="node">
<title>StarkProgressIndicatorDirective </title>
<polygon fill="#fb8072" stroke="#000000" points="344.8704,-252 145.1296,-252 145.1296,-216 344.8704,-216 344.8704,-252"/>
<text text-anchor="middle" x="245" y="-229.8" font-family="Times,serif" font-size="14.00" fill="#000000">StarkProgressIndicatorDirective </text>
</g>
<!-- StarkProgressIndicatorModule&#45;&gt;StarkProgressIndicatorDirective  -->
<g id="edge3" class="edge">
<title>StarkProgressIndicatorModule&#45;&gt;StarkProgressIndicatorDirective </title>
<path fill="none" stroke="#000000" stroke-dasharray="5,2" d="M245,-187.1061C245,-187.1061 245,-205.991 245,-205.991"/>
<polygon fill="#000000" stroke="#000000" points="241.5001,-205.9909 245,-215.991 248.5001,-205.991 241.5001,-205.9909"/>
</g>
</g>
</svg>
