<?xml version="1.0" encoding="UTF-8" standalone="no"?>
<!DOCTYPE svg PUBLIC "-//W3C//DTD SVG 1.1//EN"
 "http://www.w3.org/Graphics/SVG/1.1/DTD/svg11.dtd">
<!-- Generated by graphviz version 2.40.1 (20161225.0304)
 -->
<!-- Title: dependencies Pages: 1 -->
<svg width="2505pt" height="358pt"
 viewBox="0.00 0.00 2505.00 358.00" xmlns="http://www.w3.org/2000/svg" xmlns:xlink="http://www.w3.org/1999/xlink">
<g id="graph0" class="graph" transform="scale(1 1) rotate(0) translate(4 354)">
<title>dependencies</title>
<polygon fill="#ffffff" stroke="transparent" points="-4,4 -4,-354 2501,-354 2501,4 -4,4"/>
<text text-anchor="start" x="1227.5091" y="-42.4" font-family="sans-serif" font-weight="bold" font-size="14.00" fill="#000000">Legend</text>
<polygon fill="#ffffb3" stroke="transparent" points="1014.5,-10 1014.5,-30 1034.5,-30 1034.5,-10 1014.5,-10"/>
<text text-anchor="start" x="1038.129" y="-15.4" font-family="sans-serif" font-size="14.00" fill="#000000"> &#160;Declarations</text>
<polygon fill="#8dd3c7" stroke="transparent" points="1127.5,-10 1127.5,-30 1147.5,-30 1147.5,-10 1127.5,-10"/>
<text text-anchor="start" x="1151.2251" y="-15.4" font-family="sans-serif" font-size="14.00" fill="#000000"> &#160;Module</text>
<polygon fill="#80b1d3" stroke="transparent" points="1213.5,-10 1213.5,-30 1233.5,-30 1233.5,-10 1213.5,-10"/>
<text text-anchor="start" x="1237.2812" y="-15.4" font-family="sans-serif" font-size="14.00" fill="#000000"> &#160;Bootstrap</text>
<polygon fill="#fdb462" stroke="transparent" points="1310.5,-10 1310.5,-30 1330.5,-30 1330.5,-10 1310.5,-10"/>
<text text-anchor="start" x="1334.1732" y="-15.4" font-family="sans-serif" font-size="14.00" fill="#000000"> &#160;Providers</text>
<polygon fill="#fb8072" stroke="transparent" points="1406.5,-10 1406.5,-30 1426.5,-30 1426.5,-10 1406.5,-10"/>
<text text-anchor="start" x="1430.2258" y="-15.4" font-family="sans-serif" font-size="14.00" fill="#000000"> &#160;Exports</text>
<g id="clust1" class="cluster">
<title>cluster_StarkActionBarModule</title>
<polygon fill="none" stroke="#000000" stroke-dasharray="1,5" points="8,-70 8,-274 398,-274 398,-70 8,-70"/>
</g>
<g id="clust2" class="cluster">
<title>cluster_StarkActionBarModule_declarations</title>
<polygon fill="none" stroke="#000000" points="16,-78 16,-130 202,-130 202,-78 16,-78"/>
</g>
<g id="clust4" class="cluster">
<title>cluster_StarkActionBarModule_imports</title>
<polygon fill="none" stroke="#000000" points="210,-78 210,-130 390,-130 390,-78 210,-78"/>
</g>
<g id="clust5" class="cluster">
<title>cluster_StarkActionBarModule_exports</title>
<polygon fill="none" stroke="#000000" points="202,-214 202,-266 390,-266 390,-214 202,-214"/>
</g>
<g id="clust8" class="cluster">
<title>cluster_StarkAppLogoModule</title>
<polygon fill="none" stroke="#000000" stroke-dasharray="1,5" points="1481,-70 1481,-274 1681,-274 1681,-70 1481,-70"/>
</g>
<g id="clust9" class="cluster">
<title>cluster_StarkAppLogoModule_declarations</title>
<polygon fill="none" stroke="#000000" points="1491,-78 1491,-130 1671,-130 1671,-78 1491,-78"/>
</g>
<g id="clust12" class="cluster">
<title>cluster_StarkAppLogoModule_exports</title>
<polygon fill="none" stroke="#000000" points="1489,-214 1489,-266 1673,-266 1673,-214 1489,-214"/>
</g>
<g id="clust15" class="cluster">
<title>cluster_StarkKeyboardDirectivesModule</title>
<polygon fill="none" stroke="#000000" stroke-dasharray="1,5" points="1689,-70 1689,-274 2085,-274 2085,-70 1689,-70"/>
</g>
<g id="clust16" class="cluster">
<title>cluster_StarkKeyboardDirectivesModule_declarations</title>
<polygon fill="none" stroke="#000000" points="1700,-78 1700,-130 2073,-130 2073,-78 1700,-78"/>
</g>
<g id="clust20" class="cluster">
<title>cluster_StarkKeyboardDirectivesModule_exports</title>
<polygon fill="none" stroke="#000000" points="1697,-214 1697,-266 2077,-266 2077,-214 1697,-214"/>
</g>
<g id="clust23" class="cluster">
<title>cluster_StarkPrettyPrintModule</title>
<polygon fill="none" stroke="#000000" stroke-dasharray="1,5" points="2093,-70 2093,-274 2301,-274 2301,-70 2093,-70"/>
</g>
<g id="clust24" class="cluster">
<title>cluster_StarkPrettyPrintModule_declarations</title>
<polygon fill="none" stroke="#000000" points="2103,-78 2103,-130 2291,-130 2291,-78 2103,-78"/>
</g>
<g id="clust27" class="cluster">
<title>cluster_StarkPrettyPrintModule_exports</title>
<polygon fill="none" stroke="#000000" points="2101,-214 2101,-266 2293,-266 2293,-214 2101,-214"/>
</g>
<g id="clust30" class="cluster">
<title>cluster_StarkSliderModule</title>
<polygon fill="none" stroke="#000000" stroke-dasharray="1,5" points="2309,-70 2309,-274 2489,-274 2489,-70 2309,-70"/>
</g>
<g id="clust31" class="cluster">
<title>cluster_StarkSliderModule_declarations</title>
<polygon fill="none" stroke="#000000" points="2319,-78 2319,-130 2479,-130 2479,-78 2319,-78"/>
</g>
<g id="clust34" class="cluster">
<title>cluster_StarkSliderModule_exports</title>
<polygon fill="none" stroke="#000000" points="2317,-214 2317,-266 2481,-266 2481,-214 2317,-214"/>
</g>
<g id="clust37" class="cluster">
<title>cluster_StarkSvgViewBoxModule</title>
<polygon fill="none" stroke="#000000" stroke-dasharray="1,5" points="406,-138 406,-206 812,-206 812,-138 406,-138"/>
</g>
<g id="clust38" class="cluster">
<title>cluster_StarkSvgViewBoxModule_declarations</title>
<polygon fill="none" stroke="#000000" points="614,-146 614,-198 804,-198 804,-146 614,-146"/>
</g>
<g id="clust41" class="cluster">
<title>cluster_StarkSvgViewBoxModule_exports</title>
<polygon fill="none" stroke="#000000" points="414,-146 414,-198 606,-198 606,-146 414,-146"/>
</g>
<g id="clust44" class="cluster">
<title>cluster_StarkTableModule</title>
<polygon fill="none" stroke="#000000" stroke-dasharray="1,5" points="842,-138 842,-342 1473,-342 1473,-138 842,-138"/>
</g>
<g id="clust45" class="cluster">
<title>cluster_StarkTableModule_declarations</title>
<polygon fill="none" stroke="#000000" points="850,-146 850,-198 1465,-198 1465,-146 850,-146"/>
</g>
<g id="clust50" class="cluster">
<title>cluster_StarkTableModule_exports</title>
<polygon fill="none" stroke="#000000" points="872,-282 872,-334 1244,-334 1244,-282 872,-282"/>
</g>
<!-- StarkActionBarComponent -->
<g id="node1" class="node">
<title>StarkActionBarComponent</title>
<polygon fill="#ffffb3" stroke="#000000" points="193.6951,-122 24.3049,-122 24.3049,-86 193.6951,-86 193.6951,-122"/>
<text text-anchor="middle" x="109" y="-99.8" font-family="Times,serif" font-size="14.00" fill="#000000">StarkActionBarComponent</text>
</g>
<!-- StarkActionBarModule -->
<g id="node2" class="node">
<title>StarkActionBarModule</title>
<polygon fill="#8dd3c7" stroke="#000000" points="371.913,-190 368.913,-194 347.913,-194 344.913,-190 224.087,-190 224.087,-154 371.913,-154 371.913,-190"/>
<text text-anchor="middle" x="298" y="-167.8" font-family="Times,serif" font-size="14.00" fill="#000000">StarkActionBarModule</text>
</g>
<!-- StarkActionBarComponent&#45;&gt;StarkActionBarModule -->
<g id="edge1" class="edge">
<title>StarkActionBarComponent&#45;&gt;StarkActionBarModule</title>
<path fill="none" stroke="#000000" d="M109,-122.2228C109,-142.3652 109,-172 109,-172 109,-172 214.1156,-172 214.1156,-172"/>
<polygon fill="#000000" stroke="#000000" points="214.1157,-175.5001 224.1156,-172 214.1156,-168.5001 214.1157,-175.5001"/>
</g>
<!-- StarkActionBarComponent  -->
<g id="node4" class="node">
<title>StarkActionBarComponent </title>
<polygon fill="#fb8072" stroke="#000000" points="382.1953,-258 209.8047,-258 209.8047,-222 382.1953,-222 382.1953,-258"/>
<text text-anchor="middle" x="296" y="-235.8" font-family="Times,serif" font-size="14.00" fill="#000000">StarkActionBarComponent </text>
</g>
<!-- StarkActionBarModule&#45;&gt;StarkActionBarComponent  -->
<g id="edge3" class="edge">
<title>StarkActionBarModule&#45;&gt;StarkActionBarComponent </title>
<path fill="none" stroke="#000000" stroke-dasharray="5,2" d="M298,-190.2228C298,-190.2228 298,-211.7269 298,-211.7269"/>
<polygon fill="#000000" stroke="#000000" points="294.5001,-211.7269 298,-221.7269 301.5001,-211.727 294.5001,-211.7269"/>
</g>
<!-- StarkTableModule -->
<g id="node24" class="node">
<title>StarkTableModule</title>
<polygon fill="#8dd3c7" stroke="#000000" points="1034.4706,-258 1031.4706,-262 1010.4706,-262 1007.4706,-258 913.5294,-258 913.5294,-222 1034.4706,-222 1034.4706,-258"/>
<text text-anchor="middle" x="974" y="-235.8" font-family="Times,serif" font-size="14.00" fill="#000000">StarkTableModule</text>
</g>
<!-- StarkActionBarModule&#45;&gt;StarkTableModule -->
<g id="edge19" class="edge">
<title>StarkActionBarModule&#45;&gt;StarkTableModule</title>
<path fill="none" stroke="#000000" d="M371.8754,-178C385.4697,-178 395.4702,-178 395.4702,-178 395.4702,-178 395.4702,-246 395.4702,-246 395.4702,-246 903.4528,-246 903.4528,-246"/>
<polygon fill="#000000" stroke="#000000" points="903.4528,-249.5001 913.4528,-246 903.4527,-242.5001 903.4528,-249.5001"/>
</g>
<!-- StarkSvgViewBoxModule -->
<g id="node3" class="node">
<title>StarkSvgViewBoxModule</title>
<polygon fill="#8dd3c7" stroke="#000000" points="382.0365,-122 379.0365,-126 358.0365,-126 355.0365,-122 217.9635,-122 217.9635,-86 382.0365,-86 382.0365,-122"/>
<text text-anchor="middle" x="300" y="-99.8" font-family="Times,serif" font-size="14.00" fill="#000000">StarkSvgViewBoxModule</text>
</g>
<!-- StarkSvgViewBoxModule&#45;&gt;StarkActionBarModule -->
<g id="edge2" class="edge">
<title>StarkSvgViewBoxModule&#45;&gt;StarkActionBarModule</title>
<path fill="none" stroke="#000000" d="M298,-122.2228C298,-122.2228 298,-143.7269 298,-143.7269"/>
<polygon fill="#000000" stroke="#000000" points="294.5001,-143.7269 298,-153.7269 301.5001,-143.727 294.5001,-143.7269"/>
</g>
<!-- StarkSvgViewBoxDirective  -->
<g id="node20" class="node">
<title>StarkSvgViewBoxDirective </title>
<polygon fill="#fb8072" stroke="#000000" points="598.0693,-190 421.9307,-190 421.9307,-154 598.0693,-154 598.0693,-190"/>
<text text-anchor="middle" x="510" y="-167.8" font-family="Times,serif" font-size="14.00" fill="#000000">StarkSvgViewBoxDirective </text>
</g>
<!-- StarkSvgViewBoxModule&#45;&gt;StarkSvgViewBoxDirective  -->
<g id="edge15" class="edge">
<title>StarkSvgViewBoxModule&#45;&gt;StarkSvgViewBoxDirective </title>
<path fill="none" stroke="#000000" stroke-dasharray="5,2" d="M376.987,-122.2667C376.987,-140.5552 376.987,-166 376.987,-166 376.987,-166 411.6485,-166 411.6485,-166"/>
<polygon fill="#000000" stroke="#000000" points="411.6485,-169.5001 421.6485,-166 411.6484,-162.5001 411.6485,-169.5001"/>
</g>
<!-- StarkSvgViewBoxModule&#45;&gt;StarkTableModule -->
<g id="edge20" class="edge">
<title>StarkSvgViewBoxModule&#45;&gt;StarkTableModule</title>
<path fill="none" stroke="#000000" d="M382.3056,-110C397.4513,-110 408.5929,-110 408.5929,-110 408.5929,-110 408.5929,-234 408.5929,-234 408.5929,-234 903.4915,-234 903.4915,-234"/>
<polygon fill="#000000" stroke="#000000" points="903.4916,-237.5001 913.4915,-234 903.4915,-230.5001 903.4916,-237.5001"/>
</g>
<!-- StarkAppLogoComponent -->
<g id="node5" class="node">
<title>StarkAppLogoComponent</title>
<polygon fill="#ffffb3" stroke="#000000" points="1663.0406,-122 1498.9594,-122 1498.9594,-86 1663.0406,-86 1663.0406,-122"/>
<text text-anchor="middle" x="1581" y="-99.8" font-family="Times,serif" font-size="14.00" fill="#000000">StarkAppLogoComponent</text>
</g>
<!-- StarkAppLogoModule -->
<g id="node6" class="node">
<title>StarkAppLogoModule</title>
<polygon fill="#8dd3c7" stroke="#000000" points="1652.2576,-190 1649.2576,-194 1628.2576,-194 1625.2576,-190 1509.7424,-190 1509.7424,-154 1652.2576,-154 1652.2576,-190"/>
<text text-anchor="middle" x="1581" y="-167.8" font-family="Times,serif" font-size="14.00" fill="#000000">StarkAppLogoModule</text>
</g>
<!-- StarkAppLogoComponent&#45;&gt;StarkAppLogoModule -->
<g id="edge4" class="edge">
<title>StarkAppLogoComponent&#45;&gt;StarkAppLogoModule</title>
<path fill="none" stroke="#000000" d="M1581,-122.2228C1581,-122.2228 1581,-143.7269 1581,-143.7269"/>
<polygon fill="#000000" stroke="#000000" points="1577.5001,-143.7269 1581,-153.7269 1584.5001,-143.727 1577.5001,-143.7269"/>
</g>
<!-- StarkAppLogoComponent  -->
<g id="node7" class="node">
<title>StarkAppLogoComponent </title>
<polygon fill="#fb8072" stroke="#000000" points="1665.04,-258 1496.96,-258 1496.96,-222 1665.04,-222 1665.04,-258"/>
<text text-anchor="middle" x="1581" y="-235.8" font-family="Times,serif" font-size="14.00" fill="#000000">StarkAppLogoComponent </text>
</g>
<!-- StarkAppLogoModule&#45;&gt;StarkAppLogoComponent  -->
<g id="edge5" class="edge">
<title>StarkAppLogoModule&#45;&gt;StarkAppLogoComponent </title>
<path fill="none" stroke="#000000" stroke-dasharray="5,2" d="M1581,-190.2228C1581,-190.2228 1581,-211.7269 1581,-211.7269"/>
<polygon fill="#000000" stroke="#000000" points="1577.5001,-211.7269 1581,-221.7269 1584.5001,-211.727 1577.5001,-211.7269"/>
</g>
<!-- StarkOnEnterKeyDirective -->
<g id="node8" class="node">
<title>StarkOnEnterKeyDirective</title>
<polygon fill="#ffffb3" stroke="#000000" points="2065.3778,-122 1896.6222,-122 1896.6222,-86 2065.3778,-86 2065.3778,-122"/>
<text text-anchor="middle" x="1981" y="-99.8" font-family="Times,serif" font-size="14.00" fill="#000000">StarkOnEnterKeyDirective</text>
</g>
<!-- StarkKeyboardDirectivesModule -->
<g id="node10" class="node">
<title>StarkKeyboardDirectivesModule</title>
<polygon fill="#8dd3c7" stroke="#000000" points="1987.8221,-190 1984.8221,-194 1963.8221,-194 1960.8221,-190 1786.1779,-190 1786.1779,-154 1987.8221,-154 1987.8221,-190"/>
<text text-anchor="middle" x="1887" y="-167.8" font-family="Times,serif" font-size="14.00" fill="#000000">StarkKeyboardDirectivesModule</text>
</g>
<!-- StarkOnEnterKeyDirective&#45;&gt;StarkKeyboardDirectivesModule -->
<g id="edge6" class="edge">
<title>StarkOnEnterKeyDirective&#45;&gt;StarkKeyboardDirectivesModule</title>
<path fill="none" stroke="#000000" d="M1942.3612,-122.2228C1942.3612,-122.2228 1942.3612,-143.7269 1942.3612,-143.7269"/>
<polygon fill="#000000" stroke="#000000" points="1938.8612,-143.7269 1942.3612,-153.7269 1945.8612,-143.727 1938.8612,-143.7269"/>
</g>
<!-- StarkRestrictInputDirective -->
<g id="node9" class="node">
<title>StarkRestrictInputDirective</title>
<polygon fill="#ffffb3" stroke="#000000" points="1878.2254,-122 1707.7746,-122 1707.7746,-86 1878.2254,-86 1878.2254,-122"/>
<text text-anchor="middle" x="1793" y="-99.8" font-family="Times,serif" font-size="14.00" fill="#000000">StarkRestrictInputDirective</text>
</g>
<!-- StarkRestrictInputDirective&#45;&gt;StarkKeyboardDirectivesModule -->
<g id="edge7" class="edge">
<title>StarkRestrictInputDirective&#45;&gt;StarkKeyboardDirectivesModule</title>
<path fill="none" stroke="#000000" d="M1832.2258,-122.2228C1832.2258,-122.2228 1832.2258,-143.7269 1832.2258,-143.7269"/>
<polygon fill="#000000" stroke="#000000" points="1828.7259,-143.7269 1832.2258,-153.7269 1835.7259,-143.727 1828.7259,-143.7269"/>
</g>
<!-- StarkOnEnterKeyDirective  -->
<g id="node11" class="node">
<title>StarkOnEnterKeyDirective </title>
<polygon fill="#fb8072" stroke="#000000" points="2068.8774,-258 1897.1226,-258 1897.1226,-222 2068.8774,-222 2068.8774,-258"/>
<text text-anchor="middle" x="1983" y="-235.8" font-family="Times,serif" font-size="14.00" fill="#000000">StarkOnEnterKeyDirective </text>
</g>
<!-- StarkKeyboardDirectivesModule&#45;&gt;StarkOnEnterKeyDirective  -->
<g id="edge8" class="edge">
<title>StarkKeyboardDirectivesModule&#45;&gt;StarkOnEnterKeyDirective </title>
<path fill="none" stroke="#000000" stroke-dasharray="5,2" d="M1942.4862,-190.2228C1942.4862,-190.2228 1942.4862,-211.7269 1942.4862,-211.7269"/>
<polygon fill="#000000" stroke="#000000" points="1938.9862,-211.7269 1942.4862,-221.7269 1945.9862,-211.727 1938.9862,-211.7269"/>
</g>
<!-- StarkRestrictInputDirective  -->
<g id="node12" class="node">
<title>StarkRestrictInputDirective </title>
<polygon fill="#fb8072" stroke="#000000" points="1879.2253,-258 1704.7747,-258 1704.7747,-222 1879.2253,-222 1879.2253,-258"/>
<text text-anchor="middle" x="1792" y="-235.8" font-family="Times,serif" font-size="14.00" fill="#000000">StarkRestrictInputDirective </text>
</g>
<!-- StarkKeyboardDirectivesModule&#45;&gt;StarkRestrictInputDirective  -->
<g id="edge9" class="edge">
<title>StarkKeyboardDirectivesModule&#45;&gt;StarkRestrictInputDirective </title>
<path fill="none" stroke="#000000" stroke-dasharray="5,2" d="M1832.6008,-190.2228C1832.6008,-190.2228 1832.6008,-211.7269 1832.6008,-211.7269"/>
<polygon fill="#000000" stroke="#000000" points="1829.1009,-211.7269 1832.6008,-221.7269 1836.1009,-211.727 1829.1009,-211.7269"/>
</g>
<!-- StarkPrettyPrintComponent -->
<g id="node13" class="node">
<title>StarkPrettyPrintComponent</title>
<polygon fill="#ffffb3" stroke="#000000" points="2282.5448,-122 2111.4552,-122 2111.4552,-86 2282.5448,-86 2282.5448,-122"/>
<text text-anchor="middle" x="2197" y="-99.8" font-family="Times,serif" font-size="14.00" fill="#000000">StarkPrettyPrintComponent</text>
</g>
<!-- StarkPrettyPrintModule -->
<g id="node14" class="node">
<title>StarkPrettyPrintModule</title>
<polygon fill="#8dd3c7" stroke="#000000" points="2271.7618,-190 2268.7618,-194 2247.7618,-194 2244.7618,-190 2122.2382,-190 2122.2382,-154 2271.7618,-154 2271.7618,-190"/>
<text text-anchor="middle" x="2197" y="-167.8" font-family="Times,serif" font-size="14.00" fill="#000000">StarkPrettyPrintModule</text>
</g>
<!-- StarkPrettyPrintComponent&#45;&gt;StarkPrettyPrintModule -->
<g id="edge10" class="edge">
<title>StarkPrettyPrintComponent&#45;&gt;StarkPrettyPrintModule</title>
<path fill="none" stroke="#000000" d="M2197,-122.2228C2197,-122.2228 2197,-143.7269 2197,-143.7269"/>
<polygon fill="#000000" stroke="#000000" points="2193.5001,-143.7269 2197,-153.7269 2200.5001,-143.727 2193.5001,-143.7269"/>
</g>
<!-- StarkPrettyPrintComponent  -->
<g id="node15" class="node">
<title>StarkPrettyPrintComponent </title>
<polygon fill="#fb8072" stroke="#000000" points="2284.5442,-258 2109.4558,-258 2109.4558,-222 2284.5442,-222 2284.5442,-258"/>
<text text-anchor="middle" x="2197" y="-235.8" font-family="Times,serif" font-size="14.00" fill="#000000">StarkPrettyPrintComponent </text>
</g>
<!-- StarkPrettyPrintModule&#45;&gt;StarkPrettyPrintComponent  -->
<g id="edge11" class="edge">
<title>StarkPrettyPrintModule&#45;&gt;StarkPrettyPrintComponent </title>
<path fill="none" stroke="#000000" stroke-dasharray="5,2" d="M2197,-190.2228C2197,-190.2228 2197,-211.7269 2197,-211.7269"/>
<polygon fill="#000000" stroke="#000000" points="2193.5001,-211.7269 2197,-221.7269 2200.5001,-211.727 2193.5001,-211.7269"/>
</g>
<!-- StarkSliderComponent -->
<g id="node16" class="node">
<title>StarkSliderComponent</title>
<polygon fill="#ffffb3" stroke="#000000" points="2471.3202,-122 2326.6798,-122 2326.6798,-86 2471.3202,-86 2471.3202,-122"/>
<text text-anchor="middle" x="2399" y="-99.8" font-family="Times,serif" font-size="14.00" fill="#000000">StarkSliderComponent</text>
</g>
<!-- StarkSliderModule -->
<g id="node17" class="node">
<title>StarkSliderModule</title>
<polygon fill="#8dd3c7" stroke="#000000" points="2460.0381,-190 2457.0381,-194 2436.0381,-194 2433.0381,-190 2337.9619,-190 2337.9619,-154 2460.0381,-154 2460.0381,-190"/>
<text text-anchor="middle" x="2399" y="-167.8" font-family="Times,serif" font-size="14.00" fill="#000000">StarkSliderModule</text>
</g>
<!-- StarkSliderComponent&#45;&gt;StarkSliderModule -->
<g id="edge12" class="edge">
<title>StarkSliderComponent&#45;&gt;StarkSliderModule</title>
<path fill="none" stroke="#000000" d="M2399,-122.2228C2399,-122.2228 2399,-143.7269 2399,-143.7269"/>
<polygon fill="#000000" stroke="#000000" points="2395.5001,-143.7269 2399,-153.7269 2402.5001,-143.727 2395.5001,-143.7269"/>
</g>
<!-- StarkSliderComponent  -->
<g id="node18" class="node">
<title>StarkSliderComponent </title>
<polygon fill="#fb8072" stroke="#000000" points="2472.8199,-258 2325.1801,-258 2325.1801,-222 2472.8199,-222 2472.8199,-258"/>
<text text-anchor="middle" x="2399" y="-235.8" font-family="Times,serif" font-size="14.00" fill="#000000">StarkSliderComponent </text>
</g>
<!-- StarkSliderModule&#45;&gt;StarkSliderComponent  -->
<g id="edge13" class="edge">
<title>StarkSliderModule&#45;&gt;StarkSliderComponent </title>
<path fill="none" stroke="#000000" stroke-dasharray="5,2" d="M2399,-190.2228C2399,-190.2228 2399,-211.7269 2399,-211.7269"/>
<polygon fill="#000000" stroke="#000000" points="2395.5001,-211.7269 2399,-221.7269 2402.5001,-211.727 2395.5001,-211.7269"/>
</g>
<!-- StarkSvgViewBoxDirective -->
<g id="node19" class="node">
<title>StarkSvgViewBoxDirective</title>
<polygon fill="#ffffb3" stroke="#000000" points="795.5688,-190 622.4312,-190 622.4312,-154 795.5688,-154 795.5688,-190"/>
<text text-anchor="middle" x="709" y="-167.8" font-family="Times,serif" font-size="14.00" fill="#000000">StarkSvgViewBoxDirective</text>
</g>
<!-- StarkSvgViewBoxDirective&#45;&gt;StarkSvgViewBoxModule -->
<g id="edge14" class="edge">
<title>StarkSvgViewBoxDirective&#45;&gt;StarkSvgViewBoxModule</title>
<path fill="none" stroke="#000000" d="M709,-153.7079C709,-131.7943 709,-98 709,-98 709,-98 392.2753,-98 392.2753,-98"/>
<polygon fill="#000000" stroke="#000000" points="392.2753,-94.5001 382.2753,-98 392.2752,-101.5001 392.2753,-94.5001"/>
</g>
<!-- StarkTableColumnComponent -->
<g id="node21" class="node">
<title>StarkTableColumnComponent</title>
<polygon fill="#ffffb3" stroke="#000000" points="1456.871,-190 1269.129,-190 1269.129,-154 1456.871,-154 1456.871,-190"/>
<text text-anchor="middle" x="1363" y="-167.8" font-family="Times,serif" font-size="14.00" fill="#000000">StarkTableColumnComponent</text>
</g>
<!-- StarkTableColumnComponent&#45;&gt;StarkTableModule -->
<g id="edge16" class="edge">
<title>StarkTableColumnComponent&#45;&gt;StarkTableModule</title>
<path fill="none" stroke="#000000" d="M1363,-190.2921C1363,-212.2057 1363,-246 1363,-246 1363,-246 1044.7813,-246 1044.7813,-246"/>
<polygon fill="#000000" stroke="#000000" points="1044.7813,-242.5001 1034.7813,-246 1044.7812,-249.5001 1044.7813,-242.5001"/>
</g>
<!-- StarkTableComponent -->
<g id="node22" class="node">
<title>StarkTableComponent</title>
<polygon fill="#ffffb3" stroke="#000000" points="1251.2534,-190 1108.7466,-190 1108.7466,-154 1251.2534,-154 1251.2534,-190"/>
<text text-anchor="middle" x="1180" y="-167.8" font-family="Times,serif" font-size="14.00" fill="#000000">StarkTableComponent</text>
</g>
<!-- StarkTableComponent&#45;&gt;StarkTableModule -->
<g id="edge17" class="edge">
<title>StarkTableComponent&#45;&gt;StarkTableModule</title>
<path fill="none" stroke="#000000" d="M1172.1545,-190.2667C1172.1545,-208.5552 1172.1545,-234 1172.1545,-234 1172.1545,-234 1044.5296,-234 1044.5296,-234"/>
<polygon fill="#000000" stroke="#000000" points="1044.5296,-230.5001 1034.5296,-234 1044.5295,-237.5001 1044.5296,-230.5001"/>
</g>
<!-- StarkTableMultisortDialogComponent -->
<g id="node23" class="node">
<title>StarkTableMultisortDialogComponent</title>
<polygon fill="#ffffb3" stroke="#000000" points="1090.4678,-190 857.5322,-190 857.5322,-154 1090.4678,-154 1090.4678,-190"/>
<text text-anchor="middle" x="974" y="-167.8" font-family="Times,serif" font-size="14.00" fill="#000000">StarkTableMultisortDialogComponent</text>
</g>
<!-- StarkTableMultisortDialogComponent&#45;&gt;StarkTableModule -->
<g id="edge18" class="edge">
<title>StarkTableMultisortDialogComponent&#45;&gt;StarkTableModule</title>
<path fill="none" stroke="#000000" d="M974,-190.2228C974,-190.2228 974,-211.7269 974,-211.7269"/>
<polygon fill="#000000" stroke="#000000" points="970.5001,-211.7269 974,-221.7269 977.5001,-211.727 970.5001,-211.7269"/>
</g>
<!-- StarkTableColumnComponent  -->
<g id="node25" class="node">
<title>StarkTableColumnComponent </title>
<polygon fill="#fb8072" stroke="#000000" points="1235.8714,-326 1044.1286,-326 1044.1286,-290 1235.8714,-290 1235.8714,-326"/>
<text text-anchor="middle" x="1140" y="-303.8" font-family="Times,serif" font-size="14.00" fill="#000000">StarkTableColumnComponent </text>
</g>
<!-- StarkTableModule&#45;&gt;StarkTableColumnComponent  -->
<g id="edge21" class="edge">
<title>StarkTableModule&#45;&gt;StarkTableColumnComponent </title>
<path fill="none" stroke="#000000" stroke-dasharray="5,2" d="M1030.306,-258.2228C1030.306,-278.3652 1030.306,-308 1030.306,-308 1030.306,-308 1034.1988,-308 1034.1988,-308"/>
<polygon fill="#000000" stroke="#000000" points="1034.1988,-311.5001 1044.1988,-308 1034.1987,-304.5001 1034.1988,-311.5001"/>
</g>
<!-- StarkTableComponent  -->
<g id="node26" class="node">
<title>StarkTableComponent </title>
<polygon fill="#fb8072" stroke="#000000" points="1026.2534,-326 879.7466,-326 879.7466,-290 1026.2534,-290 1026.2534,-326"/>
<text text-anchor="middle" x="953" y="-303.8" font-family="Times,serif" font-size="14.00" fill="#000000">StarkTableComponent </text>
</g>
<!-- StarkTableModule&#45;&gt;StarkTableComponent  -->
<g id="edge22" class="edge">
<title>StarkTableModule&#45;&gt;StarkTableComponent </title>
<path fill="none" stroke="#000000" stroke-dasharray="5,2" d="M969.8207,-258.2228C969.8207,-258.2228 969.8207,-279.7269 969.8207,-279.7269"/>
<polygon fill="#000000" stroke="#000000" points="966.3207,-279.7269 969.8207,-289.7269 973.3207,-279.727 966.3207,-279.7269"/>
</g>
</g>
</svg>
