<?xml version="1.0" encoding="UTF-8" standalone="no"?>
<!DOCTYPE svg PUBLIC "-//W3C//DTD SVG 1.1//EN"
 "http://www.w3.org/Graphics/SVG/1.1/DTD/svg11.dtd">
<!-- Generated by graphviz version 2.40.1 (20161225.0304)
 -->
<!-- Title: dependencies Pages: 1 -->
<svg width="3829pt" height="358pt"
 viewBox="0.00 0.00 3829.00 358.00" xmlns="http://www.w3.org/2000/svg" xmlns:xlink="http://www.w3.org/1999/xlink">
<g id="graph0" class="graph" transform="scale(1 1) rotate(0) translate(4 354)">
<title>dependencies</title>
<polygon fill="#ffffff" stroke="transparent" points="-4,4 -4,-354 3825,-354 3825,4 -4,4"/>
<text text-anchor="start" x="1889.5091" y="-42.4" font-family="sans-serif" font-weight="bold" font-size="14.00" fill="#000000">Legend</text>
<polygon fill="#ffffb3" stroke="transparent" points="1676.5,-10 1676.5,-30 1696.5,-30 1696.5,-10 1676.5,-10"/>
<text text-anchor="start" x="1700.129" y="-15.4" font-family="sans-serif" font-size="14.00" fill="#000000"> &#160;Declarations</text>
<polygon fill="#8dd3c7" stroke="transparent" points="1789.5,-10 1789.5,-30 1809.5,-30 1809.5,-10 1789.5,-10"/>
<text text-anchor="start" x="1813.2251" y="-15.4" font-family="sans-serif" font-size="14.00" fill="#000000"> &#160;Module</text>
<polygon fill="#80b1d3" stroke="transparent" points="1875.5,-10 1875.5,-30 1895.5,-30 1895.5,-10 1875.5,-10"/>
<text text-anchor="start" x="1899.2812" y="-15.4" font-family="sans-serif" font-size="14.00" fill="#000000"> &#160;Bootstrap</text>
<polygon fill="#fdb462" stroke="transparent" points="1972.5,-10 1972.5,-30 1992.5,-30 1992.5,-10 1972.5,-10"/>
<text text-anchor="start" x="1996.1732" y="-15.4" font-family="sans-serif" font-size="14.00" fill="#000000"> &#160;Providers</text>
<polygon fill="#fb8072" stroke="transparent" points="2068.5,-10 2068.5,-30 2088.5,-30 2088.5,-10 2068.5,-10"/>
<text text-anchor="start" x="2092.2258" y="-15.4" font-family="sans-serif" font-size="14.00" fill="#000000"> &#160;Exports</text>
<g id="clust1" class="cluster">
<title>cluster_StarkActionBarModule</title>
<polygon fill="none" stroke="#000000" stroke-dasharray="1,5" points="8,-70 8,-274 398,-274 398,-70 8,-70"/>
</g>
<g id="clust2" class="cluster">
<title>cluster_StarkActionBarModule_declarations</title>
<polygon fill="none" stroke="#000000" points="16,-78 16,-130 202,-130 202,-78 16,-78"/>
</g>
<g id="clust4" class="cluster">
<title>cluster_StarkActionBarModule_imports</title>
<polygon fill="none" stroke="#000000" points="210,-78 210,-130 390,-130 390,-78 210,-78"/>
</g>
<g id="clust5" class="cluster">
<title>cluster_StarkActionBarModule_exports</title>
<polygon fill="none" stroke="#000000" points="192,-214 192,-266 380,-266 380,-214 192,-214"/>
</g>
<g id="clust8" class="cluster">
<title>cluster_StarkAppLogoModule</title>
<polygon fill="none" stroke="#000000" stroke-dasharray="1,5" points="1677,-70 1677,-274 1877,-274 1877,-70 1677,-70"/>
</g>
<g id="clust9" class="cluster">
<title>cluster_StarkAppLogoModule_declarations</title>
<polygon fill="none" stroke="#000000" points="1687,-78 1687,-130 1867,-130 1867,-78 1687,-78"/>
</g>
<g id="clust12" class="cluster">
<title>cluster_StarkAppLogoModule_exports</title>
<polygon fill="none" stroke="#000000" points="1685,-214 1685,-266 1869,-266 1869,-214 1685,-214"/>
</g>
<g id="clust15" class="cluster">
<title>cluster_StarkAppLogoutModule</title>
<polygon fill="none" stroke="#000000" stroke-dasharray="1,5" points="1459,-70 1459,-274 1669,-274 1669,-70 1459,-70"/>
</g>
<g id="clust16" class="cluster">
<title>cluster_StarkAppLogoutModule_declarations</title>
<polygon fill="none" stroke="#000000" points="1467,-78 1467,-130 1659,-130 1659,-78 1467,-78"/>
</g>
<g id="clust19" class="cluster">
<title>cluster_StarkAppLogoutModule_exports</title>
<polygon fill="none" stroke="#000000" points="1467,-214 1467,-266 1661,-266 1661,-214 1467,-214"/>
</g>
<g id="clust22" class="cluster">
<title>cluster_StarkAppSidebarModule</title>
<polygon fill="none" stroke="#000000" stroke-dasharray="1,5" points="1885,-70 1885,-274 2099,-274 2099,-70 1885,-70"/>
</g>
<g id="clust23" class="cluster">
<title>cluster_StarkAppSidebarModule_declarations</title>
<polygon fill="none" stroke="#000000" points="1895,-78 1895,-130 2089,-130 2089,-78 1895,-78"/>
</g>
<g id="clust26" class="cluster">
<title>cluster_StarkAppSidebarModule_exports</title>
<polygon fill="none" stroke="#000000" points="1893,-214 1893,-266 2091,-266 2091,-214 1893,-214"/>
</g>
<g id="clust29" class="cluster">
<title>cluster_StarkBreadcrumbModule</title>
<polygon fill="none" stroke="#000000" stroke-dasharray="1,5" points="2107,-70 2107,-274 2323,-274 2323,-70 2107,-70"/>
</g>
<g id="clust30" class="cluster">
<title>cluster_StarkBreadcrumbModule_declarations</title>
<polygon fill="none" stroke="#000000" points="2117,-78 2117,-130 2313,-130 2313,-78 2117,-78"/>
</g>
<g id="clust33" class="cluster">
<title>cluster_StarkBreadcrumbModule_exports</title>
<polygon fill="none" stroke="#000000" points="2115,-214 2115,-266 2315,-266 2315,-214 2115,-214"/>
</g>
<g id="clust36" class="cluster">
<title>cluster_StarkDatePickerModule</title>
<polygon fill="none" stroke="#000000" stroke-dasharray="1,5" points="2331,-70 2331,-274 2539,-274 2539,-70 2331,-70"/>
</g>
<g id="clust37" class="cluster">
<title>cluster_StarkDatePickerModule_declarations</title>
<polygon fill="none" stroke="#000000" points="2340,-78 2340,-130 2530,-130 2530,-78 2340,-78"/>
</g>
<g id="clust40" class="cluster">
<title>cluster_StarkDatePickerModule_exports</title>
<polygon fill="none" stroke="#000000" points="2339,-214 2339,-266 2531,-266 2531,-214 2339,-214"/>
</g>
<g id="clust43" class="cluster">
<title>cluster_StarkDateRangePickerModule</title>
<polygon fill="none" stroke="#000000" stroke-dasharray="1,5" points="2547,-138 2547,-342 2791,-342 2791,-138 2547,-138"/>
</g>
<g id="clust44" class="cluster">
<title>cluster_StarkDateRangePickerModule_declarations</title>
<polygon fill="none" stroke="#000000" points="2556,-146 2556,-198 2780,-198 2780,-146 2556,-146"/>
</g>
<g id="clust47" class="cluster">
<title>cluster_StarkDateRangePickerModule_exports</title>
<polygon fill="none" stroke="#000000" points="2555,-282 2555,-334 2783,-334 2783,-282 2555,-282"/>
</g>
<g id="clust50" class="cluster">
<title>cluster_StarkDropdownModule</title>
<polygon fill="none" stroke="#000000" stroke-dasharray="1,5" points="2799,-70 2799,-274 3005,-274 3005,-70 2799,-70"/>
</g>
<g id="clust51" class="cluster">
<title>cluster_StarkDropdownModule_declarations</title>
<polygon fill="none" stroke="#000000" points="2809,-78 2809,-130 2995,-130 2995,-78 2809,-78"/>
</g>
<g id="clust54" class="cluster">
<title>cluster_StarkDropdownModule_exports</title>
<polygon fill="none" stroke="#000000" points="2807,-214 2807,-266 2997,-266 2997,-214 2807,-214"/>
</g>
<g id="clust57" class="cluster">
<title>cluster_StarkKeyboardDirectivesModule</title>
<polygon fill="none" stroke="#000000" stroke-dasharray="1,5" points="3013,-70 3013,-274 3409,-274 3409,-70 3013,-70"/>
</g>
<g id="clust58" class="cluster">
<title>cluster_StarkKeyboardDirectivesModule_declarations</title>
<polygon fill="none" stroke="#000000" points="3024,-78 3024,-130 3397,-130 3397,-78 3024,-78"/>
</g>
<g id="clust62" class="cluster">
<title>cluster_StarkKeyboardDirectivesModule_exports</title>
<polygon fill="none" stroke="#000000" points="3021,-214 3021,-266 3401,-266 3401,-214 3021,-214"/>
</g>
<g id="clust65" class="cluster">
<title>cluster_StarkPrettyPrintModule</title>
<polygon fill="none" stroke="#000000" stroke-dasharray="1,5" points="3417,-70 3417,-274 3625,-274 3625,-70 3417,-70"/>
</g>
<g id="clust66" class="cluster">
<title>cluster_StarkPrettyPrintModule_declarations</title>
<polygon fill="none" stroke="#000000" points="3427,-78 3427,-130 3615,-130 3615,-78 3427,-78"/>
</g>
<g id="clust69" class="cluster">
<title>cluster_StarkPrettyPrintModule_exports</title>
<polygon fill="none" stroke="#000000" points="3425,-214 3425,-266 3617,-266 3617,-214 3425,-214"/>
</g>
<g id="clust72" class="cluster">
<title>cluster_StarkSliderModule</title>
<polygon fill="none" stroke="#000000" stroke-dasharray="1,5" points="3633,-70 3633,-274 3813,-274 3813,-70 3633,-70"/>
</g>
<g id="clust73" class="cluster">
<title>cluster_StarkSliderModule_declarations</title>
<polygon fill="none" stroke="#000000" points="3643,-78 3643,-130 3803,-130 3803,-78 3643,-78"/>
</g>
<g id="clust76" class="cluster">
<title>cluster_StarkSliderModule_exports</title>
<polygon fill="none" stroke="#000000" points="3641,-214 3641,-266 3805,-266 3805,-214 3641,-214"/>
</g>
<g id="clust79" class="cluster">
<title>cluster_StarkSvgViewBoxModule</title>
<polygon fill="none" stroke="#000000" stroke-dasharray="1,5" points="406,-138 406,-206 812,-206 812,-138 406,-138"/>
</g>
<g id="clust80" class="cluster">
<title>cluster_StarkSvgViewBoxModule_declarations</title>
<polygon fill="none" stroke="#000000" points="614,-146 614,-198 804,-198 804,-146 614,-146"/>
</g>
<g id="clust83" class="cluster">
<title>cluster_StarkSvgViewBoxModule_exports</title>
<polygon fill="none" stroke="#000000" points="414,-146 414,-198 606,-198 606,-146 414,-146"/>
</g>
<g id="clust86" class="cluster">
<title>cluster_StarkTableModule</title>
<polygon fill="none" stroke="#000000" stroke-dasharray="1,5" points="820,-138 820,-342 1451,-342 1451,-138 820,-138"/>
</g>
<g id="clust87" class="cluster">
<title>cluster_StarkTableModule_declarations</title>
<polygon fill="none" stroke="#000000" points="828,-146 828,-198 1443,-198 1443,-146 828,-146"/>
</g>
<g id="clust92" class="cluster">
<title>cluster_StarkTableModule_exports</title>
<polygon fill="none" stroke="#000000" points="850,-282 850,-334 1222,-334 1222,-282 850,-282"/>
</g>
<!-- StarkActionBarComponent -->
<g id="node1" class="node">
<title>StarkActionBarComponent</title>
<polygon fill="#ffffb3" stroke="#000000" points="193.6951,-122 24.3049,-122 24.3049,-86 193.6951,-86 193.6951,-122"/>
<text text-anchor="middle" x="109" y="-99.8" font-family="Times,serif" font-size="14.00" fill="#000000">StarkActionBarComponent</text>
</g>
<!-- StarkActionBarModule -->
<g id="node2" class="node">
<title>StarkActionBarModule</title>
<polygon fill="#8dd3c7" stroke="#000000" points="359.913,-190 356.913,-194 335.913,-194 332.913,-190 212.087,-190 212.087,-154 359.913,-154 359.913,-190"/>
<text text-anchor="middle" x="286" y="-167.8" font-family="Times,serif" font-size="14.00" fill="#000000">StarkActionBarModule</text>
</g>
<!-- StarkActionBarComponent&#45;&gt;StarkActionBarModule -->
<g id="edge1" class="edge">
<title>StarkActionBarComponent&#45;&gt;StarkActionBarModule</title>
<path fill="none" stroke="#000000" d="M109,-122.2228C109,-142.3652 109,-172 109,-172 109,-172 202.2178,-172 202.2178,-172"/>
<polygon fill="#000000" stroke="#000000" points="202.2178,-175.5001 212.2178,-172 202.2177,-168.5001 202.2178,-175.5001"/>
</g>
<!-- StarkActionBarComponent  -->
<g id="node4" class="node">
<title>StarkActionBarComponent </title>
<polygon fill="#fb8072" stroke="#000000" points="372.1953,-258 199.8047,-258 199.8047,-222 372.1953,-222 372.1953,-258"/>
<text text-anchor="middle" x="286" y="-235.8" font-family="Times,serif" font-size="14.00" fill="#000000">StarkActionBarComponent </text>
</g>
<!-- StarkActionBarModule&#45;&gt;StarkActionBarComponent  -->
<g id="edge3" class="edge">
<title>StarkActionBarModule&#45;&gt;StarkActionBarComponent </title>
<path fill="none" stroke="#000000" stroke-dasharray="5,2" d="M286,-190.2228C286,-190.2228 286,-211.7269 286,-211.7269"/>
<polygon fill="#000000" stroke="#000000" points="282.5001,-211.7269 286,-221.7269 289.5001,-211.727 282.5001,-211.7269"/>
</g>
<!-- StarkTableModule -->
<g id="node42" class="node">
<title>StarkTableModule</title>
<polygon fill="#8dd3c7" stroke="#000000" points="1012.4706,-258 1009.4706,-262 988.4706,-262 985.4706,-258 891.5294,-258 891.5294,-222 1012.4706,-222 1012.4706,-258"/>
<text text-anchor="middle" x="952" y="-235.8" font-family="Times,serif" font-size="14.00" fill="#000000">StarkTableModule</text>
</g>
<!-- StarkActionBarModule&#45;&gt;StarkTableModule -->
<g id="edge33" class="edge">
<title>StarkActionBarModule&#45;&gt;StarkTableModule</title>
<path fill="none" stroke="#000000" d="M359.7592,-178C368.7432,-178 374.8276,-178 374.8276,-178 374.8276,-178 374.8276,-246 374.8276,-246 374.8276,-246 881.3233,-246 881.3233,-246"/>
<polygon fill="#000000" stroke="#000000" points="881.3234,-249.5001 891.3233,-246 881.3233,-242.5001 881.3234,-249.5001"/>
</g>
<!-- StarkSvgViewBoxModule -->
<g id="node3" class="node">
<title>StarkSvgViewBoxModule</title>
<polygon fill="#8dd3c7" stroke="#000000" points="382.0365,-122 379.0365,-126 358.0365,-126 355.0365,-122 217.9635,-122 217.9635,-86 382.0365,-86 382.0365,-122"/>
<text text-anchor="middle" x="300" y="-99.8" font-family="Times,serif" font-size="14.00" fill="#000000">StarkSvgViewBoxModule</text>
</g>
<!-- StarkSvgViewBoxModule&#45;&gt;StarkActionBarModule -->
<g id="edge2" class="edge">
<title>StarkSvgViewBoxModule&#45;&gt;StarkActionBarModule</title>
<path fill="none" stroke="#000000" d="M288.7192,-122.2228C288.7192,-122.2228 288.7192,-143.7269 288.7192,-143.7269"/>
<polygon fill="#000000" stroke="#000000" points="285.2192,-143.7269 288.7192,-153.7269 292.2192,-143.727 285.2192,-143.7269"/>
</g>
<!-- StarkAppLogoutModule -->
<g id="node9" class="node">
<title>StarkAppLogoutModule</title>
<polygon fill="#8dd3c7" stroke="#000000" points="1639.6484,-190 1636.6484,-194 1615.6484,-194 1612.6484,-190 1486.3516,-190 1486.3516,-154 1639.6484,-154 1639.6484,-190"/>
<text text-anchor="middle" x="1563" y="-167.8" font-family="Times,serif" font-size="14.00" fill="#000000">StarkAppLogoutModule</text>
</g>
<!-- StarkSvgViewBoxModule&#45;&gt;StarkAppLogoutModule -->
<g id="edge7" class="edge">
<title>StarkSvgViewBoxModule&#45;&gt;StarkAppLogoutModule</title>
<path fill="none" stroke="#000000" d="M382.12,-98C645.9296,-98 1454.7351,-98 1454.7351,-98 1454.7351,-98 1454.7351,-172 1454.7351,-172 1454.7351,-172 1476.3408,-172 1476.3408,-172"/>
<polygon fill="#000000" stroke="#000000" points="1476.3409,-175.5001 1486.3408,-172 1476.3408,-168.5001 1476.3409,-175.5001"/>
</g>
<!-- StarkSvgViewBoxDirective  -->
<g id="node38" class="node">
<title>StarkSvgViewBoxDirective </title>
<polygon fill="#fb8072" stroke="#000000" points="598.0693,-190 421.9307,-190 421.9307,-154 598.0693,-154 598.0693,-190"/>
<text text-anchor="middle" x="510" y="-167.8" font-family="Times,serif" font-size="14.00" fill="#000000">StarkSvgViewBoxDirective </text>
</g>
<!-- StarkSvgViewBoxModule&#45;&gt;StarkSvgViewBoxDirective  -->
<g id="edge29" class="edge">
<title>StarkSvgViewBoxModule&#45;&gt;StarkSvgViewBoxDirective </title>
<path fill="none" stroke="#000000" stroke-dasharray="5,2" d="M379.7878,-122.2667C379.7878,-140.5552 379.7878,-166 379.7878,-166 379.7878,-166 411.7045,-166 411.7045,-166"/>
<polygon fill="#000000" stroke="#000000" points="411.7045,-169.5001 421.7045,-166 411.7045,-162.5001 411.7045,-169.5001"/>
</g>
<!-- StarkSvgViewBoxModule&#45;&gt;StarkTableModule -->
<g id="edge34" class="edge">
<title>StarkSvgViewBoxModule&#45;&gt;StarkTableModule</title>
<path fill="none" stroke="#000000" d="M377.3077,-122.0759C377.3077,-157.7964 377.3077,-234 377.3077,-234 377.3077,-234 881.3132,-234 881.3132,-234"/>
<polygon fill="#000000" stroke="#000000" points="881.3133,-237.5001 891.3132,-234 881.3132,-230.5001 881.3133,-237.5001"/>
</g>
<!-- StarkAppLogoComponent -->
<g id="node5" class="node">
<title>StarkAppLogoComponent</title>
<polygon fill="#ffffb3" stroke="#000000" points="1859.0406,-122 1694.9594,-122 1694.9594,-86 1859.0406,-86 1859.0406,-122"/>
<text text-anchor="middle" x="1777" y="-99.8" font-family="Times,serif" font-size="14.00" fill="#000000">StarkAppLogoComponent</text>
</g>
<!-- StarkAppLogoModule -->
<g id="node6" class="node">
<title>StarkAppLogoModule</title>
<polygon fill="#8dd3c7" stroke="#000000" points="1848.2576,-190 1845.2576,-194 1824.2576,-194 1821.2576,-190 1705.7424,-190 1705.7424,-154 1848.2576,-154 1848.2576,-190"/>
<text text-anchor="middle" x="1777" y="-167.8" font-family="Times,serif" font-size="14.00" fill="#000000">StarkAppLogoModule</text>
</g>
<!-- StarkAppLogoComponent&#45;&gt;StarkAppLogoModule -->
<g id="edge4" class="edge">
<title>StarkAppLogoComponent&#45;&gt;StarkAppLogoModule</title>
<path fill="none" stroke="#000000" d="M1777,-122.2228C1777,-122.2228 1777,-143.7269 1777,-143.7269"/>
<polygon fill="#000000" stroke="#000000" points="1773.5001,-143.7269 1777,-153.7269 1780.5001,-143.727 1773.5001,-143.7269"/>
</g>
<!-- StarkAppLogoComponent  -->
<g id="node7" class="node">
<title>StarkAppLogoComponent </title>
<polygon fill="#fb8072" stroke="#000000" points="1861.04,-258 1692.96,-258 1692.96,-222 1861.04,-222 1861.04,-258"/>
<text text-anchor="middle" x="1777" y="-235.8" font-family="Times,serif" font-size="14.00" fill="#000000">StarkAppLogoComponent </text>
</g>
<!-- StarkAppLogoModule&#45;&gt;StarkAppLogoComponent  -->
<g id="edge5" class="edge">
<title>StarkAppLogoModule&#45;&gt;StarkAppLogoComponent </title>
<path fill="none" stroke="#000000" stroke-dasharray="5,2" d="M1777,-190.2228C1777,-190.2228 1777,-211.7269 1777,-211.7269"/>
<polygon fill="#000000" stroke="#000000" points="1773.5001,-211.7269 1777,-221.7269 1780.5001,-211.727 1773.5001,-211.7269"/>
</g>
<!-- StarkAppLogoutComponent -->
<g id="node8" class="node">
<title>StarkAppLogoutComponent</title>
<polygon fill="#ffffb3" stroke="#000000" points="1650.9311,-122 1475.0689,-122 1475.0689,-86 1650.9311,-86 1650.9311,-122"/>
<text text-anchor="middle" x="1563" y="-99.8" font-family="Times,serif" font-size="14.00" fill="#000000">StarkAppLogoutComponent</text>
</g>
<!-- StarkAppLogoutComponent&#45;&gt;StarkAppLogoutModule -->
<g id="edge6" class="edge">
<title>StarkAppLogoutComponent&#45;&gt;StarkAppLogoutModule</title>
<path fill="none" stroke="#000000" d="M1563,-122.2228C1563,-122.2228 1563,-143.7269 1563,-143.7269"/>
<polygon fill="#000000" stroke="#000000" points="1559.5001,-143.7269 1563,-153.7269 1566.5001,-143.727 1559.5001,-143.7269"/>
</g>
<!-- StarkAppLogoutComponent  -->
<g id="node10" class="node">
<title>StarkAppLogoutComponent </title>
<polygon fill="#fb8072" stroke="#000000" points="1653.4306,-258 1474.5694,-258 1474.5694,-222 1653.4306,-222 1653.4306,-258"/>
<text text-anchor="middle" x="1564" y="-235.8" font-family="Times,serif" font-size="14.00" fill="#000000">StarkAppLogoutComponent </text>
</g>
<!-- StarkAppLogoutModule&#45;&gt;StarkAppLogoutComponent  -->
<g id="edge8" class="edge">
<title>StarkAppLogoutModule&#45;&gt;StarkAppLogoutComponent </title>
<path fill="none" stroke="#000000" stroke-dasharray="5,2" d="M1563,-190.2228C1563,-190.2228 1563,-211.7269 1563,-211.7269"/>
<polygon fill="#000000" stroke="#000000" points="1559.5001,-211.7269 1563,-221.7269 1566.5001,-211.727 1559.5001,-211.7269"/>
</g>
<!-- StarkAppSidebarComponent -->
<g id="node11" class="node">
<title>StarkAppSidebarComponent</title>
<polygon fill="#ffffb3" stroke="#000000" points="2080.7506,-122 1903.2494,-122 1903.2494,-86 2080.7506,-86 2080.7506,-122"/>
<text text-anchor="middle" x="1992" y="-99.8" font-family="Times,serif" font-size="14.00" fill="#000000">StarkAppSidebarComponent</text>
</g>
<!-- StarkAppSidebarModule -->
<g id="node12" class="node">
<title>StarkAppSidebarModule</title>
<polygon fill="#8dd3c7" stroke="#000000" points="2069.9678,-190 2066.9678,-194 2045.9678,-194 2042.9678,-190 1914.0322,-190 1914.0322,-154 2069.9678,-154 2069.9678,-190"/>
<text text-anchor="middle" x="1992" y="-167.8" font-family="Times,serif" font-size="14.00" fill="#000000">StarkAppSidebarModule</text>
</g>
<!-- StarkAppSidebarComponent&#45;&gt;StarkAppSidebarModule -->
<g id="edge9" class="edge">
<title>StarkAppSidebarComponent&#45;&gt;StarkAppSidebarModule</title>
<path fill="none" stroke="#000000" d="M1992,-122.2228C1992,-122.2228 1992,-143.7269 1992,-143.7269"/>
<polygon fill="#000000" stroke="#000000" points="1988.5001,-143.7269 1992,-153.7269 1995.5001,-143.727 1988.5001,-143.7269"/>
</g>
<!-- StarkAppSidebarComponent  -->
<g id="node13" class="node">
<title>StarkAppSidebarComponent </title>
<polygon fill="#fb8072" stroke="#000000" points="2082.7506,-258 1901.2494,-258 1901.2494,-222 2082.7506,-222 2082.7506,-258"/>
<text text-anchor="middle" x="1992" y="-235.8" font-family="Times,serif" font-size="14.00" fill="#000000">StarkAppSidebarComponent </text>
</g>
<!-- StarkAppSidebarModule&#45;&gt;StarkAppSidebarComponent  -->
<g id="edge10" class="edge">
<title>StarkAppSidebarModule&#45;&gt;StarkAppSidebarComponent </title>
<path fill="none" stroke="#000000" stroke-dasharray="5,2" d="M1992,-190.2228C1992,-190.2228 1992,-211.7269 1992,-211.7269"/>
<polygon fill="#000000" stroke="#000000" points="1988.5001,-211.7269 1992,-221.7269 1995.5001,-211.727 1988.5001,-211.7269"/>
</g>
<!-- StarkBreadcrumbComponent -->
<g id="node14" class="node">
<title>StarkBreadcrumbComponent</title>
<polygon fill="#ffffb3" stroke="#000000" points="2305.073,-122 2124.927,-122 2124.927,-86 2305.073,-86 2305.073,-122"/>
<text text-anchor="middle" x="2215" y="-99.8" font-family="Times,serif" font-size="14.00" fill="#000000">StarkBreadcrumbComponent</text>
</g>
<!-- StarkBreadcrumbModule -->
<g id="node15" class="node">
<title>StarkBreadcrumbModule</title>
<polygon fill="#8dd3c7" stroke="#000000" points="2294.2907,-190 2291.2907,-194 2270.2907,-194 2267.2907,-190 2135.7093,-190 2135.7093,-154 2294.2907,-154 2294.2907,-190"/>
<text text-anchor="middle" x="2215" y="-167.8" font-family="Times,serif" font-size="14.00" fill="#000000">StarkBreadcrumbModule</text>
</g>
<!-- StarkBreadcrumbComponent&#45;&gt;StarkBreadcrumbModule -->
<g id="edge11" class="edge">
<title>StarkBreadcrumbComponent&#45;&gt;StarkBreadcrumbModule</title>
<path fill="none" stroke="#000000" d="M2215,-122.2228C2215,-122.2228 2215,-143.7269 2215,-143.7269"/>
<polygon fill="#000000" stroke="#000000" points="2211.5001,-143.7269 2215,-153.7269 2218.5001,-143.727 2211.5001,-143.7269"/>
</g>
<!-- StarkBreadcrumbComponent  -->
<g id="node16" class="node">
<title>StarkBreadcrumbComponent </title>
<polygon fill="#fb8072" stroke="#000000" points="2306.5735,-258 2123.4265,-258 2123.4265,-222 2306.5735,-222 2306.5735,-258"/>
<text text-anchor="middle" x="2215" y="-235.8" font-family="Times,serif" font-size="14.00" fill="#000000">StarkBreadcrumbComponent </text>
</g>
<!-- StarkBreadcrumbModule&#45;&gt;StarkBreadcrumbComponent  -->
<g id="edge12" class="edge">
<title>StarkBreadcrumbModule&#45;&gt;StarkBreadcrumbComponent </title>
<path fill="none" stroke="#000000" stroke-dasharray="5,2" d="M2215,-190.2228C2215,-190.2228 2215,-211.7269 2215,-211.7269"/>
<polygon fill="#000000" stroke="#000000" points="2211.5001,-211.7269 2215,-221.7269 2218.5001,-211.727 2211.5001,-211.7269"/>
</g>
<!-- StarkDatePickerComponent -->
<g id="node17" class="node">
<title>StarkDatePickerComponent</title>
<polygon fill="#ffffb3" stroke="#000000" points="2521.5702,-122 2348.4298,-122 2348.4298,-86 2521.5702,-86 2521.5702,-122"/>
<text text-anchor="middle" x="2435" y="-99.8" font-family="Times,serif" font-size="14.00" fill="#000000">StarkDatePickerComponent</text>
</g>
<!-- StarkDatePickerModule -->
<g id="node18" class="node">
<title>StarkDatePickerModule</title>
<polygon fill="#8dd3c7" stroke="#000000" points="2510.7879,-190 2507.7879,-194 2486.7879,-194 2483.7879,-190 2359.2121,-190 2359.2121,-154 2510.7879,-154 2510.7879,-190"/>
<text text-anchor="middle" x="2435" y="-167.8" font-family="Times,serif" font-size="14.00" fill="#000000">StarkDatePickerModule</text>
</g>
<!-- StarkDatePickerComponent&#45;&gt;StarkDatePickerModule -->
<g id="edge13" class="edge">
<title>StarkDatePickerComponent&#45;&gt;StarkDatePickerModule</title>
<path fill="none" stroke="#000000" d="M2435,-122.2228C2435,-122.2228 2435,-143.7269 2435,-143.7269"/>
<polygon fill="#000000" stroke="#000000" points="2431.5001,-143.7269 2435,-153.7269 2438.5001,-143.727 2431.5001,-143.7269"/>
</g>
<!-- StarkDatePickerComponent  -->
<g id="node19" class="node">
<title>StarkDatePickerComponent </title>
<polygon fill="#fb8072" stroke="#000000" points="2523.0707,-258 2346.9293,-258 2346.9293,-222 2523.0707,-222 2523.0707,-258"/>
<text text-anchor="middle" x="2435" y="-235.8" font-family="Times,serif" font-size="14.00" fill="#000000">StarkDatePickerComponent </text>
</g>
<!-- StarkDatePickerModule&#45;&gt;StarkDatePickerComponent  -->
<g id="edge14" class="edge">
<title>StarkDatePickerModule&#45;&gt;StarkDatePickerComponent </title>
<path fill="none" stroke="#000000" stroke-dasharray="5,2" d="M2435,-190.2228C2435,-190.2228 2435,-211.7269 2435,-211.7269"/>
<polygon fill="#000000" stroke="#000000" points="2431.5001,-211.7269 2435,-221.7269 2438.5001,-211.727 2431.5001,-211.7269"/>
</g>
<!-- StarkDateRangePickerModule -->
<g id="node21" class="node">
<title>StarkDateRangePickerModule</title>
<polygon fill="#8dd3c7" stroke="#000000" points="2761.5534,-258 2758.5534,-262 2737.5534,-262 2734.5534,-258 2574.4466,-258 2574.4466,-222 2761.5534,-222 2761.5534,-258"/>
<text text-anchor="middle" x="2668" y="-235.8" font-family="Times,serif" font-size="14.00" fill="#000000">StarkDateRangePickerModule</text>
</g>
<!-- StarkDatePickerModule&#45;&gt;StarkDateRangePickerModule -->
<g id="edge16" class="edge">
<title>StarkDatePickerModule&#45;&gt;StarkDateRangePickerModule</title>
<path fill="none" stroke="#000000" d="M2510.93,-172C2528.9506,-172 2543.0585,-172 2543.0585,-172 2543.0585,-172 2543.0585,-240 2543.0585,-240 2543.0585,-240 2564.2643,-240 2564.2643,-240"/>
<polygon fill="#000000" stroke="#000000" points="2564.2643,-243.5001 2574.2643,-240 2564.2642,-236.5001 2564.2643,-243.5001"/>
</g>
<!-- StarkDateRangePickerComponent -->
<g id="node20" class="node">
<title>StarkDateRangePickerComponent</title>
<polygon fill="#ffffb3" stroke="#000000" points="2772.3361,-190 2563.6639,-190 2563.6639,-154 2772.3361,-154 2772.3361,-190"/>
<text text-anchor="middle" x="2668" y="-167.8" font-family="Times,serif" font-size="14.00" fill="#000000">StarkDateRangePickerComponent</text>
</g>
<!-- StarkDateRangePickerComponent&#45;&gt;StarkDateRangePickerModule -->
<g id="edge15" class="edge">
<title>StarkDateRangePickerComponent&#45;&gt;StarkDateRangePickerModule</title>
<path fill="none" stroke="#000000" d="M2668,-190.2228C2668,-190.2228 2668,-211.7269 2668,-211.7269"/>
<polygon fill="#000000" stroke="#000000" points="2664.5001,-211.7269 2668,-221.7269 2671.5001,-211.727 2664.5001,-211.7269"/>
</g>
<!-- StarkDateRangePickerComponent  -->
<g id="node22" class="node">
<title>StarkDateRangePickerComponent </title>
<polygon fill="#fb8072" stroke="#000000" points="2775.3363,-326 2562.6637,-326 2562.6637,-290 2775.3363,-290 2775.3363,-326"/>
<text text-anchor="middle" x="2669" y="-303.8" font-family="Times,serif" font-size="14.00" fill="#000000">StarkDateRangePickerComponent </text>
</g>
<!-- StarkDateRangePickerModule&#45;&gt;StarkDateRangePickerComponent  -->
<g id="edge17" class="edge">
<title>StarkDateRangePickerModule&#45;&gt;StarkDateRangePickerComponent </title>
<path fill="none" stroke="#000000" stroke-dasharray="5,2" d="M2668,-258.2228C2668,-258.2228 2668,-279.7269 2668,-279.7269"/>
<polygon fill="#000000" stroke="#000000" points="2664.5001,-279.7269 2668,-289.7269 2671.5001,-279.727 2664.5001,-279.7269"/>
</g>
<!-- StarkDropdownComponent -->
<g id="node23" class="node">
<title>StarkDropdownComponent</title>
<polygon fill="#ffffb3" stroke="#000000" points="2987.2548,-122 2816.7452,-122 2816.7452,-86 2987.2548,-86 2987.2548,-122"/>
<text text-anchor="middle" x="2902" y="-99.8" font-family="Times,serif" font-size="14.00" fill="#000000">StarkDropdownComponent</text>
</g>
<!-- StarkDropdownModule -->
<g id="node24" class="node">
<title>StarkDropdownModule</title>
<polygon fill="#8dd3c7" stroke="#000000" points="2976.472,-190 2973.472,-194 2952.472,-194 2949.472,-190 2827.528,-190 2827.528,-154 2976.472,-154 2976.472,-190"/>
<text text-anchor="middle" x="2902" y="-167.8" font-family="Times,serif" font-size="14.00" fill="#000000">StarkDropdownModule</text>
</g>
<!-- StarkDropdownComponent&#45;&gt;StarkDropdownModule -->
<g id="edge18" class="edge">
<title>StarkDropdownComponent&#45;&gt;StarkDropdownModule</title>
<path fill="none" stroke="#000000" d="M2902,-122.2228C2902,-122.2228 2902,-143.7269 2902,-143.7269"/>
<polygon fill="#000000" stroke="#000000" points="2898.5001,-143.7269 2902,-153.7269 2905.5001,-143.727 2898.5001,-143.7269"/>
</g>
<!-- StarkDropdownComponent  -->
<g id="node25" class="node">
<title>StarkDropdownComponent </title>
<polygon fill="#fb8072" stroke="#000000" points="2989.2548,-258 2814.7452,-258 2814.7452,-222 2989.2548,-222 2989.2548,-258"/>
<text text-anchor="middle" x="2902" y="-235.8" font-family="Times,serif" font-size="14.00" fill="#000000">StarkDropdownComponent </text>
</g>
<!-- StarkDropdownModule&#45;&gt;StarkDropdownComponent  -->
<g id="edge19" class="edge">
<title>StarkDropdownModule&#45;&gt;StarkDropdownComponent </title>
<path fill="none" stroke="#000000" stroke-dasharray="5,2" d="M2902,-190.2228C2902,-190.2228 2902,-211.7269 2902,-211.7269"/>
<polygon fill="#000000" stroke="#000000" points="2898.5001,-211.7269 2902,-221.7269 2905.5001,-211.727 2898.5001,-211.7269"/>
</g>
<!-- StarkOnEnterKeyDirective -->
<g id="node26" class="node">
<title>StarkOnEnterKeyDirective</title>
<polygon fill="#ffffb3" stroke="#000000" points="3389.3778,-122 3220.6222,-122 3220.6222,-86 3389.3778,-86 3389.3778,-122"/>
<text text-anchor="middle" x="3305" y="-99.8" font-family="Times,serif" font-size="14.00" fill="#000000">StarkOnEnterKeyDirective</text>
</g>
<!-- StarkKeyboardDirectivesModule -->
<g id="node28" class="node">
<title>StarkKeyboardDirectivesModule</title>
<polygon fill="#8dd3c7" stroke="#000000" points="3311.8221,-190 3308.8221,-194 3287.8221,-194 3284.8221,-190 3110.1779,-190 3110.1779,-154 3311.8221,-154 3311.8221,-190"/>
<text text-anchor="middle" x="3211" y="-167.8" font-family="Times,serif" font-size="14.00" fill="#000000">StarkKeyboardDirectivesModule</text>
</g>
<!-- StarkOnEnterKeyDirective&#45;&gt;StarkKeyboardDirectivesModule -->
<g id="edge20" class="edge">
<title>StarkOnEnterKeyDirective&#45;&gt;StarkKeyboardDirectivesModule</title>
<path fill="none" stroke="#000000" d="M3266.3611,-122.2228C3266.3611,-122.2228 3266.3611,-143.7269 3266.3611,-143.7269"/>
<polygon fill="#000000" stroke="#000000" points="3262.8612,-143.7269 3266.3611,-153.7269 3269.8612,-143.727 3262.8612,-143.7269"/>
</g>
<!-- StarkRestrictInputDirective -->
<g id="node27" class="node">
<title>StarkRestrictInputDirective</title>
<polygon fill="#ffffb3" stroke="#000000" points="3202.2254,-122 3031.7746,-122 3031.7746,-86 3202.2254,-86 3202.2254,-122"/>
<text text-anchor="middle" x="3117" y="-99.8" font-family="Times,serif" font-size="14.00" fill="#000000">StarkRestrictInputDirective</text>
</g>
<!-- StarkRestrictInputDirective&#45;&gt;StarkKeyboardDirectivesModule -->
<g id="edge21" class="edge">
<title>StarkRestrictInputDirective&#45;&gt;StarkKeyboardDirectivesModule</title>
<path fill="none" stroke="#000000" d="M3156.2258,-122.2228C3156.2258,-122.2228 3156.2258,-143.7269 3156.2258,-143.7269"/>
<polygon fill="#000000" stroke="#000000" points="3152.7259,-143.7269 3156.2258,-153.7269 3159.7259,-143.727 3152.7259,-143.7269"/>
</g>
<!-- StarkOnEnterKeyDirective  -->
<g id="node29" class="node">
<title>StarkOnEnterKeyDirective </title>
<polygon fill="#fb8072" stroke="#000000" points="3392.8774,-258 3221.1226,-258 3221.1226,-222 3392.8774,-222 3392.8774,-258"/>
<text text-anchor="middle" x="3307" y="-235.8" font-family="Times,serif" font-size="14.00" fill="#000000">StarkOnEnterKeyDirective </text>
</g>
<!-- StarkKeyboardDirectivesModule&#45;&gt;StarkOnEnterKeyDirective  -->
<g id="edge22" class="edge">
<title>StarkKeyboardDirectivesModule&#45;&gt;StarkOnEnterKeyDirective </title>
<path fill="none" stroke="#000000" stroke-dasharray="5,2" d="M3266.4861,-190.2228C3266.4861,-190.2228 3266.4861,-211.7269 3266.4861,-211.7269"/>
<polygon fill="#000000" stroke="#000000" points="3262.9862,-211.7269 3266.4861,-221.7269 3269.9862,-211.727 3262.9862,-211.7269"/>
</g>
<!-- StarkRestrictInputDirective  -->
<g id="node30" class="node">
<title>StarkRestrictInputDirective </title>
<polygon fill="#fb8072" stroke="#000000" points="3203.2253,-258 3028.7747,-258 3028.7747,-222 3203.2253,-222 3203.2253,-258"/>
<text text-anchor="middle" x="3116" y="-235.8" font-family="Times,serif" font-size="14.00" fill="#000000">StarkRestrictInputDirective </text>
</g>
<!-- StarkKeyboardDirectivesModule&#45;&gt;StarkRestrictInputDirective  -->
<g id="edge23" class="edge">
<title>StarkKeyboardDirectivesModule&#45;&gt;StarkRestrictInputDirective </title>
<path fill="none" stroke="#000000" stroke-dasharray="5,2" d="M3156.6008,-190.2228C3156.6008,-190.2228 3156.6008,-211.7269 3156.6008,-211.7269"/>
<polygon fill="#000000" stroke="#000000" points="3153.1009,-211.7269 3156.6008,-221.7269 3160.1009,-211.727 3153.1009,-211.7269"/>
</g>
<!-- StarkPrettyPrintComponent -->
<g id="node31" class="node">
<title>StarkPrettyPrintComponent</title>
<polygon fill="#ffffb3" stroke="#000000" points="3606.5448,-122 3435.4552,-122 3435.4552,-86 3606.5448,-86 3606.5448,-122"/>
<text text-anchor="middle" x="3521" y="-99.8" font-family="Times,serif" font-size="14.00" fill="#000000">StarkPrettyPrintComponent</text>
</g>
<!-- StarkPrettyPrintModule -->
<g id="node32" class="node">
<title>StarkPrettyPrintModule</title>
<polygon fill="#8dd3c7" stroke="#000000" points="3595.7618,-190 3592.7618,-194 3571.7618,-194 3568.7618,-190 3446.2382,-190 3446.2382,-154 3595.7618,-154 3595.7618,-190"/>
<text text-anchor="middle" x="3521" y="-167.8" font-family="Times,serif" font-size="14.00" fill="#000000">StarkPrettyPrintModule</text>
</g>
<!-- StarkPrettyPrintComponent&#45;&gt;StarkPrettyPrintModule -->
<g id="edge24" class="edge">
<title>StarkPrettyPrintComponent&#45;&gt;StarkPrettyPrintModule</title>
<path fill="none" stroke="#000000" d="M3521,-122.2228C3521,-122.2228 3521,-143.7269 3521,-143.7269"/>
<polygon fill="#000000" stroke="#000000" points="3517.5001,-143.7269 3521,-153.7269 3524.5001,-143.727 3517.5001,-143.7269"/>
</g>
<!-- StarkPrettyPrintComponent  -->
<g id="node33" class="node">
<title>StarkPrettyPrintComponent </title>
<polygon fill="#fb8072" stroke="#000000" points="3608.5442,-258 3433.4558,-258 3433.4558,-222 3608.5442,-222 3608.5442,-258"/>
<text text-anchor="middle" x="3521" y="-235.8" font-family="Times,serif" font-size="14.00" fill="#000000">StarkPrettyPrintComponent </text>
</g>
<!-- StarkPrettyPrintModule&#45;&gt;StarkPrettyPrintComponent  -->
<g id="edge25" class="edge">
<title>StarkPrettyPrintModule&#45;&gt;StarkPrettyPrintComponent </title>
<path fill="none" stroke="#000000" stroke-dasharray="5,2" d="M3521,-190.2228C3521,-190.2228 3521,-211.7269 3521,-211.7269"/>
<polygon fill="#000000" stroke="#000000" points="3517.5001,-211.7269 3521,-221.7269 3524.5001,-211.727 3517.5001,-211.7269"/>
</g>
<!-- StarkSliderComponent -->
<g id="node34" class="node">
<title>StarkSliderComponent</title>
<polygon fill="#ffffb3" stroke="#000000" points="3795.3202,-122 3650.6798,-122 3650.6798,-86 3795.3202,-86 3795.3202,-122"/>
<text text-anchor="middle" x="3723" y="-99.8" font-family="Times,serif" font-size="14.00" fill="#000000">StarkSliderComponent</text>
</g>
<!-- StarkSliderModule -->
<g id="node35" class="node">
<title>StarkSliderModule</title>
<polygon fill="#8dd3c7" stroke="#000000" points="3784.0381,-190 3781.0381,-194 3760.0381,-194 3757.0381,-190 3661.9619,-190 3661.9619,-154 3784.0381,-154 3784.0381,-190"/>
<text text-anchor="middle" x="3723" y="-167.8" font-family="Times,serif" font-size="14.00" fill="#000000">StarkSliderModule</text>
</g>
<!-- StarkSliderComponent&#45;&gt;StarkSliderModule -->
<g id="edge26" class="edge">
<title>StarkSliderComponent&#45;&gt;StarkSliderModule</title>
<path fill="none" stroke="#000000" d="M3723,-122.2228C3723,-122.2228 3723,-143.7269 3723,-143.7269"/>
<polygon fill="#000000" stroke="#000000" points="3719.5001,-143.7269 3723,-153.7269 3726.5001,-143.727 3719.5001,-143.7269"/>
</g>
<!-- StarkSliderComponent  -->
<g id="node36" class="node">
<title>StarkSliderComponent </title>
<polygon fill="#fb8072" stroke="#000000" points="3796.8199,-258 3649.1801,-258 3649.1801,-222 3796.8199,-222 3796.8199,-258"/>
<text text-anchor="middle" x="3723" y="-235.8" font-family="Times,serif" font-size="14.00" fill="#000000">StarkSliderComponent </text>
</g>
<!-- StarkSliderModule&#45;&gt;StarkSliderComponent  -->
<g id="edge27" class="edge">
<title>StarkSliderModule&#45;&gt;StarkSliderComponent </title>
<path fill="none" stroke="#000000" stroke-dasharray="5,2" d="M3723,-190.2228C3723,-190.2228 3723,-211.7269 3723,-211.7269"/>
<polygon fill="#000000" stroke="#000000" points="3719.5001,-211.7269 3723,-221.7269 3726.5001,-211.727 3719.5001,-211.7269"/>
</g>
<!-- StarkSvgViewBoxDirective -->
<g id="node37" class="node">
<title>StarkSvgViewBoxDirective</title>
<polygon fill="#ffffb3" stroke="#000000" points="795.5688,-190 622.4312,-190 622.4312,-154 795.5688,-154 795.5688,-190"/>
<text text-anchor="middle" x="709" y="-167.8" font-family="Times,serif" font-size="14.00" fill="#000000">StarkSvgViewBoxDirective</text>
</g>
<!-- StarkSvgViewBoxDirective&#45;&gt;StarkSvgViewBoxModule -->
<g id="edge28" class="edge">
<title>StarkSvgViewBoxDirective&#45;&gt;StarkSvgViewBoxModule</title>
<path fill="none" stroke="#000000" d="M709,-153.7333C709,-135.4448 709,-110 709,-110 709,-110 392.2753,-110 392.2753,-110"/>
<polygon fill="#000000" stroke="#000000" points="392.2753,-106.5001 382.2753,-110 392.2752,-113.5001 392.2753,-106.5001"/>
</g>
<!-- StarkTableColumnComponent -->
<g id="node39" class="node">
<title>StarkTableColumnComponent</title>
<polygon fill="#ffffb3" stroke="#000000" points="1434.871,-190 1247.129,-190 1247.129,-154 1434.871,-154 1434.871,-190"/>
<text text-anchor="middle" x="1341" y="-167.8" font-family="Times,serif" font-size="14.00" fill="#000000">StarkTableColumnComponent</text>
</g>
<!-- StarkTableColumnComponent&#45;&gt;StarkTableModule -->
<g id="edge30" class="edge">
<title>StarkTableColumnComponent&#45;&gt;StarkTableModule</title>
<path fill="none" stroke="#000000" d="M1341,-190.2921C1341,-212.2057 1341,-246 1341,-246 1341,-246 1022.7813,-246 1022.7813,-246"/>
<polygon fill="#000000" stroke="#000000" points="1022.7813,-242.5001 1012.7813,-246 1022.7812,-249.5001 1022.7813,-242.5001"/>
</g>
<!-- StarkTableComponent -->
<g id="node40" class="node">
<title>StarkTableComponent</title>
<polygon fill="#ffffb3" stroke="#000000" points="1229.2534,-190 1086.7466,-190 1086.7466,-154 1229.2534,-154 1229.2534,-190"/>
<text text-anchor="middle" x="1158" y="-167.8" font-family="Times,serif" font-size="14.00" fill="#000000">StarkTableComponent</text>
</g>
<!-- StarkTableComponent&#45;&gt;StarkTableModule -->
<g id="edge31" class="edge">
<title>StarkTableComponent&#45;&gt;StarkTableModule</title>
<path fill="none" stroke="#000000" d="M1150.1545,-190.2667C1150.1545,-208.5552 1150.1545,-234 1150.1545,-234 1150.1545,-234 1022.5296,-234 1022.5296,-234"/>
<polygon fill="#000000" stroke="#000000" points="1022.5296,-230.5001 1012.5296,-234 1022.5295,-237.5001 1022.5296,-230.5001"/>
</g>
<!-- StarkTableMultisortDialogComponent -->
<g id="node41" class="node">
<title>StarkTableMultisortDialogComponent</title>
<polygon fill="#ffffb3" stroke="#000000" points="1068.4678,-190 835.5322,-190 835.5322,-154 1068.4678,-154 1068.4678,-190"/>
<text text-anchor="middle" x="952" y="-167.8" font-family="Times,serif" font-size="14.00" fill="#000000">StarkTableMultisortDialogComponent</text>
</g>
<!-- StarkTableMultisortDialogComponent&#45;&gt;StarkTableModule -->
<g id="edge32" class="edge">
<title>StarkTableMultisortDialogComponent&#45;&gt;StarkTableModule</title>
<path fill="none" stroke="#000000" d="M952,-190.2228C952,-190.2228 952,-211.7269 952,-211.7269"/>
<polygon fill="#000000" stroke="#000000" points="948.5001,-211.7269 952,-221.7269 955.5001,-211.727 948.5001,-211.7269"/>
</g>
<!-- StarkTableColumnComponent  -->
<g id="node43" class="node">
<title>StarkTableColumnComponent </title>
<polygon fill="#fb8072" stroke="#000000" points="1213.8714,-326 1022.1286,-326 1022.1286,-290 1213.8714,-290 1213.8714,-326"/>
<text text-anchor="middle" x="1118" y="-303.8" font-family="Times,serif" font-size="14.00" fill="#000000">StarkTableColumnComponent </text>
</g>
<!-- StarkTableModule&#45;&gt;StarkTableColumnComponent  -->
<g id="edge35" class="edge">
<title>StarkTableModule&#45;&gt;StarkTableColumnComponent </title>
<path fill="none" stroke="#000000" stroke-dasharray="5,2" d="M1008.306,-258.2228C1008.306,-278.3652 1008.306,-308 1008.306,-308 1008.306,-308 1012.1988,-308 1012.1988,-308"/>
<polygon fill="#000000" stroke="#000000" points="1012.1988,-311.5001 1022.1988,-308 1012.1987,-304.5001 1012.1988,-311.5001"/>
</g>
<!-- StarkTableComponent  -->
<g id="node44" class="node">
<title>StarkTableComponent </title>
<polygon fill="#fb8072" stroke="#000000" points="1004.2534,-326 857.7466,-326 857.7466,-290 1004.2534,-290 1004.2534,-326"/>
<text text-anchor="middle" x="931" y="-303.8" font-family="Times,serif" font-size="14.00" fill="#000000">StarkTableComponent </text>
</g>
<!-- StarkTableModule&#45;&gt;StarkTableComponent  -->
<g id="edge36" class="edge">
<title>StarkTableModule&#45;&gt;StarkTableComponent </title>
<path fill="none" stroke="#000000" stroke-dasharray="5,2" d="M947.8207,-258.2228C947.8207,-258.2228 947.8207,-279.7269 947.8207,-279.7269"/>
<polygon fill="#000000" stroke="#000000" points="944.3207,-279.7269 947.8207,-289.7269 951.3207,-279.727 944.3207,-279.7269"/>
</g>
</g>
</svg>
