<?xml version="1.0" encoding="UTF-8" standalone="no"?>
<!DOCTYPE svg PUBLIC "-//W3C//DTD SVG 1.1//EN"
 "http://www.w3.org/Graphics/SVG/1.1/DTD/svg11.dtd">
<!-- Generated by graphviz version 2.47.0 (20210316.0004)
 -->
<!-- Title: dependencies Pages: 1 -->
<svg width="504pt" height="284pt"
 viewBox="0.00 0.00 504.00 284.00" xmlns="http://www.w3.org/2000/svg" xmlns:xlink="http://www.w3.org/1999/xlink">
<g id="graph0" class="graph" transform="scale(1 1) rotate(0) translate(4 280)">
<title>dependencies</title>
<polygon fill="white" stroke="transparent" points="-4,4 -4,-280 500,-280 500,4 -4,4"/>
<text text-anchor="start" x="227.01" y="-42.4" font-family="Times-12" font-weight="bold" font-size="14.00">Legend</text>
<polygon fill="#ffffb3" stroke="transparent" points="14,-10 14,-30 34,-30 34,-10 14,-10"/>
<text text-anchor="start" x="37.63" y="-15.4" font-family="Times-12" font-size="14.00"> &#160;Declarations</text>
<polygon fill="#8dd3c7" stroke="transparent" points="127,-10 127,-30 147,-30 147,-10 127,-10"/>
<text text-anchor="start" x="150.73" y="-15.4" font-family="Times-12" font-size="14.00"> &#160;Module</text>
<polygon fill="#80b1d3" stroke="transparent" points="213,-10 213,-30 233,-30 233,-10 213,-10"/>
<text text-anchor="start" x="236.78" y="-15.4" font-family="Times-12" font-size="14.00"> &#160;Bootstrap</text>
<polygon fill="#fdb462" stroke="transparent" points="310,-10 310,-30 330,-30 330,-10 310,-10"/>
<text text-anchor="start" x="333.67" y="-15.4" font-family="Times-12" font-size="14.00"> &#160;Providers</text>
<polygon fill="#fb8072" stroke="transparent" points="406,-10 406,-30 426,-30 426,-10 406,-10"/>
<text text-anchor="start" x="429.73" y="-15.4" font-family="Times-12" font-size="14.00"> &#160;Exports</text>
<g id="clust1" class="cluster">
<title>cluster_StarkProgressIndicatorModule</title>
<polygon fill="none" stroke="black" stroke-dasharray="1,5" points="20,-70 20,-268 476,-268 476,-70 20,-70"/>
</g>
<g id="clust6" class="cluster">
<title>cluster_StarkProgressIndicatorModule_exports</title>
<polygon fill="none" stroke="black" points="137,-208 137,-260 353,-260 353,-208 137,-208"/>
</g>
<g id="clust2" class="cluster">
<title>cluster_StarkProgressIndicatorModule_declarations</title>
<polygon fill="none" stroke="black" points="28,-78 28,-130 468,-130 468,-78 28,-78"/>
</g>
<!-- StarkProgressIndicatorComponent -->
<g id="node1" class="node">
<title>StarkProgressIndicatorComponent</title>
<polygon fill="#ffffb3" stroke="black" points="459.62,-122 250.38,-122 250.38,-86 459.62,-86 459.62,-122"/>
<text text-anchor="middle" x="355" y="-99.8" font-family="Times,serif" font-size="14.00">StarkProgressIndicatorComponent</text>
</g>
<!-- StarkProgressIndicatorModule -->
<g id="node3" class="node">
<title>StarkProgressIndicatorModule</title>
<polygon fill="#8dd3c7" stroke="black" points="338.84,-187 335.84,-191 314.84,-191 311.84,-187 151.16,-187 151.16,-151 338.84,-151 338.84,-187"/>
<text text-anchor="middle" x="245" y="-164.8" font-family="Times,serif" font-size="14.00">StarkProgressIndicatorModule</text>
</g>
<!-- StarkProgressIndicatorComponent&#45;&gt;StarkProgressIndicatorModule -->
<g id="edge1" class="edge">
<title>StarkProgressIndicatorComponent&#45;&gt;StarkProgressIndicatorModule</title>
<path fill="none" stroke="black" d="M294.55,-122.11C294.55,-122.11 294.55,-140.99 294.55,-140.99"/>
<polygon fill="black" stroke="black" points="291.05,-140.99 294.55,-150.99 298.05,-140.99 291.05,-140.99"/>
</g>
<!-- StarkProgressIndicatorDirective -->
<g id="node2" class="node">
<title>StarkProgressIndicatorDirective</title>
<polygon fill="#ffffb3" stroke="black" points="232.37,-122 35.63,-122 35.63,-86 232.37,-86 232.37,-122"/>
<text text-anchor="middle" x="134" y="-99.8" font-family="Times,serif" font-size="14.00">StarkProgressIndicatorDirective</text>
</g>
<!-- StarkProgressIndicatorDirective&#45;&gt;StarkProgressIndicatorModule -->
<g id="edge2" class="edge">
<title>StarkProgressIndicatorDirective&#45;&gt;StarkProgressIndicatorModule</title>
<path fill="none" stroke="black" d="M191.63,-122.11C191.63,-122.11 191.63,-140.99 191.63,-140.99"/>
<polygon fill="black" stroke="black" points="188.13,-140.99 191.63,-150.99 195.13,-140.99 188.13,-140.99"/>
</g>
<!-- StarkProgressIndicatorDirective  -->
<g id="node4" class="node">
<title>StarkProgressIndicatorDirective </title>
<polygon fill="#fb8072" stroke="black" points="344.87,-252 145.13,-252 145.13,-216 344.87,-216 344.87,-252"/>
<text text-anchor="middle" x="245" y="-229.8" font-family="Times,serif" font-size="14.00">StarkProgressIndicatorDirective </text>
</g>
<!-- StarkProgressIndicatorModule&#45;&gt;StarkProgressIndicatorDirective  -->
<g id="edge3" class="edge">
<title>StarkProgressIndicatorModule&#45;&gt;StarkProgressIndicatorDirective </title>
<path fill="none" stroke="black" stroke-dasharray="5,2" d="M245,-187.11C245,-187.11 245,-205.99 245,-205.99"/>
<polygon fill="black" stroke="black" points="241.5,-205.99 245,-215.99 248.5,-205.99 241.5,-205.99"/>
</g>
</g>
</svg>
