<?xml version="1.0" encoding="UTF-8" standalone="no"?>
<!DOCTYPE svg PUBLIC "-//W3C//DTD SVG 1.1//EN"
 "http://www.w3.org/Graphics/SVG/1.1/DTD/svg11.dtd">
<!-- Generated by graphviz version 2.40.1 (20161225.0304)
 -->
<!-- Title: dependencies Pages: 1 -->
<svg width="1152pt" height="284pt"
 viewBox="0.00 0.00 1152.00 284.00" xmlns="http://www.w3.org/2000/svg" xmlns:xlink="http://www.w3.org/1999/xlink">
<g id="graph0" class="graph" transform="scale(1 1) rotate(0) translate(4 280)">
<title>dependencies</title>
<polygon fill="#ffffff" stroke="transparent" points="-4,4 -4,-280 1148,-280 1148,4 -4,4"/>
<text text-anchor="start" x="551.0091" y="-42.4" font-family="sans-serif" font-weight="bold" font-size="14.00" fill="#000000">Legend</text>
<polygon fill="#ffffb3" stroke="transparent" points="338,-10 338,-30 358,-30 358,-10 338,-10"/>
<text text-anchor="start" x="361.629" y="-15.4" font-family="sans-serif" font-size="14.00" fill="#000000"> &#160;Declarations</text>
<polygon fill="#8dd3c7" stroke="transparent" points="451,-10 451,-30 471,-30 471,-10 451,-10"/>
<text text-anchor="start" x="474.7251" y="-15.4" font-family="sans-serif" font-size="14.00" fill="#000000"> &#160;Module</text>
<polygon fill="#80b1d3" stroke="transparent" points="537,-10 537,-30 557,-30 557,-10 537,-10"/>
<text text-anchor="start" x="560.7812" y="-15.4" font-family="sans-serif" font-size="14.00" fill="#000000"> &#160;Bootstrap</text>
<polygon fill="#fdb462" stroke="transparent" points="634,-10 634,-30 654,-30 654,-10 634,-10"/>
<text text-anchor="start" x="657.6732" y="-15.4" font-family="sans-serif" font-size="14.00" fill="#000000"> &#160;Providers</text>
<polygon fill="#fb8072" stroke="transparent" points="730,-10 730,-30 750,-30 750,-10 730,-10"/>
<text text-anchor="start" x="753.7258" y="-15.4" font-family="sans-serif" font-size="14.00" fill="#000000"> &#160;Exports</text>
<g id="clust1" class="cluster">
<title>cluster_StarkSessionUiModule</title>
<polygon fill="none" stroke="#000000" stroke-dasharray="1,5" points="8,-70 8,-268 1136,-268 1136,-70 8,-70"/>
</g>
<g id="clust2" class="cluster">
<title>cluster_StarkSessionUiModule_declarations</title>
<polygon fill="none" stroke="#000000" points="24,-78 24,-130 1119,-130 1119,-78 24,-78"/>
</g>
<g id="clust9" class="cluster">
<title>cluster_StarkSessionUiModule_exports</title>
<polygon fill="none" stroke="#000000" points="16,-208 16,-260 1128,-260 1128,-208 16,-208"/>
</g>
<!-- StarkAppContainerComponent -->
<g id="node1" class="node">
<title>StarkAppContainerComponent</title>
<polygon fill="#ffffb3" stroke="#000000" points="1111.1951,-122 920.8049,-122 920.8049,-86 1111.1951,-86 1111.1951,-122"/>
<text text-anchor="middle" x="1016" y="-99.8" font-family="Times,serif" font-size="14.00" fill="#000000">StarkAppContainerComponent</text>
</g>
<!-- StarkSessionUiModule -->
<g id="node6" class="node">
<title>StarkSessionUiModule</title>
<polygon fill="#8dd3c7" stroke="#000000" points="686.8725,-187 683.8725,-191 662.8725,-191 659.8725,-187 541.1275,-187 541.1275,-151 686.8725,-151 686.8725,-187"/>
<text text-anchor="middle" x="614" y="-164.8" font-family="Times,serif" font-size="14.00" fill="#000000">StarkSessionUiModule</text>
</g>
<!-- StarkAppContainerComponent&#45;&gt;StarkSessionUiModule -->
<g id="edge1" class="edge">
<title>StarkAppContainerComponent&#45;&gt;StarkSessionUiModule</title>
<path fill="none" stroke="#000000" d="M1049.4492,-122.2667C1049.4492,-140.5552 1049.4492,-166 1049.4492,-166 1049.4492,-166 696.8844,-166 696.8844,-166"/>
<polygon fill="#000000" stroke="#000000" points="696.8844,-162.5001 686.8844,-166 696.8844,-169.5001 696.8844,-162.5001"/>
</g>
<!-- StarkLoginPageComponent -->
<g id="node2" class="node">
<title>StarkLoginPageComponent</title>
<polygon fill="#ffffb3" stroke="#000000" points="902.5364,-122 731.4636,-122 731.4636,-86 902.5364,-86 902.5364,-122"/>
<text text-anchor="middle" x="817" y="-99.8" font-family="Times,serif" font-size="14.00" fill="#000000">StarkLoginPageComponent</text>
</g>
<!-- StarkLoginPageComponent&#45;&gt;StarkSessionUiModule -->
<g id="edge2" class="edge">
<title>StarkLoginPageComponent&#45;&gt;StarkSessionUiModule</title>
<path fill="none" stroke="#000000" d="M846.3393,-122.0091C846.3393,-138.0494 846.3393,-159 846.3393,-159 846.3393,-159 696.8761,-159 696.8761,-159"/>
<polygon fill="#000000" stroke="#000000" points="696.8762,-155.5001 686.8761,-159 696.8761,-162.5001 696.8762,-155.5001"/>
</g>
<!-- StarkPreloadingPageComponent -->
<g id="node3" class="node">
<title>StarkPreloadingPageComponent</title>
<polygon fill="#ffffb3" stroke="#000000" points="713.2464,-122 514.7536,-122 514.7536,-86 713.2464,-86 713.2464,-122"/>
<text text-anchor="middle" x="614" y="-99.8" font-family="Times,serif" font-size="14.00" fill="#000000">StarkPreloadingPageComponent</text>
</g>
<!-- StarkPreloadingPageComponent&#45;&gt;StarkSessionUiModule -->
<g id="edge3" class="edge">
<title>StarkPreloadingPageComponent&#45;&gt;StarkSessionUiModule</title>
<path fill="none" stroke="#000000" d="M614,-122.1061C614,-122.1061 614,-140.991 614,-140.991"/>
<polygon fill="#000000" stroke="#000000" points="610.5001,-140.9909 614,-150.991 617.5001,-140.991 610.5001,-140.9909"/>
</g>
<!-- StarkSessionExpiredPageComponent -->
<g id="node4" class="node">
<title>StarkSessionExpiredPageComponent</title>
<polygon fill="#ffffb3" stroke="#000000" points="496.6881,-122 271.3119,-122 271.3119,-86 496.6881,-86 496.6881,-122"/>
<text text-anchor="middle" x="384" y="-99.8" font-family="Times,serif" font-size="14.00" fill="#000000">StarkSessionExpiredPageComponent</text>
</g>
<!-- StarkSessionExpiredPageComponent&#45;&gt;StarkSessionUiModule -->
<g id="edge4" class="edge">
<title>StarkSessionExpiredPageComponent&#45;&gt;StarkSessionUiModule</title>
<path fill="none" stroke="#000000" d="M420.698,-122.0091C420.698,-138.0494 420.698,-159 420.698,-159 420.698,-159 530.9208,-159 530.9208,-159"/>
<polygon fill="#000000" stroke="#000000" points="530.9208,-162.5001 540.9208,-159 530.9208,-155.5001 530.9208,-162.5001"/>
</g>
<!-- StarkSessionLogoutPageComponent -->
<g id="node5" class="node">
<title>StarkSessionLogoutPageComponent</title>
<polygon fill="#ffffb3" stroke="#000000" points="253.813,-122 32.187,-122 32.187,-86 253.813,-86 253.813,-122"/>
<text text-anchor="middle" x="143" y="-99.8" font-family="Times,serif" font-size="14.00" fill="#000000">StarkSessionLogoutPageComponent</text>
</g>
<!-- StarkSessionLogoutPageComponent&#45;&gt;StarkSessionUiModule -->
<g id="edge5" class="edge">
<title>StarkSessionLogoutPageComponent&#45;&gt;StarkSessionUiModule</title>
<path fill="none" stroke="#000000" d="M176.3855,-122.2667C176.3855,-140.5552 176.3855,-166 176.3855,-166 176.3855,-166 530.7532,-166 530.7532,-166"/>
<polygon fill="#000000" stroke="#000000" points="530.7532,-169.5001 540.7532,-166 530.7531,-162.5001 530.7532,-169.5001"/>
</g>
<!-- StarkAppContainerComponent  -->
<g id="node7" class="node">
<title>StarkAppContainerComponent </title>
<polygon fill="#fb8072" stroke="#000000" points="1119.6952,-252 926.3048,-252 926.3048,-216 1119.6952,-216 1119.6952,-252"/>
<text text-anchor="middle" x="1023" y="-229.8" font-family="Times,serif" font-size="14.00" fill="#000000">StarkAppContainerComponent </text>
</g>
<!-- StarkSessionUiModule&#45;&gt;StarkAppContainerComponent  -->
<g id="edge6" class="edge">
<title>StarkSessionUiModule&#45;&gt;StarkAppContainerComponent </title>
<path fill="none" stroke="#000000" stroke-dasharray="5,2" d="M686.9599,-173C795.7428,-173 987.8008,-173 987.8008,-173 987.8008,-173 987.8008,-205.698 987.8008,-205.698"/>
<polygon fill="#000000" stroke="#000000" points="984.3009,-205.698 987.8008,-215.698 991.3009,-205.698 984.3009,-205.698"/>
</g>
<!-- StarkLoginPageComponent  -->
<g id="node8" class="node">
<title>StarkLoginPageComponent </title>
<polygon fill="#fb8072" stroke="#000000" points="908.5358,-252 733.4642,-252 733.4642,-216 908.5358,-216 908.5358,-252"/>
<text text-anchor="middle" x="821" y="-229.8" font-family="Times,serif" font-size="14.00" fill="#000000">StarkLoginPageComponent </text>
</g>
<!-- StarkSessionUiModule&#45;&gt;StarkLoginPageComponent  -->
<g id="edge7" class="edge">
<title>StarkSessionUiModule&#45;&gt;StarkLoginPageComponent </title>
<path fill="none" stroke="#000000" stroke-dasharray="5,2" d="M687.0737,-180C735.405,-180 789.9107,-180 789.9107,-180 789.9107,-180 789.9107,-205.7181 789.9107,-205.7181"/>
<polygon fill="#000000" stroke="#000000" points="786.4108,-205.718 789.9107,-215.7181 793.4108,-205.7181 786.4108,-205.718"/>
</g>
<!-- StarkPreloadingPageComponent  -->
<g id="node9" class="node">
<title>StarkPreloadingPageComponent </title>
<polygon fill="#fb8072" stroke="#000000" points="715.2464,-252 512.7536,-252 512.7536,-216 715.2464,-216 715.2464,-252"/>
<text text-anchor="middle" x="614" y="-229.8" font-family="Times,serif" font-size="14.00" fill="#000000">StarkPreloadingPageComponent </text>
</g>
<!-- StarkSessionUiModule&#45;&gt;StarkPreloadingPageComponent  -->
<g id="edge8" class="edge">
<title>StarkSessionUiModule&#45;&gt;StarkPreloadingPageComponent </title>
<path fill="none" stroke="#000000" stroke-dasharray="5,2" d="M614,-187.1061C614,-187.1061 614,-205.991 614,-205.991"/>
<polygon fill="#000000" stroke="#000000" points="610.5001,-205.9909 614,-215.991 617.5001,-205.991 610.5001,-205.9909"/>
</g>
<!-- StarkSessionExpiredPageComponent  -->
<g id="node10" class="node">
<title>StarkSessionExpiredPageComponent </title>
<polygon fill="#fb8072" stroke="#000000" points="495.1882,-252 266.8118,-252 266.8118,-216 495.1882,-216 495.1882,-252"/>
<text text-anchor="middle" x="381" y="-229.8" font-family="Times,serif" font-size="14.00" fill="#000000">StarkSessionExpiredPageComponent </text>
</g>
<!-- StarkSessionUiModule&#45;&gt;StarkSessionExpiredPageComponent  -->
<g id="edge9" class="edge">
<title>StarkSessionUiModule&#45;&gt;StarkSessionExpiredPageComponent </title>
<path fill="none" stroke="#000000" stroke-dasharray="5,2" d="M540.782,-180C461.4476,-180 346.052,-180 346.052,-180 346.052,-180 346.052,-205.7181 346.052,-205.7181"/>
<polygon fill="#000000" stroke="#000000" points="342.5521,-205.718 346.052,-215.7181 349.5521,-205.7181 342.5521,-205.718"/>
</g>
<!-- StarkSessionLogoutPageComponent  -->
<g id="node11" class="node">
<title>StarkSessionLogoutPageComponent </title>
<polygon fill="#fb8072" stroke="#000000" points="248.3129,-252 23.6871,-252 23.6871,-216 248.3129,-216 248.3129,-252"/>
<text text-anchor="middle" x="136" y="-229.8" font-family="Times,serif" font-size="14.00" fill="#000000">StarkSessionLogoutPageComponent </text>
</g>
<!-- StarkSessionUiModule&#45;&gt;StarkSessionLogoutPageComponent  -->
<g id="edge10" class="edge">
<title>StarkSessionUiModule&#45;&gt;StarkSessionLogoutPageComponent </title>
<path fill="none" stroke="#000000" stroke-dasharray="5,2" d="M540.9817,-173C400.0629,-173 104.3645,-173 104.3645,-173 104.3645,-173 104.3645,-205.698 104.3645,-205.698"/>
<polygon fill="#000000" stroke="#000000" points="100.8646,-205.698 104.3645,-215.698 107.8646,-205.698 100.8646,-205.698"/>
</g>
</g>
</svg>
