<?xml version="1.0" encoding="UTF-8" standalone="no"?>
<!DOCTYPE svg PUBLIC "-//W3C//DTD SVG 1.1//EN"
 "http://www.w3.org/Graphics/SVG/1.1/DTD/svg11.dtd">
<!-- Generated by graphviz version 2.40.1 (20161225.0304)
 -->
<!-- Title: dependencies Pages: 1 -->
<svg width="1176pt" height="284pt"
 viewBox="0.00 0.00 1176.00 284.00" xmlns="http://www.w3.org/2000/svg" xmlns:xlink="http://www.w3.org/1999/xlink">
<g id="graph0" class="graph" transform="scale(1 1) rotate(0) translate(4 280)">
<title>dependencies</title>
<polygon fill="#ffffff" stroke="transparent" points="-4,4 -4,-280 1172,-280 1172,4 -4,4"/>
<text text-anchor="start" x="563.0091" y="-42.4" font-family="sans-serif" font-weight="bold" font-size="14.00" fill="#000000">Legend</text>
<polygon fill="#ffffb3" stroke="transparent" points="350,-10 350,-30 370,-30 370,-10 350,-10"/>
<text text-anchor="start" x="373.629" y="-15.4" font-family="sans-serif" font-size="14.00" fill="#000000"> &#160;Declarations</text>
<polygon fill="#8dd3c7" stroke="transparent" points="463,-10 463,-30 483,-30 483,-10 463,-10"/>
<text text-anchor="start" x="486.7251" y="-15.4" font-family="sans-serif" font-size="14.00" fill="#000000"> &#160;Module</text>
<polygon fill="#80b1d3" stroke="transparent" points="549,-10 549,-30 569,-30 569,-10 549,-10"/>
<text text-anchor="start" x="572.7812" y="-15.4" font-family="sans-serif" font-size="14.00" fill="#000000"> &#160;Bootstrap</text>
<polygon fill="#fdb462" stroke="transparent" points="646,-10 646,-30 666,-30 666,-10 646,-10"/>
<text text-anchor="start" x="669.6732" y="-15.4" font-family="sans-serif" font-size="14.00" fill="#000000"> &#160;Providers</text>
<polygon fill="#fb8072" stroke="transparent" points="742,-10 742,-30 762,-30 762,-10 742,-10"/>
<text text-anchor="start" x="765.7258" y="-15.4" font-family="sans-serif" font-size="14.00" fill="#000000"> &#160;Exports</text>
<g id="clust1" class="cluster">
<title>cluster_StarkTableModule</title>
<polygon fill="none" stroke="#000000" stroke-dasharray="1,5" points="8,-70 8,-268 1160,-268 1160,-70 8,-70"/>
</g>
<g id="clust2" class="cluster">
<title>cluster_StarkTableModule_declarations</title>
<polygon fill="none" stroke="#000000" points="537,-78 537,-130 1152,-130 1152,-78 537,-78"/>
</g>
<g id="clust6" class="cluster">
<title>cluster_StarkTableModule_imports</title>
<polygon fill="none" stroke="#000000" points="16,-78 16,-130 529,-130 529,-78 16,-78"/>
</g>
<g id="clust7" class="cluster">
<title>cluster_StarkTableModule_exports</title>
<polygon fill="none" stroke="#000000" points="380,-208 380,-260 752,-260 752,-208 380,-208"/>
</g>
<!-- StarkTableColumnComponent -->
<g id="node1" class="node">
<title>StarkTableColumnComponent</title>
<polygon fill="#ffffb3" stroke="#000000" points="1143.871,-122 956.129,-122 956.129,-86 1143.871,-86 1143.871,-122"/>
<text text-anchor="middle" x="1050" y="-99.8" font-family="Times,serif" font-size="14.00" fill="#000000">StarkTableColumnComponent</text>
</g>
<!-- StarkTableModule -->
<g id="node4" class="node">
<title>StarkTableModule</title>
<polygon fill="#8dd3c7" stroke="#000000" points="614.4706,-187 611.4706,-191 590.4706,-191 587.4706,-187 493.5294,-187 493.5294,-151 614.4706,-151 614.4706,-187"/>
<text text-anchor="middle" x="554" y="-164.8" font-family="Times,serif" font-size="14.00" fill="#000000">StarkTableModule</text>
</g>
<!-- StarkTableColumnComponent&#45;&gt;StarkTableModule -->
<g id="edge1" class="edge">
<title>StarkTableColumnComponent&#45;&gt;StarkTableModule</title>
<path fill="none" stroke="#000000" d="M1050,-122.2843C1050,-143.3211 1050,-175 1050,-175 1050,-175 624.8193,-175 624.8193,-175"/>
<polygon fill="#000000" stroke="#000000" points="624.8194,-171.5001 614.8193,-175 624.8193,-178.5001 624.8194,-171.5001"/>
</g>
<!-- StarkTableComponent -->
<g id="node2" class="node">
<title>StarkTableComponent</title>
<polygon fill="#ffffb3" stroke="#000000" points="938.2534,-122 795.7466,-122 795.7466,-86 938.2534,-86 938.2534,-122"/>
<text text-anchor="middle" x="867" y="-99.8" font-family="Times,serif" font-size="14.00" fill="#000000">StarkTableComponent</text>
</g>
<!-- StarkTableComponent&#45;&gt;StarkTableModule -->
<g id="edge2" class="edge">
<title>StarkTableComponent&#45;&gt;StarkTableModule</title>
<path fill="none" stroke="#000000" d="M867,-122.0225C867,-139.3734 867,-163 867,-163 867,-163 624.7207,-163 624.7207,-163"/>
<polygon fill="#000000" stroke="#000000" points="624.7207,-159.5001 614.7207,-163 624.7206,-166.5001 624.7207,-159.5001"/>
</g>
<!-- StarkTableMultisortDialogComponent -->
<g id="node3" class="node">
<title>StarkTableMultisortDialogComponent</title>
<polygon fill="#ffffb3" stroke="#000000" points="777.4678,-122 544.5322,-122 544.5322,-86 777.4678,-86 777.4678,-122"/>
<text text-anchor="middle" x="661" y="-99.8" font-family="Times,serif" font-size="14.00" fill="#000000">StarkTableMultisortDialogComponent</text>
</g>
<!-- StarkTableMultisortDialogComponent&#45;&gt;StarkTableModule -->
<g id="edge3" class="edge">
<title>StarkTableMultisortDialogComponent&#45;&gt;StarkTableModule</title>
<path fill="none" stroke="#000000" d="M579.5007,-122.1061C579.5007,-122.1061 579.5007,-140.991 579.5007,-140.991"/>
<polygon fill="#000000" stroke="#000000" points="576.0008,-140.9909 579.5007,-150.991 583.0008,-140.991 576.0008,-140.9909"/>
</g>
<!-- StarkTableColumnComponent  -->
<g id="node8" class="node">
<title>StarkTableColumnComponent </title>
<polygon fill="#fb8072" stroke="#000000" points="743.8714,-252 552.1286,-252 552.1286,-216 743.8714,-216 743.8714,-252"/>
<text text-anchor="middle" x="648" y="-229.8" font-family="Times,serif" font-size="14.00" fill="#000000">StarkTableColumnComponent </text>
</g>
<!-- StarkTableModule&#45;&gt;StarkTableColumnComponent  -->
<g id="edge7" class="edge">
<title>StarkTableModule&#45;&gt;StarkTableColumnComponent </title>
<path fill="none" stroke="#000000" stroke-dasharray="5,2" d="M583.3999,-187.1061C583.3999,-187.1061 583.3999,-205.991 583.3999,-205.991"/>
<polygon fill="#000000" stroke="#000000" points="579.9,-205.9909 583.3999,-215.991 586.9,-205.991 579.9,-205.9909"/>
</g>
<!-- StarkTableComponent  -->
<g id="node9" class="node">
<title>StarkTableComponent </title>
<polygon fill="#fb8072" stroke="#000000" points="534.2534,-252 387.7466,-252 387.7466,-216 534.2534,-216 534.2534,-252"/>
<text text-anchor="middle" x="461" y="-229.8" font-family="Times,serif" font-size="14.00" fill="#000000">StarkTableComponent </text>
</g>
<!-- StarkTableModule&#45;&gt;StarkTableComponent  -->
<g id="edge8" class="edge">
<title>StarkTableModule&#45;&gt;StarkTableComponent </title>
<path fill="none" stroke="#000000" stroke-dasharray="5,2" d="M513.8207,-187.1061C513.8207,-187.1061 513.8207,-205.991 513.8207,-205.991"/>
<polygon fill="#000000" stroke="#000000" points="510.3207,-205.9909 513.8207,-215.991 517.3207,-205.991 510.3207,-205.9909"/>
</g>
<!-- StarkActionBarModule -->
<g id="node5" class="node">
<title>StarkActionBarModule</title>
<polygon fill="#8dd3c7" stroke="#000000" points="520.913,-122 517.913,-126 496.913,-126 493.913,-122 373.087,-122 373.087,-86 520.913,-86 520.913,-122"/>
<text text-anchor="middle" x="447" y="-99.8" font-family="Times,serif" font-size="14.00" fill="#000000">StarkActionBarModule</text>
</g>
<!-- StarkActionBarModule&#45;&gt;StarkTableModule -->
<g id="edge4" class="edge">
<title>StarkActionBarModule&#45;&gt;StarkTableModule</title>
<path fill="none" stroke="#000000" d="M507.1105,-122.1061C507.1105,-122.1061 507.1105,-140.991 507.1105,-140.991"/>
<polygon fill="#000000" stroke="#000000" points="503.6105,-140.9909 507.1105,-150.991 510.6105,-140.991 503.6105,-140.9909"/>
</g>
<!-- StarkPaginationModule -->
<g id="node6" class="node">
<title>StarkPaginationModule</title>
<polygon fill="#8dd3c7" stroke="#000000" points="355.4818,-122 352.4818,-126 331.4818,-126 328.4818,-122 206.5182,-122 206.5182,-86 355.4818,-86 355.4818,-122"/>
<text text-anchor="middle" x="281" y="-99.8" font-family="Times,serif" font-size="14.00" fill="#000000">StarkPaginationModule</text>
</g>
<!-- StarkPaginationModule&#45;&gt;StarkTableModule -->
<g id="edge5" class="edge">
<title>StarkPaginationModule&#45;&gt;StarkTableModule</title>
<path fill="none" stroke="#000000" d="M281,-122.0225C281,-139.3734 281,-163 281,-163 281,-163 483.4125,-163 483.4125,-163"/>
<polygon fill="#000000" stroke="#000000" points="483.4125,-166.5001 493.4125,-163 483.4124,-159.5001 483.4125,-166.5001"/>
</g>
<!-- StarkSvgViewBoxModule -->
<g id="node7" class="node">
<title>StarkSvgViewBoxModule</title>
<polygon fill="#8dd3c7" stroke="#000000" points="188.0365,-122 185.0365,-126 164.0365,-126 161.0365,-122 23.9635,-122 23.9635,-86 188.0365,-86 188.0365,-122"/>
<text text-anchor="middle" x="106" y="-99.8" font-family="Times,serif" font-size="14.00" fill="#000000">StarkSvgViewBoxModule</text>
</g>
<!-- StarkSvgViewBoxModule&#45;&gt;StarkTableModule -->
<g id="edge6" class="edge">
<title>StarkSvgViewBoxModule&#45;&gt;StarkTableModule</title>
<path fill="none" stroke="#000000" d="M106,-122.2843C106,-143.3211 106,-175 106,-175 106,-175 483.1145,-175 483.1145,-175"/>
<polygon fill="#000000" stroke="#000000" points="483.1145,-178.5001 493.1145,-175 483.1145,-171.5001 483.1145,-178.5001"/>
</g>
</g>
</svg>
