<?xml version="1.0" encoding="UTF-8" standalone="no"?>
<!DOCTYPE svg PUBLIC "-//W3C//DTD SVG 1.1//EN"
 "http://www.w3.org/Graphics/SVG/1.1/DTD/svg11.dtd">
<!-- Generated by graphviz version 2.40.1 (20161225.0304)
 -->
<!-- Title: dependencies Pages: 1 -->
<svg width="659pt" height="284pt"
 viewBox="0.00 0.00 659.00 284.00" xmlns="http://www.w3.org/2000/svg" xmlns:xlink="http://www.w3.org/1999/xlink">
<g id="graph0" class="graph" transform="scale(1 1) rotate(0) translate(4 280)">
<title>dependencies</title>
<polygon fill="#ffffff" stroke="transparent" points="-4,4 -4,-280 655,-280 655,4 -4,4"/>
<text text-anchor="start" x="304.5091" y="-42.4" font-family="sans-serif" font-weight="bold" font-size="14.00" fill="#000000">Legend</text>
<polygon fill="#ffffb3" stroke="transparent" points="91.5,-10 91.5,-30 111.5,-30 111.5,-10 91.5,-10"/>
<text text-anchor="start" x="115.129" y="-15.4" font-family="sans-serif" font-size="14.00" fill="#000000"> &#160;Declarations</text>
<polygon fill="#8dd3c7" stroke="transparent" points="204.5,-10 204.5,-30 224.5,-30 224.5,-10 204.5,-10"/>
<text text-anchor="start" x="228.2251" y="-15.4" font-family="sans-serif" font-size="14.00" fill="#000000"> &#160;Module</text>
<polygon fill="#80b1d3" stroke="transparent" points="290.5,-10 290.5,-30 310.5,-30 310.5,-10 290.5,-10"/>
<text text-anchor="start" x="314.2812" y="-15.4" font-family="sans-serif" font-size="14.00" fill="#000000"> &#160;Bootstrap</text>
<polygon fill="#fdb462" stroke="transparent" points="387.5,-10 387.5,-30 407.5,-30 407.5,-10 387.5,-10"/>
<text text-anchor="start" x="411.1732" y="-15.4" font-family="sans-serif" font-size="14.00" fill="#000000"> &#160;Providers</text>
<polygon fill="#fb8072" stroke="transparent" points="483.5,-10 483.5,-30 503.5,-30 503.5,-10 483.5,-10"/>
<text text-anchor="start" x="507.2258" y="-15.4" font-family="sans-serif" font-size="14.00" fill="#000000"> &#160;Exports</text>
<g id="clust1" class="cluster">
<title>cluster_StarkDateTimePickerModule</title>
<polygon fill="none" stroke="#000000" stroke-dasharray="1,5" points="8,-70 8,-268 643,-268 643,-70 8,-70"/>
</g>
<g id="clust2" class="cluster">
<title>cluster_StarkDateTimePickerModule_declarations</title>
<polygon fill="none" stroke="#000000" points="417,-78 417,-130 635,-130 635,-78 417,-78"/>
</g>
<g id="clust4" class="cluster">
<title>cluster_StarkDateTimePickerModule_imports</title>
<polygon fill="none" stroke="#000000" points="16,-78 16,-130 409,-130 409,-78 16,-78"/>
</g>
<g id="clust5" class="cluster">
<title>cluster_StarkDateTimePickerModule_exports</title>
<polygon fill="none" stroke="#000000" points="214,-208 214,-260 436,-260 436,-208 214,-208"/>
</g>
<!-- StarkDateTimePickerComponent -->
<g id="node1" class="node">
<title>StarkDateTimePickerComponent</title>
<polygon fill="#ffffb3" stroke="#000000" points="627.119,-122 424.881,-122 424.881,-86 627.119,-86 627.119,-122"/>
<text text-anchor="middle" x="526" y="-99.8" font-family="Times,serif" font-size="14.00" fill="#000000">StarkDateTimePickerComponent</text>
</g>
<!-- StarkDateTimePickerModule -->
<g id="node2" class="node">
<title>StarkDateTimePickerModule</title>
<polygon fill="#8dd3c7" stroke="#000000" points="415.3361,-187 412.3361,-191 391.3361,-191 388.3361,-187 234.6639,-187 234.6639,-151 415.3361,-151 415.3361,-187"/>
<text text-anchor="middle" x="325" y="-164.8" font-family="Times,serif" font-size="14.00" fill="#000000">StarkDateTimePickerModule</text>
</g>
<!-- StarkDateTimePickerComponent&#45;&gt;StarkDateTimePickerModule -->
<g id="edge1" class="edge">
<title>StarkDateTimePickerComponent&#45;&gt;StarkDateTimePickerModule</title>
<path fill="none" stroke="#000000" d="M424.6828,-104C414.6196,-104 408.0309,-104 408.0309,-104 408.0309,-104 408.0309,-140.8939 408.0309,-140.8939"/>
<polygon fill="#000000" stroke="#000000" points="404.531,-140.8938 408.0309,-150.8939 411.531,-140.8939 404.531,-140.8938"/>
</g>
<!-- StarkDateTimePickerComponent  -->
<g id="node5" class="node">
<title>StarkDateTimePickerComponent </title>
<polygon fill="#fb8072" stroke="#000000" points="428.1186,-252 221.8814,-252 221.8814,-216 428.1186,-216 428.1186,-252"/>
<text text-anchor="middle" x="325" y="-229.8" font-family="Times,serif" font-size="14.00" fill="#000000">StarkDateTimePickerComponent </text>
</g>
<!-- StarkDateTimePickerModule&#45;&gt;StarkDateTimePickerComponent  -->
<g id="edge4" class="edge">
<title>StarkDateTimePickerModule&#45;&gt;StarkDateTimePickerComponent </title>
<path fill="none" stroke="#000000" stroke-dasharray="5,2" d="M325,-187.1061C325,-187.1061 325,-205.991 325,-205.991"/>
<polygon fill="#000000" stroke="#000000" points="321.5001,-205.9909 325,-215.991 328.5001,-205.991 321.5001,-205.9909"/>
</g>
<!-- StarkDatePickerModule -->
<g id="node3" class="node">
<title>StarkDatePickerModule</title>
<polygon fill="#8dd3c7" stroke="#000000" points="400.7879,-122 397.7879,-126 376.7879,-126 373.7879,-122 249.2121,-122 249.2121,-86 400.7879,-86 400.7879,-122"/>
<text text-anchor="middle" x="325" y="-99.8" font-family="Times,serif" font-size="14.00" fill="#000000">StarkDatePickerModule</text>
</g>
<!-- StarkDatePickerModule&#45;&gt;StarkDateTimePickerModule -->
<g id="edge2" class="edge">
<title>StarkDatePickerModule&#45;&gt;StarkDateTimePickerModule</title>
<path fill="none" stroke="#000000" d="M325,-122.1061C325,-122.1061 325,-140.991 325,-140.991"/>
<polygon fill="#000000" stroke="#000000" points="321.5001,-140.9909 325,-150.991 328.5001,-140.991 321.5001,-140.9909"/>
</g>
<!-- StarkInputMaskDirectivesModule -->
<g id="node4" class="node">
<title>StarkInputMaskDirectivesModule</title>
<polygon fill="#8dd3c7" stroke="#000000" points="231.7808,-122 228.7808,-126 207.7808,-126 204.7808,-122 24.2192,-122 24.2192,-86 231.7808,-86 231.7808,-122"/>
<text text-anchor="middle" x="128" y="-99.8" font-family="Times,serif" font-size="14.00" fill="#000000">StarkInputMaskDirectivesModule</text>
</g>
<!-- StarkInputMaskDirectivesModule&#45;&gt;StarkDateTimePickerModule -->
<g id="edge3" class="edge">
<title>StarkInputMaskDirectivesModule&#45;&gt;StarkDateTimePickerModule</title>
<path fill="none" stroke="#000000" d="M226.7905,-122.1061C226.7905,-141.3391 226.7905,-169 226.7905,-169 226.7905,-169 227.5611,-169 227.5611,-169"/>
<polygon fill="#000000" stroke="#000000" points="224.4969,-172.5001 234.4968,-169 224.4968,-165.5001 224.4969,-172.5001"/>
</g>
</g>
</svg>
