<?xml version="1.0" encoding="UTF-8" standalone="no"?>
<!DOCTYPE svg PUBLIC "-//W3C//DTD SVG 1.1//EN"
 "http://www.w3.org/Graphics/SVG/1.1/DTD/svg11.dtd">
<!-- Generated by graphviz version 2.47.0 (20210316.0004)
 -->
<!-- Title: dependencies Pages: 1 -->
<svg width="1598pt" height="284pt"
 viewBox="0.00 0.00 1598.00 284.00" xmlns="http://www.w3.org/2000/svg" xmlns:xlink="http://www.w3.org/1999/xlink">
<g id="graph0" class="graph" transform="scale(1 1) rotate(0) translate(4 280)">
<title>dependencies</title>
<polygon fill="white" stroke="transparent" points="-4,4 -4,-280 1594,-280 1594,4 -4,4"/>
<text text-anchor="start" x="774.01" y="-42.4" font-family="Times-12" font-weight="bold" font-size="14.00">Legend</text>
<polygon fill="#ffffb3" stroke="transparent" points="561,-10 561,-30 581,-30 581,-10 561,-10"/>
<text text-anchor="start" x="584.63" y="-15.4" font-family="Times-12" font-size="14.00"> &#160;Declarations</text>
<polygon fill="#8dd3c7" stroke="transparent" points="674,-10 674,-30 694,-30 694,-10 674,-10"/>
<text text-anchor="start" x="697.73" y="-15.4" font-family="Times-12" font-size="14.00"> &#160;Module</text>
<polygon fill="#80b1d3" stroke="transparent" points="760,-10 760,-30 780,-30 780,-10 760,-10"/>
<text text-anchor="start" x="783.78" y="-15.4" font-family="Times-12" font-size="14.00"> &#160;Bootstrap</text>
<polygon fill="#fdb462" stroke="transparent" points="857,-10 857,-30 877,-30 877,-10 857,-10"/>
<text text-anchor="start" x="880.67" y="-15.4" font-family="Times-12" font-size="14.00"> &#160;Providers</text>
<polygon fill="#fb8072" stroke="transparent" points="953,-10 953,-30 973,-30 973,-10 953,-10"/>
<text text-anchor="start" x="976.73" y="-15.4" font-family="Times-12" font-size="14.00"> &#160;Exports</text>
<g id="clust1" class="cluster">
<title>cluster_StarkSessionUiModule</title>
<polygon fill="none" stroke="black" stroke-dasharray="1,5" points="8,-70 8,-268 1582,-268 1582,-70 8,-70"/>
</g>
<g id="clust10" class="cluster">
<title>cluster_StarkSessionUiModule_exports</title>
<polygon fill="none" stroke="black" points="228,-208 228,-260 1439,-260 1439,-208 228,-208"/>
</g>
<g id="clust9" class="cluster">
<title>cluster_StarkSessionUiModule_imports</title>
<polygon fill="none" stroke="black" points="1416,-78 1416,-130 1574,-130 1574,-78 1416,-78"/>
</g>
<g id="clust2" class="cluster">
<title>cluster_StarkSessionUiModule_declarations</title>
<polygon fill="none" stroke="black" points="16,-78 16,-130 1408,-130 1408,-78 16,-78"/>
</g>
<!-- StarkLoginPageComponent -->
<g id="node1" class="node">
<title>StarkLoginPageComponent</title>
<polygon fill="#ffffb3" stroke="black" points="1399.54,-122 1228.46,-122 1228.46,-86 1399.54,-86 1399.54,-122"/>
<text text-anchor="middle" x="1314" y="-99.8" font-family="Times,serif" font-size="14.00">StarkLoginPageComponent</text>
</g>
<!-- StarkSessionUiModule -->
<g id="node7" class="node">
<title>StarkSessionUiModule</title>
<polygon fill="#8dd3c7" stroke="black" points="975.87,-187 972.87,-191 951.87,-191 948.87,-187 830.13,-187 830.13,-151 975.87,-151 975.87,-187"/>
<text text-anchor="middle" x="903" y="-164.8" font-family="Times,serif" font-size="14.00">StarkSessionUiModule</text>
</g>
<!-- StarkLoginPageComponent&#45;&gt;StarkSessionUiModule -->
<g id="edge1" class="edge">
<title>StarkLoginPageComponent&#45;&gt;StarkSessionUiModule</title>
<path fill="none" stroke="black" d="M1232.68,-122.02C1232.68,-139.37 1232.68,-163 1232.68,-163 1232.68,-163 986.17,-163 986.17,-163"/>
<polygon fill="black" stroke="black" points="986.17,-159.5 976.17,-163 986.17,-166.5 986.17,-159.5"/>
</g>
<!-- StarkPreloadingPageComponent -->
<g id="node2" class="node">
<title>StarkPreloadingPageComponent</title>
<polygon fill="#ffffb3" stroke="black" points="1210.25,-122 1011.75,-122 1011.75,-86 1210.25,-86 1210.25,-122"/>
<text text-anchor="middle" x="1111" y="-99.8" font-family="Times,serif" font-size="14.00">StarkPreloadingPageComponent</text>
</g>
<!-- StarkPreloadingPageComponent&#45;&gt;StarkSessionUiModule -->
<g id="edge2" class="edge">
<title>StarkPreloadingPageComponent&#45;&gt;StarkSessionUiModule</title>
<path fill="none" stroke="black" d="M1026.11,-122.24C1026.11,-137.57 1026.11,-157 1026.11,-157 1026.11,-157 986.04,-157 986.04,-157"/>
<polygon fill="black" stroke="black" points="986.04,-153.5 976.04,-157 986.04,-160.5 986.04,-153.5"/>
</g>
<!-- StarkSessionCardComponent -->
<g id="node3" class="node">
<title>StarkSessionCardComponent</title>
<polygon fill="#ffffb3" stroke="black" points="993.37,-122 812.63,-122 812.63,-86 993.37,-86 993.37,-122"/>
<text text-anchor="middle" x="903" y="-99.8" font-family="Times,serif" font-size="14.00">StarkSessionCardComponent</text>
</g>
<!-- StarkSessionCardComponent&#45;&gt;StarkSessionUiModule -->
<g id="edge3" class="edge">
<title>StarkSessionCardComponent&#45;&gt;StarkSessionUiModule</title>
<path fill="none" stroke="black" d="M903,-122.11C903,-122.11 903,-140.99 903,-140.99"/>
<polygon fill="black" stroke="black" points="899.5,-140.99 903,-150.99 906.5,-140.99 899.5,-140.99"/>
</g>
<!-- StarkSessionExpiredPageComponent -->
<g id="node4" class="node">
<title>StarkSessionExpiredPageComponent</title>
<polygon fill="#ffffb3" stroke="black" points="794.69,-122 569.31,-122 569.31,-86 794.69,-86 794.69,-122"/>
<text text-anchor="middle" x="682" y="-99.8" font-family="Times,serif" font-size="14.00">StarkSessionExpiredPageComponent</text>
</g>
<!-- StarkSessionExpiredPageComponent&#45;&gt;StarkSessionUiModule -->
<g id="edge4" class="edge">
<title>StarkSessionExpiredPageComponent&#45;&gt;StarkSessionUiModule</title>
<path fill="none" stroke="black" d="M779.53,-122.24C779.53,-137.57 779.53,-157 779.53,-157 779.53,-157 820.11,-157 820.11,-157"/>
<polygon fill="black" stroke="black" points="820.11,-160.5 830.11,-157 820.11,-153.5 820.11,-160.5"/>
</g>
<!-- StarkSessionLogoutPageComponent -->
<g id="node5" class="node">
<title>StarkSessionLogoutPageComponent</title>
<polygon fill="#ffffb3" stroke="black" points="551.81,-122 330.19,-122 330.19,-86 551.81,-86 551.81,-122"/>
<text text-anchor="middle" x="441" y="-99.8" font-family="Times,serif" font-size="14.00">StarkSessionLogoutPageComponent</text>
</g>
<!-- StarkSessionLogoutPageComponent&#45;&gt;StarkSessionUiModule -->
<g id="edge5" class="edge">
<title>StarkSessionLogoutPageComponent&#45;&gt;StarkSessionUiModule</title>
<path fill="none" stroke="black" d="M536.72,-122.02C536.72,-139.37 536.72,-163 536.72,-163 536.72,-163 819.76,-163 819.76,-163"/>
<polygon fill="black" stroke="black" points="819.76,-166.5 829.76,-163 819.76,-159.5 819.76,-166.5"/>
</g>
<!-- StarkSessionTimeoutWarningDialogComponent -->
<g id="node6" class="node">
<title>StarkSessionTimeoutWarningDialogComponent</title>
<polygon fill="#ffffb3" stroke="black" points="312.18,-122 23.82,-122 23.82,-86 312.18,-86 312.18,-122"/>
<text text-anchor="middle" x="168" y="-99.8" font-family="Times,serif" font-size="14.00">StarkSessionTimeoutWarningDialogComponent</text>
</g>
<!-- StarkSessionTimeoutWarningDialogComponent&#45;&gt;StarkSessionUiModule -->
<g id="edge6" class="edge">
<title>StarkSessionTimeoutWarningDialogComponent&#45;&gt;StarkSessionUiModule</title>
<path fill="none" stroke="black" d="M274.12,-122.11C274.12,-141.34 274.12,-169 274.12,-169 274.12,-169 819.94,-169 819.94,-169"/>
<polygon fill="black" stroke="black" points="819.94,-172.5 829.94,-169 819.94,-165.5 819.94,-172.5"/>
</g>
<!-- StarkLoginPageComponent  -->
<g id="node9" class="node">
<title>StarkLoginPageComponent </title>
<polygon fill="#fb8072" stroke="black" points="1430.54,-252 1255.46,-252 1255.46,-216 1430.54,-216 1430.54,-252"/>
<text text-anchor="middle" x="1343" y="-229.8" font-family="Times,serif" font-size="14.00">StarkLoginPageComponent </text>
</g>
<!-- StarkSessionUiModule&#45;&gt;StarkLoginPageComponent  -->
<g id="edge8" class="edge">
<title>StarkSessionUiModule&#45;&gt;StarkLoginPageComponent </title>
<path fill="none" stroke="black" stroke-dasharray="5,2" d="M976,-175C1097.4,-175 1327.62,-175 1327.62,-175 1327.62,-175 1327.62,-205.98 1327.62,-205.98"/>
<polygon fill="black" stroke="black" points="1324.13,-205.98 1327.62,-215.98 1331.13,-205.98 1324.13,-205.98"/>
</g>
<!-- StarkPreloadingPageComponent  -->
<g id="node10" class="node">
<title>StarkPreloadingPageComponent </title>
<polygon fill="#fb8072" stroke="black" points="1237.25,-252 1034.75,-252 1034.75,-216 1237.25,-216 1237.25,-252"/>
<text text-anchor="middle" x="1136" y="-229.8" font-family="Times,serif" font-size="14.00">StarkPreloadingPageComponent </text>
</g>
<!-- StarkSessionUiModule&#45;&gt;StarkPreloadingPageComponent  -->
<g id="edge9" class="edge">
<title>StarkSessionUiModule&#45;&gt;StarkPreloadingPageComponent </title>
<path fill="none" stroke="black" stroke-dasharray="5,2" d="M976.13,-181C1040.02,-181 1122.62,-181 1122.62,-181 1122.62,-181 1122.62,-205.76 1122.62,-205.76"/>
<polygon fill="black" stroke="black" points="1119.13,-205.76 1122.62,-215.76 1126.13,-205.76 1119.13,-205.76"/>
</g>
<!-- StarkSessionExpiredPageComponent  -->
<g id="node11" class="node">
<title>StarkSessionExpiredPageComponent </title>
<polygon fill="#fb8072" stroke="black" points="1017.19,-252 788.81,-252 788.81,-216 1017.19,-216 1017.19,-252"/>
<text text-anchor="middle" x="903" y="-229.8" font-family="Times,serif" font-size="14.00">StarkSessionExpiredPageComponent </text>
</g>
<!-- StarkSessionUiModule&#45;&gt;StarkSessionExpiredPageComponent  -->
<g id="edge10" class="edge">
<title>StarkSessionUiModule&#45;&gt;StarkSessionExpiredPageComponent </title>
<path fill="none" stroke="black" stroke-dasharray="5,2" d="M903,-187.11C903,-187.11 903,-205.99 903,-205.99"/>
<polygon fill="black" stroke="black" points="899.5,-205.99 903,-215.99 906.5,-205.99 899.5,-205.99"/>
</g>
<!-- StarkSessionLogoutPageComponent  -->
<g id="node12" class="node">
<title>StarkSessionLogoutPageComponent </title>
<polygon fill="#fb8072" stroke="black" points="770.31,-252 545.69,-252 545.69,-216 770.31,-216 770.31,-252"/>
<text text-anchor="middle" x="658" y="-229.8" font-family="Times,serif" font-size="14.00">StarkSessionLogoutPageComponent </text>
</g>
<!-- StarkSessionUiModule&#45;&gt;StarkSessionLogoutPageComponent  -->
<g id="edge11" class="edge">
<title>StarkSessionUiModule&#45;&gt;StarkSessionLogoutPageComponent </title>
<path fill="none" stroke="black" stroke-dasharray="5,2" d="M829.89,-181C761.53,-181 669.91,-181 669.91,-181 669.91,-181 669.91,-205.76 669.91,-205.76"/>
<polygon fill="black" stroke="black" points="666.41,-205.76 669.91,-215.76 673.41,-205.76 666.41,-205.76"/>
</g>
<!-- StarkSessionTimeoutWarningDialogComponent  -->
<g id="node13" class="node">
<title>StarkSessionTimeoutWarningDialogComponent </title>
<polygon fill="#fb8072" stroke="black" points="527.68,-252 236.32,-252 236.32,-216 527.68,-216 527.68,-252"/>
<text text-anchor="middle" x="382" y="-229.8" font-family="Times,serif" font-size="14.00">StarkSessionTimeoutWarningDialogComponent </text>
</g>
<!-- StarkSessionUiModule&#45;&gt;StarkSessionTimeoutWarningDialogComponent  -->
<g id="edge12" class="edge">
<title>StarkSessionUiModule&#45;&gt;StarkSessionTimeoutWarningDialogComponent </title>
<path fill="none" stroke="black" stroke-dasharray="5,2" d="M829.99,-175C697.06,-175 429.09,-175 429.09,-175 429.09,-175 429.09,-205.98 429.09,-205.98"/>
<polygon fill="black" stroke="black" points="425.59,-205.98 429.09,-215.98 432.59,-205.98 425.59,-205.98"/>
</g>
<!-- StarkAppLogoModule -->
<g id="node8" class="node">
<title>StarkAppLogoModule</title>
<polygon fill="#8dd3c7" stroke="black" points="1566.26,-122 1563.26,-126 1542.26,-126 1539.26,-122 1423.74,-122 1423.74,-86 1566.26,-86 1566.26,-122"/>
<text text-anchor="middle" x="1495" y="-99.8" font-family="Times,serif" font-size="14.00">StarkAppLogoModule</text>
</g>
<!-- StarkAppLogoModule&#45;&gt;StarkSessionUiModule -->
<g id="edge7" class="edge">
<title>StarkAppLogoModule&#45;&gt;StarkSessionUiModule</title>
<path fill="none" stroke="black" d="M1498.45,-122.11C1498.45,-141.34 1498.45,-169 1498.45,-169 1498.45,-169 986.01,-169 986.01,-169"/>
<polygon fill="black" stroke="black" points="986.01,-165.5 976.01,-169 986.01,-172.5 986.01,-165.5"/>
</g>
</g>
</svg>
