<?xml version="1.0" encoding="UTF-8" standalone="no"?>
<!DOCTYPE svg PUBLIC "-//W3C//DTD SVG 1.1//EN"
 "http://www.w3.org/Graphics/SVG/1.1/DTD/svg11.dtd">
<!-- Generated by graphviz version 2.40.1 (20161225.0304)
 -->
<!-- Title: dependencies Pages: 1 -->
<svg width="1596pt" height="284pt"
 viewBox="0.00 0.00 1596.00 284.00" xmlns="http://www.w3.org/2000/svg" xmlns:xlink="http://www.w3.org/1999/xlink">
<g id="graph0" class="graph" transform="scale(1 1) rotate(0) translate(4 280)">
<title>dependencies</title>
<polygon fill="#ffffff" stroke="transparent" points="-4,4 -4,-280 1592,-280 1592,4 -4,4"/>
<text text-anchor="start" x="773.0091" y="-42.4" font-family="sans-serif" font-weight="bold" font-size="14.00" fill="#000000">Legend</text>
<polygon fill="#ffffb3" stroke="transparent" points="560,-10 560,-30 580,-30 580,-10 560,-10"/>
<text text-anchor="start" x="583.629" y="-15.4" font-family="sans-serif" font-size="14.00" fill="#000000"> &#160;Declarations</text>
<polygon fill="#8dd3c7" stroke="transparent" points="673,-10 673,-30 693,-30 693,-10 673,-10"/>
<text text-anchor="start" x="696.7251" y="-15.4" font-family="sans-serif" font-size="14.00" fill="#000000"> &#160;Module</text>
<polygon fill="#80b1d3" stroke="transparent" points="759,-10 759,-30 779,-30 779,-10 759,-10"/>
<text text-anchor="start" x="782.7812" y="-15.4" font-family="sans-serif" font-size="14.00" fill="#000000"> &#160;Bootstrap</text>
<polygon fill="#fdb462" stroke="transparent" points="856,-10 856,-30 876,-30 876,-10 856,-10"/>
<text text-anchor="start" x="879.6732" y="-15.4" font-family="sans-serif" font-size="14.00" fill="#000000"> &#160;Providers</text>
<polygon fill="#fb8072" stroke="transparent" points="952,-10 952,-30 972,-30 972,-10 952,-10"/>
<text text-anchor="start" x="975.7258" y="-15.4" font-family="sans-serif" font-size="14.00" fill="#000000"> &#160;Exports</text>
<g id="clust1" class="cluster">
<title>cluster_StarkTableModule</title>
<polygon fill="none" stroke="#000000" stroke-dasharray="1,5" points="8,-70 8,-268 1580,-268 1580,-70 8,-70"/>
</g>
<g id="clust2" class="cluster">
<title>cluster_StarkTableModule_declarations</title>
<polygon fill="none" stroke="#000000" points="513,-78 513,-130 1572,-130 1572,-78 513,-78"/>
</g>
<g id="clust8" class="cluster">
<title>cluster_StarkTableModule_imports</title>
<polygon fill="none" stroke="#000000" points="16,-78 16,-130 505,-130 505,-78 16,-78"/>
</g>
<g id="clust9" class="cluster">
<title>cluster_StarkTableModule_exports</title>
<polygon fill="none" stroke="#000000" points="305,-208 305,-260 1127,-260 1127,-208 305,-208"/>
</g>
<!-- StarkTableColumnComponent -->
<g id="node1" class="node">
<title>StarkTableColumnComponent</title>
<polygon fill="#ffffb3" stroke="#000000" points="1563.871,-122 1376.129,-122 1376.129,-86 1563.871,-86 1563.871,-122"/>
<text text-anchor="middle" x="1470" y="-99.8" font-family="Times,serif" font-size="14.00" fill="#000000">StarkTableColumnComponent</text>
</g>
<!-- StarkTableModule -->
<g id="node6" class="node">
<title>StarkTableModule</title>
<polygon fill="#8dd3c7" stroke="#000000" points="798.4706,-187 795.4706,-191 774.4706,-191 771.4706,-187 677.5294,-187 677.5294,-151 798.4706,-151 798.4706,-187"/>
<text text-anchor="middle" x="738" y="-164.8" font-family="Times,serif" font-size="14.00" fill="#000000">StarkTableModule</text>
</g>
<!-- StarkTableColumnComponent&#45;&gt;StarkTableModule -->
<g id="edge1" class="edge">
<title>StarkTableColumnComponent&#45;&gt;StarkTableModule</title>
<path fill="none" stroke="#000000" d="M1470,-122.1289C1470,-142.5724 1470,-173 1470,-173 1470,-173 808.5254,-173 808.5254,-173"/>
<polygon fill="#000000" stroke="#000000" points="808.5254,-169.5001 798.5254,-173 808.5254,-176.5001 808.5254,-169.5001"/>
</g>
<!-- StarkTableComponent -->
<g id="node2" class="node">
<title>StarkTableComponent</title>
<polygon fill="#ffffb3" stroke="#000000" points="1358.2534,-122 1215.7466,-122 1215.7466,-86 1358.2534,-86 1358.2534,-122"/>
<text text-anchor="middle" x="1287" y="-99.8" font-family="Times,serif" font-size="14.00" fill="#000000">StarkTableComponent</text>
</g>
<!-- StarkTableComponent&#45;&gt;StarkTableModule -->
<g id="edge2" class="edge">
<title>StarkTableComponent&#45;&gt;StarkTableModule</title>
<path fill="none" stroke="#000000" d="M1287,-122.2667C1287,-140.5552 1287,-166 1287,-166 1287,-166 808.5864,-166 808.5864,-166"/>
<polygon fill="#000000" stroke="#000000" points="808.5864,-162.5001 798.5864,-166 808.5864,-169.5001 808.5864,-162.5001"/>
</g>
<!-- StarkTableExpandDetailDirective -->
<g id="node3" class="node">
<title>StarkTableExpandDetailDirective</title>
<polygon fill="#ffffb3" stroke="#000000" points="1197.479,-122 990.521,-122 990.521,-86 1197.479,-86 1197.479,-122"/>
<text text-anchor="middle" x="1094" y="-99.8" font-family="Times,serif" font-size="14.00" fill="#000000">StarkTableExpandDetailDirective</text>
</g>
<!-- StarkTableExpandDetailDirective&#45;&gt;StarkTableModule -->
<g id="edge3" class="edge">
<title>StarkTableExpandDetailDirective&#45;&gt;StarkTableModule</title>
<path fill="none" stroke="#000000" d="M1054.7232,-122.0091C1054.7232,-138.0494 1054.7232,-159 1054.7232,-159 1054.7232,-159 808.6927,-159 808.6927,-159"/>
<polygon fill="#000000" stroke="#000000" points="808.6927,-155.5001 798.6927,-159 808.6926,-162.5001 808.6927,-155.5001"/>
</g>
<!-- StarkTableMultisortDialogComponent -->
<g id="node4" class="node">
<title>StarkTableMultisortDialogComponent</title>
<polygon fill="#ffffb3" stroke="#000000" points="972.4678,-122 739.5322,-122 739.5322,-86 972.4678,-86 972.4678,-122"/>
<text text-anchor="middle" x="856" y="-99.8" font-family="Times,serif" font-size="14.00" fill="#000000">StarkTableMultisortDialogComponent</text>
</g>
<!-- StarkTableMultisortDialogComponent&#45;&gt;StarkTableModule -->
<g id="edge4" class="edge">
<title>StarkTableMultisortDialogComponent&#45;&gt;StarkTableModule</title>
<path fill="none" stroke="#000000" d="M769.0007,-122.1061C769.0007,-122.1061 769.0007,-140.991 769.0007,-140.991"/>
<polygon fill="#000000" stroke="#000000" points="765.5008,-140.9909 769.0007,-150.991 772.5008,-140.991 765.5008,-140.9909"/>
</g>
<!-- StarkTableRowContentDirective -->
<g id="node5" class="node">
<title>StarkTableRowContentDirective</title>
<polygon fill="#ffffb3" stroke="#000000" points="721.2794,-122 520.7206,-122 520.7206,-86 721.2794,-86 721.2794,-122"/>
<text text-anchor="middle" x="621" y="-99.8" font-family="Times,serif" font-size="14.00" fill="#000000">StarkTableRowContentDirective</text>
</g>
<!-- StarkTableRowContentDirective&#45;&gt;StarkTableModule -->
<g id="edge5" class="edge">
<title>StarkTableRowContentDirective&#45;&gt;StarkTableModule</title>
<path fill="none" stroke="#000000" d="M699.3272,-122.1061C699.3272,-122.1061 699.3272,-140.991 699.3272,-140.991"/>
<polygon fill="#000000" stroke="#000000" points="695.8272,-140.9909 699.3272,-150.991 702.8272,-140.991 695.8272,-140.9909"/>
</g>
<!-- StarkTableColumnComponent  -->
<g id="node10" class="node">
<title>StarkTableColumnComponent </title>
<polygon fill="#fb8072" stroke="#000000" points="1118.8714,-252 927.1286,-252 927.1286,-216 1118.8714,-216 1118.8714,-252"/>
<text text-anchor="middle" x="1023" y="-229.8" font-family="Times,serif" font-size="14.00" fill="#000000">StarkTableColumnComponent </text>
</g>
<!-- StarkTableModule&#45;&gt;StarkTableColumnComponent  -->
<g id="edge9" class="edge">
<title>StarkTableModule&#45;&gt;StarkTableColumnComponent </title>
<path fill="none" stroke="#000000" stroke-dasharray="5,2" d="M798.7218,-180C861.3376,-180 949.8992,-180 949.8992,-180 949.8992,-180 949.8992,-205.7181 949.8992,-205.7181"/>
<polygon fill="#000000" stroke="#000000" points="946.3993,-205.718 949.8992,-215.7181 953.3993,-205.7181 946.3993,-205.718"/>
</g>
<!-- StarkTableComponent  -->
<g id="node11" class="node">
<title>StarkTableComponent </title>
<polygon fill="#fb8072" stroke="#000000" points="909.2534,-252 762.7466,-252 762.7466,-216 909.2534,-216 909.2534,-252"/>
<text text-anchor="middle" x="836" y="-229.8" font-family="Times,serif" font-size="14.00" fill="#000000">StarkTableComponent </text>
</g>
<!-- StarkTableModule&#45;&gt;StarkTableComponent  -->
<g id="edge10" class="edge">
<title>StarkTableModule&#45;&gt;StarkTableComponent </title>
<path fill="none" stroke="#000000" stroke-dasharray="5,2" d="M780.6794,-187.1061C780.6794,-187.1061 780.6794,-205.991 780.6794,-205.991"/>
<polygon fill="#000000" stroke="#000000" points="777.1794,-205.9909 780.6794,-215.991 784.1794,-205.991 777.1794,-205.9909"/>
</g>
<!-- StarkTableExpandDetailDirective  -->
<g id="node12" class="node">
<title>StarkTableExpandDetailDirective </title>
<polygon fill="#fb8072" stroke="#000000" points="744.9784,-252 535.0216,-252 535.0216,-216 744.9784,-216 744.9784,-252"/>
<text text-anchor="middle" x="640" y="-229.8" font-family="Times,serif" font-size="14.00" fill="#000000">StarkTableExpandDetailDirective </text>
</g>
<!-- StarkTableModule&#45;&gt;StarkTableExpandDetailDirective  -->
<g id="edge11" class="edge">
<title>StarkTableModule&#45;&gt;StarkTableExpandDetailDirective </title>
<path fill="none" stroke="#000000" stroke-dasharray="5,2" d="M711.252,-187.1061C711.252,-187.1061 711.252,-205.991 711.252,-205.991"/>
<polygon fill="#000000" stroke="#000000" points="707.752,-205.9909 711.252,-215.991 714.752,-205.991 707.752,-205.9909"/>
</g>
<!-- StarkTableRowContentDirective  -->
<g id="node13" class="node">
<title>StarkTableRowContentDirective </title>
<polygon fill="#fb8072" stroke="#000000" points="516.7793,-252 313.2207,-252 313.2207,-216 516.7793,-216 516.7793,-252"/>
<text text-anchor="middle" x="415" y="-229.8" font-family="Times,serif" font-size="14.00" fill="#000000">StarkTableRowContentDirective </text>
</g>
<!-- StarkTableModule&#45;&gt;StarkTableRowContentDirective  -->
<g id="edge12" class="edge">
<title>StarkTableModule&#45;&gt;StarkTableRowContentDirective </title>
<path fill="none" stroke="#000000" stroke-dasharray="5,2" d="M677.2544,-180C608.7532,-180 506.7979,-180 506.7979,-180 506.7979,-180 506.7979,-205.7181 506.7979,-205.7181"/>
<polygon fill="#000000" stroke="#000000" points="503.298,-205.718 506.7979,-215.7181 510.298,-205.7181 503.298,-205.718"/>
</g>
<!-- StarkActionBarModule -->
<g id="node7" class="node">
<title>StarkActionBarModule</title>
<polygon fill="#8dd3c7" stroke="#000000" points="496.913,-122 493.913,-126 472.913,-126 469.913,-122 349.087,-122 349.087,-86 496.913,-86 496.913,-122"/>
<text text-anchor="middle" x="423" y="-99.8" font-family="Times,serif" font-size="14.00" fill="#000000">StarkActionBarModule</text>
</g>
<!-- StarkActionBarModule&#45;&gt;StarkTableModule -->
<g id="edge6" class="edge">
<title>StarkActionBarModule&#45;&gt;StarkTableModule</title>
<path fill="none" stroke="#000000" d="M423,-122.0091C423,-138.0494 423,-159 423,-159 423,-159 667.2648,-159 667.2648,-159"/>
<polygon fill="#000000" stroke="#000000" points="667.2649,-162.5001 677.2648,-159 667.2648,-155.5001 667.2649,-162.5001"/>
</g>
<!-- StarkMinimapModule -->
<g id="node8" class="node">
<title>StarkMinimapModule</title>
<polygon fill="#8dd3c7" stroke="#000000" points="331.4299,-122 328.4299,-126 307.4299,-126 304.4299,-122 190.5701,-122 190.5701,-86 331.4299,-86 331.4299,-122"/>
<text text-anchor="middle" x="261" y="-99.8" font-family="Times,serif" font-size="14.00" fill="#000000">StarkMinimapModule</text>
</g>
<!-- StarkMinimapModule&#45;&gt;StarkTableModule -->
<g id="edge7" class="edge">
<title>StarkMinimapModule&#45;&gt;StarkTableModule</title>
<path fill="none" stroke="#000000" d="M322.1625,-122.2667C322.1625,-140.5552 322.1625,-166 322.1625,-166 322.1625,-166 667.0883,-166 667.0883,-166"/>
<polygon fill="#000000" stroke="#000000" points="667.0884,-169.5001 677.0883,-166 667.0883,-162.5001 667.0884,-169.5001"/>
</g>
<!-- StarkPaginationModule -->
<g id="node9" class="node">
<title>StarkPaginationModule</title>
<polygon fill="#8dd3c7" stroke="#000000" points="172.4818,-122 169.4818,-126 148.4818,-126 145.4818,-122 23.5182,-122 23.5182,-86 172.4818,-86 172.4818,-122"/>
<text text-anchor="middle" x="98" y="-99.8" font-family="Times,serif" font-size="14.00" fill="#000000">StarkPaginationModule</text>
</g>
<!-- StarkPaginationModule&#45;&gt;StarkTableModule -->
<g id="edge8" class="edge">
<title>StarkPaginationModule&#45;&gt;StarkTableModule</title>
<path fill="none" stroke="#000000" d="M98,-122.1289C98,-142.5724 98,-173 98,-173 98,-173 667.5021,-173 667.5021,-173"/>
<polygon fill="#000000" stroke="#000000" points="667.5022,-176.5001 677.5021,-173 667.5021,-169.5001 667.5022,-176.5001"/>
</g>
</g>
</svg>
