<?xml version="1.0" encoding="UTF-8" standalone="no"?>
<!DOCTYPE svg PUBLIC "-//W3C//DTD SVG 1.1//EN"
 "http://www.w3.org/Graphics/SVG/1.1/DTD/svg11.dtd">
<!-- Generated by graphviz version 2.47.0 (20210316.0004)
 -->
<!-- Title: dependencies Pages: 1 -->
<svg width="659pt" height="284pt"
 viewBox="0.00 0.00 659.00 284.00" xmlns="http://www.w3.org/2000/svg" xmlns:xlink="http://www.w3.org/1999/xlink">
<g id="graph0" class="graph" transform="scale(1 1) rotate(0) translate(4 280)">
<title>dependencies</title>
<polygon fill="white" stroke="transparent" points="-4,4 -4,-280 655,-280 655,4 -4,4"/>
<text text-anchor="start" x="304.51" y="-42.4" font-family="Times-12" font-weight="bold" font-size="14.00">Legend</text>
<polygon fill="#ffffb3" stroke="transparent" points="91.5,-10 91.5,-30 111.5,-30 111.5,-10 91.5,-10"/>
<text text-anchor="start" x="115.13" y="-15.4" font-family="Times-12" font-size="14.00"> &#160;Declarations</text>
<polygon fill="#8dd3c7" stroke="transparent" points="204.5,-10 204.5,-30 224.5,-30 224.5,-10 204.5,-10"/>
<text text-anchor="start" x="228.23" y="-15.4" font-family="Times-12" font-size="14.00"> &#160;Module</text>
<polygon fill="#80b1d3" stroke="transparent" points="290.5,-10 290.5,-30 310.5,-30 310.5,-10 290.5,-10"/>
<text text-anchor="start" x="314.28" y="-15.4" font-family="Times-12" font-size="14.00"> &#160;Bootstrap</text>
<polygon fill="#fdb462" stroke="transparent" points="387.5,-10 387.5,-30 407.5,-30 407.5,-10 387.5,-10"/>
<text text-anchor="start" x="411.17" y="-15.4" font-family="Times-12" font-size="14.00"> &#160;Providers</text>
<polygon fill="#fb8072" stroke="transparent" points="483.5,-10 483.5,-30 503.5,-30 503.5,-10 483.5,-10"/>
<text text-anchor="start" x="507.23" y="-15.4" font-family="Times-12" font-size="14.00"> &#160;Exports</text>
<g id="clust1" class="cluster">
<title>cluster_StarkDateTimePickerModule</title>
<polygon fill="none" stroke="black" stroke-dasharray="1,5" points="8,-70 8,-268 643,-268 643,-70 8,-70"/>
</g>
<g id="clust5" class="cluster">
<title>cluster_StarkDateTimePickerModule_exports</title>
<polygon fill="none" stroke="black" points="243,-208 243,-260 465,-260 465,-208 243,-208"/>
</g>
<g id="clust4" class="cluster">
<title>cluster_StarkDateTimePickerModule_imports</title>
<polygon fill="none" stroke="black" points="242,-78 242,-130 635,-130 635,-78 242,-78"/>
</g>
<g id="clust2" class="cluster">
<title>cluster_StarkDateTimePickerModule_declarations</title>
<polygon fill="none" stroke="black" points="16,-78 16,-130 234,-130 234,-78 16,-78"/>
</g>
<!-- StarkDateTimePickerComponent -->
<g id="node1" class="node">
<title>StarkDateTimePickerComponent</title>
<polygon fill="#ffffb3" stroke="black" points="226.12,-122 23.88,-122 23.88,-86 226.12,-86 226.12,-122"/>
<text text-anchor="middle" x="125" y="-99.8" font-family="Times,serif" font-size="14.00">StarkDateTimePickerComponent</text>
</g>
<!-- StarkDateTimePickerModule -->
<g id="node2" class="node">
<title>StarkDateTimePickerModule</title>
<polygon fill="#8dd3c7" stroke="black" points="444.34,-187 441.34,-191 420.34,-191 417.34,-187 263.66,-187 263.66,-151 444.34,-151 444.34,-187"/>
<text text-anchor="middle" x="354" y="-164.8" font-family="Times,serif" font-size="14.00">StarkDateTimePickerModule</text>
</g>
<!-- StarkDateTimePickerComponent&#45;&gt;StarkDateTimePickerModule -->
<g id="edge1" class="edge">
<title>StarkDateTimePickerComponent&#45;&gt;StarkDateTimePickerModule</title>
<path fill="none" stroke="black" d="M125,-122.11C125,-141.34 125,-169 125,-169 125,-169 253.49,-169 253.49,-169"/>
<polygon fill="black" stroke="black" points="253.49,-172.5 263.49,-169 253.49,-165.5 253.49,-172.5"/>
</g>
<!-- StarkDateTimePickerComponent  -->
<g id="node5" class="node">
<title>StarkDateTimePickerComponent </title>
<polygon fill="#fb8072" stroke="black" points="457.12,-252 250.88,-252 250.88,-216 457.12,-216 457.12,-252"/>
<text text-anchor="middle" x="354" y="-229.8" font-family="Times,serif" font-size="14.00">StarkDateTimePickerComponent </text>
</g>
<!-- StarkDateTimePickerModule&#45;&gt;StarkDateTimePickerComponent  -->
<g id="edge4" class="edge">
<title>StarkDateTimePickerModule&#45;&gt;StarkDateTimePickerComponent </title>
<path fill="none" stroke="black" stroke-dasharray="5,2" d="M354,-187.11C354,-187.11 354,-205.99 354,-205.99"/>
<polygon fill="black" stroke="black" points="350.5,-205.99 354,-215.99 357.5,-205.99 350.5,-205.99"/>
</g>
<!-- StarkDatePickerModule -->
<g id="node3" class="node">
<title>StarkDatePickerModule</title>
<polygon fill="#8dd3c7" stroke="black" points="626.79,-122 623.79,-126 602.79,-126 599.79,-122 475.21,-122 475.21,-86 626.79,-86 626.79,-122"/>
<text text-anchor="middle" x="551" y="-99.8" font-family="Times,serif" font-size="14.00">StarkDatePickerModule</text>
</g>
<!-- StarkDatePickerModule&#45;&gt;StarkDateTimePickerModule -->
<g id="edge2" class="edge">
<title>StarkDatePickerModule&#45;&gt;StarkDateTimePickerModule</title>
<path fill="none" stroke="black" d="M551,-122.11C551,-141.34 551,-169 551,-169 551,-169 454.43,-169 454.43,-169"/>
<polygon fill="black" stroke="black" points="454.43,-165.5 444.43,-169 454.43,-172.5 454.43,-165.5"/>
</g>
<!-- StarkInputMaskDirectivesModule -->
<g id="node4" class="node">
<title>StarkInputMaskDirectivesModule</title>
<polygon fill="#8dd3c7" stroke="black" points="457.78,-122 454.78,-126 433.78,-126 430.78,-122 250.22,-122 250.22,-86 457.78,-86 457.78,-122"/>
<text text-anchor="middle" x="354" y="-99.8" font-family="Times,serif" font-size="14.00">StarkInputMaskDirectivesModule</text>
</g>
<!-- StarkInputMaskDirectivesModule&#45;&gt;StarkDateTimePickerModule -->
<g id="edge3" class="edge">
<title>StarkInputMaskDirectivesModule&#45;&gt;StarkDateTimePickerModule</title>
<path fill="none" stroke="black" d="M354,-122.11C354,-122.11 354,-140.99 354,-140.99"/>
<polygon fill="black" stroke="black" points="350.5,-140.99 354,-150.99 357.5,-140.99 350.5,-140.99"/>
</g>
</g>
</svg>
