<?xml version="1.0" encoding="UTF-8" standalone="no"?>
<!DOCTYPE svg PUBLIC "-//W3C//DTD SVG 1.1//EN"
 "http://www.w3.org/Graphics/SVG/1.1/DTD/svg11.dtd">
<!-- Generated by graphviz version 2.40.1 (20161225.0304)
 -->
<!-- Title: dependencies Pages: 1 -->
<svg width="504pt" height="284pt"
 viewBox="0.00 0.00 504.00 284.00" xmlns="http://www.w3.org/2000/svg" xmlns:xlink="http://www.w3.org/1999/xlink">
<g id="graph0" class="graph" transform="scale(1 1) rotate(0) translate(4 280)">
<title>dependencies</title>
<polygon fill="#ffffff" stroke="transparent" points="-4,4 -4,-280 500,-280 500,4 -4,4"/>
<text text-anchor="start" x="227.0091" y="-42.4" font-family="sans-serif" font-weight="bold" font-size="14.00" fill="#000000">Legend</text>
<polygon fill="#ffffb3" stroke="transparent" points="14,-10 14,-30 34,-30 34,-10 14,-10"/>
<text text-anchor="start" x="37.629" y="-15.4" font-family="sans-serif" font-size="14.00" fill="#000000"> &#160;Declarations</text>
<polygon fill="#8dd3c7" stroke="transparent" points="127,-10 127,-30 147,-30 147,-10 127,-10"/>
<text text-anchor="start" x="150.7251" y="-15.4" font-family="sans-serif" font-size="14.00" fill="#000000"> &#160;Module</text>
<polygon fill="#80b1d3" stroke="transparent" points="213,-10 213,-30 233,-30 233,-10 213,-10"/>
<text text-anchor="start" x="236.7812" y="-15.4" font-family="sans-serif" font-size="14.00" fill="#000000"> &#160;Bootstrap</text>
<polygon fill="#fdb462" stroke="transparent" points="310,-10 310,-30 330,-30 330,-10 310,-10"/>
<text text-anchor="start" x="333.6732" y="-15.4" font-family="sans-serif" font-size="14.00" fill="#000000"> &#160;Providers</text>
<polygon fill="#fb8072" stroke="transparent" points="406,-10 406,-30 426,-30 426,-10 406,-10"/>
<text text-anchor="start" x="429.7258" y="-15.4" font-family="sans-serif" font-size="14.00" fill="#000000"> &#160;Exports</text>
<g id="clust1" class="cluster">
<title>cluster_StarkRBACAuthorizationModule</title>
<polygon fill="none" stroke="#000000" stroke-dasharray="1,5" points="13,-70 13,-268 483,-268 483,-70 13,-70"/>
</g>
<g id="clust2" class="cluster">
<title>cluster_StarkRBACAuthorizationModule_declarations</title>
<polygon fill="none" stroke="#000000" points="25,-78 25,-130 472,-130 472,-78 25,-78"/>
</g>
<g id="clust6" class="cluster">
<title>cluster_StarkRBACAuthorizationModule_exports</title>
<polygon fill="none" stroke="#000000" points="21,-208 21,-260 475,-260 475,-208 21,-208"/>
</g>
<!-- StarkHideOnPermissionDirective -->
<g id="node1" class="node">
<title>StarkHideOnPermissionDirective</title>
<polygon fill="#ffffb3" stroke="#000000" points="464.1685,-122 259.8315,-122 259.8315,-86 464.1685,-86 464.1685,-122"/>
<text text-anchor="middle" x="362" y="-99.8" font-family="Times,serif" font-size="14.00" fill="#000000">StarkHideOnPermissionDirective</text>
</g>
<!-- StarkRBACAuthorizationModule -->
<g id="node3" class="node">
<title>StarkRBACAuthorizationModule</title>
<polygon fill="#8dd3c7" stroke="#000000" points="240.4734,-187 237.4734,-191 216.4734,-191 213.4734,-187 35.5266,-187 35.5266,-151 240.4734,-151 240.4734,-187"/>
<text text-anchor="middle" x="138" y="-164.8" font-family="Times,serif" font-size="14.00" fill="#000000">StarkRBACAuthorizationModule</text>
</g>
<!-- StarkHideOnPermissionDirective&#45;&gt;StarkRBACAuthorizationModule -->
<g id="edge1" class="edge">
<title>StarkHideOnPermissionDirective&#45;&gt;StarkRBACAuthorizationModule</title>
<path fill="none" stroke="#000000" d="M396.0281,-122.0225C396.0281,-139.3734 396.0281,-163 396.0281,-163 396.0281,-163 250.7209,-163 250.7209,-163"/>
<polygon fill="#000000" stroke="#000000" points="250.721,-159.5001 240.7209,-163 250.7209,-166.5001 250.721,-159.5001"/>
</g>
<!-- StarkShowOnPermissionDirective -->
<g id="node2" class="node">
<title>StarkShowOnPermissionDirective</title>
<polygon fill="#ffffb3" stroke="#000000" points="241.3459,-122 32.6541,-122 32.6541,-86 241.3459,-86 241.3459,-122"/>
<text text-anchor="middle" x="137" y="-99.8" font-family="Times,serif" font-size="14.00" fill="#000000">StarkShowOnPermissionDirective</text>
</g>
<!-- StarkShowOnPermissionDirective&#45;&gt;StarkRBACAuthorizationModule -->
<g id="edge2" class="edge">
<title>StarkShowOnPermissionDirective&#45;&gt;StarkRBACAuthorizationModule</title>
<path fill="none" stroke="#000000" d="M138,-122.1061C138,-122.1061 138,-140.991 138,-140.991"/>
<polygon fill="#000000" stroke="#000000" points="134.5001,-140.9909 138,-150.991 141.5001,-140.991 134.5001,-140.9909"/>
</g>
<!-- StarkHideOnPermissionDirective  -->
<g id="node4" class="node">
<title>StarkHideOnPermissionDirective </title>
<polygon fill="#fb8072" stroke="#000000" points="466.6687,-252 259.3313,-252 259.3313,-216 466.6687,-216 466.6687,-252"/>
<text text-anchor="middle" x="363" y="-229.8" font-family="Times,serif" font-size="14.00" fill="#000000">StarkHideOnPermissionDirective </text>
</g>
<!-- StarkRBACAuthorizationModule&#45;&gt;StarkHideOnPermissionDirective  -->
<g id="edge3" class="edge">
<title>StarkRBACAuthorizationModule&#45;&gt;StarkHideOnPermissionDirective </title>
<path fill="none" stroke="#000000" stroke-dasharray="5,2" d="M240.4925,-175C285.3559,-175 327.9719,-175 327.9719,-175 327.9719,-175 327.9719,-205.9775 327.9719,-205.9775"/>
<polygon fill="#000000" stroke="#000000" points="324.472,-205.9774 327.9719,-215.9775 331.472,-205.9775 324.472,-205.9774"/>
</g>
<!-- StarkShowOnPermissionDirective  -->
<g id="node5" class="node">
<title>StarkShowOnPermissionDirective </title>
<polygon fill="#fb8072" stroke="#000000" points="241.3461,-252 28.6539,-252 28.6539,-216 241.3461,-216 241.3461,-252"/>
<text text-anchor="middle" x="135" y="-229.8" font-family="Times,serif" font-size="14.00" fill="#000000">StarkShowOnPermissionDirective </text>
</g>
<!-- StarkRBACAuthorizationModule&#45;&gt;StarkShowOnPermissionDirective  -->
<g id="edge4" class="edge">
<title>StarkRBACAuthorizationModule&#45;&gt;StarkShowOnPermissionDirective </title>
<path fill="none" stroke="#000000" stroke-dasharray="5,2" d="M138,-187.1061C138,-187.1061 138,-205.991 138,-205.991"/>
<polygon fill="#000000" stroke="#000000" points="134.5001,-205.9909 138,-215.991 141.5001,-205.991 134.5001,-205.9909"/>
</g>
</g>
</svg>
