<?xml version="1.0" encoding="UTF-8" standalone="no"?>
<!DOCTYPE svg PUBLIC "-//W3C//DTD SVG 1.1//EN"
 "http://www.w3.org/Graphics/SVG/1.1/DTD/svg11.dtd">
<!-- Generated by graphviz version 2.40.1 (20161225.0304)
 -->
<!-- Title: dependencies Pages: 1 -->
<svg width="631pt" height="284pt"
 viewBox="0.00 0.00 631.00 284.00" xmlns="http://www.w3.org/2000/svg" xmlns:xlink="http://www.w3.org/1999/xlink">
<g id="graph0" class="graph" transform="scale(1 1) rotate(0) translate(4 280)">
<title>dependencies</title>
<polygon fill="#ffffff" stroke="transparent" points="-4,4 -4,-280 627,-280 627,4 -4,4"/>
<text text-anchor="start" x="290.5091" y="-42.4" font-family="sans-serif" font-weight="bold" font-size="14.00" fill="#000000">Legend</text>
<polygon fill="#ffffb3" stroke="transparent" points="77.5,-10 77.5,-30 97.5,-30 97.5,-10 77.5,-10"/>
<text text-anchor="start" x="101.129" y="-15.4" font-family="sans-serif" font-size="14.00" fill="#000000"> &#160;Declarations</text>
<polygon fill="#8dd3c7" stroke="transparent" points="190.5,-10 190.5,-30 210.5,-30 210.5,-10 190.5,-10"/>
<text text-anchor="start" x="214.2251" y="-15.4" font-family="sans-serif" font-size="14.00" fill="#000000"> &#160;Module</text>
<polygon fill="#80b1d3" stroke="transparent" points="276.5,-10 276.5,-30 296.5,-30 296.5,-10 276.5,-10"/>
<text text-anchor="start" x="300.2812" y="-15.4" font-family="sans-serif" font-size="14.00" fill="#000000"> &#160;Bootstrap</text>
<polygon fill="#fdb462" stroke="transparent" points="373.5,-10 373.5,-30 393.5,-30 393.5,-10 373.5,-10"/>
<text text-anchor="start" x="397.1732" y="-15.4" font-family="sans-serif" font-size="14.00" fill="#000000"> &#160;Providers</text>
<polygon fill="#fb8072" stroke="transparent" points="469.5,-10 469.5,-30 489.5,-30 489.5,-10 469.5,-10"/>
<text text-anchor="start" x="493.2258" y="-15.4" font-family="sans-serif" font-size="14.00" fill="#000000"> &#160;Exports</text>
<g id="clust1" class="cluster">
<title>cluster_StarkPaginationModule</title>
<polygon fill="none" stroke="#000000" stroke-dasharray="1,5" points="8,-70 8,-268 615,-268 615,-70 8,-70"/>
</g>
<g id="clust2" class="cluster">
<title>cluster_StarkPaginationModule_declarations</title>
<polygon fill="none" stroke="#000000" points="421,-78 421,-130 607,-130 607,-78 421,-78"/>
</g>
<g id="clust4" class="cluster">
<title>cluster_StarkPaginationModule_imports</title>
<polygon fill="none" stroke="#000000" points="16,-78 16,-130 413,-130 413,-78 16,-78"/>
</g>
<g id="clust5" class="cluster">
<title>cluster_StarkPaginationModule_exports</title>
<polygon fill="none" stroke="#000000" points="236,-208 236,-260 426,-260 426,-208 236,-208"/>
</g>
<!-- StarkPaginationComponent -->
<g id="node1" class="node">
<title>StarkPaginationComponent</title>
<polygon fill="#ffffb3" stroke="#000000" points="599.2646,-122 428.7354,-122 428.7354,-86 599.2646,-86 599.2646,-122"/>
<text text-anchor="middle" x="514" y="-99.8" font-family="Times,serif" font-size="14.00" fill="#000000">StarkPaginationComponent</text>
</g>
<!-- StarkPaginationModule -->
<g id="node2" class="node">
<title>StarkPaginationModule</title>
<polygon fill="#8dd3c7" stroke="#000000" points="405.4818,-187 402.4818,-191 381.4818,-191 378.4818,-187 256.5182,-187 256.5182,-151 405.4818,-151 405.4818,-187"/>
<text text-anchor="middle" x="331" y="-164.8" font-family="Times,serif" font-size="14.00" fill="#000000">StarkPaginationModule</text>
</g>
<!-- StarkPaginationComponent&#45;&gt;StarkPaginationModule -->
<g id="edge1" class="edge">
<title>StarkPaginationComponent&#45;&gt;StarkPaginationModule</title>
<path fill="none" stroke="#000000" d="M514,-122.1061C514,-141.3391 514,-169 514,-169 514,-169 415.697,-169 415.697,-169"/>
<polygon fill="#000000" stroke="#000000" points="415.6971,-165.5001 405.697,-169 415.697,-172.5001 415.6971,-165.5001"/>
</g>
<!-- StarkPaginationComponent  -->
<g id="node5" class="node">
<title>StarkPaginationComponent </title>
<polygon fill="#fb8072" stroke="#000000" points="418.2646,-252 243.7354,-252 243.7354,-216 418.2646,-216 418.2646,-252"/>
<text text-anchor="middle" x="331" y="-229.8" font-family="Times,serif" font-size="14.00" fill="#000000">StarkPaginationComponent </text>
</g>
<!-- StarkPaginationModule&#45;&gt;StarkPaginationComponent  -->
<g id="edge4" class="edge">
<title>StarkPaginationModule&#45;&gt;StarkPaginationComponent </title>
<path fill="none" stroke="#000000" stroke-dasharray="5,2" d="M331,-187.1061C331,-187.1061 331,-205.991 331,-205.991"/>
<polygon fill="#000000" stroke="#000000" points="327.5001,-205.9909 331,-215.991 334.5001,-205.991 327.5001,-205.9909"/>
</g>
<!-- StarkDropdownModule -->
<g id="node3" class="node">
<title>StarkDropdownModule</title>
<polygon fill="#8dd3c7" stroke="#000000" points="405.472,-122 402.472,-126 381.472,-126 378.472,-122 256.528,-122 256.528,-86 405.472,-86 405.472,-122"/>
<text text-anchor="middle" x="331" y="-99.8" font-family="Times,serif" font-size="14.00" fill="#000000">StarkDropdownModule</text>
</g>
<!-- StarkDropdownModule&#45;&gt;StarkPaginationModule -->
<g id="edge2" class="edge">
<title>StarkDropdownModule&#45;&gt;StarkPaginationModule</title>
<path fill="none" stroke="#000000" d="M331,-122.1061C331,-122.1061 331,-140.991 331,-140.991"/>
<polygon fill="#000000" stroke="#000000" points="327.5001,-140.9909 331,-150.991 334.5001,-140.991 327.5001,-140.9909"/>
</g>
<!-- StarkRestrictInputDirectiveModule -->
<g id="node4" class="node">
<title>StarkRestrictInputDirectiveModule</title>
<polygon fill="#8dd3c7" stroke="#000000" points="238.2752,-122 235.2752,-126 214.2752,-126 211.2752,-122 23.7248,-122 23.7248,-86 238.2752,-86 238.2752,-122"/>
<text text-anchor="middle" x="131" y="-99.8" font-family="Times,serif" font-size="14.00" fill="#000000">StarkRestrictInputDirectiveModule</text>
</g>
<!-- StarkRestrictInputDirectiveModule&#45;&gt;StarkPaginationModule -->
<g id="edge3" class="edge">
<title>StarkRestrictInputDirectiveModule&#45;&gt;StarkPaginationModule</title>
<path fill="none" stroke="#000000" d="M131,-122.1061C131,-141.3391 131,-169 131,-169 131,-169 246.243,-169 246.243,-169"/>
<polygon fill="#000000" stroke="#000000" points="246.243,-172.5001 256.243,-169 246.2429,-165.5001 246.243,-172.5001"/>
</g>
</g>
</svg>
