<?xml version="1.0" encoding="UTF-8" standalone="no"?>
<!DOCTYPE svg PUBLIC "-//W3C//DTD SVG 1.1//EN"
 "http://www.w3.org/Graphics/SVG/1.1/DTD/svg11.dtd">
<!-- Generated by graphviz version 2.40.1 (20161225.0304)
 -->
<!-- Title: dependencies Pages: 1 -->
<svg width="504pt" height="284pt"
 viewBox="0.00 0.00 504.00 284.00" xmlns="http://www.w3.org/2000/svg" xmlns:xlink="http://www.w3.org/1999/xlink">
<g id="graph0" class="graph" transform="scale(1 1) rotate(0) translate(4 280)">
<title>dependencies</title>
<polygon fill="#ffffff" stroke="transparent" points="-4,4 -4,-280 500,-280 500,4 -4,4"/>
<text text-anchor="start" x="227.0091" y="-42.4" font-family="sans-serif" font-weight="bold" font-size="14.00" fill="#000000">Legend</text>
<polygon fill="#ffffb3" stroke="transparent" points="14,-10 14,-30 34,-30 34,-10 14,-10"/>
<text text-anchor="start" x="37.629" y="-15.4" font-family="sans-serif" font-size="14.00" fill="#000000"> &#160;Declarations</text>
<polygon fill="#8dd3c7" stroke="transparent" points="127,-10 127,-30 147,-30 147,-10 127,-10"/>
<text text-anchor="start" x="150.7251" y="-15.4" font-family="sans-serif" font-size="14.00" fill="#000000"> &#160;Module</text>
<polygon fill="#80b1d3" stroke="transparent" points="213,-10 213,-30 233,-30 233,-10 213,-10"/>
<text text-anchor="start" x="236.7812" y="-15.4" font-family="sans-serif" font-size="14.00" fill="#000000"> &#160;Bootstrap</text>
<polygon fill="#fdb462" stroke="transparent" points="310,-10 310,-30 330,-30 330,-10 310,-10"/>
<text text-anchor="start" x="333.6732" y="-15.4" font-family="sans-serif" font-size="14.00" fill="#000000"> &#160;Providers</text>
<polygon fill="#fb8072" stroke="transparent" points="406,-10 406,-30 426,-30 426,-10 406,-10"/>
<text text-anchor="start" x="429.7258" y="-15.4" font-family="sans-serif" font-size="14.00" fill="#000000"> &#160;Exports</text>
<g id="clust1" class="cluster">
<title>cluster_StarkMinimapModule</title>
<polygon fill="none" stroke="#000000" stroke-dasharray="1,5" points="57,-70 57,-268 439,-268 439,-70 57,-70"/>
</g>
<g id="clust2" class="cluster">
<title>cluster_StarkMinimapModule_declarations</title>
<polygon fill="none" stroke="#000000" points="253,-78 253,-130 431,-130 431,-78 253,-78"/>
</g>
<g id="clust4" class="cluster">
<title>cluster_StarkMinimapModule_imports</title>
<polygon fill="none" stroke="#000000" points="65,-78 65,-130 245,-130 245,-78 65,-78"/>
</g>
<g id="clust5" class="cluster">
<title>cluster_StarkMinimapModule_exports</title>
<polygon fill="none" stroke="#000000" points="157,-208 157,-260 339,-260 339,-208 157,-208"/>
</g>
<!-- StarkMinimapComponent -->
<g id="node1" class="node">
<title>StarkMinimapComponent</title>
<polygon fill="#ffffb3" stroke="#000000" points="423.2119,-122 260.7881,-122 260.7881,-86 423.2119,-86 423.2119,-122"/>
<text text-anchor="middle" x="342" y="-99.8" font-family="Times,serif" font-size="14.00" fill="#000000">StarkMinimapComponent</text>
</g>
<!-- StarkMinimapModule -->
<g id="node2" class="node">
<title>StarkMinimapModule</title>
<polygon fill="#8dd3c7" stroke="#000000" points="318.4299,-187 315.4299,-191 294.4299,-191 291.4299,-187 177.5701,-187 177.5701,-151 318.4299,-151 318.4299,-187"/>
<text text-anchor="middle" x="248" y="-164.8" font-family="Times,serif" font-size="14.00" fill="#000000">StarkMinimapModule</text>
</g>
<!-- StarkMinimapComponent&#45;&gt;StarkMinimapModule -->
<g id="edge1" class="edge">
<title>StarkMinimapComponent&#45;&gt;StarkMinimapModule</title>
<path fill="none" stroke="#000000" d="M289.5544,-122.1061C289.5544,-122.1061 289.5544,-140.991 289.5544,-140.991"/>
<polygon fill="#000000" stroke="#000000" points="286.0544,-140.9909 289.5544,-150.991 293.0544,-140.991 286.0544,-140.9909"/>
</g>
<!-- StarkMinimapComponent  -->
<g id="node4" class="node">
<title>StarkMinimapComponent </title>
<polygon fill="#fb8072" stroke="#000000" points="330.7121,-252 165.2879,-252 165.2879,-216 330.7121,-216 330.7121,-252"/>
<text text-anchor="middle" x="248" y="-229.8" font-family="Times,serif" font-size="14.00" fill="#000000">StarkMinimapComponent </text>
</g>
<!-- StarkMinimapModule&#45;&gt;StarkMinimapComponent  -->
<g id="edge3" class="edge">
<title>StarkMinimapModule&#45;&gt;StarkMinimapComponent </title>
<path fill="none" stroke="#000000" stroke-dasharray="5,2" d="M248,-187.1061C248,-187.1061 248,-205.991 248,-205.991"/>
<polygon fill="#000000" stroke="#000000" points="244.5001,-205.9909 248,-215.991 251.5001,-205.991 244.5001,-205.9909"/>
</g>
<!-- StarkSvgViewBoxModule -->
<g id="node3" class="node">
<title>StarkSvgViewBoxModule</title>
<polygon fill="#8dd3c7" stroke="#000000" points="237.0365,-122 234.0365,-126 213.0365,-126 210.0365,-122 72.9635,-122 72.9635,-86 237.0365,-86 237.0365,-122"/>
<text text-anchor="middle" x="155" y="-99.8" font-family="Times,serif" font-size="14.00" fill="#000000">StarkSvgViewBoxModule</text>
</g>
<!-- StarkSvgViewBoxModule&#45;&gt;StarkMinimapModule -->
<g id="edge2" class="edge">
<title>StarkSvgViewBoxModule&#45;&gt;StarkMinimapModule</title>
<path fill="none" stroke="#000000" d="M207.5267,-122.1061C207.5267,-122.1061 207.5267,-140.991 207.5267,-140.991"/>
<polygon fill="#000000" stroke="#000000" points="204.0267,-140.9909 207.5267,-150.991 211.0267,-140.991 204.0267,-140.9909"/>
</g>
</g>
</svg>
