<?xml version="1.0" encoding="UTF-8" standalone="no"?>
<!DOCTYPE svg PUBLIC "-//W3C//DTD SVG 1.1//EN"
 "http://www.w3.org/Graphics/SVG/1.1/DTD/svg11.dtd">
<!-- Generated by graphviz version 2.47.0 (20210316.0004)
 -->
<!-- Title: dependencies Pages: 1 -->
<svg width="504pt" height="284pt"
 viewBox="0.00 0.00 504.00 284.00" xmlns="http://www.w3.org/2000/svg" xmlns:xlink="http://www.w3.org/1999/xlink">
<g id="graph0" class="graph" transform="scale(1 1) rotate(0) translate(4 280)">
<title>dependencies</title>
<polygon fill="white" stroke="transparent" points="-4,4 -4,-280 500,-280 500,4 -4,4"/>
<text text-anchor="start" x="227.01" y="-42.4" font-family="Times-12" font-weight="bold" font-size="14.00">Legend</text>
<polygon fill="#ffffb3" stroke="transparent" points="14,-10 14,-30 34,-30 34,-10 14,-10"/>
<text text-anchor="start" x="37.63" y="-15.4" font-family="Times-12" font-size="14.00"> &#160;Declarations</text>
<polygon fill="#8dd3c7" stroke="transparent" points="127,-10 127,-30 147,-30 147,-10 127,-10"/>
<text text-anchor="start" x="150.73" y="-15.4" font-family="Times-12" font-size="14.00"> &#160;Module</text>
<polygon fill="#80b1d3" stroke="transparent" points="213,-10 213,-30 233,-30 233,-10 213,-10"/>
<text text-anchor="start" x="236.78" y="-15.4" font-family="Times-12" font-size="14.00"> &#160;Bootstrap</text>
<polygon fill="#fdb462" stroke="transparent" points="310,-10 310,-30 330,-30 330,-10 310,-10"/>
<text text-anchor="start" x="333.67" y="-15.4" font-family="Times-12" font-size="14.00"> &#160;Providers</text>
<polygon fill="#fb8072" stroke="transparent" points="406,-10 406,-30 426,-30 426,-10 406,-10"/>
<text text-anchor="start" x="429.73" y="-15.4" font-family="Times-12" font-size="14.00"> &#160;Exports</text>
<g id="clust1" class="cluster">
<title>cluster_StarkRBACAuthorizationModule</title>
<polygon fill="none" stroke="black" stroke-dasharray="1,5" points="13,-70 13,-268 483,-268 483,-70 13,-70"/>
</g>
<g id="clust6" class="cluster">
<title>cluster_StarkRBACAuthorizationModule_exports</title>
<polygon fill="none" stroke="black" points="21,-208 21,-260 475,-260 475,-208 21,-208"/>
</g>
<g id="clust2" class="cluster">
<title>cluster_StarkRBACAuthorizationModule_declarations</title>
<polygon fill="none" stroke="black" points="25,-78 25,-130 472,-130 472,-78 25,-78"/>
</g>
<!-- StarkHideOnPermissionDirective -->
<g id="node1" class="node">
<title>StarkHideOnPermissionDirective</title>
<polygon fill="#ffffb3" stroke="black" points="464.17,-122 259.83,-122 259.83,-86 464.17,-86 464.17,-122"/>
<text text-anchor="middle" x="362" y="-99.8" font-family="Times,serif" font-size="14.00">StarkHideOnPermissionDirective</text>
</g>
<!-- StarkRBACAuthorizationModule -->
<g id="node3" class="node">
<title>StarkRBACAuthorizationModule</title>
<polygon fill="#8dd3c7" stroke="black" points="240.47,-187 237.47,-191 216.47,-191 213.47,-187 35.53,-187 35.53,-151 240.47,-151 240.47,-187"/>
<text text-anchor="middle" x="138" y="-164.8" font-family="Times,serif" font-size="14.00">StarkRBACAuthorizationModule</text>
</g>
<!-- StarkHideOnPermissionDirective&#45;&gt;StarkRBACAuthorizationModule -->
<g id="edge1" class="edge">
<title>StarkHideOnPermissionDirective&#45;&gt;StarkRBACAuthorizationModule</title>
<path fill="none" stroke="black" d="M396.03,-122.02C396.03,-139.37 396.03,-163 396.03,-163 396.03,-163 250.72,-163 250.72,-163"/>
<polygon fill="black" stroke="black" points="250.72,-159.5 240.72,-163 250.72,-166.5 250.72,-159.5"/>
</g>
<!-- StarkShowOnPermissionDirective -->
<g id="node2" class="node">
<title>StarkShowOnPermissionDirective</title>
<polygon fill="#ffffb3" stroke="black" points="241.35,-122 32.65,-122 32.65,-86 241.35,-86 241.35,-122"/>
<text text-anchor="middle" x="137" y="-99.8" font-family="Times,serif" font-size="14.00">StarkShowOnPermissionDirective</text>
</g>
<!-- StarkShowOnPermissionDirective&#45;&gt;StarkRBACAuthorizationModule -->
<g id="edge2" class="edge">
<title>StarkShowOnPermissionDirective&#45;&gt;StarkRBACAuthorizationModule</title>
<path fill="none" stroke="black" d="M138,-122.11C138,-122.11 138,-140.99 138,-140.99"/>
<polygon fill="black" stroke="black" points="134.5,-140.99 138,-150.99 141.5,-140.99 134.5,-140.99"/>
</g>
<!-- StarkHideOnPermissionDirective  -->
<g id="node4" class="node">
<title>StarkHideOnPermissionDirective </title>
<polygon fill="#fb8072" stroke="black" points="466.67,-252 259.33,-252 259.33,-216 466.67,-216 466.67,-252"/>
<text text-anchor="middle" x="363" y="-229.8" font-family="Times,serif" font-size="14.00">StarkHideOnPermissionDirective </text>
</g>
<!-- StarkRBACAuthorizationModule&#45;&gt;StarkHideOnPermissionDirective  -->
<g id="edge3" class="edge">
<title>StarkRBACAuthorizationModule&#45;&gt;StarkHideOnPermissionDirective </title>
<path fill="none" stroke="black" stroke-dasharray="5,2" d="M240.49,-175C285.36,-175 327.97,-175 327.97,-175 327.97,-175 327.97,-205.98 327.97,-205.98"/>
<polygon fill="black" stroke="black" points="324.47,-205.98 327.97,-215.98 331.47,-205.98 324.47,-205.98"/>
</g>
<!-- StarkShowOnPermissionDirective  -->
<g id="node5" class="node">
<title>StarkShowOnPermissionDirective </title>
<polygon fill="#fb8072" stroke="black" points="241.35,-252 28.65,-252 28.65,-216 241.35,-216 241.35,-252"/>
<text text-anchor="middle" x="135" y="-229.8" font-family="Times,serif" font-size="14.00">StarkShowOnPermissionDirective </text>
</g>
<!-- StarkRBACAuthorizationModule&#45;&gt;StarkShowOnPermissionDirective  -->
<g id="edge4" class="edge">
<title>StarkRBACAuthorizationModule&#45;&gt;StarkShowOnPermissionDirective </title>
<path fill="none" stroke="black" stroke-dasharray="5,2" d="M138,-187.11C138,-187.11 138,-205.99 138,-205.99"/>
<polygon fill="black" stroke="black" points="134.5,-205.99 138,-215.99 141.5,-205.99 134.5,-205.99"/>
</g>
</g>
</svg>
