<?xml version="1.0" encoding="UTF-8" standalone="no"?>
<!DOCTYPE svg PUBLIC "-//W3C//DTD SVG 1.1//EN"
 "http://www.w3.org/Graphics/SVG/1.1/DTD/svg11.dtd">
<!-- Generated by graphviz version 2.47.0 (20210316.0004)
 -->
<!-- Title: dependencies Pages: 1 -->
<svg width="504pt" height="284pt"
 viewBox="0.00 0.00 504.00 284.00" xmlns="http://www.w3.org/2000/svg" xmlns:xlink="http://www.w3.org/1999/xlink">
<g id="graph0" class="graph" transform="scale(1 1) rotate(0) translate(4 280)">
<title>dependencies</title>
<polygon fill="white" stroke="transparent" points="-4,4 -4,-280 500,-280 500,4 -4,4"/>
<text text-anchor="start" x="227.01" y="-42.4" font-family="Times-12" font-weight="bold" font-size="14.00">Legend</text>
<polygon fill="#ffffb3" stroke="transparent" points="14,-10 14,-30 34,-30 34,-10 14,-10"/>
<text text-anchor="start" x="37.63" y="-15.4" font-family="Times-12" font-size="14.00"> &#160;Declarations</text>
<polygon fill="#8dd3c7" stroke="transparent" points="127,-10 127,-30 147,-30 147,-10 127,-10"/>
<text text-anchor="start" x="150.73" y="-15.4" font-family="Times-12" font-size="14.00"> &#160;Module</text>
<polygon fill="#80b1d3" stroke="transparent" points="213,-10 213,-30 233,-30 233,-10 213,-10"/>
<text text-anchor="start" x="236.78" y="-15.4" font-family="Times-12" font-size="14.00"> &#160;Bootstrap</text>
<polygon fill="#fdb462" stroke="transparent" points="310,-10 310,-30 330,-30 330,-10 310,-10"/>
<text text-anchor="start" x="333.67" y="-15.4" font-family="Times-12" font-size="14.00"> &#160;Providers</text>
<polygon fill="#fb8072" stroke="transparent" points="406,-10 406,-30 426,-30 426,-10 406,-10"/>
<text text-anchor="start" x="429.73" y="-15.4" font-family="Times-12" font-size="14.00"> &#160;Exports</text>
<g id="clust1" class="cluster">
<title>cluster_StarkDatePickerModule</title>
<polygon fill="none" stroke="black" stroke-dasharray="1,5" points="29,-70 29,-268 467,-268 467,-70 29,-70"/>
</g>
<g id="clust4" class="cluster">
<title>cluster_StarkDatePickerModule_imports</title>
<polygon fill="none" stroke="black" points="235,-78 235,-130 459,-130 459,-78 235,-78"/>
</g>
<g id="clust2" class="cluster">
<title>cluster_StarkDatePickerModule_declarations</title>
<polygon fill="none" stroke="black" points="37,-78 37,-130 227,-130 227,-78 37,-78"/>
</g>
<g id="clust5" class="cluster">
<title>cluster_StarkDatePickerModule_exports</title>
<polygon fill="none" stroke="black" points="144,-208 144,-260 336,-260 336,-208 144,-208"/>
</g>
<!-- StarkDatePickerComponent -->
<g id="node1" class="node">
<title>StarkDatePickerComponent</title>
<polygon fill="#ffffb3" stroke="black" points="218.57,-122 45.43,-122 45.43,-86 218.57,-86 218.57,-122"/>
<text text-anchor="middle" x="132" y="-99.8" font-family="Times,serif" font-size="14.00">StarkDatePickerComponent</text>
</g>
<!-- StarkDatePickerModule -->
<g id="node2" class="node">
<title>StarkDatePickerModule</title>
<polygon fill="#8dd3c7" stroke="black" points="315.79,-187 312.79,-191 291.79,-191 288.79,-187 164.21,-187 164.21,-151 315.79,-151 315.79,-187"/>
<text text-anchor="middle" x="240" y="-164.8" font-family="Times,serif" font-size="14.00">StarkDatePickerModule</text>
</g>
<!-- StarkDatePickerComponent&#45;&gt;StarkDatePickerModule -->
<g id="edge1" class="edge">
<title>StarkDatePickerComponent&#45;&gt;StarkDatePickerModule</title>
<path fill="none" stroke="black" d="M191.45,-122.11C191.45,-122.11 191.45,-140.99 191.45,-140.99"/>
<polygon fill="black" stroke="black" points="187.95,-140.99 191.45,-150.99 194.95,-140.99 187.95,-140.99"/>
</g>
<!-- StarkDatePickerComponent  -->
<g id="node4" class="node">
<title>StarkDatePickerComponent </title>
<polygon fill="#fb8072" stroke="black" points="328.07,-252 151.93,-252 151.93,-216 328.07,-216 328.07,-252"/>
<text text-anchor="middle" x="240" y="-229.8" font-family="Times,serif" font-size="14.00">StarkDatePickerComponent </text>
</g>
<!-- StarkDatePickerModule&#45;&gt;StarkDatePickerComponent  -->
<g id="edge3" class="edge">
<title>StarkDatePickerModule&#45;&gt;StarkDatePickerComponent </title>
<path fill="none" stroke="black" stroke-dasharray="5,2" d="M240,-187.11C240,-187.11 240,-205.99 240,-205.99"/>
<polygon fill="black" stroke="black" points="236.5,-205.99 240,-215.99 243.5,-205.99 236.5,-205.99"/>
</g>
<!-- StarkInputMaskDirectivesModule -->
<g id="node3" class="node">
<title>StarkInputMaskDirectivesModule</title>
<polygon fill="#8dd3c7" stroke="black" points="450.78,-122 447.78,-126 426.78,-126 423.78,-122 243.22,-122 243.22,-86 450.78,-86 450.78,-122"/>
<text text-anchor="middle" x="347" y="-99.8" font-family="Times,serif" font-size="14.00">StarkInputMaskDirectivesModule</text>
</g>
<!-- StarkInputMaskDirectivesModule&#45;&gt;StarkDatePickerModule -->
<g id="edge2" class="edge">
<title>StarkInputMaskDirectivesModule&#45;&gt;StarkDatePickerModule</title>
<path fill="none" stroke="black" d="M279.5,-122.11C279.5,-122.11 279.5,-140.99 279.5,-140.99"/>
<polygon fill="black" stroke="black" points="276,-140.99 279.5,-150.99 283,-140.99 276,-140.99"/>
</g>
</g>
</svg>
