<?xml version="1.0" encoding="UTF-8" standalone="no"?>
<!DOCTYPE svg PUBLIC "-//W3C//DTD SVG 1.1//EN"
 "http://www.w3.org/Graphics/SVG/1.1/DTD/svg11.dtd">
<!-- Generated by graphviz version 2.46.0 (20210119.1425)
 -->
<!-- Title: dependencies Pages: 1 -->
<svg width="504pt" height="284pt"
 viewBox="0.00 0.00 504.00 284.00" xmlns="http://www.w3.org/2000/svg" xmlns:xlink="http://www.w3.org/1999/xlink">
<g id="graph0" class="graph" transform="scale(1 1) rotate(0) translate(4 280)">
<title>dependencies</title>
<polygon fill="white" stroke="transparent" points="-4,4 -4,-280 500,-280 500,4 -4,4"/>
<text text-anchor="start" x="227.01" y="-42.4" font-family="sans-serif" font-weight="bold" font-size="14.00">Legend</text>
<polygon fill="#ffffb3" stroke="transparent" points="14,-10 14,-30 34,-30 34,-10 14,-10"/>
<text text-anchor="start" x="37.63" y="-15.4" font-family="sans-serif" font-size="14.00"> &#160;Declarations</text>
<polygon fill="#8dd3c7" stroke="transparent" points="127,-10 127,-30 147,-30 147,-10 127,-10"/>
<text text-anchor="start" x="150.73" y="-15.4" font-family="sans-serif" font-size="14.00"> &#160;Module</text>
<polygon fill="#80b1d3" stroke="transparent" points="213,-10 213,-30 233,-30 233,-10 213,-10"/>
<text text-anchor="start" x="236.78" y="-15.4" font-family="sans-serif" font-size="14.00"> &#160;Bootstrap</text>
<polygon fill="#fdb462" stroke="transparent" points="310,-10 310,-30 330,-30 330,-10 310,-10"/>
<text text-anchor="start" x="333.67" y="-15.4" font-family="sans-serif" font-size="14.00"> &#160;Providers</text>
<polygon fill="#fb8072" stroke="transparent" points="406,-10 406,-30 426,-30 426,-10 406,-10"/>
<text text-anchor="start" x="429.73" y="-15.4" font-family="sans-serif" font-size="14.00"> &#160;Exports</text>
<g id="clust1" class="cluster">
<title>cluster_StarkAppFooterModule</title>
<polygon fill="none" stroke="black" stroke-dasharray="1,5" points="144,-70 144,-268 352,-268 352,-70 144,-70"/>
</g>
<g id="clust2" class="cluster">
<title>cluster_StarkAppFooterModule_declarations</title>
<polygon fill="none" stroke="black" points="154,-78 154,-130 342,-130 342,-78 154,-78"/>
</g>
<g id="clust5" class="cluster">
<title>cluster_StarkAppFooterModule_exports</title>
<polygon fill="none" stroke="black" points="152,-208 152,-260 344,-260 344,-208 152,-208"/>
</g>
<!-- StarkAppFooterComponent -->
<g id="node1" class="node">
<title>StarkAppFooterComponent</title>
<polygon fill="#ffffb3" stroke="black" points="333.54,-122 162.46,-122 162.46,-86 333.54,-86 333.54,-122"/>
<text text-anchor="middle" x="248" y="-99.8" font-family="Times,serif" font-size="14.00">StarkAppFooterComponent</text>
</g>
<!-- StarkAppFooterModule -->
<g id="node2" class="node">
<title>StarkAppFooterModule</title>
<polygon fill="#8dd3c7" stroke="black" points="322.75,-187 319.75,-191 298.75,-191 295.75,-187 173.25,-187 173.25,-151 322.75,-151 322.75,-187"/>
<text text-anchor="middle" x="248" y="-164.8" font-family="Times,serif" font-size="14.00">StarkAppFooterModule</text>
</g>
<!-- StarkAppFooterComponent&#45;&gt;StarkAppFooterModule -->
<g id="edge1" class="edge">
<title>StarkAppFooterComponent&#45;&gt;StarkAppFooterModule</title>
<path fill="none" stroke="black" d="M248,-122.11C248,-122.11 248,-140.99 248,-140.99"/>
<polygon fill="black" stroke="black" points="244.5,-140.99 248,-150.99 251.5,-140.99 244.5,-140.99"/>
</g>
<!-- StarkAppFooterComponent  -->
<g id="node3" class="node">
<title>StarkAppFooterComponent </title>
<polygon fill="#fb8072" stroke="black" points="335.54,-252 160.46,-252 160.46,-216 335.54,-216 335.54,-252"/>
<text text-anchor="middle" x="248" y="-229.8" font-family="Times,serif" font-size="14.00">StarkAppFooterComponent </text>
</g>
<!-- StarkAppFooterModule&#45;&gt;StarkAppFooterComponent  -->
<g id="edge2" class="edge">
<title>StarkAppFooterModule&#45;&gt;StarkAppFooterComponent </title>
<path fill="none" stroke="black" stroke-dasharray="5,2" d="M248,-187.11C248,-187.11 248,-205.99 248,-205.99"/>
<polygon fill="black" stroke="black" points="244.5,-205.99 248,-215.99 251.5,-205.99 244.5,-205.99"/>
</g>
</g>
</svg>
