<?xml version="1.0" encoding="UTF-8" standalone="no"?>
<!DOCTYPE svg PUBLIC "-//W3C//DTD SVG 1.1//EN"
 "http://www.w3.org/Graphics/SVG/1.1/DTD/svg11.dtd">
<!-- Generated by graphviz version 2.40.1 (20161225.0304)
 -->
<!-- Title: dependencies Pages: 1 -->
<svg width="504pt" height="284pt"
 viewBox="0.00 0.00 504.00 284.00" xmlns="http://www.w3.org/2000/svg" xmlns:xlink="http://www.w3.org/1999/xlink">
<g id="graph0" class="graph" transform="scale(1 1) rotate(0) translate(4 280)">
<title>dependencies</title>
<polygon fill="#ffffff" stroke="transparent" points="-4,4 -4,-280 500,-280 500,4 -4,4"/>
<text text-anchor="start" x="227.0091" y="-42.4" font-family="sans-serif" font-weight="bold" font-size="14.00" fill="#000000">Legend</text>
<polygon fill="#ffffb3" stroke="transparent" points="14,-10 14,-30 34,-30 34,-10 14,-10"/>
<text text-anchor="start" x="37.629" y="-15.4" font-family="sans-serif" font-size="14.00" fill="#000000"> &#160;Declarations</text>
<polygon fill="#8dd3c7" stroke="transparent" points="127,-10 127,-30 147,-30 147,-10 127,-10"/>
<text text-anchor="start" x="150.7251" y="-15.4" font-family="sans-serif" font-size="14.00" fill="#000000"> &#160;Module</text>
<polygon fill="#80b1d3" stroke="transparent" points="213,-10 213,-30 233,-30 233,-10 213,-10"/>
<text text-anchor="start" x="236.7812" y="-15.4" font-family="sans-serif" font-size="14.00" fill="#000000"> &#160;Bootstrap</text>
<polygon fill="#fdb462" stroke="transparent" points="310,-10 310,-30 330,-30 330,-10 310,-10"/>
<text text-anchor="start" x="333.6732" y="-15.4" font-family="sans-serif" font-size="14.00" fill="#000000"> &#160;Providers</text>
<polygon fill="#fb8072" stroke="transparent" points="406,-10 406,-30 426,-30 426,-10 406,-10"/>
<text text-anchor="start" x="429.7258" y="-15.4" font-family="sans-serif" font-size="14.00" fill="#000000"> &#160;Exports</text>
<g id="clust1" class="cluster">
<title>cluster_StarkAppSidebarModule</title>
<polygon fill="none" stroke="#000000" stroke-dasharray="1,5" points="141,-70 141,-268 355,-268 355,-70 141,-70"/>
</g>
<g id="clust2" class="cluster">
<title>cluster_StarkAppSidebarModule_declarations</title>
<polygon fill="none" stroke="#000000" points="151,-78 151,-130 345,-130 345,-78 151,-78"/>
</g>
<g id="clust5" class="cluster">
<title>cluster_StarkAppSidebarModule_exports</title>
<polygon fill="none" stroke="#000000" points="149,-208 149,-260 347,-260 347,-208 149,-208"/>
</g>
<!-- StarkAppSidebarComponent -->
<g id="node1" class="node">
<title>StarkAppSidebarComponent</title>
<polygon fill="#ffffb3" stroke="#000000" points="336.7506,-122 159.2494,-122 159.2494,-86 336.7506,-86 336.7506,-122"/>
<text text-anchor="middle" x="248" y="-99.8" font-family="Times,serif" font-size="14.00" fill="#000000">StarkAppSidebarComponent</text>
</g>
<!-- StarkAppSidebarModule -->
<g id="node2" class="node">
<title>StarkAppSidebarModule</title>
<polygon fill="#8dd3c7" stroke="#000000" points="325.9678,-187 322.9678,-191 301.9678,-191 298.9678,-187 170.0322,-187 170.0322,-151 325.9678,-151 325.9678,-187"/>
<text text-anchor="middle" x="248" y="-164.8" font-family="Times,serif" font-size="14.00" fill="#000000">StarkAppSidebarModule</text>
</g>
<!-- StarkAppSidebarComponent&#45;&gt;StarkAppSidebarModule -->
<g id="edge1" class="edge">
<title>StarkAppSidebarComponent&#45;&gt;StarkAppSidebarModule</title>
<path fill="none" stroke="#000000" d="M248,-122.1061C248,-122.1061 248,-140.991 248,-140.991"/>
<polygon fill="#000000" stroke="#000000" points="244.5001,-140.9909 248,-150.991 251.5001,-140.991 244.5001,-140.9909"/>
</g>
<!-- StarkAppSidebarComponent  -->
<g id="node3" class="node">
<title>StarkAppSidebarComponent </title>
<polygon fill="#fb8072" stroke="#000000" points="338.7506,-252 157.2494,-252 157.2494,-216 338.7506,-216 338.7506,-252"/>
<text text-anchor="middle" x="248" y="-229.8" font-family="Times,serif" font-size="14.00" fill="#000000">StarkAppSidebarComponent </text>
</g>
<!-- StarkAppSidebarModule&#45;&gt;StarkAppSidebarComponent  -->
<g id="edge2" class="edge">
<title>StarkAppSidebarModule&#45;&gt;StarkAppSidebarComponent </title>
<path fill="none" stroke="#000000" stroke-dasharray="5,2" d="M248,-187.1061C248,-187.1061 248,-205.991 248,-205.991"/>
<polygon fill="#000000" stroke="#000000" points="244.5001,-205.9909 248,-215.991 251.5001,-205.991 244.5001,-205.9909"/>
</g>
</g>
</svg>
