<?xml version="1.0" encoding="UTF-8"?>
<svg width="654px" height="200px" viewBox="0 0 654 200" version="1.1" xmlns="http://www.w3.org/2000/svg" xmlns:xlink="http://www.w3.org/1999/xlink">
    <!-- Generator: Sketch 52.6 (67491) - http://www.bohemiancoding.com/sketch -->
    <title>Light</title>
    <desc>Created with Sketch.</desc>
    <g id="Light" stroke="none" stroke-width="1" fill="none" fill-rule="evenodd">
        <g id="stark" transform="translate(10.000000, 0.000000)">
            <g id="Angular" transform="translate(220.000000, 0.000000)">
                <polygon id="Path" fill="#DD0031" points="94 0 94 0 94 0 0.9 33.2 15.1 156.3 94 200 94 200 94 200 172.9 156.3 187.1 33.2"></polygon>
                <polygon id="Path" fill="#C3002F" points="94 0 94 22.2 94 22.1 94 123.4 94 123.4 94 200 94 200 172.9 156.3 187.1 33.2"></polygon>
                <path d="M94,22.1 L35.8,152.6 L57.5,152.6 L69.2,123.4 L118.6,123.4 L130.3,152.6 L152,152.6 L94,22.1 Z M111,105.4 L77,105.4 L94,64.5 L111,105.4 Z" id="Shape" fill="#FFFFFF" fill-rule="nonzero"></path>
            </g>
            <path d="M465.477403,103.296016 L440.451931,103.296016 L440.451931,153 L418,153 L418,24 L463.436319,24 C478.345185,24 489.852055,27.3371919 497.957272,34.0116758 C506.062489,40.6861597 510.115037,50.3433434 510.115037,62.9835165 C510.115037,71.607186 508.029602,78.8279242 503.858669,84.6459478 C499.687736,90.4639714 493.87514,94.9381712 486.420707,98.0686813 L515.439606,151.848214 L515.439606,153 L491.390304,153 L465.477403,103.296016 Z M440.451931,85.3104396 L463.525062,85.3104396 C471.097819,85.3104396 477.013947,83.4055822 481.273624,79.5958104 C485.5333,75.7860386 487.663106,70.5735221 487.663106,63.9581044 C487.663106,57.0473556 485.695993,51.701942 481.761709,47.9217033 C477.827425,44.1414646 471.955668,42.1923083 464.146261,42.0741758 L440.451931,42.0741758 L440.451931,85.3104396 Z M568.507806,97.2712912 L553.865242,112.776099 L553.865242,153 L531.413311,153 L531.413311,24 L553.865242,24 L553.865242,84.5130495 L566.289236,69.1854396 L604.093673,24 L631.248973,24 L583.239113,81.1462912 L634,153 L607.377157,153 L568.507806,97.2712912 Z" id="RK" fill="#FFFFFF"></path>
            <path d="M74.237934,119.883021 C74.237934,114.193153 72.2375306,109.807279 68.2366638,106.725267 C64.2357971,103.643256 57.0195272,100.531656 46.5876376,97.3903743 C36.155748,94.249093 27.8577785,90.7522474 21.6934801,86.8997326 C9.89833222,79.4910503 4.00084674,69.8302735 4.00084674,57.9171123 C4.00084674,47.4856876 8.25355612,38.891745 16.7591025,32.1350267 C25.2646488,25.3783085 36.3039118,22 49.8772227,22 C58.8865819,22 66.9178309,23.6595199 73.9712108,26.9786096 C81.0245907,30.2976993 86.5664489,35.0243677 90.5969517,41.1587567 C94.6274545,47.2931456 96.6426757,54.094214 96.6426757,61.5621658 L74.237934,61.5621658 C74.237934,54.8054475 72.1189882,49.5157277 67.881033,45.6928476 C63.6430779,41.8699675 57.5825966,39.9585561 49.6994073,39.9585561 C42.3496669,39.9585561 36.6448128,41.5291732 32.584674,44.6704545 C28.5245352,47.8117358 26.4944962,52.19761 26.4944962,57.8282086 C26.4944962,62.5697652 28.687531,66.5259423 33.0736664,69.6968583 C37.4598018,72.8677743 44.6908895,75.9497399 54.7671465,78.9428476 C64.8434035,81.9359553 72.9339238,85.343898 79.03895,89.1667781 C85.1439763,92.9896582 89.6189528,97.3755323 92.4640135,102.324532 C95.3090743,107.273532 96.7315834,113.067035 96.7315834,119.705214 C96.7315834,130.492255 92.5974164,139.071381 84.3289585,145.442848 C76.0605006,151.814314 64.8434239,155 50.677392,155 C41.3124003,155 32.7032569,153.266394 24.8497036,149.799131 C16.9961504,146.331868 10.8912157,141.545931 6.53471634,135.441176 C2.178217,129.336422 0,122.224194 0,114.104278 L22.4936494,114.104278 C22.4936494,121.453691 24.9237691,127.143474 29.7840813,131.173797 C34.6443935,135.20412 41.6087608,137.219251 50.677392,137.219251 C58.5013092,137.219251 64.3839769,135.633817 68.3255715,132.462901 C72.2671662,129.291985 74.237934,125.098734 74.237934,119.883021 Z M210,41.9144385 L169.635902,41.9144385 L169.635902,153.221925 L147.320068,153.221925 L147.320068,41.9144385 L107.3116,41.9144385 L107.3116,23.7780749 L210,23.7780749 L210,41.9144385 Z" id="ST" fill="#FFFFFF"></path>
        </g>
    </g>
</svg>
