<?xml version="1.0" encoding="UTF-8" standalone="no"?>
<!DOCTYPE svg PUBLIC "-//W3C//DTD SVG 1.1//EN"
 "http://www.w3.org/Graphics/SVG/1.1/DTD/svg11.dtd">
<!-- Generated by graphviz version 2.46.0 (20210119.1425)
 -->
<!-- Title: dependencies Pages: 1 -->
<svg width="504pt" height="284pt"
 viewBox="0.00 0.00 504.00 284.00" xmlns="http://www.w3.org/2000/svg" xmlns:xlink="http://www.w3.org/1999/xlink">
<g id="graph0" class="graph" transform="scale(1 1) rotate(0) translate(4 280)">
<title>dependencies</title>
<polygon fill="white" stroke="transparent" points="-4,4 -4,-280 500,-280 500,4 -4,4"/>
<text text-anchor="start" x="227.01" y="-42.4" font-family="sans-serif" font-weight="bold" font-size="14.00">Legend</text>
<polygon fill="#ffffb3" stroke="transparent" points="14,-10 14,-30 34,-30 34,-10 14,-10"/>
<text text-anchor="start" x="37.63" y="-15.4" font-family="sans-serif" font-size="14.00"> &#160;Declarations</text>
<polygon fill="#8dd3c7" stroke="transparent" points="127,-10 127,-30 147,-30 147,-10 127,-10"/>
<text text-anchor="start" x="150.73" y="-15.4" font-family="sans-serif" font-size="14.00"> &#160;Module</text>
<polygon fill="#80b1d3" stroke="transparent" points="213,-10 213,-30 233,-30 233,-10 213,-10"/>
<text text-anchor="start" x="236.78" y="-15.4" font-family="sans-serif" font-size="14.00"> &#160;Bootstrap</text>
<polygon fill="#fdb462" stroke="transparent" points="310,-10 310,-30 330,-30 330,-10 310,-10"/>
<text text-anchor="start" x="333.67" y="-15.4" font-family="sans-serif" font-size="14.00"> &#160;Providers</text>
<polygon fill="#fb8072" stroke="transparent" points="406,-10 406,-30 426,-30 426,-10 406,-10"/>
<text text-anchor="start" x="429.73" y="-15.4" font-family="sans-serif" font-size="14.00"> &#160;Exports</text>
<g id="clust1" class="cluster">
<title>cluster_StarkAppSidebarModule</title>
<polygon fill="none" stroke="black" stroke-dasharray="1,5" points="141,-70 141,-268 355,-268 355,-70 141,-70"/>
</g>
<g id="clust5" class="cluster">
<title>cluster_StarkAppSidebarModule_exports</title>
<polygon fill="none" stroke="black" points="149,-208 149,-260 347,-260 347,-208 149,-208"/>
</g>
<g id="clust2" class="cluster">
<title>cluster_StarkAppSidebarModule_declarations</title>
<polygon fill="none" stroke="black" points="151,-78 151,-130 345,-130 345,-78 151,-78"/>
</g>
<!-- StarkAppSidebarComponent -->
<g id="node1" class="node">
<title>StarkAppSidebarComponent</title>
<polygon fill="#ffffb3" stroke="black" points="336.75,-122 159.25,-122 159.25,-86 336.75,-86 336.75,-122"/>
<text text-anchor="middle" x="248" y="-99.8" font-family="Times,serif" font-size="14.00">StarkAppSidebarComponent</text>
</g>
<!-- StarkAppSidebarModule -->
<g id="node2" class="node">
<title>StarkAppSidebarModule</title>
<polygon fill="#8dd3c7" stroke="black" points="325.97,-187 322.97,-191 301.97,-191 298.97,-187 170.03,-187 170.03,-151 325.97,-151 325.97,-187"/>
<text text-anchor="middle" x="248" y="-164.8" font-family="Times,serif" font-size="14.00">StarkAppSidebarModule</text>
</g>
<!-- StarkAppSidebarComponent&#45;&gt;StarkAppSidebarModule -->
<g id="edge1" class="edge">
<title>StarkAppSidebarComponent&#45;&gt;StarkAppSidebarModule</title>
<path fill="none" stroke="black" d="M248,-122.11C248,-122.11 248,-140.99 248,-140.99"/>
<polygon fill="black" stroke="black" points="244.5,-140.99 248,-150.99 251.5,-140.99 244.5,-140.99"/>
</g>
<!-- StarkAppSidebarComponent  -->
<g id="node3" class="node">
<title>StarkAppSidebarComponent </title>
<polygon fill="#fb8072" stroke="black" points="338.75,-252 157.25,-252 157.25,-216 338.75,-216 338.75,-252"/>
<text text-anchor="middle" x="248" y="-229.8" font-family="Times,serif" font-size="14.00">StarkAppSidebarComponent </text>
</g>
<!-- StarkAppSidebarModule&#45;&gt;StarkAppSidebarComponent  -->
<g id="edge2" class="edge">
<title>StarkAppSidebarModule&#45;&gt;StarkAppSidebarComponent </title>
<path fill="none" stroke="black" stroke-dasharray="5,2" d="M248,-187.11C248,-187.11 248,-205.99 248,-205.99"/>
<polygon fill="black" stroke="black" points="244.5,-205.99 248,-215.99 251.5,-205.99 244.5,-205.99"/>
</g>
</g>
</svg>
