<?xml version="1.0" encoding="UTF-8" standalone="no"?>
<!DOCTYPE svg PUBLIC "-//W3C//DTD SVG 1.1//EN"
 "http://www.w3.org/Graphics/SVG/1.1/DTD/svg11.dtd">
<!-- Generated by graphviz version 2.40.1 (20161225.0304)
 -->
<!-- Title: dependencies Pages: 1 -->
<svg width="1251pt" height="284pt"
 viewBox="0.00 0.00 1251.00 284.00" xmlns="http://www.w3.org/2000/svg" xmlns:xlink="http://www.w3.org/1999/xlink">
<g id="graph0" class="graph" transform="scale(1 1) rotate(0) translate(4 280)">
<title>dependencies</title>
<polygon fill="#ffffff" stroke="transparent" points="-4,4 -4,-280 1247,-280 1247,4 -4,4"/>
<text text-anchor="start" x="600.5091" y="-42.4" font-family="sans-serif" font-weight="bold" font-size="14.00" fill="#000000">Legend</text>
<polygon fill="#ffffb3" stroke="transparent" points="387.5,-10 387.5,-30 407.5,-30 407.5,-10 387.5,-10"/>
<text text-anchor="start" x="411.129" y="-15.4" font-family="sans-serif" font-size="14.00" fill="#000000"> &#160;Declarations</text>
<polygon fill="#8dd3c7" stroke="transparent" points="500.5,-10 500.5,-30 520.5,-30 520.5,-10 500.5,-10"/>
<text text-anchor="start" x="524.2251" y="-15.4" font-family="sans-serif" font-size="14.00" fill="#000000"> &#160;Module</text>
<polygon fill="#80b1d3" stroke="transparent" points="586.5,-10 586.5,-30 606.5,-30 606.5,-10 586.5,-10"/>
<text text-anchor="start" x="610.2812" y="-15.4" font-family="sans-serif" font-size="14.00" fill="#000000"> &#160;Bootstrap</text>
<polygon fill="#fdb462" stroke="transparent" points="683.5,-10 683.5,-30 703.5,-30 703.5,-10 683.5,-10"/>
<text text-anchor="start" x="707.1732" y="-15.4" font-family="sans-serif" font-size="14.00" fill="#000000"> &#160;Providers</text>
<polygon fill="#fb8072" stroke="transparent" points="779.5,-10 779.5,-30 799.5,-30 799.5,-10 779.5,-10"/>
<text text-anchor="start" x="803.2258" y="-15.4" font-family="sans-serif" font-size="14.00" fill="#000000"> &#160;Exports</text>
<g id="clust1" class="cluster">
<title>cluster_StarkSessionUiModule</title>
<polygon fill="none" stroke="#000000" stroke-dasharray="1,5" points="8,-70 8,-268 1235,-268 1235,-70 8,-70"/>
</g>
<g id="clust2" class="cluster">
<title>cluster_StarkSessionUiModule_declarations</title>
<polygon fill="none" stroke="#000000" points="25,-78 25,-130 1218,-130 1218,-78 25,-78"/>
</g>
<g id="clust9" class="cluster">
<title>cluster_StarkSessionUiModule_exports</title>
<polygon fill="none" stroke="#000000" points="16,-208 16,-260 1227,-260 1227,-208 16,-208"/>
</g>
<!-- StarkLoginPageComponent -->
<g id="node1" class="node">
<title>StarkLoginPageComponent</title>
<polygon fill="#ffffb3" stroke="#000000" points="1209.5364,-122 1038.4636,-122 1038.4636,-86 1209.5364,-86 1209.5364,-122"/>
<text text-anchor="middle" x="1124" y="-99.8" font-family="Times,serif" font-size="14.00" fill="#000000">StarkLoginPageComponent</text>
</g>
<!-- StarkSessionUiModule -->
<g id="node6" class="node">
<title>StarkSessionUiModule</title>
<polygon fill="#8dd3c7" stroke="#000000" points="763.8725,-187 760.8725,-191 739.8725,-191 736.8725,-187 618.1275,-187 618.1275,-151 763.8725,-151 763.8725,-187"/>
<text text-anchor="middle" x="691" y="-164.8" font-family="Times,serif" font-size="14.00" fill="#000000">StarkSessionUiModule</text>
</g>
<!-- StarkLoginPageComponent&#45;&gt;StarkSessionUiModule -->
<g id="edge1" class="edge">
<title>StarkLoginPageComponent&#45;&gt;StarkSessionUiModule</title>
<path fill="none" stroke="#000000" d="M1154.3393,-122.2667C1154.3393,-140.5552 1154.3393,-166 1154.3393,-166 1154.3393,-166 773.9065,-166 773.9065,-166"/>
<polygon fill="#000000" stroke="#000000" points="773.9065,-162.5001 763.9065,-166 773.9064,-169.5001 773.9065,-162.5001"/>
</g>
<!-- StarkPreloadingPageComponent -->
<g id="node2" class="node">
<title>StarkPreloadingPageComponent</title>
<polygon fill="#ffffb3" stroke="#000000" points="1020.2464,-122 821.7536,-122 821.7536,-86 1020.2464,-86 1020.2464,-122"/>
<text text-anchor="middle" x="921" y="-99.8" font-family="Times,serif" font-size="14.00" fill="#000000">StarkPreloadingPageComponent</text>
</g>
<!-- StarkPreloadingPageComponent&#45;&gt;StarkSessionUiModule -->
<g id="edge2" class="edge">
<title>StarkPreloadingPageComponent&#45;&gt;StarkSessionUiModule</title>
<path fill="none" stroke="#000000" d="M954.541,-122.0091C954.541,-138.0494 954.541,-159 954.541,-159 954.541,-159 774.0609,-159 774.0609,-159"/>
<polygon fill="#000000" stroke="#000000" points="774.0609,-155.5001 764.0609,-159 774.0609,-162.5001 774.0609,-155.5001"/>
</g>
<!-- StarkSessionExpiredPageComponent -->
<g id="node3" class="node">
<title>StarkSessionExpiredPageComponent</title>
<polygon fill="#ffffb3" stroke="#000000" points="803.6881,-122 578.3119,-122 578.3119,-86 803.6881,-86 803.6881,-122"/>
<text text-anchor="middle" x="691" y="-99.8" font-family="Times,serif" font-size="14.00" fill="#000000">StarkSessionExpiredPageComponent</text>
</g>
<!-- StarkSessionExpiredPageComponent&#45;&gt;StarkSessionUiModule -->
<g id="edge3" class="edge">
<title>StarkSessionExpiredPageComponent&#45;&gt;StarkSessionUiModule</title>
<path fill="none" stroke="#000000" d="M691,-122.1061C691,-122.1061 691,-140.991 691,-140.991"/>
<polygon fill="#000000" stroke="#000000" points="687.5001,-140.9909 691,-150.991 694.5001,-140.991 687.5001,-140.9909"/>
</g>
<!-- StarkSessionLogoutPageComponent -->
<g id="node4" class="node">
<title>StarkSessionLogoutPageComponent</title>
<polygon fill="#ffffb3" stroke="#000000" points="560.813,-122 339.187,-122 339.187,-86 560.813,-86 560.813,-122"/>
<text text-anchor="middle" x="450" y="-99.8" font-family="Times,serif" font-size="14.00" fill="#000000">StarkSessionLogoutPageComponent</text>
</g>
<!-- StarkSessionLogoutPageComponent&#45;&gt;StarkSessionUiModule -->
<g id="edge4" class="edge">
<title>StarkSessionLogoutPageComponent&#45;&gt;StarkSessionUiModule</title>
<path fill="none" stroke="#000000" d="M485.3855,-122.0091C485.3855,-138.0494 485.3855,-159 485.3855,-159 485.3855,-159 607.9291,-159 607.9291,-159"/>
<polygon fill="#000000" stroke="#000000" points="607.9291,-162.5001 617.9291,-159 607.929,-155.5001 607.9291,-162.5001"/>
</g>
<!-- StarkSessionTimeoutWarningDialogComponent -->
<g id="node5" class="node">
<title>StarkSessionTimeoutWarningDialogComponent</title>
<polygon fill="#ffffb3" stroke="#000000" points="321.1797,-122 32.8203,-122 32.8203,-86 321.1797,-86 321.1797,-122"/>
<text text-anchor="middle" x="177" y="-99.8" font-family="Times,serif" font-size="14.00" fill="#000000">StarkSessionTimeoutWarningDialogComponent</text>
</g>
<!-- StarkSessionTimeoutWarningDialogComponent&#45;&gt;StarkSessionUiModule -->
<g id="edge5" class="edge">
<title>StarkSessionTimeoutWarningDialogComponent&#45;&gt;StarkSessionUiModule</title>
<path fill="none" stroke="#000000" d="M221.5299,-122.2667C221.5299,-140.5552 221.5299,-166 221.5299,-166 221.5299,-166 607.903,-166 607.903,-166"/>
<polygon fill="#000000" stroke="#000000" points="607.9031,-169.5001 617.903,-166 607.903,-162.5001 607.9031,-169.5001"/>
</g>
<!-- StarkLoginPageComponent  -->
<g id="node7" class="node">
<title>StarkLoginPageComponent </title>
<polygon fill="#fb8072" stroke="#000000" points="1218.5358,-252 1043.4642,-252 1043.4642,-216 1218.5358,-216 1218.5358,-252"/>
<text text-anchor="middle" x="1131" y="-229.8" font-family="Times,serif" font-size="14.00" fill="#000000">StarkLoginPageComponent </text>
</g>
<!-- StarkSessionUiModule&#45;&gt;StarkLoginPageComponent  -->
<g id="edge6" class="edge">
<title>StarkSessionUiModule&#45;&gt;StarkLoginPageComponent </title>
<path fill="none" stroke="#000000" stroke-dasharray="5,2" d="M763.9263,-173C881.2558,-173 1098.9107,-173 1098.9107,-173 1098.9107,-173 1098.9107,-205.698 1098.9107,-205.698"/>
<polygon fill="#000000" stroke="#000000" points="1095.4108,-205.698 1098.9107,-215.698 1102.4108,-205.698 1095.4108,-205.698"/>
</g>
<!-- StarkPreloadingPageComponent  -->
<g id="node8" class="node">
<title>StarkPreloadingPageComponent </title>
<polygon fill="#fb8072" stroke="#000000" points="1025.2464,-252 822.7536,-252 822.7536,-216 1025.2464,-216 1025.2464,-252"/>
<text text-anchor="middle" x="924" y="-229.8" font-family="Times,serif" font-size="14.00" fill="#000000">StarkPreloadingPageComponent </text>
</g>
<!-- StarkSessionUiModule&#45;&gt;StarkPreloadingPageComponent  -->
<g id="edge7" class="edge">
<title>StarkSessionUiModule&#45;&gt;StarkPreloadingPageComponent </title>
<path fill="none" stroke="#000000" stroke-dasharray="5,2" d="M764.0578,-180C820.3777,-180 888.709,-180 888.709,-180 888.709,-180 888.709,-205.7181 888.709,-205.7181"/>
<polygon fill="#000000" stroke="#000000" points="885.2091,-205.718 888.709,-215.7181 892.2091,-205.7181 885.2091,-205.718"/>
</g>
<!-- StarkSessionExpiredPageComponent  -->
<g id="node9" class="node">
<title>StarkSessionExpiredPageComponent </title>
<polygon fill="#fb8072" stroke="#000000" points="805.1882,-252 576.8118,-252 576.8118,-216 805.1882,-216 805.1882,-252"/>
<text text-anchor="middle" x="691" y="-229.8" font-family="Times,serif" font-size="14.00" fill="#000000">StarkSessionExpiredPageComponent </text>
</g>
<!-- StarkSessionUiModule&#45;&gt;StarkSessionExpiredPageComponent  -->
<g id="edge8" class="edge">
<title>StarkSessionUiModule&#45;&gt;StarkSessionExpiredPageComponent </title>
<path fill="none" stroke="#000000" stroke-dasharray="5,2" d="M691,-187.1061C691,-187.1061 691,-205.991 691,-205.991"/>
<polygon fill="#000000" stroke="#000000" points="687.5001,-205.9909 691,-215.991 694.5001,-205.991 687.5001,-205.9909"/>
</g>
<!-- StarkSessionLogoutPageComponent  -->
<g id="node10" class="node">
<title>StarkSessionLogoutPageComponent </title>
<polygon fill="#fb8072" stroke="#000000" points="558.3129,-252 333.6871,-252 333.6871,-216 558.3129,-216 558.3129,-252"/>
<text text-anchor="middle" x="446" y="-229.8" font-family="Times,serif" font-size="14.00" fill="#000000">StarkSessionLogoutPageComponent </text>
</g>
<!-- StarkSessionUiModule&#45;&gt;StarkSessionLogoutPageComponent  -->
<g id="edge9" class="edge">
<title>StarkSessionUiModule&#45;&gt;StarkSessionLogoutPageComponent </title>
<path fill="none" stroke="#000000" stroke-dasharray="5,2" d="M617.7918,-180C535.2369,-180 412.3645,-180 412.3645,-180 412.3645,-180 412.3645,-205.7181 412.3645,-205.7181"/>
<polygon fill="#000000" stroke="#000000" points="408.8646,-205.718 412.3645,-215.7181 415.8646,-205.7181 408.8646,-205.718"/>
</g>
<!-- StarkSessionTimeoutWarningDialogComponent  -->
<g id="node11" class="node">
<title>StarkSessionTimeoutWarningDialogComponent </title>
<polygon fill="#fb8072" stroke="#000000" points="315.6798,-252 24.3202,-252 24.3202,-216 315.6798,-216 315.6798,-252"/>
<text text-anchor="middle" x="170" y="-229.8" font-family="Times,serif" font-size="14.00" fill="#000000">StarkSessionTimeoutWarningDialogComponent </text>
</g>
<!-- StarkSessionUiModule&#45;&gt;StarkSessionTimeoutWarningDialogComponent  -->
<g id="edge10" class="edge">
<title>StarkSessionUiModule&#45;&gt;StarkSessionTimeoutWarningDialogComponent </title>
<path fill="none" stroke="#000000" stroke-dasharray="5,2" d="M617.8736,-173C465.3286,-173 127.2201,-173 127.2201,-173 127.2201,-173 127.2201,-205.698 127.2201,-205.698"/>
<polygon fill="#000000" stroke="#000000" points="123.7202,-205.698 127.2201,-215.698 130.7202,-205.698 123.7202,-205.698"/>
</g>
</g>
</svg>
