<?xml version="1.0" encoding="UTF-8" standalone="no"?>
<!DOCTYPE svg PUBLIC "-//W3C//DTD SVG 1.1//EN"
 "http://www.w3.org/Graphics/SVG/1.1/DTD/svg11.dtd">
<!-- Generated by graphviz version 2.40.1 (20161225.0304)
 -->
<!-- Title: dependencies Pages: 1 -->
<svg width="800pt" height="284pt"
 viewBox="0.00 0.00 800.00 284.00" xmlns="http://www.w3.org/2000/svg" xmlns:xlink="http://www.w3.org/1999/xlink">
<g id="graph0" class="graph" transform="scale(1 1) rotate(0) translate(4 280)">
<title>dependencies</title>
<polygon fill="#ffffff" stroke="transparent" points="-4,4 -4,-280 796,-280 796,4 -4,4"/>
<text text-anchor="start" x="375.0091" y="-42.4" font-family="sans-serif" font-weight="bold" font-size="14.00" fill="#000000">Legend</text>
<polygon fill="#ffffb3" stroke="transparent" points="162,-10 162,-30 182,-30 182,-10 162,-10"/>
<text text-anchor="start" x="185.629" y="-15.4" font-family="sans-serif" font-size="14.00" fill="#000000"> &#160;Declarations</text>
<polygon fill="#8dd3c7" stroke="transparent" points="275,-10 275,-30 295,-30 295,-10 275,-10"/>
<text text-anchor="start" x="298.7251" y="-15.4" font-family="sans-serif" font-size="14.00" fill="#000000"> &#160;Module</text>
<polygon fill="#80b1d3" stroke="transparent" points="361,-10 361,-30 381,-30 381,-10 361,-10"/>
<text text-anchor="start" x="384.7812" y="-15.4" font-family="sans-serif" font-size="14.00" fill="#000000"> &#160;Bootstrap</text>
<polygon fill="#fdb462" stroke="transparent" points="458,-10 458,-30 478,-30 478,-10 458,-10"/>
<text text-anchor="start" x="481.6732" y="-15.4" font-family="sans-serif" font-size="14.00" fill="#000000"> &#160;Providers</text>
<polygon fill="#fb8072" stroke="transparent" points="554,-10 554,-30 574,-30 574,-10 554,-10"/>
<text text-anchor="start" x="577.7258" y="-15.4" font-family="sans-serif" font-size="14.00" fill="#000000"> &#160;Exports</text>
<g id="clust1" class="cluster">
<title>cluster_StarkPaginationModule</title>
<polygon fill="none" stroke="#000000" stroke-dasharray="1,5" points="8,-70 8,-268 784,-268 784,-70 8,-70"/>
</g>
<g id="clust2" class="cluster">
<title>cluster_StarkPaginationModule_declarations</title>
<polygon fill="none" stroke="#000000" points="590,-78 590,-130 776,-130 776,-78 590,-78"/>
</g>
<g id="clust4" class="cluster">
<title>cluster_StarkPaginationModule_imports</title>
<polygon fill="none" stroke="#000000" points="16,-78 16,-130 582,-130 582,-78 16,-78"/>
</g>
<g id="clust5" class="cluster">
<title>cluster_StarkPaginationModule_exports</title>
<polygon fill="none" stroke="#000000" points="308,-208 308,-260 498,-260 498,-208 308,-208"/>
</g>
<!-- StarkPaginationComponent -->
<g id="node1" class="node">
<title>StarkPaginationComponent</title>
<polygon fill="#ffffb3" stroke="#000000" points="768.2646,-122 597.7354,-122 597.7354,-86 768.2646,-86 768.2646,-122"/>
<text text-anchor="middle" x="683" y="-99.8" font-family="Times,serif" font-size="14.00" fill="#000000">StarkPaginationComponent</text>
</g>
<!-- StarkPaginationModule -->
<g id="node2" class="node">
<title>StarkPaginationModule</title>
<polygon fill="#8dd3c7" stroke="#000000" points="477.4818,-187 474.4818,-191 453.4818,-191 450.4818,-187 328.5182,-187 328.5182,-151 477.4818,-151 477.4818,-187"/>
<text text-anchor="middle" x="403" y="-164.8" font-family="Times,serif" font-size="14.00" fill="#000000">StarkPaginationModule</text>
</g>
<!-- StarkPaginationComponent&#45;&gt;StarkPaginationModule -->
<g id="edge1" class="edge">
<title>StarkPaginationComponent&#45;&gt;StarkPaginationModule</title>
<path fill="none" stroke="#000000" d="M683,-122.1061C683,-141.3391 683,-169 683,-169 683,-169 487.667,-169 487.667,-169"/>
<polygon fill="#000000" stroke="#000000" points="487.6671,-165.5001 477.667,-169 487.667,-172.5001 487.6671,-165.5001"/>
</g>
<!-- StarkPaginationComponent  -->
<g id="node6" class="node">
<title>StarkPaginationComponent </title>
<polygon fill="#fb8072" stroke="#000000" points="490.2646,-252 315.7354,-252 315.7354,-216 490.2646,-216 490.2646,-252"/>
<text text-anchor="middle" x="403" y="-229.8" font-family="Times,serif" font-size="14.00" fill="#000000">StarkPaginationComponent </text>
</g>
<!-- StarkPaginationModule&#45;&gt;StarkPaginationComponent  -->
<g id="edge5" class="edge">
<title>StarkPaginationModule&#45;&gt;StarkPaginationComponent </title>
<path fill="none" stroke="#000000" stroke-dasharray="5,2" d="M403,-187.1061C403,-187.1061 403,-205.991 403,-205.991"/>
<polygon fill="#000000" stroke="#000000" points="399.5001,-205.9909 403,-215.991 406.5001,-205.991 399.5001,-205.9909"/>
</g>
<!-- StarkDropdownModule -->
<g id="node3" class="node">
<title>StarkDropdownModule</title>
<polygon fill="#8dd3c7" stroke="#000000" points="574.472,-122 571.472,-126 550.472,-126 547.472,-122 425.528,-122 425.528,-86 574.472,-86 574.472,-122"/>
<text text-anchor="middle" x="500" y="-99.8" font-family="Times,serif" font-size="14.00" fill="#000000">StarkDropdownModule</text>
</g>
<!-- StarkDropdownModule&#45;&gt;StarkPaginationModule -->
<g id="edge2" class="edge">
<title>StarkDropdownModule&#45;&gt;StarkPaginationModule</title>
<path fill="none" stroke="#000000" d="M451.5025,-122.1061C451.5025,-122.1061 451.5025,-140.991 451.5025,-140.991"/>
<polygon fill="#000000" stroke="#000000" points="448.0025,-140.9909 451.5025,-150.991 455.0025,-140.991 448.0025,-140.9909"/>
</g>
<!-- StarkKeyboardDirectivesModule -->
<g id="node4" class="node">
<title>StarkKeyboardDirectivesModule</title>
<polygon fill="#8dd3c7" stroke="#000000" points="407.8221,-122 404.8221,-126 383.8221,-126 380.8221,-122 206.1779,-122 206.1779,-86 407.8221,-86 407.8221,-122"/>
<text text-anchor="middle" x="307" y="-99.8" font-family="Times,serif" font-size="14.00" fill="#000000">StarkKeyboardDirectivesModule</text>
</g>
<!-- StarkKeyboardDirectivesModule&#45;&gt;StarkPaginationModule -->
<g id="edge3" class="edge">
<title>StarkKeyboardDirectivesModule&#45;&gt;StarkPaginationModule</title>
<path fill="none" stroke="#000000" d="M368.2101,-122.1061C368.2101,-122.1061 368.2101,-140.991 368.2101,-140.991"/>
<polygon fill="#000000" stroke="#000000" points="364.7101,-140.9909 368.2101,-150.991 371.7101,-140.991 364.7101,-140.9909"/>
</g>
<!-- StarkSvgViewBoxModule -->
<g id="node5" class="node">
<title>StarkSvgViewBoxModule</title>
<polygon fill="#8dd3c7" stroke="#000000" points="188.0365,-122 185.0365,-126 164.0365,-126 161.0365,-122 23.9635,-122 23.9635,-86 188.0365,-86 188.0365,-122"/>
<text text-anchor="middle" x="106" y="-99.8" font-family="Times,serif" font-size="14.00" fill="#000000">StarkSvgViewBoxModule</text>
</g>
<!-- StarkSvgViewBoxModule&#45;&gt;StarkPaginationModule -->
<g id="edge4" class="edge">
<title>StarkSvgViewBoxModule&#45;&gt;StarkPaginationModule</title>
<path fill="none" stroke="#000000" d="M106,-122.1061C106,-141.3391 106,-169 106,-169 106,-169 318.4377,-169 318.4377,-169"/>
<polygon fill="#000000" stroke="#000000" points="318.4378,-172.5001 328.4377,-169 318.4377,-165.5001 318.4378,-172.5001"/>
</g>
</g>
</svg>
