<?xml version="1.0" encoding="UTF-8" standalone="no"?>
<!DOCTYPE svg PUBLIC "-//W3C//DTD SVG 1.1//EN"
 "http://www.w3.org/Graphics/SVG/1.1/DTD/svg11.dtd">
<!-- Generated by graphviz version 2.40.1 (20161225.0304)
 -->
<!-- Title: dependencies Pages: 1 -->
<svg width="504pt" height="284pt"
 viewBox="0.00 0.00 504.00 284.00" xmlns="http://www.w3.org/2000/svg" xmlns:xlink="http://www.w3.org/1999/xlink">
<g id="graph0" class="graph" transform="scale(1 1) rotate(0) translate(4 280)">
<title>dependencies</title>
<polygon fill="#ffffff" stroke="transparent" points="-4,4 -4,-280 500,-280 500,4 -4,4"/>
<text text-anchor="start" x="227.0091" y="-42.4" font-family="sans-serif" font-weight="bold" font-size="14.00" fill="#000000">Legend</text>
<polygon fill="#ffffb3" stroke="transparent" points="14,-10 14,-30 34,-30 34,-10 14,-10"/>
<text text-anchor="start" x="37.629" y="-15.4" font-family="sans-serif" font-size="14.00" fill="#000000"> &#160;Declarations</text>
<polygon fill="#8dd3c7" stroke="transparent" points="127,-10 127,-30 147,-30 147,-10 127,-10"/>
<text text-anchor="start" x="150.7251" y="-15.4" font-family="sans-serif" font-size="14.00" fill="#000000"> &#160;Module</text>
<polygon fill="#80b1d3" stroke="transparent" points="213,-10 213,-30 233,-30 233,-10 213,-10"/>
<text text-anchor="start" x="236.7812" y="-15.4" font-family="sans-serif" font-size="14.00" fill="#000000"> &#160;Bootstrap</text>
<polygon fill="#fdb462" stroke="transparent" points="310,-10 310,-30 330,-30 330,-10 310,-10"/>
<text text-anchor="start" x="333.6732" y="-15.4" font-family="sans-serif" font-size="14.00" fill="#000000"> &#160;Providers</text>
<polygon fill="#fb8072" stroke="transparent" points="406,-10 406,-30 426,-30 426,-10 406,-10"/>
<text text-anchor="start" x="429.7258" y="-15.4" font-family="sans-serif" font-size="14.00" fill="#000000"> &#160;Exports</text>
<g id="clust1" class="cluster">
<title>cluster_StarkDatePickerModule</title>
<polygon fill="none" stroke="#000000" stroke-dasharray="1,5" points="29,-70 29,-268 467,-268 467,-70 29,-70"/>
</g>
<g id="clust2" class="cluster">
<title>cluster_StarkDatePickerModule_declarations</title>
<polygon fill="none" stroke="#000000" points="269,-78 269,-130 459,-130 459,-78 269,-78"/>
</g>
<g id="clust4" class="cluster">
<title>cluster_StarkDatePickerModule_imports</title>
<polygon fill="none" stroke="#000000" points="37,-78 37,-130 261,-130 261,-78 37,-78"/>
</g>
<g id="clust5" class="cluster">
<title>cluster_StarkDatePickerModule_exports</title>
<polygon fill="none" stroke="#000000" points="160,-208 160,-260 352,-260 352,-208 160,-208"/>
</g>
<!-- StarkDatePickerComponent -->
<g id="node1" class="node">
<title>StarkDatePickerComponent</title>
<polygon fill="#ffffb3" stroke="#000000" points="450.5702,-122 277.4298,-122 277.4298,-86 450.5702,-86 450.5702,-122"/>
<text text-anchor="middle" x="364" y="-99.8" font-family="Times,serif" font-size="14.00" fill="#000000">StarkDatePickerComponent</text>
</g>
<!-- StarkDatePickerModule -->
<g id="node2" class="node">
<title>StarkDatePickerModule</title>
<polygon fill="#8dd3c7" stroke="#000000" points="331.7879,-187 328.7879,-191 307.7879,-191 304.7879,-187 180.2121,-187 180.2121,-151 331.7879,-151 331.7879,-187"/>
<text text-anchor="middle" x="256" y="-164.8" font-family="Times,serif" font-size="14.00" fill="#000000">StarkDatePickerModule</text>
</g>
<!-- StarkDatePickerComponent&#45;&gt;StarkDatePickerModule -->
<g id="edge1" class="edge">
<title>StarkDatePickerComponent&#45;&gt;StarkDatePickerModule</title>
<path fill="none" stroke="#000000" d="M304.5544,-122.1061C304.5544,-122.1061 304.5544,-140.991 304.5544,-140.991"/>
<polygon fill="#000000" stroke="#000000" points="301.0544,-140.9909 304.5544,-150.991 308.0544,-140.991 301.0544,-140.9909"/>
</g>
<!-- StarkDatePickerComponent  -->
<g id="node4" class="node">
<title>StarkDatePickerComponent </title>
<polygon fill="#fb8072" stroke="#000000" points="344.0707,-252 167.9293,-252 167.9293,-216 344.0707,-216 344.0707,-252"/>
<text text-anchor="middle" x="256" y="-229.8" font-family="Times,serif" font-size="14.00" fill="#000000">StarkDatePickerComponent </text>
</g>
<!-- StarkDatePickerModule&#45;&gt;StarkDatePickerComponent  -->
<g id="edge3" class="edge">
<title>StarkDatePickerModule&#45;&gt;StarkDatePickerComponent </title>
<path fill="none" stroke="#000000" stroke-dasharray="5,2" d="M256,-187.1061C256,-187.1061 256,-205.991 256,-205.991"/>
<polygon fill="#000000" stroke="#000000" points="252.5001,-205.9909 256,-215.991 259.5001,-205.991 252.5001,-205.9909"/>
</g>
<!-- StarkInputMaskDirectivesModule -->
<g id="node3" class="node">
<title>StarkInputMaskDirectivesModule</title>
<polygon fill="#8dd3c7" stroke="#000000" points="252.7808,-122 249.7808,-126 228.7808,-126 225.7808,-122 45.2192,-122 45.2192,-86 252.7808,-86 252.7808,-122"/>
<text text-anchor="middle" x="149" y="-99.8" font-family="Times,serif" font-size="14.00" fill="#000000">StarkInputMaskDirectivesModule</text>
</g>
<!-- StarkInputMaskDirectivesModule&#45;&gt;StarkDatePickerModule -->
<g id="edge2" class="edge">
<title>StarkInputMaskDirectivesModule&#45;&gt;StarkDatePickerModule</title>
<path fill="none" stroke="#000000" d="M216.4983,-122.1061C216.4983,-122.1061 216.4983,-140.991 216.4983,-140.991"/>
<polygon fill="#000000" stroke="#000000" points="212.9983,-140.9909 216.4983,-150.991 219.9983,-140.991 212.9983,-140.9909"/>
</g>
</g>
</svg>
