<?xml version="1.0" encoding="UTF-8" standalone="no"?>
<!DOCTYPE svg PUBLIC "-//W3C//DTD SVG 1.1//EN"
 "http://www.w3.org/Graphics/SVG/1.1/DTD/svg11.dtd">
<!-- Generated by graphviz version 2.40.1 (20161225.0304)
 -->
<!-- Title: dependencies Pages: 1 -->
<svg width="504pt" height="284pt"
 viewBox="0.00 0.00 504.00 284.00" xmlns="http://www.w3.org/2000/svg" xmlns:xlink="http://www.w3.org/1999/xlink">
<g id="graph0" class="graph" transform="scale(1 1) rotate(0) translate(4 280)">
<title>dependencies</title>
<polygon fill="#ffffff" stroke="transparent" points="-4,4 -4,-280 500,-280 500,4 -4,4"/>
<text text-anchor="start" x="227.0091" y="-42.4" font-family="sans-serif" font-weight="bold" font-size="14.00" fill="#000000">Legend</text>
<polygon fill="#ffffb3" stroke="transparent" points="14,-10 14,-30 34,-30 34,-10 14,-10"/>
<text text-anchor="start" x="37.629" y="-15.4" font-family="sans-serif" font-size="14.00" fill="#000000"> &#160;Declarations</text>
<polygon fill="#8dd3c7" stroke="transparent" points="127,-10 127,-30 147,-30 147,-10 127,-10"/>
<text text-anchor="start" x="150.7251" y="-15.4" font-family="sans-serif" font-size="14.00" fill="#000000"> &#160;Module</text>
<polygon fill="#80b1d3" stroke="transparent" points="213,-10 213,-30 233,-30 233,-10 213,-10"/>
<text text-anchor="start" x="236.7812" y="-15.4" font-family="sans-serif" font-size="14.00" fill="#000000"> &#160;Bootstrap</text>
<polygon fill="#fdb462" stroke="transparent" points="310,-10 310,-30 330,-30 330,-10 310,-10"/>
<text text-anchor="start" x="333.6732" y="-15.4" font-family="sans-serif" font-size="14.00" fill="#000000"> &#160;Providers</text>
<polygon fill="#fb8072" stroke="transparent" points="406,-10 406,-30 426,-30 426,-10 406,-10"/>
<text text-anchor="start" x="429.7258" y="-15.4" font-family="sans-serif" font-size="14.00" fill="#000000"> &#160;Exports</text>
<g id="clust1" class="cluster">
<title>cluster_StarkAppLogoModule</title>
<polygon fill="none" stroke="#000000" stroke-dasharray="1,5" points="40,-70 40,-268 240,-268 240,-70 40,-70"/>
</g>
<g id="clust2" class="cluster">
<title>cluster_StarkAppLogoModule_declarations</title>
<polygon fill="none" stroke="#000000" points="50,-78 50,-130 230,-130 230,-78 50,-78"/>
</g>
<g id="clust5" class="cluster">
<title>cluster_StarkAppLogoModule_exports</title>
<polygon fill="none" stroke="#000000" points="48,-208 48,-260 232,-260 232,-208 48,-208"/>
</g>
<g id="clust8" class="cluster">
<title>cluster_StarkSvgViewBoxModule</title>
<polygon fill="none" stroke="#000000" stroke-dasharray="1,5" points="248,-70 248,-268 456,-268 456,-70 248,-70"/>
</g>
<g id="clust9" class="cluster">
<title>cluster_StarkSvgViewBoxModule_declarations</title>
<polygon fill="none" stroke="#000000" points="257,-78 257,-130 447,-130 447,-78 257,-78"/>
</g>
<g id="clust12" class="cluster">
<title>cluster_StarkSvgViewBoxModule_exports</title>
<polygon fill="none" stroke="#000000" points="256,-208 256,-260 448,-260 448,-208 256,-208"/>
</g>
<!-- StarkAppLogoComponent -->
<g id="node1" class="node">
<title>StarkAppLogoComponent</title>
<polygon fill="#ffffb3" stroke="#000000" points="222.0406,-122 57.9594,-122 57.9594,-86 222.0406,-86 222.0406,-122"/>
<text text-anchor="middle" x="140" y="-99.8" font-family="Times,serif" font-size="14.00" fill="#000000">StarkAppLogoComponent</text>
</g>
<!-- StarkAppLogoModule -->
<g id="node2" class="node">
<title>StarkAppLogoModule</title>
<polygon fill="#8dd3c7" stroke="#000000" points="211.2576,-187 208.2576,-191 187.2576,-191 184.2576,-187 68.7424,-187 68.7424,-151 211.2576,-151 211.2576,-187"/>
<text text-anchor="middle" x="140" y="-164.8" font-family="Times,serif" font-size="14.00" fill="#000000">StarkAppLogoModule</text>
</g>
<!-- StarkAppLogoComponent&#45;&gt;StarkAppLogoModule -->
<g id="edge1" class="edge">
<title>StarkAppLogoComponent&#45;&gt;StarkAppLogoModule</title>
<path fill="none" stroke="#000000" d="M140,-122.1061C140,-122.1061 140,-140.991 140,-140.991"/>
<polygon fill="#000000" stroke="#000000" points="136.5001,-140.9909 140,-150.991 143.5001,-140.991 136.5001,-140.9909"/>
</g>
<!-- StarkAppLogoComponent  -->
<g id="node3" class="node">
<title>StarkAppLogoComponent </title>
<polygon fill="#fb8072" stroke="#000000" points="224.04,-252 55.96,-252 55.96,-216 224.04,-216 224.04,-252"/>
<text text-anchor="middle" x="140" y="-229.8" font-family="Times,serif" font-size="14.00" fill="#000000">StarkAppLogoComponent </text>
</g>
<!-- StarkAppLogoModule&#45;&gt;StarkAppLogoComponent  -->
<g id="edge2" class="edge">
<title>StarkAppLogoModule&#45;&gt;StarkAppLogoComponent </title>
<path fill="none" stroke="#000000" stroke-dasharray="5,2" d="M140,-187.1061C140,-187.1061 140,-205.991 140,-205.991"/>
<polygon fill="#000000" stroke="#000000" points="136.5001,-205.9909 140,-215.991 143.5001,-205.991 136.5001,-205.9909"/>
</g>
<!-- StarkSvgViewBoxDirective -->
<g id="node4" class="node">
<title>StarkSvgViewBoxDirective</title>
<polygon fill="#ffffb3" stroke="#000000" points="438.5688,-122 265.4312,-122 265.4312,-86 438.5688,-86 438.5688,-122"/>
<text text-anchor="middle" x="352" y="-99.8" font-family="Times,serif" font-size="14.00" fill="#000000">StarkSvgViewBoxDirective</text>
</g>
<!-- StarkSvgViewBoxModule -->
<g id="node5" class="node">
<title>StarkSvgViewBoxModule</title>
<polygon fill="#8dd3c7" stroke="#000000" points="434.0365,-187 431.0365,-191 410.0365,-191 407.0365,-187 269.9635,-187 269.9635,-151 434.0365,-151 434.0365,-187"/>
<text text-anchor="middle" x="352" y="-164.8" font-family="Times,serif" font-size="14.00" fill="#000000">StarkSvgViewBoxModule</text>
</g>
<!-- StarkSvgViewBoxDirective&#45;&gt;StarkSvgViewBoxModule -->
<g id="edge3" class="edge">
<title>StarkSvgViewBoxDirective&#45;&gt;StarkSvgViewBoxModule</title>
<path fill="none" stroke="#000000" d="M352,-122.1061C352,-122.1061 352,-140.991 352,-140.991"/>
<polygon fill="#000000" stroke="#000000" points="348.5001,-140.9909 352,-150.991 355.5001,-140.991 348.5001,-140.9909"/>
</g>
<!-- StarkSvgViewBoxDirective  -->
<g id="node6" class="node">
<title>StarkSvgViewBoxDirective </title>
<polygon fill="#fb8072" stroke="#000000" points="440.0693,-252 263.9307,-252 263.9307,-216 440.0693,-216 440.0693,-252"/>
<text text-anchor="middle" x="352" y="-229.8" font-family="Times,serif" font-size="14.00" fill="#000000">StarkSvgViewBoxDirective </text>
</g>
<!-- StarkSvgViewBoxModule&#45;&gt;StarkSvgViewBoxDirective  -->
<g id="edge4" class="edge">
<title>StarkSvgViewBoxModule&#45;&gt;StarkSvgViewBoxDirective </title>
<path fill="none" stroke="#000000" stroke-dasharray="5,2" d="M352,-187.1061C352,-187.1061 352,-205.991 352,-205.991"/>
<polygon fill="#000000" stroke="#000000" points="348.5001,-205.9909 352,-215.991 355.5001,-205.991 348.5001,-205.9909"/>
</g>
</g>
</svg>
