<?xml version="1.0" encoding="UTF-8" standalone="no"?>
<!DOCTYPE svg PUBLIC "-//W3C//DTD SVG 1.1//EN"
 "http://www.w3.org/Graphics/SVG/1.1/DTD/svg11.dtd">
<!-- Generated by graphviz version 2.46.0 (20210119.1425)
 -->
<!-- Title: dependencies Pages: 1 -->
<svg width="504pt" height="284pt"
 viewBox="0.00 0.00 504.00 284.00" xmlns="http://www.w3.org/2000/svg" xmlns:xlink="http://www.w3.org/1999/xlink">
<g id="graph0" class="graph" transform="scale(1 1) rotate(0) translate(4 280)">
<title>dependencies</title>
<polygon fill="white" stroke="transparent" points="-4,4 -4,-280 500,-280 500,4 -4,4"/>
<text text-anchor="start" x="227.01" y="-42.4" font-family="sans-serif" font-weight="bold" font-size="14.00">Legend</text>
<polygon fill="#ffffb3" stroke="transparent" points="14,-10 14,-30 34,-30 34,-10 14,-10"/>
<text text-anchor="start" x="37.63" y="-15.4" font-family="sans-serif" font-size="14.00"> &#160;Declarations</text>
<polygon fill="#8dd3c7" stroke="transparent" points="127,-10 127,-30 147,-30 147,-10 127,-10"/>
<text text-anchor="start" x="150.73" y="-15.4" font-family="sans-serif" font-size="14.00"> &#160;Module</text>
<polygon fill="#80b1d3" stroke="transparent" points="213,-10 213,-30 233,-30 233,-10 213,-10"/>
<text text-anchor="start" x="236.78" y="-15.4" font-family="sans-serif" font-size="14.00"> &#160;Bootstrap</text>
<polygon fill="#fdb462" stroke="transparent" points="310,-10 310,-30 330,-30 330,-10 310,-10"/>
<text text-anchor="start" x="333.67" y="-15.4" font-family="sans-serif" font-size="14.00"> &#160;Providers</text>
<polygon fill="#fb8072" stroke="transparent" points="406,-10 406,-30 426,-30 426,-10 406,-10"/>
<text text-anchor="start" x="429.73" y="-15.4" font-family="sans-serif" font-size="14.00"> &#160;Exports</text>
<g id="clust1" class="cluster">
<title>cluster_StarkAppMenuModule</title>
<polygon fill="none" stroke="black" stroke-dasharray="1,5" points="39,-70 39,-268 457,-268 457,-70 39,-70"/>
</g>
<g id="clust2" class="cluster">
<title>cluster_StarkAppMenuModule_declarations</title>
<polygon fill="none" stroke="black" points="51,-78 51,-130 446,-130 446,-78 51,-78"/>
</g>
<g id="clust6" class="cluster">
<title>cluster_StarkAppMenuModule_exports</title>
<polygon fill="none" stroke="black" points="47,-208 47,-260 449,-260 449,-208 47,-208"/>
</g>
<!-- StarkAppMenuComponent -->
<g id="node1" class="node">
<title>StarkAppMenuComponent</title>
<polygon fill="#ffffb3" stroke="black" points="437.65,-122 270.35,-122 270.35,-86 437.65,-86 437.65,-122"/>
<text text-anchor="middle" x="354" y="-99.8" font-family="Times,serif" font-size="14.00">StarkAppMenuComponent</text>
</g>
<!-- StarkAppMenuModule -->
<g id="node3" class="node">
<title>StarkAppMenuModule</title>
<polygon fill="#8dd3c7" stroke="black" points="228.86,-187 225.86,-191 204.86,-191 201.86,-187 83.14,-187 83.14,-151 228.86,-151 228.86,-187"/>
<text text-anchor="middle" x="156" y="-164.8" font-family="Times,serif" font-size="14.00">StarkAppMenuModule</text>
</g>
<!-- StarkAppMenuComponent&#45;&gt;StarkAppMenuModule -->
<g id="edge1" class="edge">
<title>StarkAppMenuComponent&#45;&gt;StarkAppMenuModule</title>
<path fill="none" stroke="black" d="M381.94,-122.02C381.94,-139.37 381.94,-163 381.94,-163 381.94,-163 239.04,-163 239.04,-163"/>
<polygon fill="black" stroke="black" points="239.04,-159.5 229.04,-163 239.04,-166.5 239.04,-159.5"/>
</g>
<!-- StarkAppMenuItemComponent -->
<g id="node2" class="node">
<title>StarkAppMenuItemComponent</title>
<polygon fill="#ffffb3" stroke="black" points="252.8,-122 59.2,-122 59.2,-86 252.8,-86 252.8,-122"/>
<text text-anchor="middle" x="156" y="-99.8" font-family="Times,serif" font-size="14.00">StarkAppMenuItemComponent</text>
</g>
<!-- StarkAppMenuItemComponent&#45;&gt;StarkAppMenuModule -->
<g id="edge2" class="edge">
<title>StarkAppMenuItemComponent&#45;&gt;StarkAppMenuModule</title>
<path fill="none" stroke="black" d="M156,-122.11C156,-122.11 156,-140.99 156,-140.99"/>
<polygon fill="black" stroke="black" points="152.5,-140.99 156,-150.99 159.5,-140.99 152.5,-140.99"/>
</g>
<!-- StarkAppMenuComponent  -->
<g id="node4" class="node">
<title>StarkAppMenuComponent </title>
<polygon fill="#fb8072" stroke="black" points="440.65,-252 269.35,-252 269.35,-216 440.65,-216 440.65,-252"/>
<text text-anchor="middle" x="355" y="-229.8" font-family="Times,serif" font-size="14.00">StarkAppMenuComponent </text>
</g>
<!-- StarkAppMenuModule&#45;&gt;StarkAppMenuComponent  -->
<g id="edge3" class="edge">
<title>StarkAppMenuModule&#45;&gt;StarkAppMenuComponent </title>
<path fill="none" stroke="black" stroke-dasharray="5,2" d="M229.11,-175C275.2,-175 326.06,-175 326.06,-175 326.06,-175 326.06,-205.98 326.06,-205.98"/>
<polygon fill="black" stroke="black" points="322.56,-205.98 326.06,-215.98 329.56,-205.98 322.56,-205.98"/>
</g>
<!-- StarkAppMenuItemComponent  -->
<g id="node5" class="node">
<title>StarkAppMenuItemComponent </title>
<polygon fill="#fb8072" stroke="black" points="251.3,-252 54.7,-252 54.7,-216 251.3,-216 251.3,-252"/>
<text text-anchor="middle" x="153" y="-229.8" font-family="Times,serif" font-size="14.00">StarkAppMenuItemComponent </text>
</g>
<!-- StarkAppMenuModule&#45;&gt;StarkAppMenuItemComponent  -->
<g id="edge4" class="edge">
<title>StarkAppMenuModule&#45;&gt;StarkAppMenuItemComponent </title>
<path fill="none" stroke="black" stroke-dasharray="5,2" d="M156,-187.11C156,-187.11 156,-205.99 156,-205.99"/>
<polygon fill="black" stroke="black" points="152.5,-205.99 156,-215.99 159.5,-205.99 152.5,-205.99"/>
</g>
</g>
</svg>
